<svg width="40" height="33" viewBox="0 0 40 33" fill="none" xmlns="http://www.w3.org/2000/svg">
<path d="M12.3633 0.306641C10.4297 0.970703 9.25781 2.61133 9.25781 4.68164C9.25781 5.94141 9.64844 6.9082 10.5566 7.875C10.8301 8.1582 11.0254 8.40234 11.0059 8.42188C10.9863 8.43164 10.7031 8.62695 10.3711 8.85156C9.0625 9.73047 8.10547 11.2344 7.8418 12.8457C7.8418 12.8555 7.49023 12.9043 7.06055 12.9629C6.03516 13.1094 5.20508 13.5098 4.46289 14.2031C2.62695 15.9609 2.56836 18.8711 4.3457 20.6777L4.91211 21.2539L4.42383 21.5273C3.39844 22.1328 2.35352 23.4121 1.93359 24.623C1.72852 25.209 0.761719 31.127 0.761719 31.791C0.761719 32.0449 0.820312 32.2402 0.9375 32.3379C1.10352 32.4941 2.56836 32.5039 20.0195 32.5039C38.2031 32.5039 38.9258 32.4941 39.0723 32.3281C39.1699 32.2207 39.2383 31.9863 39.2383 31.7812C39.2383 31.1074 38.2715 25.2383 38.0566 24.6035C37.8027 23.8516 37.0312 22.6699 36.4746 22.2012C36.25 22.0059 35.8398 21.7031 35.5762 21.5371L35.0879 21.2344L35.6055 20.7461C36.6113 19.7891 37.1289 18.1973 36.8945 16.7715C36.5527 14.75 34.873 13.1484 32.9199 12.9824L32.1777 12.9238L32.041 12.3867C31.8555 11.625 31.3281 10.5703 30.8496 9.96484C30.498 9.52539 29.6094 8.77344 29.0918 8.48047C28.9648 8.41211 29.0332 8.30469 29.4336 7.875C30.3516 6.89844 30.7422 5.95117 30.7422 4.66211C30.7422 2.73828 29.5898 1.03906 27.832 0.365234C27.1289 0.101562 25.9277 0.0136719 25.1855 0.179688C22.8418 0.697266 21.2695 3.02148 21.6602 5.36523C21.8164 6.26367 22.334 7.28906 22.9492 7.9043C23.2227 8.17773 23.4277 8.40234 23.4082 8.42188C23.3887 8.43164 23.1445 8.58789 22.8613 8.76367C22.2461 9.1543 21.2988 10.1406 20.9473 10.7656C20.6836 11.2344 20.3516 12.1035 20.2441 12.6016C20.2148 12.7871 20.127 12.875 20.0098 12.875C19.8633 12.875 19.7754 12.7188 19.6094 12.1621C19.4922 11.7812 19.2578 11.2051 19.1016 10.8926C18.7109 10.1699 17.8027 9.18359 17.1484 8.76367C16.8652 8.58789 16.6113 8.43164 16.5918 8.42188C16.5723 8.40234 16.7773 8.17773 17.0508 7.9043C18.0469 6.9082 18.5547 5.35547 18.3398 3.97852C17.9102 1.15625 15.0293 -0.601562 12.3633 0.306641ZM15.166 1.85938C16.4062 2.49414 17.1387 3.92969 16.875 5.18945C16.6406 6.35156 15.7324 7.33789 14.5996 7.65039C13.2031 8.04102 11.6699 7.32812 10.9961 5.96094C10.8105 5.58008 10.7715 5.3457 10.7715 4.62305C10.7715 3.83203 10.8008 3.69531 11.0645 3.2168C11.4258 2.57227 12.0508 2.00586 12.7148 1.74219C13.418 1.45898 14.4922 1.51758 15.166 1.85938ZM27.2656 1.74219C27.9395 1.99609 28.5742 2.55273 28.9355 3.2168C29.1992 3.69531 29.2285 3.83203 29.2285 4.62305C29.2285 5.35547 29.1895 5.58008 28.9941 5.98047C28.252 7.49414 26.4355 8.17773 24.9805 7.49414C24.209 7.13281 23.7598 6.70312 23.3984 5.9707C23.0273 5.21875 22.9785 4.42773 23.2617 3.62695C23.5547 2.76758 24.4531 1.91797 25.3711 1.63477C25.8496 1.49805 26.7188 1.54688 27.2656 1.74219ZM14.9707 9.4082C16.25 9.75 17.3047 10.6191 17.8906 11.8203C18.0762 12.2109 18.2617 12.6895 18.291 12.875C18.3496 13.2168 18.3398 13.2266 17.8418 13.4609C16.3867 14.1445 15.332 15.9707 15.4297 17.6699L15.459 18.2461H13.8281H12.1875V17.4746C12.1875 15.7363 11.2207 14.1445 9.75586 13.4414C9.31641 13.2363 9.27734 13.1973 9.33594 12.9238C9.61914 11.3223 11.0254 9.84766 12.6758 9.39844C13.291 9.22266 14.2871 9.23242 14.9707 9.4082ZM27.2168 9.36914C28.7598 9.7207 30.1953 11.1074 30.5859 12.6211C30.6738 12.9434 30.7324 13.207 30.7129 13.207C30.4199 13.3047 29.6289 13.793 29.2773 14.1152C28.3105 14.9844 27.8125 16.127 27.8125 17.4746V18.2461H26.1816H24.541L24.5703 17.6699C24.668 15.9707 23.6133 14.1445 22.1582 13.4609C21.6602 13.2266 21.6504 13.2168 21.709 12.875C21.8945 11.8008 22.9395 10.3848 23.9746 9.81836C24.9121 9.31055 26.2012 9.13477 27.2168 9.36914ZM8.7207 14.6035C9.44336 14.8379 10.332 15.7656 10.5664 16.5273C11.0547 18.0703 10.3223 19.6816 8.85742 20.3457C8.33984 20.5703 8.16406 20.6094 7.50977 20.5703C6.62109 20.5312 6.04492 20.2773 5.43945 19.6816C3.98438 18.2266 4.32617 15.7754 6.12305 14.7891C6.99219 14.3203 7.70508 14.2715 8.7207 14.6035ZM21.2305 14.6816C21.9238 14.9844 22.4805 15.5215 22.8027 16.1758C23.1738 16.918 23.1836 18.0508 22.8516 18.7441C22.5195 19.4082 22.0508 19.9258 21.4551 20.248C20.9766 20.5117 20.8496 20.541 20 20.541C19.1504 20.541 19.0234 20.5117 18.5449 20.248C17.9492 19.9258 17.4805 19.4082 17.1484 18.7441C16.8457 18.1191 16.8359 16.9277 17.1387 16.2832C17.8711 14.6816 19.668 13.9785 21.2305 14.6816ZM33.6328 14.6816C35.1758 15.3652 35.9082 17.25 35.2148 18.7441C34.6973 19.8574 33.7305 20.5117 32.4805 20.5703C31.8359 20.6094 31.6602 20.5801 31.1621 20.3555C30.0098 19.8184 29.375 18.9004 29.2969 17.6504C29.2578 16.9863 29.2871 16.8301 29.5117 16.332C30.2734 14.6523 32.0312 13.959 33.6328 14.6816ZM16.1328 19.9844C16.2109 20.1309 16.4941 20.4727 16.7676 20.7461L17.2559 21.2344L16.6309 21.6445C14.9902 22.7285 14.0527 24.4863 13.8379 26.8887C13.8379 26.9375 13.75 26.5469 13.6523 26.0098C13.4473 24.8379 13.1836 24.125 12.6855 23.3633C12.2754 22.7188 11.3184 21.791 10.7422 21.4688L10.3711 21.2539L10.9277 20.6875C11.2305 20.375 11.5137 20.0234 11.5527 19.916C11.6113 19.7207 11.6797 19.7109 13.7988 19.7109H15.9863L16.1328 19.9844ZM28.4473 19.916C28.4863 20.0234 28.7695 20.375 29.082 20.6973L29.6484 21.2734L29.2773 21.4688C28.7305 21.752 27.7344 22.6992 27.3145 23.3633C26.8164 24.125 26.5527 24.8379 26.3477 26.0098L26.1816 26.9863L26.1035 26.498C25.9863 25.6582 25.7422 24.6621 25.5566 24.2324C25.1172 23.207 24.1113 22.0645 23.1543 21.498L22.7246 21.2441L23.2227 20.7461C23.5059 20.4727 23.7891 20.1309 23.8672 19.9746L24.0137 19.7109H26.2012C28.3203 19.7109 28.3887 19.7207 28.4473 19.916ZM8.28125 22.1621C9.91211 22.416 11.3379 23.5586 11.8945 25.043C12.002 25.3457 12.2754 26.7227 12.4902 28.0996C12.6953 29.4766 12.9004 30.7168 12.9297 30.8633L12.9883 31.1367H7.65625C3.45703 31.1367 2.32422 31.1074 2.32422 31.0098C2.33398 30.4531 3.22266 25.4043 3.38867 24.9844C3.79883 23.9102 4.99023 22.748 6.06445 22.3867C6.44531 22.2598 7.11914 22.1133 7.54883 22.0645C7.60742 22.0645 7.92969 22.1035 8.28125 22.1621ZM21.3379 22.3184C22.3535 22.6016 23.5449 23.5879 24.0332 24.5645C24.3945 25.2773 24.4727 25.5996 24.9219 28.4707L25.332 31.1367H20H14.668L15.0781 28.4707C15.3125 27.0156 15.5469 25.6387 15.6055 25.4238C16.1133 23.7148 17.5977 22.4258 19.3652 22.1523C19.9512 22.0645 20.6445 22.123 21.3379 22.3184ZM33.5254 22.2695C34.9707 22.6309 36.2793 23.8711 36.6992 25.2676C36.8555 25.7656 37.6758 30.6582 37.6758 31.0488C37.6758 31.0977 35.3809 31.1367 32.3438 31.1367H27.0117L27.0703 30.8633C27.0996 30.7168 27.3047 29.4766 27.5098 28.0996C27.9395 25.3457 28.1152 24.7695 28.7402 23.9297C29.8535 22.4453 31.6992 21.8008 33.5254 22.2695Z" fill="#30A9E0"/>
</svg>
