<svg width="56" height="56" viewBox="0 0 56 56" fill="none" xmlns="http://www.w3.org/2000/svg">
                                    <circle cx="28" cy="28" r="28" fill="white"/>
                                    <path d="M19.9531 11.1547C19.5341 11.348 19.1797 11.7025 18.9863 12.1215C18.8509 12.4115 18.8316 12.5469 18.8316 13.2043V13.9648H17.6263C16.4855 13.9648 16.3953 13.9777 16.0859 14.1195C15.6605 14.3193 15.3125 14.6738 15.1062 15.1121C14.9515 15.4602 14.9451 15.4924 14.9838 16.5365C15.0547 18.4637 15.4929 19.9525 16.4146 21.3834C17.1429 22.5178 18.4771 23.549 19.6888 23.9293C20.0691 24.0453 20.0691 24.0453 20.3269 24.5609C20.9779 25.8629 21.9254 27.1713 22.9502 28.1896C23.5947 28.8277 23.9363 29.1178 25.0127 29.9492C25.3929 30.2393 25.5154 30.3811 25.683 30.7227L25.8892 31.1416L25.9086 33.0752L25.9343 35.0088L25.6185 35.1184C24.7549 35.4277 23.9879 36.459 23.9879 37.3227V37.5547H23.4271C22.9695 37.5547 22.7955 37.5869 22.5312 37.7094C22.1123 37.9027 21.7578 38.2572 21.5644 38.6762C21.4097 39.0049 21.4097 39.0178 21.4097 41.3316V43.6584L21.5773 43.8324L21.7513 44H28.4996H35.2478L35.4218 43.8324L35.5894 43.6584V41.3316C35.5894 39.0178 35.5894 39.0049 35.4347 38.6762C35.2414 38.2572 34.8869 37.9027 34.4679 37.7094C34.2037 37.5869 34.0297 37.5547 33.5849 37.5547H33.0306L32.992 37.1809C32.9597 36.7619 32.7277 36.227 32.4377 35.8725C32.2056 35.5889 31.6578 35.2215 31.3162 35.1055L31.0648 35.0281L31.0906 33.0816L31.1099 31.1416L31.3162 30.7227C31.4838 30.3811 31.6062 30.2393 31.9865 29.9492C33.0758 29.1113 33.4367 28.8084 34.0619 28.1768C35.0738 27.1648 36.0213 25.85 36.6722 24.5609C36.93 24.0453 36.93 24.0453 37.3103 23.9293C38.5349 23.5426 39.8498 22.5242 40.5781 21.3898C41.5062 19.9525 41.9445 18.4701 42.0154 16.5365C42.0541 15.4924 42.0476 15.4602 41.8929 15.1121C41.6867 14.6738 41.3386 14.3193 40.9133 14.1195C40.6039 13.9777 40.5136 13.9648 39.3793 13.9648H38.1675V13.2043C38.1675 12.5469 38.1482 12.4115 38.0129 12.1215C37.8195 11.7025 37.465 11.348 37.0461 11.1547L36.7174 11H28.4996H20.2818L19.9531 11.1547ZM36.5304 12.4115C36.8463 12.6178 36.8463 12.6307 36.8656 15.125C36.8978 18.9406 36.7625 20.423 36.2082 22.0924C35.5508 24.1098 34.4808 25.8307 32.9984 27.2873C32.2959 27.977 32.1863 28.0736 31.2775 28.7568C30.4976 29.3498 30.1302 29.8203 29.9175 30.5035C29.7951 30.9031 29.7886 31.0965 29.7886 33.4297V35.924L29.9498 36.0916C30.0658 36.2076 30.2205 36.2656 30.4525 36.2979C30.6394 36.3236 30.9101 36.4139 31.0584 36.4977C31.3613 36.6717 31.6578 37.11 31.6578 37.3807V37.5547H28.4996H25.3414V37.3807C25.3414 37.11 25.6379 36.6717 25.9408 36.4977C26.089 36.4139 26.3597 36.3236 26.5466 36.2979C26.7787 36.2656 26.9334 36.2076 27.0494 36.0916L27.2105 35.924V33.4297C27.2105 31.0965 27.2041 30.9031 27.0816 30.5035C26.8689 29.8203 26.5015 29.3498 25.7217 28.7568C24.8129 28.0736 24.7033 27.977 24.0008 27.2873C21.6933 25.0314 20.3914 22.1117 20.1851 18.7924C20.1142 17.6322 20.0949 13.1979 20.1593 12.8756C20.2045 12.6436 20.4558 12.3729 20.6556 12.3342C20.733 12.3213 24.3101 12.3084 28.5963 12.3148C35.1576 12.3213 36.4144 12.3342 36.5304 12.4115ZM18.8509 17.5871C18.8832 20.0621 18.909 20.2941 19.2506 21.6605C19.3408 22.0086 19.4052 22.3051 19.3924 22.318C19.3472 22.3631 18.606 21.8152 18.2644 21.4865C17.0785 20.3393 16.3179 18.309 16.3179 16.2916C16.3179 15.6986 16.3308 15.6471 16.4855 15.4924C16.6982 15.2797 16.7433 15.2732 17.8777 15.2604L18.8187 15.2539L18.8509 17.5871ZM40.1592 15.2926C40.2687 15.3184 40.4299 15.4086 40.5201 15.4988C40.6683 15.6471 40.6812 15.6986 40.6812 16.2916C40.6812 18.309 39.9207 20.3393 38.7347 21.4865C38.3931 21.8152 37.6519 22.3631 37.6068 22.318C37.5939 22.3051 37.6584 22.0086 37.7486 21.6605C38.0902 20.2941 38.116 20.0621 38.1482 17.5871L38.1804 15.2539H39.0699C39.5533 15.2539 40.0431 15.2732 40.1592 15.2926ZM33.9523 38.9662C34.2552 39.166 34.2681 39.2305 34.2875 41.0158L34.3068 42.7109H28.506H22.6988V41.1705C22.6988 40.3262 22.7181 39.5463 22.7375 39.4303C22.7826 39.1982 23.034 38.9275 23.2338 38.8889C23.3111 38.8695 25.7281 38.8631 28.5963 38.8695C32.9533 38.876 33.8363 38.8889 33.9523 38.9662Z" fill="#30A9E0"/>
                                    <path d="M28.0674 15.0219C27.9578 15.1186 27.642 15.6664 27.2488 16.4656L26.6107 17.7482L25.2121 17.948C24.4451 18.0576 23.7426 18.1801 23.6459 18.2252C23.4203 18.3283 23.2527 18.6828 23.3043 18.96C23.3365 19.1275 23.575 19.3982 24.4193 20.2168L25.4893 21.2609L25.2379 22.724C25.0188 24.0324 24.9994 24.2064 25.0768 24.3934C25.1734 24.6254 25.4313 24.793 25.702 24.793C25.7986 24.793 26.4432 24.49 27.1586 24.1162C27.8676 23.7424 28.4606 23.4395 28.4734 23.4395C28.4928 23.4395 29.06 23.7295 29.7367 24.0904C30.4135 24.4449 31.0645 24.7543 31.174 24.7736C31.4125 24.8123 31.7477 24.6641 31.8508 24.4771C31.9539 24.2773 31.9281 23.968 31.6897 22.5822L31.4641 21.2867L32.5598 20.1846C33.5072 19.2307 33.6555 19.0566 33.6555 18.8826C33.6555 18.599 33.5588 18.3734 33.3848 18.2574C33.301 18.1994 32.6307 18.077 31.7799 17.9545L30.3168 17.7482L29.6594 16.4012C29.1309 15.3248 28.9633 15.0412 28.8215 14.9639C28.5508 14.8221 28.2801 14.8479 28.0674 15.0219ZM28.9117 17.9416C29.1373 18.3992 29.3822 18.8182 29.4531 18.8826C29.5498 18.9729 29.8463 19.0437 30.5231 19.1404C31.0387 19.2178 31.4641 19.2951 31.4641 19.3145C31.4641 19.3402 31.1611 19.6496 30.7938 20.0105C30.3555 20.4359 30.1106 20.726 30.0848 20.8484C30.0461 20.9967 30.1943 22.0602 30.3426 22.7176C30.3684 22.8529 30.291 22.8271 29.4918 22.4146C29.002 22.1633 28.5508 21.957 28.4863 21.957C28.4219 21.957 27.9772 22.1568 27.5002 22.3953C26.9008 22.7047 26.6301 22.8143 26.6301 22.7434C26.6301 22.6982 26.6881 22.2922 26.7654 21.8539C26.8428 21.3963 26.8815 20.9516 26.8621 20.8291C26.8299 20.6615 26.6688 20.4682 26.1338 19.959C25.76 19.6045 25.4635 19.3016 25.4764 19.2887C25.4893 19.2822 25.8824 19.2178 26.34 19.1533C27.5711 18.9857 27.5131 19.0244 28.0287 17.9996C28.2672 17.5162 28.4734 17.123 28.4799 17.123C28.4928 17.123 28.6861 17.4904 28.9117 17.9416Z" fill="#30A9E0"/>
                                    <path d="M25.4449 40.3004C25.3096 40.4357 25.2773 40.5324 25.2773 40.7773C25.2773 41.0223 25.3096 41.1189 25.4449 41.2543L25.6189 41.4219H27.2109H28.8029L28.977 41.2543C29.2154 41.0094 29.2154 40.5453 28.977 40.3004L28.8029 40.1328H27.2109H25.6189L25.4449 40.3004Z" fill="#30A9E0"/>
                                    <path d="M30.6012 40.3004C30.4658 40.4357 30.4336 40.5324 30.4336 40.7773C30.4336 41.2027 30.6527 41.4219 31.0781 41.4219C31.5035 41.4219 31.7227 41.2027 31.7227 40.7773C31.7227 40.352 31.5035 40.1328 31.0781 40.1328C30.8332 40.1328 30.7365 40.165 30.6012 40.3004Z" fill="#30A9E0"/>
                                </svg>