<svg width="46" height="46" viewBox="0 0 46 46" fill="none" xmlns="http://www.w3.org/2000/svg">
                                    <circle cx="23" cy="23" r="23" fill="#F5F5F5"/>
                                    <path d="M18.4706 9.92599C18.1365 10.1299 18.0628 10.3281 18.0628 11.0135V11.6252H17.1736C16.6242 11.6252 16.1314 11.6592 15.9048 11.7045C15.0326 11.8914 14.1886 12.3785 13.5486 13.0582C12.8179 13.8399 12.4441 14.7404 12.3478 15.9299C12.2119 17.6348 12.1609 20.1213 12.1892 23.5934C12.2232 27.6432 12.3195 29.6143 12.512 30.3166C12.9425 31.8459 14.2169 33.1033 15.7349 33.4941C16.6638 33.732 20.0622 33.851 24.6501 33.8113C28.632 33.7717 30.5521 33.6811 31.2827 33.4941C32.7951 33.0977 34.0978 31.7893 34.4943 30.2656C34.6812 29.5463 34.7718 27.6035 34.8115 23.6613C34.8398 20.1836 34.7945 17.7141 34.6529 15.9582C34.5566 14.7404 34.1884 13.8512 33.4521 13.0582C32.812 12.3785 31.9681 11.8914 31.0958 11.7045C30.8693 11.6592 30.3765 11.6252 29.8327 11.6252H28.9378V11.0135C28.9378 10.3281 28.8642 10.1299 28.53 9.92599C28.2751 9.77306 27.788 9.77306 27.5331 9.92599C27.199 10.1299 27.1253 10.3281 27.1253 11.0135V11.6252H23.5003H19.8753V11.0135C19.8753 10.5094 19.8583 10.3791 19.762 10.2205C19.5921 9.94864 19.3372 9.8127 18.9691 9.8127C18.7595 9.8127 18.5952 9.84669 18.4706 9.92599ZM18.0628 14.0438C18.0628 14.7348 18.1365 14.933 18.4706 15.1369C18.7255 15.2899 19.2126 15.2899 19.4675 15.1369C19.8017 14.933 19.8753 14.7348 19.8753 14.0438V13.4377H23.5003H27.1253V14.0438C27.1253 14.5535 27.1423 14.6838 27.2386 14.8424C27.4085 15.1143 27.6634 15.2502 28.0316 15.2502C28.3997 15.2502 28.6546 15.1143 28.8245 14.8424C28.9208 14.6838 28.9378 14.5535 28.9378 14.0381V13.4207L29.7478 13.4547C30.9316 13.5 31.5433 13.7436 32.104 14.3779C32.5742 14.916 32.7611 15.4428 32.8177 16.4227L32.8517 17.0627H23.5003H14.149L14.1829 16.4227C14.2396 15.4428 14.4265 14.916 14.8966 14.3779C15.0326 14.225 15.2704 14.0211 15.429 13.9191C15.9954 13.5567 16.4316 13.4604 17.4851 13.4434L18.0628 13.4377V14.0438ZM32.931 19.2434C32.9933 19.7871 32.9253 26.7596 32.8517 28.1076C32.812 28.7477 32.7441 29.45 32.6988 29.6709C32.4949 30.6565 31.6566 31.4947 30.671 31.6986C29.0058 32.0498 17.9949 32.0498 16.3296 31.6986C15.3441 31.4947 14.5058 30.6565 14.3019 29.6709C14.2566 29.45 14.1886 28.759 14.149 28.1359C14.0753 26.8219 14.0074 19.7928 14.0697 19.2434L14.1093 18.8752H23.5003H32.8913L32.931 19.2434Z" fill="#30A9E0"/>
                                    <path d="M18.374 21.7014C17.8813 21.9279 17.6094 22.3811 17.6094 22.9645C17.615 23.7688 18.1588 24.3125 18.9688 24.3125C19.7844 24.3125 20.3281 23.7688 20.3281 22.9531C20.3281 22.3641 20.0279 21.8939 19.5238 21.6844C19.2293 21.5598 18.6572 21.5711 18.374 21.7014Z" fill="#30A9E0"/>
                                    <path d="M22.9053 21.7014C22.4125 21.9279 22.1406 22.3811 22.1406 22.9645C22.1463 23.7688 22.69 24.3125 23.5 24.3125C24.3156 24.3125 24.8594 23.7688 24.8594 22.9531C24.8594 22.3641 24.5592 21.8939 24.0551 21.6844C23.7605 21.5598 23.1885 21.5711 22.9053 21.7014Z" fill="#30A9E0"/>
                                    <path d="M27.4365 21.7014C26.9438 21.9279 26.6719 22.3811 26.6719 22.9645C26.6775 23.7688 27.2213 24.3125 28.0312 24.3125C28.8469 24.3125 29.3906 23.7688 29.3906 22.9531C29.3906 22.3641 29.0904 21.8939 28.5863 21.6844C28.2918 21.5598 27.7197 21.5711 27.4365 21.7014Z" fill="#30A9E0"/>
                                    <path d="M18.374 26.2326C17.8813 26.4592 17.6094 26.9123 17.6094 27.4957C17.615 28.3 18.1588 28.8438 18.9688 28.8438C19.7844 28.8438 20.3281 28.3 20.3281 27.4844C20.3281 26.8953 20.0279 26.4252 19.5238 26.2156C19.2293 26.091 18.6572 26.1023 18.374 26.2326Z" fill="#30A9E0"/>
                                    <path d="M22.9053 26.2326C22.4125 26.4592 22.1406 26.9123 22.1406 27.4957C22.1463 28.3 22.69 28.8438 23.5 28.8438C24.3156 28.8438 24.8594 28.3 24.8594 27.4844C24.8594 26.8953 24.5592 26.4252 24.0551 26.2156C23.7605 26.091 23.1885 26.1023 22.9053 26.2326Z" fill="#30A9E0"/>
                                    <path d="M27.4365 26.2326C26.9438 26.4592 26.6719 26.9123 26.6719 27.4957C26.6775 28.3 27.2213 28.8438 28.0312 28.8438C28.8469 28.8438 29.3906 28.3 29.3906 27.4844C29.3906 26.8953 29.0904 26.4252 28.5863 26.2156C28.2918 26.091 27.7197 26.1023 27.4365 26.2326Z" fill="#30A9E0"/>
                                </svg>