<svg width="45" height="45" viewBox="0 0 45 45" fill="none" xmlns="http://www.w3.org/2000/svg">
                                        <path d="M6.85547 0.0615311C4.08691 0.53614 1.58203 2.56641 0.536133 5.18555C0.0439453 6.4336 0 6.86427 0 10.5029C0 13.166 0.0263672 13.9395 0.140625 14.4756C0.632812 16.8838 2.31152 19.0459 4.52637 20.1445C5.24707 20.5049 6.07324 20.7861 6.80273 20.9092C7.13672 20.9707 9.76465 21.0059 14.124 21.0059H20.918V25.418L20.9092 29.8389L20.6982 29.4873C20.584 29.294 20.4258 28.8721 20.3467 28.5381C20.1709 27.7734 19.9688 27.3779 19.5381 26.9736C18.8174 26.2881 17.9209 26.0508 17.0068 26.3232C15.627 26.7188 14.8447 27.9053 14.9766 29.3906C15.1963 31.7373 16.0049 33.8291 17.376 35.6221C17.6045 35.9209 18.6768 37.0635 19.749 38.1621C21.5156 39.9551 21.7441 40.2188 22.0254 40.8076C22.2803 41.3613 22.3506 41.625 22.4209 42.3809C22.5264 43.5322 22.6143 43.7959 23.0625 44.2793C23.748 45.0264 23.4492 45 29.2236 45H34.3213L34.7607 44.7891C35.0068 44.6748 35.3145 44.4551 35.4463 44.2969C35.9736 43.6729 35.9824 43.6553 36.0439 41.0449C36.1143 38.417 36.1494 38.2149 36.6768 37.0371C37.4766 35.2529 37.5469 34.6729 37.5117 30.2344L37.4854 26.6748L37.2744 26.2441C37.0107 25.708 36.5098 25.2158 35.9648 24.9522C35.3848 24.6709 34.4004 24.6621 33.8027 24.9434L33.3721 25.1367L33.0117 24.7764C32.8096 24.5742 32.4404 24.3106 32.1768 24.1875C31.7725 24.0029 31.623 23.9766 30.9902 24.0117C30.5068 24.0381 30.1641 24.1084 29.9355 24.2315L29.5928 24.4072L29.2852 24.0645C28.793 23.5195 28.2041 23.2559 27.4658 23.2559C27.1318 23.2471 26.7188 23.2822 26.5693 23.3174L26.2793 23.3965V22.2012V21.0059H31.9746C35.5693 21.0059 37.8633 20.9707 38.1973 20.9092C40.9219 20.4346 43.3037 18.5361 44.376 15.9961C44.9473 14.669 44.9473 14.6777 44.9824 10.8193C45.0088 7.79591 44.9912 7.16309 44.8682 6.56544C44.2266 3.40137 41.625 0.791023 38.4697 0.140633C37.8721 0.0175858 36.0967 7.62939e-06 22.4385 0.00879669C13.9922 0.0175858 6.97852 0.0439529 6.85547 0.0615311ZM38.8037 1.87208C39.832 2.23243 40.6406 2.75098 41.4492 3.55079C42.249 4.35938 42.7676 5.16798 43.1279 6.1963L43.374 6.89942L43.4004 10.1953C43.4355 13.7637 43.4004 14.1065 42.9697 15.1875C42.3633 16.7168 41.2119 17.9736 39.7354 18.7207C38.3906 19.4063 38.7861 19.3711 32.1943 19.4063L26.2881 19.4326L26.2617 17.0332C26.2354 14.6777 26.2354 14.625 26.0156 14.2031C25.7256 13.6406 25.0664 13.0606 24.5039 12.8672C23.9238 12.6738 22.9482 12.7354 22.4561 12.9902C21.9727 13.2363 21.4014 13.8428 21.1641 14.3701C20.9795 14.7832 20.9619 14.9414 20.9355 17.1211L20.9004 19.4326L13.9043 19.4063C7.0752 19.3711 6.88184 19.3711 6.36328 19.1865C4.30664 18.4922 2.77734 17.0772 2.03027 15.1875C1.59961 14.1065 1.56445 13.7637 1.59961 10.1953L1.62598 6.89942L1.87207 6.1963C2.20605 5.24708 2.71582 4.41212 3.40137 3.68262C4.32422 2.70704 5.34375 2.10059 6.63574 1.75782C7.22461 1.59962 7.88379 1.59083 22.6758 1.60841L38.1006 1.62598L38.8037 1.87208ZM24.3281 14.625L24.6533 14.9238L24.6973 20.54C24.7236 23.625 24.7764 26.2178 24.8203 26.3057C24.9258 26.5254 25.1631 26.6309 25.5322 26.6309C25.9102 26.6309 26.2793 26.3057 26.2793 25.9717C26.2793 25.1016 27.1934 24.5303 27.8613 24.9785C28.292 25.2686 28.4766 25.6816 28.4766 26.3672C28.4854 26.9561 28.5645 27.1494 28.8896 27.3164C29.3906 27.5889 30.0586 27.1934 30.0586 26.6309C30.0586 26.0508 30.5508 25.5762 31.1484 25.5762C31.3857 25.5762 31.5527 25.6465 31.79 25.875C32.1064 26.165 32.124 26.2002 32.1768 26.9385C32.2471 27.8701 32.4229 28.125 33.0029 28.125C33.4512 28.125 33.7061 27.8789 33.7939 27.3779C33.873 26.9209 34.04 26.666 34.3916 26.4551C34.7432 26.2354 34.9453 26.2354 35.3232 26.4375C35.9385 26.7715 35.9473 26.8066 35.9473 30.542C35.9473 34.3828 35.8857 34.8926 35.2441 36.3076C35.042 36.7647 34.8223 37.3096 34.752 37.5293C34.5498 38.1973 34.4531 39.4277 34.4531 41.2471C34.4531 42.9785 34.4531 42.9873 34.2334 43.1982L34.0225 43.418H29.2412H24.46L24.2754 43.2158C24.1436 43.0752 24.0732 42.8555 24.0381 42.4072C23.8447 40.2275 23.5283 39.6914 20.9268 37.0459C19.8809 35.9824 18.8438 34.875 18.624 34.585C17.4727 33.0557 16.8311 31.4824 16.6025 29.6016C16.5234 28.9336 16.5322 28.793 16.6641 28.5205C16.9541 27.9053 17.5781 27.6416 18.123 27.8965C18.501 28.0811 18.624 28.2832 18.8174 29.0742C19.0371 29.9356 19.4502 30.7002 20.0215 31.2627C20.9268 32.168 21.8408 32.4932 22.2979 32.0625L22.5 31.8779V23.7393C22.5 19.0811 22.5352 15.4512 22.5879 15.249C22.7021 14.7393 23.1768 14.3262 23.6426 14.3262C23.9238 14.3262 24.0645 14.3877 24.3281 14.625Z" fill="#30A9E0"/>
                                        <path d="M23.5723 4.54394C23.5107 4.57031 23.4053 4.70215 23.335 4.83398C23.2295 5.04492 23.2031 5.55469 23.2031 7.55859V10.0371L23.458 10.292C23.6338 10.4678 23.8008 10.5469 23.9941 10.5469C24.1875 10.5469 24.3545 10.4678 24.5303 10.292L24.7852 10.0371V7.4707V4.91309L24.5654 4.70215C24.3633 4.49121 23.8887 4.41211 23.5723 4.54394Z" fill="#30A9E0"/>
                                        <path d="M5.44922 6.16999C5.23828 6.28425 4.93945 6.52155 4.79883 6.70612L4.52637 7.0489V10.503V13.9571L4.79883 14.2999C5.30859 14.9415 6.19629 15.1964 6.88184 14.9063C7.18066 14.7833 11.1445 12.0675 11.5049 11.7423C11.7949 11.4874 12.041 10.9161 12.041 10.503C12.041 10.0899 11.7949 9.52741 11.5049 9.25495C11.1533 8.93854 7.18066 6.22272 6.88184 6.09968C6.45996 5.91511 5.88867 5.95026 5.44922 6.16999ZM8.34082 8.99128C9.47461 9.7735 10.3975 10.4503 10.3887 10.503C10.3887 10.6085 6.32812 13.4385 6.17871 13.4473C6.09082 13.4473 6.06445 12.8057 6.06445 10.503C6.06445 8.20026 6.09082 7.55866 6.17871 7.55866C6.23145 7.56745 7.20703 8.20905 8.34082 8.99128Z" fill="#30A9E0"/>
                                        <path d="M16.9632 6.74124C16.5413 6.89944 16.3304 7.45315 16.5325 7.83108C16.7786 8.2969 19.8109 11.7862 20.0042 11.8301C20.7952 12.0323 21.3226 11.1533 20.8128 10.4942C20.4173 9.9844 17.8685 6.98733 17.7366 6.88186C17.5784 6.74124 17.1478 6.67093 16.9632 6.74124Z" fill="#30A9E0"/>
                                        <path d="M30.4453 6.75874C30.2695 6.83785 29.7773 7.40035 27.7031 9.87007C27.0615 10.6259 26.9824 10.7666 26.9824 11.0742C26.9824 11.6191 27.4482 11.9619 27.9932 11.83C28.1338 11.7949 28.749 11.1269 29.7686 9.92281C30.6299 8.90328 31.377 7.98042 31.4385 7.88374C31.7988 7.24214 31.1221 6.47749 30.4453 6.75874Z" fill="#30A9E0"/>
                                        <path d="M13.816 14.2998C13.7544 14.3262 13.649 14.458 13.5699 14.6074C13.4029 14.9414 13.4644 15.3809 13.7193 15.6094C13.8951 15.7676 14.0796 15.7764 16.4791 15.7764H19.0543L19.2828 15.5654C19.5904 15.2754 19.5992 14.7568 19.2916 14.458L19.0806 14.2383L16.5054 14.2471C15.0904 14.2471 13.8775 14.2734 13.816 14.2998Z" fill="#30A9E0"/>
                                        <path d="M28.6962 14.458C28.4061 14.7393 28.4061 15.1963 28.6874 15.5303L28.8983 15.7764H31.5087H34.119L34.33 15.5303C34.6112 15.1963 34.6112 14.7393 34.3212 14.458L34.1102 14.2383H31.5087H28.9071L28.6962 14.458Z" fill="#30A9E0"/>
                                    </svg>