<svg width="110" height="110" viewBox="0 0 110 110" fill="none" xmlns="http://www.w3.org/2000/svg">
                                <circle cx="55" cy="55" r="55" fill="#30A9E0"/>
                                <g clip-path="url(#clip0_45_477)">
                                <path d="M50.7952 25.1311C47.8643 25.5838 44.8739 26.8229 42.4673 28.61C41.3354 29.444 39.4054 31.4217 38.5714 32.5893C37.1536 34.5908 36.0337 37.1524 35.4856 39.702C35.1044 41.4652 35.1044 45.1229 35.4976 46.9219C36.2958 50.6391 37.8923 53.6057 40.5729 56.2863C42.1933 57.9186 43.6706 58.967 45.6483 59.8963C47.352 60.6945 47.7929 60.8137 48.2694 60.6231C48.9128 60.349 49.1034 59.4674 48.6507 58.9313C48.5554 58.824 48.055 58.5619 47.5427 58.3594C46.4823 57.9305 44.8382 57.025 43.9446 56.3578L43.3489 55.917L43.4085 54.7137C43.5157 52.8432 44.0876 51.342 45.2552 49.9242C45.7317 49.3404 46.8993 48.435 47.6261 48.0775L48.1384 47.8274L49.0558 48.3158C50.6642 49.1617 51.5101 49.3643 53.4997 49.3643C55.4893 49.3643 56.3352 49.1617 57.9436 48.3158L58.861 47.8274L59.3733 48.0775C60.1001 48.435 61.2677 49.3404 61.7442 49.9242C62.9118 51.342 63.4837 52.8432 63.5909 54.7137L63.6505 55.917L62.888 56.477C61.9706 57.1441 60.672 57.859 59.4567 58.3594C58.3011 58.8359 58.1462 58.9908 58.1462 59.6342C58.1462 60.6111 58.8015 60.9209 59.969 60.5039C64.6036 58.824 68.7259 54.7733 70.5845 50.0791C72.1452 46.0879 72.2643 41.3938 70.8704 37.3311C69.0952 32.1127 64.9491 27.907 59.695 26.0127C57.7173 25.3098 56.4901 25.0953 53.9167 25.0596C52.6061 25.0358 51.2003 25.0715 50.7952 25.1311ZM56.2995 27.3352C60.1835 27.9785 63.9841 30.3137 66.4265 33.5662C67.3796 34.8053 68.6425 37.3191 69.0356 38.725C69.8934 41.7274 69.8934 44.8607 69.0356 47.8512C68.6186 49.3047 67.4868 51.5803 66.5218 52.8551L65.7116 53.9393L65.6282 53.2959C65.2827 50.6748 63.4003 47.875 61.077 46.5049L60.5409 46.1951L60.9579 45.659C61.4702 44.9799 62.1255 43.6217 62.3876 42.6924C62.6735 41.6559 62.7331 39.4399 62.5186 38.3795C62.1136 36.509 61.363 35.127 59.9333 33.6973C59.1708 32.9348 58.6823 32.5535 57.9675 32.1842C56.371 31.3621 55.6681 31.1715 53.9167 31.1119C51.9151 31.0404 50.9977 31.2191 49.3298 32.0412C48.2456 32.5774 47.9358 32.8037 46.9946 33.7568C46.0415 34.71 45.827 34.9959 45.3028 36.0801C44.4927 37.7719 44.2782 38.7965 44.3616 40.6551C44.445 42.6686 44.9811 44.2531 46.0415 45.6471L46.4585 46.1951L45.9224 46.5049C43.5991 47.8631 41.7167 50.6748 41.3712 53.2959L41.2878 53.9393L40.5491 52.9623C39.1671 51.1395 38.1663 48.9234 37.6421 46.5645C37.237 44.7654 37.237 41.8107 37.6302 40.0236C38.3688 36.7234 39.739 34.2334 42.1218 31.8506C45.9343 28.0262 50.9263 26.4416 56.2995 27.3352ZM54.9532 33.3518C56.9429 33.7568 58.9087 35.3057 59.7903 37.1643C60.8149 39.3088 60.803 41.2865 59.7308 43.4668C58.8849 45.2063 56.8833 46.7551 54.9532 47.1482C50.6522 48.0299 46.4704 44.6582 46.4704 40.2857C46.4704 39.0943 46.6491 38.3318 47.2091 37.1643C48.0669 35.3533 49.9136 33.8641 51.8556 33.3875C52.6538 33.1969 54.1311 33.185 54.9532 33.3518Z" fill="white"/>
                                <path d="M33.7227 55.8336C33.3533 56.0242 33.127 56.3936 31.8164 58.967L30.3271 61.874L27.2891 62.3029C25.4424 62.5651 24.0842 62.8153 23.8578 62.9344C23.2979 63.2203 23 63.7684 23 64.5309C23 64.8764 23.0596 65.2815 23.1311 65.4244C23.2025 65.5674 24.2629 66.6516 25.4781 67.843L27.6941 69.9875L27.1937 72.966C26.9197 74.5983 26.6934 76.0399 26.6934 76.159C26.6934 76.6356 27.1699 77.3742 27.6346 77.6363C28.5162 78.1367 28.8141 78.0533 31.9236 76.4569L34.7354 75.0153L37.3564 76.3973C40.2516 77.9223 40.6328 78.0295 41.1689 77.4815C41.5621 77.1002 41.574 76.4688 41.2047 76.0756C40.9187 75.7658 35.4383 72.8707 34.8783 72.7278C34.6162 72.6682 34.0443 72.9065 31.7568 74.086C30.2199 74.8723 28.957 75.5037 28.957 75.4918C28.957 75.468 29.1715 74.217 29.4336 72.7158C29.6957 71.2028 29.9102 69.785 29.9102 69.5348C29.9102 69.1297 29.7791 68.9748 27.6822 66.9494C26.467 65.758 25.49 64.7692 25.5139 64.7453C25.5377 64.7334 26.8482 64.5309 28.4209 64.3164C29.9936 64.102 31.4232 63.8518 31.6139 63.7565C31.876 63.6254 32.2215 63.0178 33.3295 60.8256L34.7115 58.0615L36.0936 60.8375C36.8799 62.434 37.5709 63.6731 37.7139 63.7565C37.9641 63.8875 43.8734 64.7811 44.5883 64.793C45.184 64.793 45.3746 64.6977 45.5771 64.3045C45.8273 63.8279 45.8035 63.4229 45.4818 63.0535C45.2197 62.7557 45.0648 62.7199 42.1459 62.291C40.466 62.0528 39.0602 61.8264 39.0244 61.7906C38.9887 61.7549 38.3453 60.492 37.5947 58.9789C36.4271 56.608 36.177 56.191 35.7838 55.9289C35.2357 55.5477 34.3422 55.5119 33.7227 55.8336Z" fill="white"/>
                                <path d="M71.2282 55.917C70.847 56.1672 70.5968 56.6199 69.4173 59.0146C68.6667 60.5516 68.0353 61.8145 68.0114 61.8264C67.9876 61.8264 66.5937 62.0289 64.9019 62.2791C61.5183 62.7795 61.423 62.8152 61.2919 63.6135C61.1847 64.2211 61.6851 64.793 62.2927 64.793C63.0433 64.7811 69.0599 63.8756 69.3339 63.7207C69.5126 63.6254 70.0487 62.6723 70.9423 60.8256L72.2886 58.0615L73.6706 60.8137C74.4212 62.3148 75.1241 63.6254 75.2314 63.7088C75.3386 63.7922 76.7325 64.0543 78.4243 64.2926C80.0804 64.5189 81.4624 64.7334 81.4862 64.7453C81.5101 64.7691 80.5331 65.758 79.306 66.9494C77.1853 69.0225 77.0899 69.1297 77.0899 69.5705C77.0899 69.9518 77.6976 73.7404 77.9954 75.1939C78.0669 75.5275 77.9835 75.4918 75.2552 74.0859C72.9319 72.8945 72.3958 72.6682 72.1218 72.7277C71.538 72.8826 65.8907 75.885 65.712 76.1471C65.438 76.5402 65.4857 77.1479 65.8312 77.4814C66.3673 78.0295 66.7485 77.9223 69.6437 76.3973L72.2648 75.0271L73.4562 75.6229C74.1114 75.9564 75.3743 76.5998 76.256 77.0645C78.2933 78.1129 78.9366 78.1725 79.7468 77.3623C80.3901 76.707 80.4021 76.433 79.8183 73.0494L79.306 69.9875L81.522 67.843C82.7372 66.6516 83.7976 65.5674 83.869 65.4244C83.9405 65.2814 84.0001 64.8883 84.0001 64.5428C84.0001 63.8041 83.6784 63.2084 83.1304 62.9225C82.9159 62.8152 81.4743 62.5531 79.711 62.3029L76.673 61.874L75.1837 58.967C73.8731 56.3936 73.6468 56.0242 73.2774 55.8336C72.6579 55.5119 71.7644 55.5477 71.2282 55.917Z" fill="white"/>
                                <path d="M52.6064 59.0981C52.0227 59.4197 51.6652 59.9797 50.0568 63.2084L48.3531 66.6397L44.7551 67.1639C40.6686 67.7477 40.4303 67.7953 39.9775 68.1527C39.5725 68.4744 39.215 69.2488 39.2031 69.8088C39.2031 70.5713 39.6678 71.1551 42.4199 73.7881C44.7551 76.0279 45.1006 76.4092 45.0648 76.6832C45.041 76.8619 44.7551 78.5775 44.4215 80.4838C44.0402 82.7236 43.8496 84.1176 43.8973 84.3797C44.0879 85.3686 44.898 86 45.9822 86C46.5779 86 46.8639 85.869 50.0688 84.201L53.5119 82.4139L56.9789 84.2129L60.4459 86.0238L61.1846 85.9762C62.1258 85.9166 62.6738 85.5354 62.9836 84.7371C63.2219 84.0938 63.2338 84.201 62.3998 79.3758L61.8875 76.3973L64.6158 73.7762C66.117 72.3465 67.4395 70.9645 67.5705 70.7262C68.1543 69.5824 67.5586 68.1647 66.3434 67.7953C66.1289 67.7238 64.3061 67.4379 62.3045 67.1639L58.6588 66.6516L57.0266 63.3037C56.1211 61.469 55.299 59.8486 55.1799 59.7057C54.7748 59.2172 54.191 58.9551 53.5 58.9551C53.1426 58.9551 52.7375 59.0266 52.6064 59.0981ZM57.241 68.4744C57.3602 68.5697 58.9686 68.8557 61.3752 69.2131C63.5436 69.5229 65.3783 69.8088 65.4379 69.8207C65.4975 69.8445 65.2354 70.1543 64.8541 70.5117C64.4729 70.8691 63.1623 72.132 61.9352 73.3234C59.7072 75.468 59.6953 75.4799 59.6953 75.9922C59.6953 76.3973 60.708 82.6164 60.9344 83.6529C60.9701 83.8197 60.7557 83.7363 59.8979 83.2836C56.133 81.2701 53.8693 80.1621 53.5 80.1621C53.1188 80.1621 52.7971 80.317 47.7217 82.9738L46.0418 83.8436L46.7328 79.9C47.3404 76.3615 47.4 75.9207 47.257 75.5871C47.1617 75.3846 45.8273 74.0145 44.2904 72.5371C42.7416 71.0598 41.4906 69.8445 41.5025 69.8326C41.5145 69.8207 43.2658 69.5705 45.3984 69.2607C47.5311 68.951 49.4016 68.6412 49.5684 68.5578C49.7947 68.4625 50.2832 67.5928 51.701 64.793L53.5357 61.1592L55.2871 64.7334C56.2521 66.6992 57.1219 68.3791 57.241 68.4744Z" fill="white"/>
                                <path d="M53.0234 66.8422C52.8209 66.9494 52.4635 67.5094 51.8916 68.6293C51.4389 69.5229 51.0338 70.2854 50.998 70.3092C50.9623 70.3449 50.2951 70.4641 49.5088 70.5713C47.4715 70.8572 47.2213 70.9406 47.0068 71.3457C46.9115 71.5363 46.8281 71.8223 46.8281 71.9771C46.8281 72.3584 47.2213 72.8469 47.5906 72.9422C47.9242 73.0256 51.8439 72.4895 52.2729 72.2988C52.6184 72.1559 54.5723 68.2957 54.5723 67.7834C54.5723 67.0566 53.6787 66.5086 53.0234 66.8422Z" fill="white"/>
                                </g>
                                <defs>
                                <clipPath id="clip0_45_477">
                                <rect width="61" height="61" fill="white" transform="translate(23 25)"/>
                                </clipPath>
                                </defs>
                            </svg>