<svg width="23" height="23" viewBox="0 0 23 23" fill="none" xmlns="http://www.w3.org/2000/svg">
                                                    <path d="M10.0845 0.45507C8.19272 0.715618 6.31792 1.48027 4.81694 2.60175C4.29019 2.99257 3.32729 3.92148 2.89116 4.44823C1.63374 5.9832 0.784131 7.92031 0.4896 9.91972C0.370654 10.7127 0.370654 12.2873 0.4896 13.0803C0.812451 15.2949 1.79233 17.3736 3.25366 18.9652L3.63315 19.3787L3.49722 19.56C3.08374 20.1094 2.60796 20.7834 2.51733 20.959C2.37573 21.2365 2.37573 21.718 2.52866 22.0068C2.59097 22.1314 2.75522 22.307 2.8855 22.4033L3.12905 22.5732H7.97749C13.1601 22.5732 13.0525 22.5789 14.2476 22.2787C15.7599 21.9049 17.3798 21.0836 18.5863 20.0754C20.7216 18.2969 22.1093 15.8217 22.5115 13.0803C22.6304 12.2873 22.6304 10.7127 22.5115 9.91972C21.9847 6.31738 19.7757 3.23613 16.5416 1.59355C15.5107 1.06679 14.5875 0.755266 13.398 0.528704C12.8656 0.42675 10.6509 0.381437 10.0845 0.45507ZM13.0638 2.26757C16.6322 2.87929 19.5039 5.47909 20.5291 9.01913C20.9539 10.4918 20.9539 12.5082 20.5291 13.9809C20.0589 15.6008 19.283 16.9262 18.1048 18.1043C16.9267 19.2824 15.6013 20.0584 13.9814 20.5285C12.9335 20.8287 12.5937 20.8514 8.51558 20.8344L4.77163 20.8174L5.39468 19.9734L6.01772 19.1295L5.74585 18.9029C3.38394 16.9205 2.15483 14.4057 2.15483 11.5453C2.15483 9.84042 2.52866 8.37909 3.32163 6.95741C4.698 4.49921 7.14487 2.75468 9.89194 2.27324C10.7699 2.1203 12.1689 2.11464 13.0638 2.26757Z" fill="#30A9E0"/>
                                                    <path d="M6.85547 10.4011C6.41367 10.5937 6.17578 10.9732 6.17578 11.5C6.17578 12.2703 6.69688 12.7347 7.48418 12.6781C7.90332 12.6498 8.23184 12.4345 8.43008 12.0664C8.54336 11.8511 8.56035 11.7492 8.54336 11.432C8.5207 10.9675 8.32246 10.6447 7.9373 10.4408C7.64277 10.2879 7.16133 10.2652 6.85547 10.4011Z" fill="#30A9E0"/>
                                                    <path d="M10.9619 10.4182C10.5371 10.6164 10.3105 10.9959 10.3105 11.5113C10.3162 12.2137 10.792 12.6895 11.5 12.6895C11.8229 12.6895 12.14 12.5762 12.3439 12.3893C12.7971 11.9701 12.7971 11.0299 12.3439 10.6107C12.0154 10.3105 11.3867 10.2199 10.9619 10.4182Z" fill="#30A9E0"/>
                                                    <path d="M15.0614 10.4409C14.6762 10.6448 14.478 10.9676 14.4553 11.4321C14.4327 11.9022 14.5856 12.2364 14.9424 12.4856C15.3616 12.7801 16.0412 12.7518 16.4321 12.4233C16.9532 11.9815 16.9758 11.0753 16.4717 10.6108C16.1319 10.2879 15.4918 10.2143 15.0614 10.4409Z" fill="#30A9E0"/>
                                                </svg>