<svg width="45" height="45" viewBox="0 0 45 45" fill="none" xmlns="http://www.w3.org/2000/svg">
                    <path d="M24.7412 44.9385C30.6387 44.3057 35.9824 41.4844 39.7441 37.002C42.3896 33.8555 44.0332 30.2871 44.7627 26.1035C44.9297 25.1455 44.9473 24.6797 44.9473 22.5C44.9473 20.3203 44.9297 19.8545 44.7627 18.8965C43.9365 14.1504 41.9502 10.2217 38.6719 6.82031C35.3057 3.32227 31.0605 1.10742 26.1035 0.237305C25.1455 0.0703125 24.6797 0.0527344 22.5 0.0527344C19.749 0.0527344 18.9229 0.140625 16.7607 0.694336C9.00879 2.69824 2.69824 9.00879 0.694336 16.7607C0.140625 18.9229 0.0527344 19.749 0.0527344 22.5C0.0527344 25.251 0.140625 26.0771 0.694336 28.2393C2.69824 35.9824 9.00879 42.3018 16.7607 44.3057C18.7559 44.8154 19.6963 44.9297 22.1484 44.9561C23.3789 44.9736 24.5479 44.9648 24.7412 44.9385ZM19.5996 42.4951C15.2314 41.8359 11.3906 39.8936 8.25293 36.7471C5.08887 33.583 3.17285 29.7949 2.4873 25.3125C2.27637 23.9238 2.27637 21.0762 2.4873 19.6875C3.17285 15.2051 5.08887 11.417 8.25293 8.25293C11.417 5.08887 15.2051 3.17285 19.6875 2.4873C21.0762 2.27637 23.9238 2.27637 25.3125 2.4873C29.7949 3.17285 33.583 5.08887 36.7471 8.25293C39.9111 11.417 41.8271 15.2051 42.5127 19.6875C42.7236 21.0762 42.7236 23.9238 42.5127 25.3125C41.8271 29.7949 39.9111 33.583 36.7471 36.7471C33.2666 40.2275 29.0039 42.2051 23.9941 42.6621C23.2119 42.7324 20.5049 42.627 19.5996 42.4951Z" fill="#30A9E0"/>
                    <path d="M22.8073 33.3898C23.1237 33.2931 23.2907 33.17 23.4929 32.8712C23.6335 32.6691 23.6423 32.0187 23.6423 24.0909V15.5216L25.945 17.8155C28.4411 20.3028 28.5202 20.3556 29.2057 20.1359C29.7858 19.9425 30.0934 19.3185 29.9264 18.6593C29.8913 18.4923 28.8278 17.3673 26.736 15.2579C25.0134 13.5265 23.4401 11.9972 23.2555 11.8566C22.8864 11.5841 22.3151 11.5138 21.946 11.6984C21.6735 11.839 15.3102 18.1847 15.152 18.4747C14.7038 19.3273 15.4509 20.3468 16.4089 20.171C16.6989 20.1183 17.0505 19.8019 19.0456 17.8155L21.3571 15.5216V24.0734C21.3571 31.8341 21.3747 32.6427 21.4977 32.8712C21.7526 33.3019 22.3327 33.5304 22.8073 33.3898Z" fill="#30A9E0"/>
                </svg>