<svg width="43" height="39" viewBox="0 0 43 39" fill="none" xmlns="http://www.w3.org/2000/svg">
                                        <path d="M30.7456 0.107916C30.0149 0.401861 29.6874 0.94776 29.469 2.21592C29.2926 3.26573 29.2591 3.31612 28.5788 3.62686L28.1421 3.82003L27.3946 3.21534C26.3196 2.3587 25.8997 2.22432 25.0766 2.46788C24.6399 2.60225 23.6489 3.52608 23.3969 4.04678C22.935 4.95382 23.0358 5.44932 23.9008 6.59991C24.2368 7.06182 24.5223 7.47335 24.5139 7.52374C24.5139 7.57413 24.4132 7.82608 24.2872 8.07803L24.0604 8.53995L22.9686 8.72471C21.7341 8.94307 21.3477 9.13624 21.0118 9.71573C20.8354 10.0265 20.827 10.1357 20.8438 11.2778C20.869 12.4704 20.8774 12.5124 21.0958 12.8064C21.4989 13.3271 21.7592 13.453 22.7839 13.6294C23.2962 13.7218 23.8001 13.8142 23.9008 13.831C24.0184 13.8562 24.1444 14.0325 24.304 14.4105L24.5391 14.9564L24.0184 15.6366C23.3885 16.4681 23.187 16.9048 23.1786 17.4255C23.1786 18.0302 23.3717 18.3829 24.1276 19.1388C24.8667 19.8946 25.127 20.029 25.8157 20.0206C26.3868 20.0122 26.6219 19.9198 27.3694 19.3403C28.2932 18.6349 28.268 18.6517 28.7635 18.8448C28.9903 18.9372 29.2255 19.0464 29.2758 19.0884C29.3262 19.1304 29.4354 19.5671 29.511 20.071C29.6958 21.2552 29.8385 21.6163 30.2417 21.969C30.7036 22.3638 31.1487 22.4646 32.1817 22.4226C32.946 22.3974 33.0971 22.3638 33.4415 22.1622C34.0294 21.8179 34.2225 21.4232 34.4325 20.1718C34.5249 19.6007 34.6257 19.1052 34.6592 19.0716C34.7012 19.0464 34.9364 18.9204 35.1967 18.8028L35.6755 18.5929L36.4145 19.1808C37.3132 19.8862 37.5567 20.0038 38.1698 20.0038C38.7241 20.0038 38.9508 19.8946 39.8327 19.2312C40.513 18.7105 40.7565 18.3661 40.8489 17.7698C40.9497 17.1987 40.7733 16.7452 40.093 15.8298L39.4715 14.9815L39.6647 14.4608C39.7823 14.1333 39.9083 13.9065 40.0174 13.8646C40.1098 13.831 40.5801 13.7302 41.0673 13.6546C42.0751 13.495 42.4782 13.3271 42.7805 12.9239C42.9989 12.6468 42.9989 12.6132 42.9989 11.2274C42.9989 9.97608 42.9821 9.79132 42.8309 9.55616C42.579 9.13624 42.0919 8.91788 40.9581 8.71632L39.9335 8.53995L39.7067 8.12003C39.5807 7.88487 39.4715 7.63292 39.4715 7.54053C39.4715 7.45655 39.7151 7.06182 40.009 6.6587C40.7229 5.69288 40.7649 5.60049 40.7649 4.97061C40.7733 4.28194 40.5465 3.87042 39.7571 3.12296C39.0936 2.50987 38.7997 2.3671 38.1782 2.3671C37.5651 2.3671 37.4223 2.43428 36.4985 3.13135L35.7007 3.72764L35.2891 3.59327C34.6173 3.36651 34.6089 3.34971 34.4241 2.19913C34.2225 0.922564 34.0042 0.527838 33.3239 0.175104C33.0635 0.0407276 32.8368 0.0155334 31.9801 0.0239315C31.4091 0.0239315 30.8548 0.0659237 30.7456 0.107916ZM32.6016 1.62803C32.6856 1.70362 32.778 2.06475 32.8704 2.66104C33.0299 3.69405 33.3071 4.37432 33.6682 4.63467C34.0882 4.92862 35.1464 5.30655 35.5579 5.30655C36.1038 5.30655 36.4061 5.15538 37.2712 4.4751C37.6911 4.14756 38.0606 3.87881 38.1026 3.87881C38.2034 3.87881 39.2196 4.92862 39.2196 5.0378C39.2196 5.07979 38.976 5.43253 38.6821 5.81885C38.0522 6.6587 37.9178 6.91065 37.8339 7.37256C37.7667 7.80089 37.8842 8.2544 38.2706 9.06905C38.6737 9.91729 38.976 10.1021 40.2778 10.312C40.8153 10.396 41.3108 10.5136 41.3696 10.5808C41.4956 10.7067 41.5376 11.8993 41.42 12.0841C41.3864 12.1345 40.8909 12.2605 40.3198 12.3612C38.8333 12.6132 38.6737 12.7224 38.1614 13.831C37.9178 14.3517 37.8507 14.612 37.8507 14.9648C37.8507 15.5274 37.9598 15.7542 38.7325 16.7788C39.2112 17.4087 39.3036 17.5851 39.2364 17.711C39.0768 18.005 38.2118 18.7524 38.1026 18.6937C38.0522 18.6601 37.6743 18.3913 37.2796 18.1058C36.3977 17.4591 36.087 17.3163 35.4907 17.3163C35.138 17.3163 34.8776 17.3919 34.3317 17.6439C33.2651 18.131 33.1307 18.3409 32.8788 19.9198C32.7948 20.4069 32.694 20.8521 32.652 20.9024C32.5512 21.0284 31.4342 21.0536 31.2411 20.9276C31.1655 20.8773 31.0563 20.4741 30.9387 19.7939C30.6784 18.3241 30.5188 18.0722 29.5194 17.5767C28.3016 16.972 27.7977 17.0476 26.538 17.9882C26.1012 18.3157 25.7065 18.5761 25.6561 18.5761C25.4882 18.5761 24.5055 17.4927 24.5727 17.3835C24.6063 17.3247 24.8667 16.9552 25.1522 16.5605C25.4462 16.1657 25.7485 15.7122 25.8241 15.5526C26.0508 15.1075 26.0257 14.4357 25.7569 13.8478C25.6309 13.579 25.5301 13.3271 25.5301 13.2851C25.5301 13.1339 24.9003 12.504 24.6483 12.4032C24.5139 12.3444 23.9848 12.2269 23.4725 12.1513C22.9686 12.0673 22.4983 11.9665 22.4479 11.9161C22.3723 11.8657 22.3387 11.597 22.3387 11.1435C22.3387 10.6899 22.3723 10.4212 22.4479 10.3624C22.4983 10.3204 22.9434 10.2196 23.4305 10.1357C24.8415 9.90889 25.1522 9.70733 25.6141 8.76671C26.2188 7.51534 26.16 7.05342 25.2278 5.80206C24.8835 5.34014 24.6063 4.92022 24.6063 4.86143C24.6063 4.67667 25.6813 3.69405 25.7989 3.76124C25.8577 3.80323 26.2776 4.09717 26.7227 4.43311C27.9321 5.33175 28.3352 5.38214 29.6034 4.80264C30.6532 4.32393 30.796 4.08038 30.9891 2.53506C31.0479 2.09835 31.1319 1.68682 31.1739 1.62803C31.2327 1.56924 31.4846 1.52725 31.8626 1.52725C32.2237 1.52725 32.526 1.56924 32.6016 1.62803Z" fill="#30A9E0"/>
                                        <path d="M30.8635 6.76795C29.2342 7.17107 27.9073 8.54002 27.5545 10.1609C27.4286 10.7824 27.4369 11.7314 27.5881 12.3025C28.47 15.6955 32.7112 16.8461 35.1887 14.3769C37.6578 11.8994 36.5073 7.65818 33.1143 6.77635C32.5432 6.62517 31.4514 6.62517 30.8635 6.76795ZM33.0471 8.33846C33.7022 8.58201 34.4244 9.27068 34.7352 9.94256C34.9452 10.3961 34.9787 10.5724 34.9787 11.1855C34.9787 12.0758 34.7352 12.6553 34.0969 13.2851C33.8702 13.5203 33.4586 13.8142 33.1899 13.9402C32.7784 14.1334 32.602 14.167 31.9553 14.167C31.3086 14.1586 31.1323 14.125 30.7207 13.9318C30.0909 13.6211 29.5198 13.0584 29.2426 12.4621C29.0411 12.0422 29.0159 11.8826 29.0159 11.1435C29.0159 10.3961 29.0411 10.2533 29.2426 9.87537C29.6625 9.07752 30.2252 8.56521 30.9895 8.30486C31.5438 8.1117 32.476 8.12849 33.0471 8.33846Z" fill="#30A9E0"/>
                                        <path d="M2.38418 5.79372C1.41836 6.12966 0.712891 6.76794 0.276172 7.70856L0.0410156 8.20407V22.3554V36.5068L0.267773 36.9939C0.570117 37.6322 1.32598 38.4216 1.92227 38.7072L2.39258 38.9424L18.6436 38.9675C30.1578 38.9843 35.0541 38.9591 35.432 38.9004C36.6078 38.6988 37.5652 37.9765 38.0691 36.9099L38.3379 36.3388L38.3631 29.1162C38.3715 25.1437 38.3631 21.8095 38.3379 21.7088C38.2875 21.4988 37.9012 21.2636 37.624 21.2636C37.5232 21.2636 37.3301 21.3728 37.1957 21.5072L36.9521 21.7508V28.7466C36.9521 33.8025 36.927 35.8181 36.8514 36.0533C36.7254 36.4816 36.2719 37.0107 35.8268 37.2459L35.4824 37.4306H19.1895C3.67754 37.4306 2.87969 37.4222 2.59414 37.2795C2.16582 37.0695 1.7627 36.658 1.56113 36.2129C1.38477 35.8349 1.38477 35.8013 1.35957 24.9757L1.33437 14.125H10.3963H19.4582L19.6346 13.9318C19.8949 13.6547 19.8865 13.1256 19.6262 12.882L19.433 12.6972H10.3795H1.32598L1.35957 10.6564L1.38477 8.62399L1.63672 8.17048C1.77109 7.92692 1.99785 7.63298 2.14062 7.5238C2.77051 7.04509 2.21621 7.07028 12.2607 7.07028C22.4061 7.07028 21.8686 7.09548 22.0869 6.56638C22.2129 6.27243 22.0869 5.86091 21.8266 5.72653C21.7342 5.67614 18.1312 5.64255 12.2439 5.64255C3.46758 5.65095 2.77891 5.65934 2.38418 5.79372Z" fill="#30A9E0"/>
                                        <path d="M4.10528 9.41348C3.79453 9.73262 3.77774 10.1021 4.07168 10.3877C4.26485 10.5893 4.32364 10.5977 5.27266 10.5977C6.16289 10.5977 6.29727 10.5809 6.49883 10.4213C6.6752 10.2869 6.71719 10.1777 6.71719 9.88379C6.71719 9.58984 6.6752 9.48066 6.49883 9.34629C6.29727 9.19512 6.1545 9.16992 5.31465 9.16992C4.36563 9.16992 4.34883 9.16992 4.10528 9.41348Z" fill="#30A9E0"/>
                                        <path d="M7.38027 9.41356C7.2459 9.54794 7.13672 9.7411 7.13672 9.84188C7.13672 10.0854 7.35508 10.4802 7.51465 10.5474C7.775 10.6397 9.60586 10.5977 9.74863 10.4886C10.135 10.1946 10.1434 9.64032 9.76543 9.33798C9.58066 9.1952 9.42109 9.17001 8.58965 9.17001C7.64062 9.17001 7.62383 9.17001 7.38027 9.41356Z" fill="#30A9E0"/>
                                        <path d="M10.7236 9.33789C10.3457 9.64023 10.3541 10.1945 10.7404 10.4885C10.8328 10.5557 11.2275 10.5893 11.9078 10.5977C12.8148 10.5977 12.9492 10.5809 13.1003 10.4297C13.4531 10.077 13.3775 9.45547 12.966 9.2623C12.8484 9.21191 12.3445 9.16992 11.849 9.16992C11.0679 9.16992 10.9084 9.19512 10.7236 9.33789Z" fill="#30A9E0"/>
                                        <path d="M6.00293 16.3591C5.49902 16.5354 5.04551 16.9554 4.81875 17.4341C4.61719 17.8624 4.61719 17.8708 4.61719 21.2218C4.61719 23.3802 4.65078 24.6987 4.70957 24.9087C4.82715 25.3454 5.57461 26.0929 6.01133 26.2104C6.49004 26.3448 16.7865 26.3364 17.2316 26.2021C17.702 26.0677 18.2479 25.547 18.4662 25.0431C18.6426 24.6231 18.651 24.556 18.6258 21.1546L18.6006 17.6944L18.3654 17.2997C18.0799 16.8126 17.6852 16.5019 17.1645 16.3423C16.5766 16.1659 6.49844 16.1827 6.00293 16.3591ZM16.9125 17.8708L17.1309 18.0976V21.2386C17.1309 23.1282 17.0973 24.4468 17.0469 24.5392C16.8789 24.8583 16.585 24.8751 11.6131 24.8751C6.1877 24.8751 6.29688 24.8835 6.12891 24.3124C6.06172 24.094 6.04492 23.061 6.06172 21.0286L6.08691 18.0556L6.32207 17.854L6.55723 17.6524H11.6215H16.6857L16.9125 17.8708Z" fill="#30A9E0"/>
                                        <path d="M22.3548 20.9528C22.1196 21.1963 22.1112 21.6751 22.3296 21.9438C22.464 22.1118 22.5815 22.1454 23.1106 22.1706C23.6901 22.2042 23.7489 22.1874 24.0009 21.9774C24.3452 21.6919 24.3788 21.2215 24.0765 20.9444C23.9085 20.7848 23.7825 20.7596 23.2114 20.7596C22.6151 20.7596 22.5143 20.7848 22.3548 20.9528Z" fill="#30A9E0"/>
                                        <path d="M22.356 25.4041C22.1125 25.6561 22.1041 26.1516 22.3392 26.3867C22.5072 26.5547 22.6164 26.5547 28.1341 26.5547H33.7695L33.971 26.3447C34.2314 26.0928 34.2398 25.7316 34.0046 25.4293L33.8367 25.2109H28.1845H22.5324L22.356 25.4041Z" fill="#30A9E0"/>
                                        <path d="M4.54255 29.7965C4.20662 30.0736 4.18142 30.5439 4.47537 30.8211L4.66853 31.0059H19.2146C33.5844 31.0059 33.7607 31.0059 33.9287 30.8379C34.2898 30.4768 34.2142 29.9141 33.7607 29.6873C33.5928 29.6033 30.5021 29.5781 19.1726 29.5781H4.80291L4.54255 29.7965Z" fill="#30A9E0"/>
                                        <path d="M4.66096 34.1301C4.22424 34.3652 4.14026 34.9027 4.49299 35.2471L4.69456 35.457H19.1903H33.6944L33.9379 35.2135C34.2906 34.8523 34.2235 34.3232 33.7867 34.1217C33.5012 33.9873 4.90452 33.9957 4.66096 34.1301Z" fill="#30A9E0"/>
                                    </svg>