<svg width="86" height="86" viewBox="0 0 86 86" fill="none" xmlns="http://www.w3.org/2000/svg">
                                <circle cx="43" cy="43" r="43" fill="#30A9E0"/>
                                <g clip-path="url(#clip0_456_2292)">
                                    <path d="M26.443 17.249C25.8254 17.6674 25.5465 18.2551 25.4867 19.291L25.4369 20.1775L22.4387 20.2074C19.4902 20.2373 19.4305 20.2373 18.9424 20.4763C18.3148 20.7951 17.7072 21.4027 17.3885 22.0303L17.1494 22.5283V39.8105V57.0928L17.3785 57.5211C17.7271 58.1785 18.3248 58.7662 18.9623 59.0949L19.54 59.3838L27.19 59.4137C33.1865 59.4336 34.8301 59.4635 34.8301 59.5631C34.8301 59.6328 34.7404 60.0014 34.6408 60.3799C34.5312 60.7683 34.4018 61.2664 34.342 61.4955L34.2324 61.9039L32.4096 61.9437C30.6564 61.9736 30.5768 61.9836 30.0289 62.2525C29.7102 62.4019 29.2918 62.7207 29.0826 62.9598C27.9969 64.1949 28.1562 66.2369 29.4113 67.2629C30.2381 67.9402 29.3715 67.9004 43.0877 67.9004C54.0646 67.9004 55.5687 67.8805 55.9672 67.741C57.8199 67.1135 58.4674 64.4937 57.1326 62.9797C56.9135 62.7306 56.4852 62.4119 56.1664 62.2525C55.6186 61.9836 55.5389 61.9736 53.7857 61.9437L51.9629 61.9039L51.8533 61.4955C51.7936 61.2664 51.6641 60.7683 51.5545 60.3799C51.4549 60.0014 51.3652 59.6328 51.3652 59.5631C51.3652 59.4635 52.8992 59.4336 58.4674 59.4137L65.5596 59.3838L66.1373 59.0949C66.7748 58.7662 67.3725 58.1785 67.7211 57.5211L67.9502 57.0928V39.8105V22.5283L67.7211 22.0502C67.4123 21.4426 66.7449 20.7752 66.1373 20.4664C65.6691 20.2472 65.5795 20.2373 62.6012 20.2074L59.5332 20.1775V19.3209C59.5332 18.275 59.3141 17.7271 58.7064 17.2888L58.308 17H42.5598H26.8115L26.443 17.249ZM57.5111 18.5041C57.6605 18.5539 57.8199 18.6635 57.8598 18.7232C57.8996 18.7929 57.9395 19.55 57.9395 20.4066V21.9804H50.0404C42.1912 21.9804 42.1314 21.9804 41.9521 22.1797C41.8426 22.2992 41.7629 22.5383 41.7629 22.7275C41.7629 22.9168 41.8426 23.1558 41.9521 23.2754C42.1314 23.4746 42.1912 23.4746 50.0404 23.4746H57.9395V32.7084C57.9395 41.1553 57.9295 41.9521 57.7701 42.1215C57.6207 42.2908 57.0131 42.3008 42.5398 42.3008H27.4689L27.2697 42.0418C27.0605 41.7728 27.0605 41.733 27.0605 32.6287V23.4746H33.2363C39.2826 23.4746 39.4121 23.4746 39.6113 23.2754C39.8803 23.0064 39.8803 22.4486 39.6113 22.1797C39.4121 21.9804 39.2826 21.9804 33.2363 21.9804H27.0605V20.5062C27.0605 18.9125 27.1402 18.6037 27.5586 18.4842C27.9869 18.3646 57.1924 18.3846 57.5111 18.5041ZM25.4668 22.8271V23.9726H23.6141C21.9307 23.9726 21.7215 23.9926 21.4326 24.1719C20.8051 24.5603 20.835 23.8531 20.835 37.2207C20.835 48.8252 20.8449 49.4428 21.0143 49.7017C21.1139 49.8611 21.333 50.0703 21.5123 50.1699C21.8211 50.3592 22.09 50.3691 31.6725 50.3691H41.5139L41.7529 50.1201C42.0816 49.8014 42.0816 49.3431 41.7529 49.0244L41.5139 48.7754H31.9414H22.3789V37.1709V25.5664H23.9229H25.4668V33.6945C25.4668 39.2826 25.4967 41.9521 25.5764 42.251C25.7158 42.7988 26.2736 43.4662 26.8016 43.7053C27.19 43.8846 27.8574 43.8945 42.4502 43.8945C52.7797 43.8945 57.81 43.8646 58.0689 43.7849C58.5371 43.6555 59.085 43.1873 59.3439 42.6892C59.5232 42.3207 59.5332 42.0318 59.5332 33.9336V25.5664H61.0771H62.6211V37.1709V48.7754H53.5068H44.3826L44.1436 49.0244C43.9842 49.1738 43.8945 49.383 43.8945 49.5723C43.8945 49.7615 43.9842 49.9707 44.1436 50.1201L44.3826 50.3691H53.7559C64.0754 50.3691 63.6172 50.399 64.0156 49.7515C64.2148 49.4228 64.2148 49.2834 64.2148 37.0812V24.7496L63.8264 24.3611L63.4379 23.9726H61.4855H59.5332V22.8172V21.6717L62.3023 21.7015C65.0316 21.7314 65.0615 21.7314 65.4898 21.9804C65.7588 22.1299 66.0277 22.3988 66.1871 22.6777L66.4561 23.126L66.4859 37.8383L66.5059 52.5605H42.5498H18.5938L18.6137 37.8383L18.6436 23.126L18.8926 22.6976C19.1516 22.2394 19.6098 21.9008 20.1277 21.7812C20.2971 21.7314 21.5721 21.7015 22.9566 21.6916L25.4668 21.6816V22.8271ZM66.5059 55.001C66.5059 56.5748 66.207 57.2721 65.3604 57.6506C64.9818 57.8299 64.0854 57.8398 42.5498 57.8398C21.0143 57.8398 20.1178 57.8299 19.7393 57.6506C18.8926 57.2721 18.5938 56.5748 18.5938 55.001V54.1543H42.5498H66.5059V55.001ZM49.9607 60.609C50.1301 61.2564 50.2695 61.8242 50.2695 61.8541C50.2695 61.8939 47.0422 61.9238 43.0977 61.9238C39.1531 61.9238 35.9258 61.8939 35.9258 61.8541C35.9258 61.8242 36.0652 61.2564 36.2346 60.609L36.5533 59.4336H43.0977H49.642L49.9607 60.609ZM55.4492 63.6969C56.4652 64.2049 56.515 65.6392 55.5289 66.1771C55.2201 66.3465 54.5627 66.3564 43.0977 66.3564C31.1047 66.3564 30.9951 66.3564 30.6465 66.1572C29.6902 65.5994 29.75 64.1949 30.7461 63.6969C31.0748 63.5275 31.8717 63.5176 43.0977 63.5176C54.3236 63.5176 55.1205 63.5275 55.4492 63.6969Z" fill="white"/>
                                    <path d="M29.6502 19.2611C29.1323 19.4603 28.9629 20.1975 29.3514 20.5859C29.6104 20.8449 30.2479 20.8549 30.477 20.6059C30.5666 20.5062 30.6663 20.2871 30.7061 20.1178C30.8057 19.6197 30.1383 19.0719 29.6502 19.2611Z" fill="white"/>
                                    <path d="M32.0806 19.3309C31.3036 19.6695 31.5925 20.7852 32.4491 20.7852C32.8974 20.7852 33.236 20.4465 33.236 20.0082C33.236 19.7094 32.9571 19.291 32.748 19.291C32.6981 19.291 32.5985 19.2711 32.5188 19.2412C32.4491 19.2213 32.2499 19.2611 32.0806 19.3309Z" fill="white"/>
                                    <path d="M34.3816 19.4902C34.2721 19.6098 34.1924 19.8488 34.1924 20.0381C34.1924 20.5262 34.4713 20.7852 34.9793 20.7852C35.4973 20.7852 35.7463 20.5461 35.7463 20.0381C35.7463 19.5301 35.4973 19.291 34.9793 19.291C34.6805 19.291 34.5111 19.3508 34.3816 19.4902Z" fill="white"/>
                                    <path d="M43.1473 26.9609C42.9481 27.18 40.1092 36.2146 40.1192 36.623C40.1192 37.3601 41.2547 37.649 41.5834 36.9916C41.7627 36.6429 44.492 27.708 44.492 27.4888C44.492 27.3793 44.4024 27.1701 44.2828 27.0207C44.0239 26.692 43.4262 26.6521 43.1473 26.9609Z" fill="white"/>
                                    <path d="M46.5246 28.2359C46.1959 28.2857 45.9668 28.6045 45.9668 29.0129C45.9668 29.3516 46.0764 29.4811 47.4211 30.8357C48.218 31.6326 48.8754 32.3398 48.8754 32.3896C48.8754 32.4395 48.2279 33.1367 47.441 33.9336C46.0963 35.2783 45.9469 35.4875 45.9768 35.9457C45.9967 36.2545 46.3553 36.5234 46.7537 36.5234C47.0924 36.5234 47.2318 36.4139 48.6064 35.0492C49.4232 34.2424 50.1703 33.4156 50.2799 33.2164C50.4891 32.808 50.5289 32.1107 50.3596 31.6725C50.2201 31.3039 47.2219 28.2857 46.943 28.2359C46.8334 28.216 46.6342 28.216 46.5246 28.2359Z" fill="white"/>
                                    <path d="M35.5473 29.7699C32.9774 32.31 32.9774 32.569 35.5573 35.119C37.1012 36.643 37.1211 36.6529 37.4797 36.5932C37.9479 36.5135 38.1073 36.3541 38.1869 35.886C38.2467 35.5174 38.2367 35.5074 36.7127 33.9834L35.1887 32.4395L36.7028 30.9154C38.0276 29.5807 38.2168 29.3416 38.2168 29.0627C38.2168 28.6344 37.8383 28.2559 37.41 28.2559C37.1311 28.2559 36.892 28.4451 35.5473 29.7699Z" fill="white"/>
                                </g>
                                <defs>
                                    <clipPath id="clip0_456_2292">
                                        <rect width="51" height="51" fill="white" transform="translate(17 17)"/>
                                    </clipPath>
                                </defs>
                            </svg>