<svg width="92" height="91" viewBox="0 0 92 91" fill="none" xmlns="http://www.w3.org/2000/svg">
                                <ellipse cx="46.0239" cy="45.8088" rx="45.104" ry="45.1567" fill="#30A9E0"/>
                                <g clip-path="url(#clip0_456_2309)">
                                    <path d="M26.4209 18.7663C24.6551 19.2893 23.1715 20.168 21.8968 21.4442C20.6116 22.7308 19.7653 24.1639 19.2011 26.0259C18.9399 26.8627 18.919 27.072 18.919 28.8607C18.9086 30.5867 18.9399 30.8901 19.1489 31.6328C20.0265 34.6558 22.1998 37.2396 24.8954 38.453C25.2193 38.5995 25.5014 38.7355 25.5119 38.7459C25.5328 38.7564 25.4074 39.3003 25.2402 39.9593C24.3939 43.2963 24.3939 46.9888 25.2298 50.3467C25.4074 51.0371 25.5328 51.6019 25.5223 51.6124C25.5014 51.6229 25.2193 51.7588 24.8954 51.9053C22.2207 53.1082 20.0265 55.7025 19.1698 58.6733C18.8459 59.7821 18.7623 62.2717 19.0026 63.4747C19.2324 64.5939 19.7549 66.027 20.0161 66.2676C20.2877 66.5187 20.8728 66.5082 21.1549 66.2572C21.4579 65.9852 21.3953 65.4308 20.9355 64.165C20.6325 63.3282 20.5907 63.0771 20.5489 61.8114C20.5176 60.6294 20.5385 60.2528 20.7266 59.4892C21.7296 55.2736 25.5014 52.4179 29.7644 52.6375C31.1435 52.7108 31.8645 52.8886 33.1183 53.4848C34.9467 54.3531 36.4304 55.8385 37.308 57.6795C37.8932 58.9243 38.0708 59.6356 38.1544 61.0269C38.3529 64.6672 36.2737 68.0354 32.8884 69.5731C31.0495 70.41 28.5837 70.5355 26.6403 69.8974C25.7522 69.615 24.5611 68.9664 23.8088 68.3597C23.0774 67.7635 22.7953 67.6798 22.3774 67.889C22.0639 68.0564 21.9908 68.1819 21.9908 68.6317C21.9908 68.956 22.0639 69.0815 22.5341 69.4999C23.7461 70.5878 25.5119 71.4456 27.3299 71.8117C28.5315 72.0523 31.0182 71.9686 32.1257 71.6443C35.093 70.7866 37.6842 68.5899 38.8857 65.912C39.032 65.5877 39.1679 65.2948 39.1887 65.2739C39.2096 65.2529 39.6798 65.3575 40.244 65.5145C42.1874 66.027 43.1905 66.1421 45.604 66.1421C48.0176 66.1421 49.0206 66.027 50.964 65.5145C51.5282 65.3575 51.9984 65.2529 52.0088 65.2739C52.0193 65.2948 52.1865 65.64 52.385 66.0479C52.876 67.0835 53.388 67.8158 54.2134 68.6945C55.5299 70.0857 57.0763 71.0376 58.9465 71.613C59.8137 71.8745 59.9914 71.8954 61.8512 71.8954C63.7214 71.8954 63.8886 71.8849 64.7662 71.613C66.6365 71.0272 68.1306 70.1171 69.4366 68.7468C70.4083 67.7216 70.7845 67.1777 71.3591 65.9643C72.101 64.3952 72.2472 63.6525 72.2472 61.4662C72.2472 59.531 72.1637 58.9766 71.7248 57.7527C70.8158 55.284 68.6844 52.9723 66.3335 51.9053C65.9887 51.7588 65.6961 51.6229 65.6752 51.6019C65.6544 51.581 65.7588 51.1103 65.9156 50.5454C66.4275 48.5788 66.5425 47.5955 66.5425 45.1792C66.5425 42.7732 66.4275 41.7586 65.926 39.8652C65.7797 39.3213 65.6648 38.8505 65.6648 38.8087C65.6648 38.7668 65.926 38.6204 66.2395 38.4949C67.6918 37.8882 69.6038 36.2772 70.5755 34.8337C71.192 33.9132 71.7771 32.6265 72.0278 31.6118C72.2054 30.911 72.2472 30.4403 72.2472 28.8816C72.2472 26.6849 72.101 25.9631 71.3696 24.415C70.774 23.1493 70.3979 22.6158 69.4366 21.6011C68.0784 20.1994 66.5843 19.2893 64.7558 18.7663C63.8363 18.5048 63.711 18.4943 61.6213 18.5257L59.448 18.5571L58.4032 18.9232C57.8286 19.1324 56.9613 19.5299 56.4807 19.8123C55.4672 20.4086 53.9522 21.7998 53.2835 22.7413C52.9492 23.212 52.2074 24.5719 52.0193 25.074C52.0193 25.0844 51.4551 24.9589 50.7655 24.7811C47.4116 23.9443 43.7233 23.9443 40.3903 24.7916C39.7321 24.9589 39.1887 25.0844 39.1783 25.0635C39.1679 25.0531 39.032 24.7706 38.8857 24.4464C37.6842 21.7685 35.0408 19.5299 32.1257 18.7244C31.457 18.5361 31.06 18.5048 29.3046 18.5152C27.4657 18.5152 27.1836 18.5361 26.4209 18.7663ZM31.3734 20.2935C34.7378 21.0676 37.3289 23.7769 38.0394 27.2916C38.2484 28.3377 38.1962 30.116 37.9245 31.1097C37.6946 31.9675 36.9424 33.5052 36.4722 34.1328C35.9498 34.8128 35.8766 35.2416 36.2423 35.6078C36.4617 35.8274 36.5976 35.8797 36.9006 35.8484C37.2349 35.817 37.3603 35.7228 37.7782 35.2103C38.7081 34.0596 39.4917 32.1558 39.7634 30.4298C39.8679 29.7603 39.847 27.7728 39.7321 26.9255C39.7007 26.7477 39.8261 26.6849 40.5888 26.4862C42.48 25.9736 43.2427 25.8899 45.604 25.8899C47.9653 25.8899 48.7072 25.9736 50.6192 26.4862L51.5073 26.7163L51.4551 27.0824C51.4237 27.2812 51.4028 28.2017 51.4133 29.1222C51.4237 30.6076 51.4551 30.9005 51.7058 31.7164C52.8343 35.4822 55.5195 38.1078 59.2704 39.133C59.9078 39.3108 60.3988 39.3526 61.6944 39.3631C62.5825 39.3736 63.4602 39.3422 63.6483 39.3003L63.9826 39.2271L64.202 39.9175C65.1528 42.9929 65.1424 47.1771 64.1916 50.4304L63.9826 51.1312L63.6483 51.058C63.4602 51.0161 62.5825 50.9848 61.6944 50.9952C59.9182 51.0057 59.1764 51.1521 57.6927 51.7693C55.4463 52.7003 53.3462 54.7401 52.2909 57.031C51.6954 58.3176 51.4342 59.4264 51.3819 61.0269C51.3506 61.8323 51.3715 62.7424 51.4342 63.0353L51.5282 63.5897L50.8386 63.7885C49.1669 64.2697 47.3071 64.5312 45.604 64.5312C43.8905 64.5312 41.5501 64.186 40.15 63.7362C39.6694 63.5793 39.6589 63.5688 39.7321 63.2445C39.7739 63.0562 39.8052 62.1985 39.8052 61.3407C39.7948 60.0541 39.753 59.6147 39.5649 58.8929C38.5201 55.0121 35.7617 52.2609 31.9063 51.2254C31.2062 51.0475 30.7361 50.9952 29.5658 50.9952C28.7613 50.9848 27.8941 51.0057 27.6433 51.0371L27.1836 51.0894L26.9329 50.2002C26.4313 48.3487 26.3373 47.5537 26.3373 45.1792C26.3373 42.8151 26.4209 42.0724 26.9329 40.1581L27.1627 39.2689L27.6329 39.3213C27.8941 39.3526 28.7613 39.3736 29.5658 39.3631C30.7883 39.3526 31.1853 39.3108 32.0212 39.0911C33.0974 38.7982 34.4974 38.1915 34.7064 37.9405C34.9572 37.6371 34.9781 37.1873 34.7482 36.8944C34.393 36.4446 34.1004 36.4446 33.0765 36.9049C31.8018 37.4802 31.1122 37.6476 29.7644 37.7208C27.821 37.8254 26.1179 37.3547 24.4671 36.2563C22.5655 34.9801 21.2594 33.1077 20.7266 30.8691C20.4131 29.572 20.4862 27.5113 20.8833 26.2979C22.3565 21.7998 26.8179 19.237 31.3734 20.2935ZM62.9691 20.1262C65.8842 20.3667 68.8306 22.6367 70.0322 25.5447C70.6278 26.9778 70.8472 28.9653 70.5651 30.4821C70.0218 33.4215 67.7754 36.1308 65.0275 37.1664C63.3035 37.8149 61.1825 37.9195 59.5212 37.4488C55.0284 36.1517 52.2596 31.6328 53.1895 27.1033C53.8268 23.9756 56.2509 21.3396 59.354 20.3981C60.0749 20.1785 61.5168 19.9797 62.0079 20.032C62.1542 20.0529 62.5825 20.0948 62.9691 20.1262ZM63.5542 52.7735C65.3096 53.1292 66.7723 53.9242 68.0679 55.2213C69.1232 56.2778 69.8023 57.3657 70.2725 58.7779C70.7009 60.0645 70.8054 61.8114 70.5233 63.1818C69.5411 68.0564 64.6513 71.2155 59.866 70.0753C55.8329 69.1233 53.0223 65.5772 53.0223 61.4558C53.0223 57.1146 56.1986 53.4116 60.5451 52.6794C61.1929 52.5748 62.8229 52.6166 63.5542 52.7735Z" fill="white"/>
                                    <path d="M30.1712 24.2371C29.1995 24.5823 28.6039 25.21 28.3114 26.1723C28.1964 26.5489 28.1442 26.6117 27.9352 26.5803C27.3606 26.5071 26.368 25.9108 25.7306 25.2414C25.2082 24.7079 25.0201 24.5719 24.7589 24.5719C24.2574 24.5719 24.0067 24.8229 23.7663 25.5761C23.1499 27.5741 23.5365 29.6348 24.7694 30.9528C25.0724 31.2771 25.1978 31.4863 25.1246 31.5281C25.0619 31.57 24.6231 31.6328 24.1634 31.6746C23.4633 31.7374 23.2857 31.7897 23.129 31.9884C22.6902 32.5219 22.92 33.0345 23.7663 33.4633C24.8216 33.9968 25.8665 34.2374 27.1621 34.2374C28.5308 34.2479 29.1577 34.1119 30.3488 33.547C31.0697 33.2018 31.3936 32.9612 32.0728 32.2708C33.3161 31.0156 33.9117 29.6662 34.0788 27.7519C34.1311 27.1243 34.2042 26.8418 34.4236 26.5175C35.2386 25.2832 35.2386 24.279 34.4236 24.1012C34.1833 24.0489 33.9744 24.1012 33.546 24.3418L32.9922 24.6556L32.4594 24.3941C31.7489 24.0489 30.8817 23.9861 30.1712 24.2371ZM32.0101 26.12C32.3444 26.392 32.3862 26.4862 32.4176 26.9778C32.4698 27.8251 32.2504 28.8712 31.8638 29.6976C31.0697 31.3294 29.5547 32.3859 27.7054 32.5847L27.0576 32.6474L27.4442 32.3755C28.2173 31.8315 28.1024 31.2143 27.1098 30.6181C25.8142 29.8335 25.2814 29.0595 25.156 27.7833L25.0933 27.0824L25.6993 27.4485C26.671 28.0343 27.371 28.254 28.4263 28.3063C29.3144 28.3586 29.3875 28.3481 29.5965 28.118C29.7741 27.9402 29.8264 27.7519 29.8264 27.3439C29.8264 25.9631 31.007 25.3041 32.0101 26.12Z" fill="white"/>
                                    <path d="M50.6293 37.2919C50.5039 37.4488 50.4099 37.7103 50.4099 37.8672C50.4099 38.1601 50.3263 38.2124 48.8218 38.9551C46.8575 39.907 44.8096 40.6184 44.1409 40.5765C43.8797 40.5556 42.7304 40.5347 41.5811 40.5347C39.1571 40.5242 38.9481 40.587 38.5197 41.4134C38.2899 41.8736 38.2794 41.9573 38.3108 44.3632C38.3421 46.675 38.3525 46.8528 38.5615 47.1248C38.9377 47.6374 39.2929 47.8257 39.9511 47.878L40.578 47.9198L40.6303 48.5684C40.6616 48.9136 40.7348 50.1479 40.7975 51.2986C40.9019 53.3488 40.9019 53.3907 41.1736 53.6208C41.6124 54.0183 42.2811 53.8928 42.4692 53.3907C42.5528 53.1605 42.4692 50.6291 42.3125 48.5997L42.2602 47.8989H43.002C43.3991 47.8989 43.8275 47.857 43.932 47.7943C44.0678 47.7211 44.4021 47.7734 45.1753 48.0035C46.3142 48.3487 46.5858 48.3278 46.8993 47.878C47.3486 47.2399 46.9515 46.7482 45.6664 46.3821C45.1649 46.2357 44.6738 46.1206 44.6006 46.1206C44.4753 46.1206 44.4544 45.7963 44.4753 44.2272L44.5066 42.3339L45.7082 41.9887C47.0247 41.6121 47.9859 41.246 49.4069 40.587C49.9188 40.3464 50.3472 40.1581 50.3681 40.1581C50.389 40.1581 50.4099 41.9991 50.4099 44.2377V48.3173L49.8875 48.0558C48.874 47.5432 48.2158 47.8466 48.3202 48.788C48.3516 49.1123 48.4874 49.2169 49.48 49.7504C50.2218 50.1479 50.4099 50.2944 50.4099 50.4826C50.4099 51.0998 50.9323 51.5392 51.4965 51.3927C52.1025 51.2463 52.0816 51.4869 52.0816 44.1645C52.0816 37.5743 52.0816 37.4383 51.8727 37.2291C51.5488 36.9049 50.901 36.9467 50.6293 37.2919ZM42.7826 44.1854V46.2252H41.3721H39.9616V44.1854V42.1456H41.3721H42.7826V44.1854Z" fill="white"/>
                                    <path d="M62.426 22.8877C61.9036 23.0551 61.4961 23.3166 61.0782 23.7978C60.4931 24.4673 60.3364 25.053 60.3364 26.6326V27.9192H59.6259C59.0094 27.9192 58.8736 27.9506 58.6855 28.1598C58.4034 28.4632 58.393 28.9653 58.6542 29.2896C58.8214 29.4883 58.9676 29.5406 59.5945 29.572L60.3364 29.6138V32.0721V34.5198L60.5976 34.7709C60.7543 34.9383 60.9737 35.0324 61.1722 35.0324C61.3708 35.0324 61.5902 34.9383 61.7469 34.7709L62.0081 34.5198V32.0721V29.6138L62.8022 29.572C63.4813 29.5406 63.6276 29.4988 63.7948 29.2896C64.056 28.9758 64.0455 28.5364 63.7739 28.1912C63.5754 27.9402 63.5022 27.9192 62.7813 27.9192H62.0081V26.7163C62.0081 24.8438 62.2275 24.5719 63.753 24.4673C64.6306 24.4045 64.7769 24.3731 64.9441 24.1639C65.2053 23.8396 65.1948 23.2643 64.9336 23.0028C64.756 22.825 64.5888 22.7936 63.7112 22.804C63.147 22.804 62.5723 22.8459 62.426 22.8877Z" fill="white"/>
                                    <path d="M57.5671 56.0477C57.0447 56.2778 56.5118 56.874 56.3655 57.3866C56.282 57.6586 56.2611 59.0498 56.282 61.7277L56.3133 65.6609L56.6267 66.1107C56.8044 66.3513 57.1492 66.6651 57.3999 66.8011C57.8596 67.0417 57.8805 67.0417 61.8509 67.0417C65.8213 67.0417 65.8422 67.0417 66.3019 66.8011C66.5527 66.6651 66.9079 66.3513 67.0751 66.1107L67.3885 65.6609L67.4199 61.7277C67.4408 59.0708 67.4199 57.6586 67.3363 57.3866C67.19 56.874 66.6571 56.2778 66.1347 56.0477C65.7586 55.8698 65.372 55.8489 61.8509 55.8489C58.3298 55.8489 57.9432 55.8698 57.5671 56.0477ZM65.581 57.7004C65.7586 57.8573 65.769 58.1084 65.769 61.4558C65.769 64.573 65.7481 65.0646 65.6019 65.2006C65.466 65.3471 64.975 65.368 61.8509 65.368C58.7269 65.368 58.2358 65.3471 58.1 65.2006C57.9537 65.0646 57.9328 64.573 57.9328 61.4767C57.9328 58.2967 57.9537 57.8887 58.1104 57.7109C58.2671 57.5331 58.5179 57.5226 61.83 57.5226C64.9959 57.5226 65.4033 57.5435 65.581 57.7004Z" fill="white"/>
                                    <path d="M60.8585 59.259C58.9047 60.1063 59.0196 63.0458 61.0153 63.7362C61.6526 63.9454 62.0496 63.9454 62.687 63.7362C64.6513 63.0562 64.808 60.2633 62.9273 59.2904C62.4467 59.0498 61.3914 59.0289 60.8585 59.259ZM62.4571 61.1001C62.6348 61.3407 62.6452 61.4244 62.5407 61.6859C62.3735 62.0939 61.9661 62.2821 61.5899 62.1252C60.8272 61.8114 61.078 60.7131 61.8825 60.7863C62.1332 60.8072 62.3109 60.9014 62.4571 61.1001Z" fill="white"/>
                                    <path d="M27.0481 57.2715C26.4421 57.5644 26.4316 57.6481 26.4316 61.2779C26.4316 63.0981 26.463 64.7194 26.5152 64.8764C26.6093 65.2216 27.1421 65.5772 27.5705 65.5772C27.9362 65.5772 33.4007 62.4809 33.7768 62.0625C34.0485 61.7591 34.0798 61.2152 33.8604 60.7863C33.7559 60.5771 32.9618 60.0645 30.9662 58.9138C27.5601 56.9473 27.6332 56.9786 27.0481 57.2715ZM30.1199 60.3992C31.405 61.1315 31.6976 61.3407 31.5827 61.4453C31.4677 61.5499 28.9288 63.0353 28.2914 63.37L28.0511 63.4956V61.3302V59.1754L28.2914 59.3218C28.4168 59.4055 29.2422 59.8867 30.1199 60.3992Z" fill="white"/>
                                </g>
                                <defs>
                                    <clipPath id="clip0_456_2309">
                                        <rect width="53.4954" height="53.558" fill="white" transform="translate(18.752 18.5047)"/>
                                    </clipPath>
                                </defs>
                            </svg>