<svg width="50" height="46" viewBox="0 0 50 46" fill="none" xmlns="http://www.w3.org/2000/svg">
<path d="M0.771484 0.763672C0.595703 0.880859 0.341797 1.13477 0.224609 1.31055L0 1.64258V17.4238V33.2051L0.234375 33.7031C0.566406 34.4062 0.996094 34.8652 1.67969 35.207L2.27539 35.5H9.3457H16.4062V38.2734V41.0469L15.0977 41.0859C13.8184 41.1152 13.7793 41.125 13.3691 41.4082C12.1094 42.2969 12.1094 44.2305 13.3691 45.1191L13.7891 45.4121H25H36.2109L36.6309 45.1191C37.8906 44.2305 37.8906 42.2969 36.6309 41.4082C36.2207 41.125 36.1816 41.1152 34.9023 41.0859L33.5938 41.0469V38.2734V35.5H40.6543H47.7246L48.3203 35.207C49.0039 34.8652 49.4336 34.4062 49.7656 33.7031C49.9805 33.2441 50 33.0781 50 31.584C50 30.0703 49.9902 29.9531 49.8047 29.7871C49.5508 29.5527 48.9941 29.5527 48.75 29.7676C48.584 29.9238 48.5547 30.1191 48.5156 31.3887C48.4863 32.5898 48.4473 32.8828 48.291 33.1562C48.0371 33.5762 47.6855 33.8301 47.207 33.9375C46.6992 34.0645 3.30078 34.0645 2.79297 33.9375C2.31445 33.8301 1.96289 33.5762 1.70898 33.1465C1.51367 32.8242 1.51367 32.6094 1.48438 24.7285L1.45508 16.6523H2.19727H2.92969V24.3281V32.0039L3.21289 32.2871L3.49609 32.5703H25H46.5039L46.7871 32.2871L47.0703 32.0039V18.9473V5.89062L46.7871 5.60742L46.5039 5.32422H30.332H14.1602V4.5918V3.85938H30.498C39.9512 3.85938 46.9922 3.89844 47.207 3.95703C47.6855 4.06445 48.0371 4.31836 48.291 4.74805C48.4863 5.07031 48.4863 5.28516 48.5156 16.2031C48.5449 28.7031 48.4766 27.6875 49.2676 27.6875C50.0684 27.6875 50 28.7324 50 16.0078V4.68945L49.7656 4.19141C49.4336 3.48828 49.0039 3.0293 48.3203 2.6875L47.7246 2.39453H30.9375H14.1602V2.01367C14.1602 1.57422 13.8574 1.07617 13.3887 0.763672C13.0859 0.558594 12.9492 0.539062 11.7578 0.539062C10.4785 0.539062 10.459 0.539062 10.2637 0.792969C10 1.125 10 1.41797 10.2637 1.75C10.459 1.99414 10.498 2.00391 11.4258 2.00391C12.168 2.00391 12.4219 2.04297 12.5391 2.16016C12.6758 2.29688 12.6953 3.00977 12.6953 8.5957C12.6953 14.1816 12.6758 14.8945 12.5391 15.0312C12.4023 15.168 11.7773 15.1875 7.08008 15.1875C2.38281 15.1875 1.75781 15.168 1.62109 15.0312C1.48438 14.8945 1.46484 14.1816 1.46484 8.5957C1.46484 3.00977 1.48438 2.29688 1.62109 2.16016C1.74805 2.02344 2.17773 2.00391 4.78516 2.00391H7.80273L7.99805 1.75C8.26172 1.41797 8.26172 1.125 7.99805 0.792969L7.80273 0.539062H4.45312C1.13281 0.539062 1.10352 0.539062 0.771484 0.763672ZM45.6055 18.9473V31.1055H43.75H41.8945V22.2871C41.8945 13.8203 41.8848 13.4688 41.709 13.1953C41.6113 13.0488 41.3965 12.834 41.25 12.7363C40.9766 12.5605 40.5762 12.5508 29.7363 12.5508C18.8965 12.5508 18.4961 12.5605 18.2227 12.7363C18.0762 12.834 17.8613 13.0488 17.7637 13.1953C17.5879 13.4688 17.5781 13.8203 17.5781 22.2871V31.1055H10.9863H4.39453V23.8789V16.6523H8.73047H13.0566L13.3887 16.4277C13.5645 16.3105 13.8184 16.0566 13.9355 15.8809L14.1602 15.5488V11.1738V6.78906H29.8828H45.6055V18.9473ZM40.4297 22.5605V31.1055H29.7363H19.043V22.5605V14.0156H29.7363H40.4297V22.5605ZM32.0312 38.2832V41.0664H29.8926H27.7539L27.7148 39.9629C27.6758 38.8008 27.5488 38.4199 27.002 37.7656C26.0938 36.6914 23.9062 36.6914 22.998 37.7656C22.4512 38.4199 22.3242 38.8008 22.2852 39.9629L22.2461 41.0664H20.1074H17.9688V38.2832V35.5H25H32.0312V38.2832ZM25.5762 38.6738C25.9961 38.8887 26.1719 39.3574 26.1719 40.2754V41.0664H25H23.8281V40.2949C23.8281 39.875 23.877 39.3867 23.9355 39.2207C24.1406 38.625 24.9609 38.3516 25.5762 38.6738ZM35.5957 42.668C36.1816 42.9121 36.1816 43.6152 35.5859 43.8594C35.0977 44.0645 14.9023 44.0645 14.4141 43.8594C13.8379 43.6152 13.8184 42.9219 14.3848 42.6777C14.8633 42.4727 35.0977 42.4629 35.5957 42.668Z" fill="#30A9E0"/>
<path d="M10.6143 19.0941C10.126 19.2406 9.7061 19.6508 9.34478 20.3441L8.98345 21.018L8.37798 21.0863C7.41118 21.2035 6.8936 21.5355 6.59087 22.2484C6.25884 23.059 6.46392 23.8207 7.22564 24.5629L7.71392 25.0414L7.59673 25.7738C7.46978 26.6234 7.56743 27.1019 7.95806 27.5707C8.54399 28.2738 9.50103 28.391 10.5459 27.8832L11.1905 27.5707L11.7959 27.8734C12.2549 28.1078 12.5284 28.1762 12.9385 28.1762C14.2862 28.1762 14.9698 27.2484 14.7354 25.7348L14.628 25.0414L15.1651 24.4848C15.4483 24.1723 15.751 23.7523 15.8194 23.5473C16.0733 22.7562 15.7022 21.7308 15.0186 21.3695C14.8428 21.2816 14.3936 21.1547 14.0127 21.0961L13.3292 20.9984L12.9581 20.2953C12.5772 19.5726 12.3038 19.309 11.7276 19.1137C11.3467 18.9769 11.0049 18.9769 10.6143 19.0941ZM11.7667 21.4183C12.2256 22.2973 12.4502 22.4437 13.5538 22.6195C14.003 22.6879 14.2862 22.7758 14.3252 22.8637C14.3545 22.9516 14.1495 23.2543 13.7881 23.6254C13.4561 23.9672 13.1631 24.3578 13.1241 24.5141C13.0557 24.7777 13.1338 25.9887 13.2413 26.2523C13.2706 26.3305 13.2217 26.4672 13.1338 26.5551C12.9776 26.7113 12.919 26.6918 12.3135 26.3598C11.4444 25.8715 10.917 25.8617 10.1163 26.3012C9.80376 26.4769 9.46196 26.6137 9.34478 26.5941C9.1104 26.5648 9.1104 26.5648 9.22759 25.3246C9.31548 24.4555 9.20806 24.2211 8.44634 23.4984C8.01665 23.098 7.90923 22.8734 8.09478 22.766C8.1436 22.7269 8.53423 22.6488 8.96392 22.5707C9.3936 22.4926 9.85259 22.3656 9.98931 22.2777C10.126 22.1801 10.3995 21.7992 10.6045 21.4086C11.1612 20.3441 11.21 20.3441 11.7667 21.4183Z" fill="#30A9E0"/>
<path d="M23.0076 16.5745C22.8416 16.7308 22.4705 17.5999 21.7771 19.4358C21.2302 20.8812 20.7713 22.1312 20.7517 22.1995C20.7224 22.2679 20.7517 22.4339 20.8103 22.5804C21.1033 23.3616 22.031 23.2444 22.3533 22.3851L22.4607 22.1214H23.5642H24.6775L24.8533 22.5218C25.0584 22.9612 25.2439 23.098 25.6638 23.098C26.0252 23.098 26.367 22.7366 26.367 22.346C26.367 22.18 25.9275 20.8616 25.3806 19.4261C24.3162 16.6038 24.1795 16.3597 23.5838 16.3597C23.3787 16.3597 23.1638 16.4378 23.0076 16.5745Z" fill="#30A9E0"/>
<path d="M35.1758 16.4757C34.2578 16.7882 33.7012 17.7843 33.9062 18.7413C34.0527 19.4347 34.4434 19.7667 35.6738 20.255C36.9141 20.7531 37.0898 20.9484 36.6699 21.3195C36.2793 21.6515 35.7031 21.5734 35.0195 21.1046C34.4336 20.7042 34.209 20.6749 33.8477 20.9581C33.6523 21.1144 33.5938 21.2413 33.5938 21.5246C33.5938 22.0324 33.8574 22.3449 34.6094 22.7062C35.752 23.2726 36.9141 23.2042 37.7051 22.5304C38.4473 21.8859 38.6621 21.007 38.2715 20.1867C37.998 19.6398 37.5195 19.2882 36.3672 18.839C35.6836 18.5656 35.4492 18.4288 35.4492 18.3019C35.4492 17.8722 36.1719 17.8038 36.8066 18.1652C37.5879 18.6144 38.2812 18.3898 38.2812 17.6867C38.2812 17.257 38.0664 17.0128 37.4023 16.6906C36.7969 16.3878 35.7324 16.2902 35.1758 16.4757Z" fill="#30A9E0"/>
<path d="M27.9297 16.75C27.7441 16.9355 27.7344 17.0723 27.7344 19.8164V22.6973L27.9883 22.8926C28.2129 23.0684 28.3887 23.0977 29.248 23.0977C29.8438 23.0977 30.4297 23.0391 30.7324 22.9512C31.416 22.7461 32.0312 22.1797 32.3828 21.418C32.6367 20.8613 32.666 20.7051 32.666 19.7773C32.666 18.8594 32.6367 18.6934 32.3926 18.166C32.0508 17.4238 31.7188 17.082 31.1035 16.7891C30.6738 16.584 30.4785 16.5547 29.375 16.5547C28.252 16.5547 28.1055 16.5742 27.9297 16.75ZM30.5371 18.2734C30.9277 18.5273 31.1035 18.9766 31.1035 19.7773C31.1035 20.9395 30.625 21.5352 29.7168 21.5352H29.2969V19.7676V17.9902L29.8145 18.0586C30.0879 18.0977 30.4199 18.1953 30.5371 18.2734Z" fill="#30A9E0"/>
<path d="M23.3393 25.1484C23.0366 25.4512 23.0756 26.0566 23.3979 26.3105C23.6518 26.5156 23.7397 26.5156 29.7358 26.5156C35.7319 26.5156 35.8198 26.5156 36.0737 26.3105C36.396 26.0566 36.435 25.4512 36.1323 25.1484C35.937 24.9531 35.81 24.9531 29.7358 24.9531C23.6616 24.9531 23.5346 24.9531 23.3393 25.1484Z" fill="#30A9E0"/>
<path d="M23.3393 28.0781C23.0366 28.3809 23.0756 28.9863 23.3979 29.2402C23.6518 29.4453 23.7397 29.4453 29.7358 29.4453C35.7319 29.4453 35.8198 29.4453 36.0737 29.2402C36.396 28.9863 36.435 28.3809 36.1323 28.0781C35.937 27.8828 35.81 27.8828 29.7358 27.8828C23.6616 27.8828 23.5346 27.8828 23.3393 28.0781Z" fill="#30A9E0"/>
<path d="M3.67257 4.63086C3.42843 4.9043 3.44796 5.49023 3.70186 5.75391C3.90694 5.94922 4.0046 5.95898 5.82101 5.95898H7.73507L7.96944 5.68555C8.25265 5.35352 8.27218 5.04102 7.99874 4.69922L7.80343 4.44531H5.82101C3.98507 4.44531 3.82882 4.45508 3.67257 4.63086Z" fill="#30A9E0"/>
<path d="M3.82745 8.11719C3.7005 8.20508 3.56378 8.38086 3.51495 8.50781C3.40753 8.79102 3.56378 9.29883 3.80792 9.42578C3.91534 9.48438 5.25324 9.52344 7.07941 9.52344C8.90558 9.52344 10.2435 9.48438 10.3509 9.42578C10.595 9.29883 10.7513 8.79102 10.6439 8.50781C10.4485 7.9707 10.3607 7.96094 7.07941 7.96094C4.45245 7.96094 4.013 7.98047 3.82745 8.11719Z" fill="#30A9E0"/>
<path d="M4.04255 10.959C3.49568 11.0664 3.28084 11.9355 3.71052 12.2773C3.90584 12.4336 4.1988 12.4531 7.07966 12.4531C9.96052 12.4531 10.2535 12.4336 10.4488 12.2773C10.7418 12.043 10.7418 11.4375 10.4586 11.1445C10.2535 10.9492 10.1656 10.9395 7.24568 10.9297C5.59529 10.9199 4.14998 10.9297 4.04255 10.959Z" fill="#30A9E0"/>
</svg>
