<svg width="74" height="74" viewBox="0 0 74 74" fill="none" xmlns="http://www.w3.org/2000/svg">
                                <path d="M42.5156 1.12467C42.0781 1.49967 42.0781 1.53092 42.0781 3.24967C42.0781 4.96842 42.0781 4.99967 42.5156 5.37467C43.125 5.89029 44 5.89029 44.6406 5.34342L45.125 4.93717V3.24967C45.125 1.6403 45.1094 1.56217 44.7188 1.15592C44.1562 0.609045 43.1406 0.59342 42.5156 1.12467Z" fill="#30A9E0"/>
                                <path d="M32.0156 3.78105C31.5469 4.04668 31.2344 4.60918 31.2188 5.20293C31.2188 5.85918 32.4688 7.96855 33.0156 8.21855C33.7188 8.54668 34.3281 8.45293 34.8281 7.95293C35.4844 7.29668 35.4375 6.59355 34.6563 5.17168C33.8281 3.67168 33 3.23418 32.0156 3.78105Z" fill="#30A9E0"/>
                                <path d="M53.7812 3.70314C53.1562 3.96877 51.8438 6.07814 51.8438 6.81252C51.8438 7.29689 52.25 8.04689 52.6094 8.25002C53.0625 8.48439 53.9062 8.43752 54.3125 8.17189C54.9219 7.73439 55.9062 5.89064 55.9062 5.15627C55.9062 4.03127 54.7969 3.28127 53.7812 3.70314Z" fill="#30A9E0"/>
                                <path d="M41.6878 8.34351C40.2191 8.53101 38.3284 9.12476 36.7659 9.89038C28.1722 14.0779 25.3284 24.8123 30.7347 32.7498C31.0628 33.2341 32.0472 34.406 32.9222 35.3435C34.1566 36.6716 34.6566 37.3435 35.1878 38.4216C35.9534 39.9216 36.5472 42.1716 36.2347 42.281C35.8128 42.4216 35.0628 43.2029 34.7972 43.7966C34.4222 44.6091 34.4222 45.7185 34.8128 47.2185C35.2503 48.9373 35.9691 50.1873 37.2347 51.4529C38.9691 53.1873 41.0316 54.031 43.5159 54.031C46.2191 54.031 48.1253 53.2498 49.9847 51.3904C51.7816 49.5935 52.6253 47.6091 52.6253 45.156C52.6253 43.9216 52.2191 43.0935 51.3441 42.5623L50.7972 42.2341L51.0003 41.281C51.4534 38.9998 52.4066 37.3279 54.5159 35.0623C56.2503 33.1873 56.9378 32.1873 57.7972 30.3748C58.6097 28.6091 59.0316 26.8279 59.1409 24.6248C59.5628 15.8123 52.9066 8.59351 44.1097 8.32788C43.0784 8.29663 41.9847 8.31226 41.6878 8.34351ZM46.6878 11.8591C53.9066 13.7029 57.9534 21.6873 55.1097 28.4998C54.4378 30.1091 53.6097 31.3279 52.0941 32.9373C50.6722 34.4373 49.8128 35.6248 49.0784 37.0779C48.5316 38.156 47.8753 40.1873 47.7191 41.2498L47.6097 41.9998H43.5784H39.5316L39.4222 41.1091C39.2034 39.3279 38.2659 36.9685 37.1097 35.281C36.8441 34.8904 36.0003 33.9216 35.2347 33.1091C33.6253 31.3904 33.1097 30.6873 32.3909 29.1404C31.5784 27.4529 31.2191 25.8279 31.2191 23.9216C31.2191 21.7966 31.5472 20.406 32.4691 18.4841C35.0784 13.1248 40.9378 10.406 46.6878 11.8591ZM49.4222 45.9373C49.2659 47.031 48.4847 48.4529 47.6253 49.2498C44.1722 52.4841 38.6722 50.656 37.7972 45.9998L37.6722 45.281H43.5941H49.5316L49.4222 45.9373Z" fill="#30A9E0"/>
                                <path d="M43.1406 14.6094C42.6719 14.7031 42 15.5156 42 16C42 16.2656 41.8438 16.4531 41.4219 16.6719C39.9219 17.4375 38.9688 19.0469 38.9688 20.8281C38.9688 23.2969 40.5781 25.0625 43.1875 25.4219C44.7656 25.6563 45.4531 26.5313 44.9062 27.6094C44.5938 28.1875 44.2188 28.4063 43.5156 28.4063C42.9531 28.4063 42.1562 27.7969 42.1562 27.3594C42.1562 27.2344 41.9844 26.9688 41.7656 26.7656C41.2344 26.2188 40.1719 26.2188 39.5469 26.75C39.1875 27.0625 39.1094 27.25 39.1094 27.8125C39.125 29.0469 40.1406 30.5156 41.4219 31.1094C41.8438 31.3125 42 31.4844 42 31.7656C42 32.2656 42.6875 33.0469 43.2344 33.1719C43.7969 33.2969 44.7188 32.9219 44.9531 32.5C45.0469 32.3125 45.125 32.0156 45.125 31.8125C45.125 31.5469 45.3125 31.3594 45.8281 31.0781C47.7656 30.0469 48.7188 27.5781 48.0156 25.4219C47.4688 23.7969 45.5156 22.3125 43.9219 22.3125C43.2812 22.3125 42.5312 21.9531 42.3125 21.5469C41.8281 20.625 42.5312 19.3438 43.5156 19.3438C44.25 19.3438 44.6094 19.5625 44.9531 20.25C45.5156 21.3438 46.3281 21.7188 47.2188 21.2969C48.2031 20.8281 48.3594 19.7344 47.625 18.4688C47.1406 17.6094 46.4531 16.9531 45.6406 16.5625C45.25 16.375 45.125 16.2188 45.125 15.9063C45.125 15.4375 44.5 14.6563 44.125 14.6563C44 14.6563 43.8125 14.625 43.6875 14.5938C43.5781 14.5625 43.3281 14.5781 43.1406 14.6094Z" fill="#30A9E0"/>
                                <path d="M24.0004 11.7655C23.766 11.8905 23.516 12.2343 23.4066 12.5468C23.0785 13.5311 23.5004 14.1718 25.0629 15.0468C26.3129 15.7499 27.0004 15.7655 27.641 15.1405C27.9848 14.7968 28.0941 14.5311 28.0941 14.078C28.0941 13.2811 27.8285 12.9374 26.6566 12.2343C25.5473 11.5624 24.641 11.4061 24.0004 11.7655Z" fill="#30A9E0"/>
                                <path d="M60.5782 12.2188C59.0626 13.1094 58.7345 13.7813 59.2657 14.8125C59.7813 15.8125 60.6876 15.8438 62.3126 14.9219C62.9532 14.5625 63.5626 14.0781 63.672 13.875C64.0157 13.1875 63.922 12.5 63.422 11.9844C62.7345 11.3125 62.047 11.3594 60.5782 12.2188Z" fill="#30A9E0"/>
                                <path d="M2.15625 21.8749C1.17188 22.3749 0.75 23.078 0.75 24.1718C0.75 24.7655 0.84375 25.203 1.0625 25.5624C1.875 26.8905 3.89062 27.1874 5.03125 26.1405C5.45312 25.7499 5.48438 25.7499 8.25 25.7499C11.2031 25.7499 11.6875 25.828 12.0625 26.4062C12.1875 26.6093 14.3594 34.7655 16.8906 44.5468C20.5938 58.8437 21.5938 62.4687 21.9375 63.0468C22.25 63.5312 22.6719 63.9218 23.25 64.2499C24.0469 64.703 24.2188 64.7343 26.0938 64.7812C27.1875 64.828 28.0938 64.8749 28.0938 64.8905C28.0938 64.9062 28 65.1718 27.875 65.453C26.7969 68.078 28.1406 71.3905 30.8438 72.7187C31.6875 73.1249 31.9062 73.1718 33.4062 73.1718C34.9531 73.1718 35.1094 73.1405 35.9844 72.6718C37.9375 71.6405 39.0469 69.9218 39.1562 67.703C39.2031 66.7187 39.1562 66.2812 38.9062 65.6249L38.5938 64.8124H43.5938C48.2969 64.8124 48.5938 64.828 48.4844 65.078C48.4219 65.2343 48.2656 65.703 48.1562 66.1405C47.3906 68.8905 49.0156 71.8905 51.7969 72.9374C53.1719 73.453 55.0156 73.3437 56.3906 72.6718C58.3438 71.703 59.5 69.953 59.625 67.7812C59.6719 66.8905 59.6094 66.3905 59.3906 65.703L59.0781 64.8124H60.6094C61.4531 64.8124 62.5 64.7343 62.9375 64.6405C63.9062 64.4374 64.9219 63.6874 65.3906 62.8593C65.5781 62.4999 67.3906 55.7812 69.5 47.6249C73.7188 31.3437 73.625 31.8124 72.6719 30.6405C71.6875 29.4218 71.7188 29.4218 66.4219 29.4218H61.7188L61.3125 29.7968C60.5625 30.4999 60.6875 31.8593 61.5156 32.3124C61.7031 32.4062 63.4219 32.4687 65.9688 32.4687C68.25 32.4687 70.125 32.4843 70.125 32.4999C70.1094 32.5312 69.6719 34.2343 69.125 36.2968L68.1406 40.0468L64.5156 40.0937L60.875 40.1249L60.9688 39.703C61.0156 39.453 61.2031 38.3749 61.375 37.2655C61.6562 35.4687 61.6719 35.2187 61.4531 34.7187C61 33.6093 59.3594 33.4843 58.7344 34.4999C58.5781 34.7655 58.3281 35.9687 58.0938 37.5312L57.7188 40.1249H56.7188C55.8281 40.1249 55.6719 40.1718 55.2656 40.578C54.2344 41.6093 54.9531 43.2499 56.4375 43.2499C56.8438 43.2499 57.1562 43.328 57.1562 43.4218C57.1562 43.5155 56.9062 45.1718 56.6094 47.1093C56.3125 49.0468 56.0625 50.703 56.0625 50.7655C56.0625 50.8437 55.6562 50.9062 55.1406 50.9062C54.3594 50.9062 54.1719 50.9687 53.8125 51.3124C53.5 51.6405 53.4062 51.8749 53.4062 52.4218C53.4062 53.3593 54.0312 54.0312 54.9219 54.0312H55.5312L54.9531 57.7499C54.625 59.7812 54.3594 61.4687 54.3594 61.4843C54.3438 61.5155 53.2031 61.5312 51.8281 61.5312H49.2969L49.4219 59.5312C49.5 58.0937 49.4688 57.4218 49.3281 57.1249C49.1406 56.703 48.3594 56.2187 47.8594 56.2187C47.4531 56.2187 46.7188 56.6562 46.5156 57.0155C46.4219 57.203 46.2969 58.2812 46.2344 59.4062L46.1406 61.453L43.6094 61.4999L41.0625 61.5312L41.0469 61.1093C41.0469 60.8593 40.9844 59.8749 40.9219 58.9218C40.8281 57.3749 40.7656 57.1093 40.4375 56.7655C39.7344 56.0312 38.5312 56.1093 37.9844 56.9374C37.75 57.3124 37.7188 57.6562 37.75 59.1718C37.7812 60.1718 37.8281 61.1093 37.875 61.2499C37.9531 61.5155 37.7656 61.5312 35.375 61.5312C33.7812 61.5312 32.7812 61.4687 32.7812 61.3749C32.7812 61.2968 32.5312 59.6718 32.2344 57.7655C31.9375 55.8593 31.6875 54.2343 31.6875 54.1562C31.6875 54.0937 31.9062 54.0312 32.1562 54.0312C33.2656 54.0312 34.0156 53.1562 33.8125 52.1093C33.6562 51.3124 33.2188 50.9999 32.1094 50.9062L31.1562 50.828L30.6562 47.5468C30.375 45.7343 30.1094 44.0312 30.0625 43.7499C29.9844 43.2499 30 43.2499 30.6094 43.2499C31.9531 43.2499 32.7031 42.3124 32.3125 41.1405C32.0781 40.4374 31.4844 40.1249 30.375 40.1249C29.3906 40.1249 29.5469 40.4687 29.0156 37.0155C28.7188 35.078 28.6094 34.703 28.2656 34.3124C27.5469 33.4999 26.1406 33.7187 25.7344 34.703C25.5625 35.0937 25.5781 35.4999 25.8125 37.0624C25.9688 38.1093 26.125 39.2187 26.1719 39.5312L26.2656 40.1249H22.6406C20.6562 40.1249 19.0312 40.0937 19.0312 40.0624C19.0312 40.0312 18.6094 38.3905 18.0938 36.4062C17.5781 34.4374 17.1562 32.7343 17.1562 32.6405C17.1562 32.5155 18.4062 32.4687 21.3594 32.4687H25.5469L25.9688 32.0624C26.4062 31.6093 26.5312 30.703 26.2188 30.1093C25.8281 29.4062 25.4062 29.3437 20.7031 29.3437H16.2656L15.8281 27.6562C15.2344 25.3124 14.8906 24.6093 14.0156 23.8124C12.8281 22.7499 12.2969 22.6249 8.70312 22.6249H5.60938L4.9375 22.1562C4 21.4999 3.0625 21.4062 2.15625 21.8749ZM27.2812 46.6405C27.5781 48.5155 27.8438 50.2343 27.8906 50.4687L27.9688 50.9062H24.9219C22.1406 50.9062 21.8594 50.8749 21.7812 50.6249C21.7344 50.4843 21.375 49.0937 20.9844 47.5468C20.5781 45.9999 20.1562 44.4062 20.0469 43.9843L19.8281 43.2499H23.2969H26.7656L27.2812 46.6405ZM67.2812 43.4374C67.2344 43.5468 66.7969 45.2812 66.2812 47.2655L65.3594 50.9062H62.2969H59.2344L59.75 47.578C60.0469 45.7655 60.3125 44.0312 60.3594 43.7499L60.4531 43.2499H63.9062C66.5938 43.2499 67.3281 43.2968 67.2812 43.4374ZM28.4844 54.3749C28.625 55.0312 29.5 60.9374 29.5 61.2343C29.5 61.5155 29.3594 61.5312 27.1719 61.5312C25.3438 61.5312 24.8125 61.4843 24.6719 61.3124C24.5625 61.1874 24.0625 59.4999 23.5625 57.5624L22.6562 54.0312H25.5312C28.375 54.0312 28.4062 54.0312 28.4844 54.3749ZM64.5 54.0937C64.5 54.2968 62.7656 60.8749 62.625 61.1718C62.4844 61.5155 62.4219 61.5312 60.0469 61.5312C58.7188 61.5312 57.625 61.4843 57.625 61.4374C57.625 61.3905 57.875 59.7655 58.1719 57.828C58.4688 55.8905 58.7188 54.2343 58.7188 54.1718C58.7188 54.0937 60.0156 54.0312 61.6094 54.0312C63.2031 54.0312 64.5 54.0624 64.5 54.0937ZM34.4844 65.0312C35.1406 65.3749 35.875 66.2968 36 66.9374C36.2031 68.0468 35.5781 69.2655 34.4844 69.8124C33.2812 70.4374 31.8281 69.9843 31.125 68.7812C30.3594 67.4687 30.8594 65.7343 32.1875 65.078C32.8281 64.7499 33.9062 64.7343 34.4844 65.0312ZM54.9531 65.0468C55.5781 65.3593 56.1719 66.1249 56.3906 66.8437C56.75 68.0468 56.0156 69.4062 54.7344 69.9062C52.9844 70.5624 51.2188 69.3124 51.2188 67.3905C51.2188 66.3124 51.8281 65.3749 52.7812 64.9843C53.3594 64.7499 54.4531 64.7812 54.9531 65.0468Z" fill="#30A9E0"/>
                                <path d="M20.8906 22.7656C20.5312 23.125 20.4375 23.3594 20.4375 23.875C20.4375 24.3906 20.5312 24.625 20.8906 24.9844C21.3438 25.4219 21.3906 25.4375 22.9062 25.4375C24.3594 25.4375 24.5156 25.4062 24.9531 25.0312C25.375 24.6875 25.4375 24.5312 25.4375 23.875C25.4375 23.2188 25.375 23.0625 24.9531 22.7188C24.5156 22.3438 24.3594 22.3125 22.9062 22.3125C21.3906 22.3125 21.3438 22.3281 20.8906 22.7656Z" fill="#30A9E0"/>
                                <path d="M62.2031 22.6875C61.8281 23.0156 61.7656 23.1875 61.7656 23.875C61.7656 24.5625 61.8281 24.7344 62.2031 25.0625C62.5938 25.4062 62.7812 25.4375 64.1094 25.4375C64.9219 25.4375 65.75 25.3594 65.9531 25.2656C66.875 24.8438 67.0156 23.4531 66.2344 22.75C65.7656 22.3281 65.6719 22.3125 64.1875 22.3125C62.7812 22.3125 62.6094 22.3438 62.2031 22.6875Z" fill="#30A9E0"/>
                            </svg>