<svg width="78" height="74" viewBox="0 0 78 74" fill="none" xmlns="http://www.w3.org/2000/svg">
                                <path d="M47.046 0.750111C46.1085 1.07824 40.9054 2.85949 35.4835 4.71886C28.6398 7.07824 25.5617 8.20324 25.3742 8.43761C25.1242 8.71886 25.0929 9.15636 25.0929 12.3907V16.0314L24.5773 16.2032C23.2023 16.6564 22.2492 18.1095 22.2492 19.7501C22.2335 22.0314 23.7648 23.5626 26.0304 23.5626C27.6867 23.5626 28.8742 22.8126 29.5148 21.3907C29.8742 20.5626 29.9054 19.0157 29.5773 18.2189C29.296 17.547 28.4523 16.5782 28.046 16.4532C27.7648 16.3595 27.7492 16.1876 27.7492 13.7032C27.7492 12.2501 27.7648 11.0626 27.796 11.0626C27.8117 11.0626 29.0304 11.4376 30.4835 11.9064L33.1398 12.7501L33.1867 19.7032L33.2179 26.6564L26.7023 26.7189C20.4679 26.7814 20.1242 26.797 19.1398 27.1251C16.5148 28.0001 14.4523 30.172 13.7648 32.797C13.4523 33.922 13.4679 36.1095 13.7804 37.172C14.5929 39.9532 16.8117 42.1407 19.546 42.8595C20.3585 43.0626 22.8585 43.0939 38.8742 43.0939H57.2804V44.0626C57.2804 44.6095 57.3742 45.2189 57.4835 45.4376C57.7179 45.9064 58.4367 46.2814 58.8898 46.1564C59.0773 46.1095 59.9992 45.547 60.921 44.8907C61.921 44.1876 62.671 43.7501 62.796 43.8126C62.8898 43.8751 63.6554 44.4064 64.4835 44.9845C66.2023 46.2032 66.5929 46.3439 67.2492 46.0001C67.8273 45.7032 67.9054 45.5001 67.9054 44.172V43.0939H72.4992C76.7804 43.0939 77.1085 43.0782 77.4523 42.797L77.8273 42.5001L77.8742 35.0782L77.921 27.6564L77.5304 27.2032L77.1554 26.7657L71.3585 26.7189L65.5617 26.672L65.5929 19.7032L65.6398 12.7189L69.3117 11.5626C71.3898 10.9064 73.1085 10.2814 73.296 10.1095C73.7023 9.71886 73.6867 8.81261 73.2804 8.39074C72.8898 8.00011 49.9367 0.125111 49.2492 0.140736C48.9835 0.140736 47.9992 0.421986 47.046 0.750111ZM58.6554 5.93761C63.7335 7.68761 67.9054 9.14074 67.9054 9.18761C67.9054 9.23449 63.7179 10.5939 58.6085 12.2189L49.3273 15.1407L42.2648 12.9064L35.2023 10.672L42.4523 10.5939C49.9054 10.5157 50.2335 10.4845 50.4679 9.87511C50.6554 9.40636 50.5617 8.75011 50.2648 8.39074L49.9679 8.01574L42.2023 7.93761L34.4367 7.85949L41.7648 5.32824C45.7804 3.93761 49.1554 2.79699 49.2335 2.78136C49.3273 2.78136 53.5617 4.20324 58.6554 5.93761ZM62.9054 20.1251V26.6876H49.3898H35.8742V20.2032C35.8742 15.5939 35.921 13.7189 36.046 13.7189C36.1398 13.7189 39.0929 14.6251 42.5929 15.7501C46.0929 16.8595 49.1398 17.7814 49.3429 17.7814C49.5304 17.7657 52.6554 16.8282 56.2648 15.672C59.8742 14.5314 62.8429 13.5782 62.8742 13.5782C62.8898 13.5626 62.9054 16.5157 62.9054 20.1251ZM26.9523 18.9689C27.5304 19.7032 27.3273 20.5626 26.4992 20.9064C25.9523 21.1407 25.1867 20.9064 24.9367 20.422C24.2492 19.1564 26.0617 17.8439 26.9523 18.9689ZM75.2492 31.5314V33.7189H51.1867C27.3273 33.7189 27.1242 33.7189 26.8117 34.0314C26.3273 34.5157 26.3898 35.4845 26.9054 35.8907C27.3273 36.2189 27.3898 36.2189 42.296 36.2189H57.2804V38.4064V40.5939H39.2648C19.296 40.5939 20.1867 40.6407 18.5773 39.5782C16.921 38.4845 15.8898 36.3439 16.0929 34.4532C16.3273 32.1876 17.921 30.2657 20.1398 29.5782C20.671 29.4064 25.9679 29.3595 48.0304 29.3595L75.2492 29.3439V31.5314ZM65.4054 39.2657C65.4054 40.9376 65.3585 42.3126 65.3117 42.3126C65.2648 42.3126 64.7804 42.0001 64.2492 41.6095C62.8273 40.5939 62.546 40.5782 61.3273 41.4064C60.7804 41.7814 60.2335 42.1407 60.1398 42.2189C59.9835 42.3126 59.9367 41.672 59.9367 39.2814V36.2189H62.671H65.4054V39.2657ZM75.2492 38.4064V40.5939H71.5773H67.9054V38.4064V36.2189H71.5773H75.2492V38.4064Z" fill="#30A9E0"/>
                                <path d="M58.3906 18.9688C58.1094 19.3281 58.0625 19.6094 58.0625 21.0625C58.0625 22.5156 58.1094 22.7969 58.3906 23.1562C58.625 23.4531 58.8594 23.5625 59.25 23.5625C60.4062 23.5625 60.7188 23.0156 60.7188 20.9531C60.7188 19.0625 60.4062 18.5625 59.2344 18.5625C58.8594 18.5625 58.625 18.6719 58.3906 18.9688Z" fill="#30A9E0"/>
                                <path d="M0.765234 44.375C0.577734 44.4688 0.358984 44.7188 0.265234 44.9531C0.140234 45.2344 0.0933594 49.5312 0.124609 59.3125L0.171484 73.2812L0.546484 73.5781C0.890234 73.8594 1.21836 73.875 6.03086 73.875H11.1715L11.484 73.4688C11.6715 73.2344 11.8121 72.8281 11.8121 72.5312C11.8121 72.125 11.8746 72 12.0934 72C12.234 72 14.4996 72.1719 17.1246 72.3906C23.984 72.9531 26.0465 72.8906 28.4527 72.0781C29.5621 71.6875 60.6402 58.2969 61.5621 57.8125C62.4527 57.3281 63.359 56.3438 63.859 55.3125C64.1559 54.7188 64.234 54.3281 64.234 53.1719C64.234 51.9844 64.1715 51.6406 63.8277 50.9062C63.2652 49.7031 62.609 49.0156 61.4684 48.4062C60.6715 47.9844 60.2809 47.875 59.3121 47.8125C58.2027 47.7656 57.9059 47.8281 54.234 48.9531C45.0465 51.7656 40.1559 53.2656 39.9996 53.3125C39.8902 53.3594 39.8902 53.0625 39.984 52.375C40.1559 51.2031 39.9684 50.5781 39.3746 50.2969C39.109 50.1875 37.109 50.125 32.9996 50.125C26.1402 50.125 25.2652 50.0312 22.609 49C18.3277 47.3594 16.7496 47 13.6559 47H11.8121V45.9844C11.8121 45.0938 11.7652 44.9062 11.4215 44.5781L11.0465 44.1875L6.07773 44.2031C2.93711 44.2031 0.983984 44.2656 0.765234 44.375ZM9.15586 59.1094V71.375H5.95273H2.74961V59.1094V46.8438H5.95273H9.15586V59.1094ZM17.0465 49.8906C17.734 50.0312 19.2652 50.5312 20.4527 51C24.484 52.5781 25.8121 52.7656 32.7965 52.7812H37.2965L37.1871 53.125C36.5465 55.25 34.5621 56.9531 32.3434 57.3125C31.8434 57.4062 28.6715 57.4688 25.2965 57.4688H19.1715L18.8434 57.8906C18.4215 58.4219 18.4996 59.2812 19.0152 59.6875C19.3121 59.9531 19.8902 59.9688 25.9371 59.9688C33.2184 59.9688 33.7184 59.9062 35.4684 58.9844C35.984 58.7188 36.9215 58.0156 37.5309 57.4375C38.1402 56.8438 38.7027 56.375 38.7652 56.375C38.8277 56.375 42.9059 55.1562 47.8121 53.6562C52.7184 52.1562 57.234 50.7812 57.8434 50.5938C58.8121 50.3125 59.0621 50.2812 59.6402 50.4375C61.0309 50.8125 61.9996 52.4531 61.6402 53.7812C61.234 55.2188 61.7496 54.9688 44.3121 62.4688C35.4996 66.2656 27.8746 69.5156 27.359 69.6875C25.4059 70.3438 24.2496 70.375 18.2965 69.9062C15.2965 69.6875 12.5934 69.4531 12.3277 69.4062L11.8121 69.3281V59.3906V49.4531L13.8121 49.5469C14.9059 49.5938 16.359 49.75 17.0465 49.8906Z" fill="#30A9E0"/>
                            </svg>