<svg width="48" height="48" viewBox="0 0 48 48" fill="none" xmlns="http://www.w3.org/2000/svg">
<path d="M28.4436 0.923575C27.6916 1.19701 27.1252 1.56811 26.5686 2.14428C25.6994 3.07201 25.3479 3.98022 25.3576 5.29858C25.3576 7.57397 26.8811 9.37084 29.1467 9.76147C31.1096 10.0935 33.1408 9.03881 33.9709 7.2517C35.0647 4.92748 34.1272 2.26147 31.8225 1.15795C31.1291 0.825919 31.0119 0.806388 30.0061 0.777091C29.1662 0.75756 28.8244 0.796622 28.4436 0.923575ZM31.2365 2.73022C32.2229 3.31615 32.7307 4.18529 32.7404 5.29858C32.7404 6.10912 32.4768 6.73412 31.8811 7.32983C31.3147 7.89623 30.7385 8.13061 29.8596 8.13061C29.2541 8.13061 29.0393 8.08178 28.6291 7.86694C27.0178 7.01733 26.5197 5.10326 27.5354 3.61889C27.8283 3.1892 28.424 2.72045 28.9318 2.5349C29.0979 2.46654 29.5764 2.43725 30.0158 2.44701C30.6604 2.47631 30.885 2.52514 31.2365 2.73022Z" fill="#30A9E0"/>
<path d="M19.4104 4.21484C18.2678 4.45898 17.3401 5.20117 16.803 6.30469C16.2756 7.38867 16.4123 9.15625 17.0959 10.0742C17.2229 10.2402 17.3596 10.4258 17.3889 10.4941C17.4377 10.5723 17.2131 10.7383 16.7541 10.9824C16.2463 11.2461 15.7873 11.5977 15.1526 12.2324C14.4104 12.9746 14.2053 13.248 13.8245 14.0391C13.1995 15.3086 13.0627 15.9727 13.0627 17.5645C13.0627 19.4297 12.8772 19.3125 15.7873 19.3125H18.0627L18.0139 19.5273C17.6623 20.9531 17.6721 23.7656 18.0334 25.1133C18.1506 25.543 18.2288 25.9043 18.2092 25.9141C18.1897 25.9336 17.7991 26.0605 17.3401 26.1875C16.1584 26.5293 15.885 26.666 11.842 28.9121L8.23852 30.9141L7.85766 30.582C7.32055 30.1328 6.65649 29.9277 5.885 29.9766C5.33813 30.0059 5.04516 30.123 3.57055 30.8457C2.64281 31.3145 1.74438 31.8027 1.5686 31.9492C1.05102 32.3887 0.758049 33.1016 0.767815 33.9023C0.767815 34.2832 0.826408 34.7324 0.885002 34.8984C0.953362 35.0742 2.1936 37.6523 3.63891 40.6504C6.41235 46.373 6.54906 46.6074 7.37914 47.0078C7.59399 47.1152 8.03344 47.2031 8.49242 47.2227L9.25414 47.2617L10.9631 46.4512C12.8577 45.5527 13.2873 45.25 13.6487 44.5469C13.8538 44.1465 13.8928 43.9219 13.9026 43.209V42.3496L14.7815 41.9395C15.6311 41.5391 15.6799 41.5293 16.6272 41.5391C17.7502 41.5488 18.4924 41.6758 21.6077 42.4082C24.6057 43.1211 25.3674 43.2383 26.7932 43.2383C28.4827 43.2383 29.2248 43.0527 30.7873 42.2617C33.0237 41.1289 38.5413 37.6426 41.969 35.2012C46.5979 31.9102 47.3108 31.0898 47.2229 29.1758C47.1936 28.5605 47.1252 28.2383 46.9592 27.9258C46.4514 26.9492 45.2893 26.1582 44.0588 25.9629C43.3752 25.8555 42.262 25.9629 41.7151 26.1973C41.3928 26.3242 41.3635 26.3242 41.4221 26.1875C41.5881 25.748 41.8713 24.4297 41.9788 23.6094C42.1057 22.5742 42.0373 20.875 41.8323 19.918L41.6955 19.3125H43.9709C46.9006 19.3125 46.7053 19.4395 46.6955 17.584C46.6858 16.0312 46.5295 15.2402 46.0217 14.1758C45.3577 12.7891 44.137 11.5488 42.7795 10.8652L42.2717 10.6016L42.4963 10.2891C43.678 8.7168 43.5413 6.54883 42.1741 5.2207C40.2893 3.36523 37.135 3.93164 36.0315 6.32422C35.8362 6.73438 35.7678 7.06641 35.7385 7.71094C35.6897 8.7168 35.8752 9.41016 36.3635 10.1035C36.5491 10.3574 36.6565 10.5918 36.6174 10.6309C36.5784 10.6602 36.2756 10.8359 35.9436 11.0117L35.3479 11.3242L34.4788 10.9727C32.7307 10.2793 30.8069 9.99609 28.8538 10.1426C27.6721 10.2402 26.842 10.416 25.7385 10.8262C24.2346 11.373 24.3713 11.3535 23.9123 11.0703C23.6877 10.9238 23.3948 10.7676 23.258 10.7188L23.0139 10.6211L23.2483 10.3086C24.4104 8.76562 24.3323 6.72461 23.0725 5.36719C22.4963 4.74219 21.7541 4.32227 20.9631 4.17578C20.3381 4.05859 20.094 4.05859 19.4104 4.21484ZM21.344 6.09961C21.8323 6.38281 22.2913 7.04688 22.3889 7.59375C22.4866 8.17969 22.2229 8.94141 21.7834 9.36133C21.2659 9.85938 20.8752 10.0352 20.2698 10.0352C18.717 10.0254 17.6916 8.45312 18.3264 7.04688C18.5413 6.56836 19.2053 5.98242 19.6838 5.8457C20.1916 5.70898 20.8557 5.80664 21.344 6.09961ZM40.5823 6.09961C41.0901 6.38281 41.5295 7.04688 41.6174 7.62305C41.803 8.83398 40.758 10.0352 39.5276 10.0352C38.3069 10.0352 37.3791 9.13672 37.3791 7.93555C37.3791 7.29102 37.6428 6.73438 38.1604 6.30469C38.8733 5.68945 39.7522 5.61133 40.5823 6.09961ZM21.178 11.832C21.5784 11.9102 22.1057 12.0469 22.3401 12.1543L22.76 12.3301L22.0471 12.916C20.8166 13.9219 19.5764 15.5234 18.8928 16.9883L18.5803 17.6523H16.6565H14.7229V17.0859C14.7229 14.5273 16.8616 12.1836 19.5471 11.793C20.2698 11.6855 20.3577 11.6855 21.178 11.832ZM31.8616 11.9492C36.0022 12.7402 39.2248 15.8945 40.1819 20.1426C40.3772 21.002 40.4065 23.3262 40.2307 24.1465C39.9377 25.5039 39.3713 26.9102 38.7659 27.8379C38.2678 28.5801 34.0784 31.5879 32.2034 32.5352C31.2463 33.0234 30.1819 33.4434 30.1038 33.3555C30.0842 33.3359 30.1623 33.0625 30.2698 32.7402C30.6116 31.7344 30.4846 30.9336 29.7815 29.5371C29.762 29.498 31.178 29.4688 32.9358 29.4688H36.1194L36.3538 29.2246C36.5002 29.0879 36.5979 28.873 36.5979 28.7168C36.5979 28.2285 35.0354 16.7344 34.928 16.4707C34.7815 16.0996 34.4592 15.9922 33.4827 15.9922H32.6233L32.5647 15.4551C32.428 14.1074 31.3342 13.1699 29.8987 13.1602C28.4534 13.1602 27.3205 14.127 27.1545 15.5137L27.0959 15.9922H26.1877C24.7131 15.9922 24.8987 15.4941 24.0881 21.5098C23.717 24.293 23.3948 26.5977 23.3752 26.6074C23.3557 26.627 22.8381 26.5098 22.2327 26.3438C21.6174 26.1777 20.8752 26.0117 20.5823 25.9727C20.0549 25.9043 20.0452 25.8945 19.8889 25.4551C19.3811 24.0977 19.2346 21.8516 19.5569 20.2891C20.3674 16.334 23.219 13.2383 27.0764 12.1348C28.5998 11.6953 30.1916 11.6367 31.8616 11.9492ZM40.426 11.832C42.6721 12.2324 44.4788 14 44.9377 16.2168C45.0256 16.627 45.094 17.1152 45.094 17.3105V17.6523H43.1409H41.1877L40.7873 16.8516C39.9768 15.2402 38.7659 13.7266 37.5061 12.7598L36.969 12.3398L37.3498 12.1738C37.6916 12.0273 38.0041 11.9492 38.9905 11.7539C39.3518 11.6855 39.6741 11.7051 40.426 11.832ZM30.6018 15.1523C30.8069 15.3574 30.9338 15.582 30.9338 15.7383V15.9922H29.8596C28.678 15.9922 28.6389 15.9727 28.9319 15.4062C29.137 15.0156 29.4495 14.8203 29.8889 14.8203C30.1916 14.8203 30.3381 14.8887 30.6018 15.1523ZM27.1252 17.7988C27.1252 18.2871 27.6623 18.707 28.1506 18.5898C28.4729 18.5117 28.7854 18.1602 28.7854 17.877C28.7854 17.6523 28.8049 17.6523 29.8498 17.6523H30.9143L30.9827 17.9453C31.0217 18.1016 31.1682 18.3262 31.3049 18.4434C31.7932 18.8242 32.594 18.4824 32.594 17.8867C32.594 17.6719 32.633 17.6523 33.0237 17.6523C33.4436 17.6523 33.4534 17.6621 33.512 18.0137C33.5413 18.2188 33.8342 20.3574 34.1565 22.7793C34.4788 25.1914 34.762 27.3203 34.7913 27.4863L34.8498 27.8086H31.1487C28.0334 27.8086 27.3791 27.7891 27.0178 27.6523C26.7834 27.5742 26.2366 27.4082 25.8069 27.291L25.0256 27.0762L25.6506 22.3594L26.2854 17.6523H26.7053C27.008 17.6523 27.1252 17.6914 27.1252 17.7988ZM23.4631 28.3945C25.0745 28.8242 26.6565 29.3027 26.9788 29.459C28.7756 30.3184 29.3225 31.8516 28.2092 32.9648C27.6819 33.4922 27.3498 33.5312 26.0022 33.2285C25.3577 33.082 23.7854 32.6621 22.5159 32.3008C20.0159 31.5781 19.8205 31.5684 19.4788 32.0273C19.2346 32.3496 19.3225 32.916 19.635 33.1211C19.967 33.3457 24.0588 34.5078 25.8557 34.8984C28.4143 35.4551 29.9182 35.3672 31.9299 34.5371C33.5705 33.8633 34.8987 33.0234 38.3459 30.4648C41.9983 27.7695 42.7405 27.3789 43.8635 27.6133C45.2307 27.8965 45.9436 29.0684 45.387 30.1523C45.1135 30.6992 44.6741 31.0898 42.7502 32.5352C39.6936 34.8301 36.4905 36.959 32.4182 39.4004C29.4006 41.2168 28.7073 41.4902 27.0959 41.5586C25.719 41.6074 25.094 41.5195 22.4377 40.8945C19.6936 40.2402 18.6096 40.0254 17.4182 39.9082C16.0217 39.7715 15.2698 39.8887 14.0686 40.4258L13.1018 40.8652L11.0705 36.666C9.3811 33.1797 9.05883 32.457 9.16625 32.3594C9.30297 32.2324 15.8557 28.5996 16.6272 28.2188C16.842 28.1211 17.2522 27.9551 17.5354 27.8672C19.0979 27.3496 19.801 27.418 23.4631 28.3945ZM6.54906 31.7344C6.66625 31.793 6.83227 31.9395 6.91039 32.0469C6.98852 32.1641 8.22875 34.6641 9.6643 37.623C11.3928 41.1777 12.2815 43.1016 12.2815 43.3066C12.2815 43.4922 12.1838 43.7266 12.0471 43.8926C11.7541 44.2344 8.98071 45.6113 8.57055 45.6113C8.40453 45.6113 8.15063 45.5234 8.00414 45.416C7.62328 45.1426 2.42797 34.4492 2.41821 33.9512C2.41821 33.3652 2.71117 33.1113 4.3225 32.3398C5.79711 31.627 6.15844 31.5293 6.54906 31.7344Z" fill="#30A9E0"/>
<path d="M26.8033 19.918C26.4029 20.2305 26.4224 21.041 26.8326 21.2656C26.94 21.3242 28.2193 21.3633 29.9478 21.3633H32.8775L33.0728 21.1094C33.19 20.9629 33.2779 20.7285 33.2779 20.582C33.2779 20.4355 33.19 20.2012 33.0728 20.0547L32.8775 19.8008H29.9185C27.7115 19.8008 26.9302 19.8301 26.8033 19.918Z" fill="#30A9E0"/>
<path d="M5.00586 32.6816C3.9707 32.9453 3.375 33.707 3.375 34.7617C3.375 35.5137 3.6875 36.1484 4.26367 36.5488C4.64453 36.8223 4.75195 36.8418 5.49414 36.8418C6.24609 36.8418 6.34375 36.8223 6.73438 36.5488C7.81836 35.7773 7.95508 34.0879 6.98828 33.2188C6.49023 32.7598 5.62109 32.5254 5.00586 32.6816Z" fill="#30A9E0"/>
</svg>
