<svg width="23" height="23" viewBox="0 0 23 23" fill="none" xmlns="http://www.w3.org/2000/svg">
                                        <path d="M5.25686 2.94648C3.98557 3.13066 3.168 3.50351 2.35491 4.27616C1.6137 4.98144 1.14202 5.83046 0.917411 6.87265C0.836551 7.23202 0.832059 7.52851 0.832059 11.4996C0.832059 16.1939 0.823075 16.0232 1.12854 16.8633C1.62718 18.2289 2.75472 19.334 4.12932 19.8057C4.8885 20.0662 4.47073 20.0482 11.209 20.0662C15.3104 20.0797 17.543 20.0707 17.8125 20.0392C19.6813 19.8236 21.2401 18.6017 21.878 16.8543C22.1744 16.0367 22.17 16.1445 22.17 11.4996C22.17 7.62734 22.1655 7.26796 22.0891 6.8996C21.6578 4.78827 20.0002 3.23847 17.8799 2.96445C17.5699 2.92402 5.53089 2.91054 5.25686 2.94648ZM17.6553 4.36152C17.8619 4.38398 18.1944 4.46034 18.3875 4.52323C18.7514 4.64452 19.277 4.93202 19.3084 5.02636C19.3264 5.08476 14.2457 10.2103 13.6258 10.7584C12.9699 11.3379 12.3231 11.5894 11.501 11.5894C10.6789 11.5894 10.0321 11.3379 9.3762 10.7584C8.89554 10.3361 3.6846 5.09823 3.6846 5.03534C3.6846 4.95898 4.26858 4.64003 4.63694 4.51874C4.82561 4.45585 5.11761 4.38398 5.28831 4.36152C5.74202 4.30312 17.1881 4.30312 17.6553 4.36152ZM8.87757 12.1869C9.34475 12.5193 10.0366 12.8113 10.6699 12.9416C11.0428 13.018 12.0356 13.009 12.4219 12.9236C13.0643 12.7799 13.6168 12.5418 14.1289 12.1824C14.2547 12.0971 15.6877 10.691 17.3229 9.06483C20.2473 6.14491 20.2922 6.10448 20.3596 6.2078C20.4629 6.36952 20.6112 6.77831 20.6875 7.09726C20.7414 7.34433 20.7549 8.00468 20.7549 11.4996C20.7549 15.4033 20.7504 15.6279 20.6696 15.9693C20.3506 17.2855 19.3893 18.2334 18.0192 18.5883C17.7496 18.6601 17.1971 18.6646 11.501 18.6646C5.70159 18.6646 5.25686 18.6601 4.96936 18.5838C4.04847 18.3502 3.28479 17.8156 2.80862 17.0744C2.56155 16.6881 2.44026 16.4096 2.33245 15.9693C2.25159 15.6279 2.2471 15.4033 2.2471 11.5086C2.2471 6.958 2.23811 7.09276 2.54358 6.42343L2.70081 6.09101L5.67464 9.05585C7.30979 10.691 8.75179 12.0971 8.87757 12.1869Z" fill="white"/>
                                    </svg>