<svg width="50" height="50" viewBox="0 0 50 50" fill="none" xmlns="http://www.w3.org/2000/svg">
<path d="M24.4141 0.195312C24.2285 0.380859 24.2188 0.517578 24.2188 5.27344C24.2188 10.0293 24.2285 10.166 24.4141 10.3516C24.541 10.4785 24.7363 10.5469 25 10.5469C25.2637 10.5469 25.459 10.4785 25.5859 10.3516C25.7715 10.166 25.7812 10.0293 25.7812 5.27344C25.7812 0.517578 25.7715 0.380859 25.5859 0.195312C25.459 0.0683594 25.2637 0 25 0C24.7363 0 24.541 0.0683594 24.4141 0.195312Z" fill="#30A9E0"/>
<path d="M21.7778 2.10937C17.7543 2.84179 15.0785 3.86719 12.1586 5.81054C6.77776 9.38476 3.09612 15.2051 2.14886 21.6016C2.00237 22.6367 2.21722 23.0371 2.93987 23.0469C3.40862 23.0469 3.67229 22.7441 3.76019 22.1191C4.90276 13.9941 10.4496 7.28515 18.1938 4.67773C19.2582 4.32617 20.7426 3.96484 21.8266 3.80859C22.7934 3.66211 23.0473 3.47656 23.0473 2.88086C23.0473 2.25586 22.5688 1.97265 21.7778 2.10937Z" fill="#30A9E0"/>
<path d="M27.4414 2.11914C27.0996 2.24609 26.9531 2.48047 26.9531 2.88086C26.9531 3.49609 27.1875 3.65234 28.418 3.84766C33.4082 4.64844 37.9688 7.20703 41.2598 11.0449C43.9551 14.1992 45.6641 17.9883 46.2402 22.1191C46.3281 22.7539 46.5918 23.0469 47.0801 23.0469C47.2852 23.0469 47.5391 22.9688 47.666 22.8613C47.959 22.627 47.959 22.0703 47.666 20.6055C45.9668 12.0703 39.8047 5.2832 31.543 2.85156C29.9219 2.37305 27.7734 1.99219 27.4414 2.11914Z" fill="#30A9E0"/>
<path d="M20.9277 7.03125C15.5273 8.25195 10.8691 11.9434 8.44727 16.9434C7.61719 18.6523 6.8457 21.1816 6.83594 22.2266C6.83594 22.7441 7.13867 23.0469 7.64648 23.0469C8.04688 23.0469 8.36914 22.8027 8.4375 22.4414C8.4668 22.3145 8.55469 21.8652 8.65234 21.4355C9.02344 19.6094 9.99023 17.3242 11.0547 15.7324C13.5254 12.0312 17.3438 9.46289 21.6895 8.59375C22.8418 8.35938 23.0469 8.21289 23.0469 7.60742C23.0469 6.82617 22.5 6.67969 20.9277 7.03125Z" fill="#30A9E0"/>
<path d="M27.168 7.03121C27.0215 7.1777 26.9531 7.35348 26.9531 7.60739C26.9531 8.21286 27.1582 8.35934 28.3105 8.59371C32.0312 9.34567 35.5176 11.416 37.8906 14.3066C39.7852 16.6211 40.9473 19.1992 41.5625 22.4414C41.6797 23.0371 42.5293 23.2714 42.9492 22.8222C43.2227 22.539 43.2227 22.1093 42.9687 20.9765C41.7773 15.5664 38.0566 10.8593 33.0566 8.44723C31.748 7.81246 30.332 7.31442 29.0723 7.04098C27.8711 6.77731 27.4414 6.77731 27.168 7.03121Z" fill="#30A9E0"/>
<path d="M16.6309 13.4668C15.6055 13.8477 14.873 14.5117 14.375 15.5273C14.1309 16.0156 14.1113 16.1621 14.1113 17.1875C14.1113 18.2324 14.1309 18.3496 14.3945 18.8965C14.7656 19.6484 15.5078 20.3906 16.2598 20.7617C16.8066 21.0254 16.9238 21.0449 17.9688 21.0449C19.0137 21.0449 19.1309 21.0254 19.6777 20.7617C20.4297 20.3906 21.1719 19.6484 21.543 18.8965C21.8066 18.3496 21.8262 18.2324 21.8262 17.1875C21.8262 16.1426 21.8066 16.0254 21.543 15.4785C21.1719 14.7266 20.4297 13.9844 19.6777 13.623C19.1699 13.3691 18.9648 13.3301 18.1152 13.3008C17.3438 13.2812 17.0312 13.3203 16.6309 13.4668ZM18.8281 15.0977C19.6582 15.4395 20.2148 16.2695 20.2148 17.1875C20.2148 18.4473 19.2285 19.4336 17.9688 19.4336C16.709 19.4336 15.7227 18.4473 15.7227 17.1875C15.7227 16.3086 16.2207 15.5371 17.041 15.1074C17.4219 14.9023 18.3594 14.9023 18.8281 15.0977Z" fill="#30A9E0"/>
<path d="M30.6934 13.4668C29.668 13.8477 28.9355 14.5117 28.4375 15.5273C28.1934 16.0156 28.1738 16.1621 28.1738 17.1875C28.1738 18.2324 28.1934 18.3496 28.457 18.8965C28.8281 19.6484 29.5703 20.3906 30.3223 20.7617C30.8691 21.0254 30.9863 21.0449 32.0312 21.0449C33.0762 21.0449 33.1934 21.0254 33.7402 20.7617C34.4922 20.3906 35.2344 19.6484 35.6055 18.8965C35.8691 18.3496 35.8887 18.2324 35.8887 17.1875C35.8887 16.1426 35.8691 16.0254 35.6055 15.4785C35.2344 14.7266 34.4922 13.9844 33.7402 13.623C33.2324 13.3691 33.0273 13.3301 32.1777 13.3008C31.4062 13.2812 31.0938 13.3203 30.6934 13.4668ZM32.8906 15.0977C34.3848 15.7129 34.7559 17.7051 33.584 18.8184C32.1484 20.1758 29.7852 19.1699 29.7852 17.1875C29.7852 16.3086 30.2832 15.5371 31.1035 15.1074C31.4844 14.9023 32.4219 14.9023 32.8906 15.0977Z" fill="#30A9E0"/>
<path d="M14.7758 22.4126C13.7992 22.7153 12.9203 23.5063 12.4223 24.5122C12.1684 25.0298 12.1586 25.1079 12.1293 26.9731C12.1 28.809 12.1 28.8969 12.2953 29.0923C12.5395 29.3364 13.1449 29.3657 13.4379 29.1606C13.6039 29.0337 13.6332 28.8579 13.682 27.3735C13.7406 25.5571 13.8383 25.1958 14.3852 24.6294C15.059 23.9262 15.2055 23.8969 17.9496 23.8286C20.2543 23.7798 20.4399 23.77 20.5668 23.5942C20.7719 23.311 20.7426 22.6958 20.5082 22.4614C20.3227 22.2758 20.1859 22.2661 17.7543 22.2758C15.9086 22.2758 15.0688 22.3149 14.7758 22.4126Z" fill="#30A9E0"/>
<path d="M29.5015 22.4516C29.2574 22.6958 29.2281 23.3012 29.4331 23.5942C29.5601 23.77 29.7456 23.7798 32.0015 23.8286C34.6675 23.8969 34.8921 23.936 35.5367 24.5415C36.1421 25.1176 36.2593 25.5376 36.3179 27.3735C36.3667 28.8579 36.396 29.0337 36.562 29.1606C36.855 29.3657 37.4605 29.3364 37.7046 29.0923C37.8999 28.8969 37.8999 28.809 37.8706 26.9731C37.8413 25.0688 37.8413 25.0395 37.5581 24.4633C37.187 23.7114 36.4449 22.9692 35.6929 22.5981L35.107 22.3149L32.4019 22.2856C29.7847 22.2563 29.6968 22.2563 29.5015 22.4516Z" fill="#30A9E0"/>
<path d="M23.6621 23.2324C22.6367 23.6133 21.9043 24.2773 21.4062 25.293C21.1621 25.7812 21.1426 25.9277 21.1426 26.9531C21.1426 27.998 21.1621 28.1152 21.4258 28.6621C21.7969 29.4141 22.5391 30.1562 23.291 30.5273C23.8379 30.791 23.9551 30.8105 25 30.8105C26.0449 30.8105 26.1621 30.791 26.709 30.5273C27.4609 30.1562 28.2031 29.4141 28.5742 28.6621C28.8379 28.1152 28.8574 27.998 28.8574 26.9531C28.8574 25.9082 28.8379 25.791 28.5742 25.2441C28.2031 24.4922 27.4609 23.75 26.709 23.3887C26.2012 23.1348 25.9961 23.0957 25.1465 23.0664C24.375 23.0469 24.0625 23.0859 23.6621 23.2324ZM25.8594 24.8633C27.3535 25.4785 27.7246 27.4707 26.5527 28.584C25.1172 29.9414 22.7539 28.9355 22.7539 26.9531C22.7539 26.0742 23.252 25.3027 24.0723 24.873C24.4531 24.668 25.3906 24.668 25.8594 24.8633Z" fill="#30A9E0"/>
<path d="M0.195801 24.4141C-0.0678711 24.6777 -0.0678711 25.3223 0.195801 25.5859C0.381348 25.7715 0.518066 25.7812 5.27393 25.7812C10.0298 25.7812 10.1665 25.7715 10.3521 25.5859C10.6157 25.3223 10.6157 24.6777 10.3521 24.4141C10.1665 24.2285 10.0298 24.2188 5.27393 24.2188C0.518066 24.2188 0.381348 24.2285 0.195801 24.4141Z" fill="#30A9E0"/>
<path d="M39.6484 24.4141C39.5215 24.541 39.4531 24.7363 39.4531 25C39.4531 25.2637 39.5215 25.459 39.6484 25.5859C39.834 25.7715 39.9707 25.7812 44.7266 25.7812C49.4824 25.7812 49.6191 25.7715 49.8047 25.5859C49.9316 25.459 50 25.2637 50 25C50 24.7363 49.9316 24.541 49.8047 24.4141C49.6191 24.2285 49.4824 24.2188 44.7266 24.2188C39.9707 24.2188 39.834 24.2285 39.6484 24.4141Z" fill="#30A9E0"/>
<path d="M2.24593 27.2158C2.00179 27.5283 2.02132 27.8506 2.34359 29.4912C3.98421 37.6748 9.89242 44.3545 17.744 46.9131C19.619 47.5186 22.0506 48.0264 22.4901 47.8897C22.8905 47.7725 23.0467 47.5479 23.0467 47.1182C23.0467 46.5908 22.7733 46.3272 22.119 46.2393C15.9959 45.3799 10.5858 41.9912 7.15804 36.8643C5.40023 34.2471 4.20882 31.0928 3.7596 27.8799C3.67171 27.2256 3.40804 26.9522 2.87093 26.9522C2.5389 26.9522 2.41195 27.001 2.24593 27.2158Z" fill="#30A9E0"/>
<path d="M7.03223 27.168C6.77832 27.4414 6.77832 27.9004 7.03223 29.0234C8.22363 34.4336 11.9443 39.1309 16.9443 41.5625C18.6533 42.3828 21.1826 43.1543 22.2275 43.1641C22.7354 43.1641 23.0479 42.8613 23.0479 42.3633C23.0479 41.7871 22.833 41.6309 21.6904 41.4062C17.3643 40.5371 13.5166 37.959 11.0557 34.2676C9.93262 32.5879 9.00488 30.332 8.59473 28.3105C8.36035 27.1582 8.21387 26.9531 7.6084 26.9531C7.35449 26.9531 7.17871 27.0215 7.03223 27.168Z" fill="#30A9E0"/>
<path d="M41.8066 27.1191C41.6699 27.2363 41.5625 27.4902 41.4941 27.8809C40.3125 34.6484 35.0391 40.0586 28.291 41.4062C27.168 41.6309 26.9531 41.7871 26.9531 42.373C26.9531 42.8711 27.2656 43.1641 27.793 43.1641C28.8184 43.1543 31.3574 42.3828 33.0566 41.5625C38.0566 39.1309 41.7773 34.4336 42.9688 29.0234C43.2227 27.9004 43.2227 27.4414 42.9688 27.168C42.7148 26.9043 42.1094 26.875 41.8066 27.1191Z" fill="#30A9E0"/>
<path d="M46.5137 27.167C46.3867 27.3037 46.2793 27.5967 46.2402 27.8799C44.9316 37.1963 37.8125 44.5693 28.6133 46.1123C27.1777 46.3467 26.9531 46.4834 26.9531 47.1182C26.9531 47.9482 27.4512 48.0557 29.3945 47.665C38.7207 45.8096 45.8105 38.7197 47.666 29.3936C48.0566 27.4502 47.9492 26.9522 47.1191 26.9522C46.8262 26.9522 46.6602 27.0107 46.5137 27.167Z" fill="#30A9E0"/>
<path d="M21.7094 32.2173C20.6938 32.5883 19.9516 33.2622 19.4535 34.2778C19.1996 34.7954 19.1899 34.8735 19.1606 36.7387C19.1313 38.5747 19.1313 38.6626 19.3266 38.8579C19.5707 39.102 20.1762 39.1313 20.4692 38.9262C20.6352 38.7993 20.6645 38.6235 20.7133 37.1391C20.7719 35.3227 20.8695 34.9614 21.4164 34.395C21.5922 34.2094 21.9047 33.9751 22.1195 33.8579C22.4906 33.6528 22.6371 33.643 24.9027 33.643C27.5785 33.643 27.8031 33.6821 28.4477 34.268C29.1117 34.8637 29.2289 35.2544 29.2875 37.1391C29.3363 38.6235 29.3656 38.7993 29.5317 38.9262C29.8246 39.1313 30.4301 39.102 30.6742 38.8579C30.8695 38.6626 30.8695 38.5747 30.8402 36.7387C30.811 34.8344 30.811 34.8051 30.5277 34.229C30.1567 33.477 29.4145 32.7348 28.6625 32.3637L28.0766 32.0805L25.1469 32.061C22.4809 32.0317 22.1684 32.0512 21.7094 32.2173Z" fill="#30A9E0"/>
<path d="M24.4141 39.6484C24.2285 39.834 24.2188 39.9707 24.2188 44.7266C24.2188 49.4824 24.2285 49.6191 24.4141 49.8047C24.541 49.9316 24.7363 50 25 50C25.2637 50 25.459 49.9316 25.5859 49.8047C25.7715 49.6191 25.7812 49.4824 25.7812 44.7266C25.7812 39.9707 25.7715 39.834 25.5859 39.6484C25.459 39.5215 25.2637 39.4531 25 39.4531C24.7363 39.4531 24.541 39.5215 24.4141 39.6484Z" fill="#30A9E0"/>
</svg>
