<svg width="25" height="25" viewBox="0 0 25 25" fill="none" xmlns="http://www.w3.org/2000/svg">
<g clip-path="url(#clip0_1591_917)">
<path d="M9.2678 0.761724C8.80393 0.834967 8.32542 1.0254 7.96409 1.28419C7.76389 1.43067 7.71995 1.44044 7.56858 1.40137C7.47581 1.37696 7.18772 1.36719 6.93382 1.37696C6.53831 1.39161 6.42112 1.41602 6.1428 1.54786C5.35667 1.91407 4.98069 2.68067 5.04905 3.75977C5.07346 4.20411 5.2346 4.96582 5.39085 5.41504C5.45432 5.58594 5.46897 5.87891 5.46897 6.98243C5.46897 8.53516 5.50804 8.79395 5.86448 9.47266C6.07444 9.87793 6.54807 10.4395 6.85569 10.6494L7.03147 10.7666V11.499V12.2314L4.14573 13.7695C0.952371 15.4688 0.854715 15.5322 0.576394 16.1035L0.415262 16.4307L0.400613 19.2481C0.390848 22.0215 0.390848 22.0703 0.488504 22.168C0.58616 22.2656 0.62034 22.2656 8.00804 22.2656C12.8713 22.2656 15.4299 22.2803 15.4299 22.3145C15.4299 22.3389 15.386 22.4756 15.3323 22.6172C15.1321 23.1445 15.2444 23.4375 15.6399 23.4375C15.7522 23.4326 16.1965 23.3594 16.6262 23.2715L17.4074 23.1104L17.9739 23.667C18.5012 24.1846 18.55 24.2188 18.7356 24.2188C19.092 24.2188 19.0725 24.2725 19.6584 22.085C19.7903 21.5918 19.9074 21.1914 19.9221 21.1914C19.9367 21.1914 20.0539 21.5918 20.1858 22.085C20.635 23.7451 20.7375 24.0869 20.8303 24.1553C20.8791 24.1895 21.0061 24.2188 21.1086 24.2188C21.2942 24.2188 21.343 24.1846 21.8703 23.667L22.4367 23.1104L23.218 23.2715C23.6477 23.3594 24.092 23.4326 24.2092 23.4375C24.4729 23.4375 24.6096 23.3106 24.6096 23.0664C24.6096 22.9639 24.3069 22.041 23.8772 20.8398C23.4719 19.7119 23.1448 18.7695 23.1448 18.7402C23.1448 18.7109 23.2571 18.5693 23.3938 18.418C23.9016 17.8613 24.2629 17.207 24.468 16.4795C24.6291 15.8984 24.6535 14.8291 24.5168 14.2236C24.1408 12.5098 22.8811 11.1816 21.1623 10.6836C20.8254 10.5859 20.6692 10.5713 19.9221 10.5713C19.175 10.5713 19.0188 10.5859 18.6819 10.6836C17.1145 11.1377 15.9377 12.2656 15.4397 13.7891L15.3078 14.1895L13.5158 13.2129L11.719 12.2363V11.499V10.7666L11.8948 10.6494C12.2024 10.4395 12.676 9.87793 12.886 9.47266C13.2424 8.78907 13.2815 8.54004 13.2815 6.9336V5.53711L13.5012 5.32227C13.9407 4.89258 14.4387 4.05762 14.717 3.28126C14.8733 2.83692 14.883 2.57813 14.7414 2.43653C14.6438 2.33887 14.5998 2.33399 14.258 2.36329C13.5696 2.42188 13.0666 2.23633 12.4758 1.70899C11.4846 0.820318 10.5813 0.556646 9.2678 0.761724ZM10.552 1.58204C11.0061 1.67969 11.3869 1.88965 11.8362 2.28516C12.051 2.47071 12.344 2.7002 12.4953 2.78809C12.803 2.97852 13.3352 3.16895 13.55 3.17383C13.8235 3.17872 13.843 3.22754 13.7014 3.54004C13.3059 4.40919 12.6418 5.09766 11.9778 5.33204C11.6116 5.45899 10.9475 5.45899 10.4348 5.32715C9.70237 5.13672 8.90647 4.61915 8.42796 4.01856C8.0178 3.50587 8.02757 3.51563 7.82249 3.51563C7.64671 3.51563 7.55393 3.57422 6.86057 4.13087C6.30393 4.58008 6.07932 4.73145 6.05491 4.68262C5.96702 4.5459 5.88401 3.95508 5.88401 3.51563C5.88889 3.13477 5.90843 3.0127 6.0012 2.81739C6.12327 2.56837 6.33323 2.36817 6.57737 2.26075C6.78733 2.17774 7.3635 2.18262 7.51975 2.27051C7.75901 2.40723 7.97386 2.36329 8.26194 2.12403C8.60374 1.83106 8.94553 1.66504 9.38499 1.58692C9.85862 1.50391 10.1614 1.49903 10.552 1.58204ZM8.08128 4.8877C8.45725 5.26856 9.05784 5.69336 9.50218 5.88868C10.4055 6.28907 11.6604 6.37207 12.4221 6.07422C12.51 6.04004 12.5149 6.07422 12.4856 7.13379C12.4563 8.25196 12.4221 8.48633 12.2219 8.93555C11.9826 9.47266 11.4114 10.0342 10.8645 10.2783C10.425 10.4736 10.1272 10.5225 9.32639 10.5176C8.64768 10.5127 8.5305 10.4981 8.17893 10.3857C7.56858 10.1856 7.07542 9.80957 6.71409 9.2627C6.343 8.70118 6.25022 8.18848 6.25022 6.66504V5.68848L6.97288 5.11719C7.36839 4.79981 7.70042 4.54102 7.71507 4.54102C7.72971 4.54102 7.89573 4.69727 8.08128 4.8877ZM8.17893 11.2549C8.58421 11.3525 10.1662 11.3525 10.5715 11.2549C10.7326 11.2158 10.8791 11.1865 10.9035 11.1816C10.9231 11.1816 10.9377 11.4307 10.9377 11.7334V12.2803L10.1565 13.0615L9.37522 13.8428L8.59397 13.0615L7.81272 12.2803V11.7334C7.81272 11.4307 7.82737 11.1816 7.85179 11.1816C7.87132 11.1865 8.0178 11.2158 8.17893 11.2549ZM21.0207 11.5234C22.1047 11.8604 22.9543 12.6025 23.428 13.6231C23.6819 14.165 23.7795 14.6191 23.7795 15.249C23.7795 16.7188 22.9641 18.0322 21.6555 18.6816C21.0598 18.9746 20.5715 19.0918 19.9367 19.0918C19.3069 19.0918 18.8528 18.9941 18.3108 18.7402C17.4856 18.3594 16.8752 17.7686 16.4748 16.9678C16.1819 16.3721 16.0647 15.8838 16.0647 15.249C16.0647 14.585 16.1672 14.1504 16.4553 13.5498C16.8655 12.71 17.3977 12.1777 18.2375 11.7676C19.1408 11.3281 20.1076 11.2451 21.0207 11.5234ZM8.0471 13.7354L8.74046 14.4287L7.94456 15.0928L7.14866 15.7568L6.58714 14.7754C6.27952 14.2383 6.0305 13.7793 6.0305 13.7549C6.0305 13.7207 7.25608 13.042 7.32444 13.0371C7.33909 13.0371 7.66136 13.3496 8.0471 13.7354ZM12.0803 13.3887C12.4319 13.5791 12.7248 13.7402 12.7346 13.7451C12.7395 13.75 12.4905 14.2041 12.1731 14.7559L11.6018 15.7568L10.8059 15.0928L10.01 14.4287L10.7033 13.7354C11.0891 13.3496 11.4065 13.0371 11.4211 13.0371C11.4309 13.0371 11.7239 13.1934 12.0803 13.3887ZM5.96214 15.3906C6.34788 16.0693 6.70432 16.665 6.75315 16.709C6.80198 16.7627 6.9094 16.7969 7.02659 16.7969C7.18772 16.7969 7.27073 16.7529 7.51487 16.5527C7.676 16.416 7.82737 16.3086 7.85179 16.3086C7.87132 16.3086 7.93968 16.4111 8.00315 16.5332L8.11057 16.7627L7.76878 17.2803L7.4221 17.8027V19.6436V21.4844H5.8596H4.2971V20.4102C4.2971 19.3994 4.29221 19.3311 4.19944 19.2383C4.06761 19.1064 3.74534 19.1064 3.6135 19.2383C3.52073 19.3311 3.51585 19.3994 3.51585 20.4102V21.4844H2.33909H1.16721L1.18186 19.1016L1.19651 16.7236L1.33811 16.4648C1.42112 16.3184 1.55296 16.1572 1.63108 16.0986C1.79221 15.9863 5.18089 14.1602 5.22971 14.1602C5.24925 14.1602 5.57639 14.7168 5.96214 15.3906ZM14.6535 14.7949L15.2199 15.1025L15.2492 15.6201C15.2785 16.2012 15.4006 16.6797 15.6496 17.2217C15.8449 17.6465 16.2307 18.2129 16.5041 18.4815C16.6115 18.584 16.6994 18.7061 16.6946 18.75C16.6946 18.7891 16.4797 19.4141 16.2209 20.1416L15.7473 21.46L15.4885 21.4746L15.2346 21.4893V20.415C15.2346 19.3994 15.2297 19.3311 15.1369 19.2383C15.0735 19.1748 14.9758 19.1406 14.844 19.1406C14.7121 19.1406 14.6145 19.1748 14.551 19.2383C14.4582 19.3311 14.4533 19.3994 14.4533 20.4102V21.4844H12.8908H11.3283V19.6436V17.8027L10.9817 17.2803L10.6399 16.7627L10.7473 16.5332C10.8108 16.4111 10.8791 16.3086 10.8987 16.3086C10.9231 16.3086 11.0744 16.416 11.2356 16.5527C11.4797 16.7529 11.5627 16.7969 11.7239 16.7969C11.841 16.7969 11.9485 16.7627 12.0022 16.709C12.0461 16.665 12.4026 16.0693 12.7883 15.3906L13.4914 14.1602L13.7893 14.3213C13.9504 14.4092 14.341 14.624 14.6535 14.7949ZM9.77561 15.3369C9.97093 15.4981 10.1516 15.6543 10.176 15.6787C10.2053 15.7031 10.1614 15.8545 10.0588 16.0645L9.8928 16.4063H9.37522H8.85764L8.69163 16.0645C8.58909 15.8545 8.54514 15.7031 8.57444 15.6787C8.74046 15.5176 9.34104 15.0391 9.37522 15.0391C9.39964 15.0391 9.57542 15.1709 9.77561 15.3369ZM10.2297 17.6611L10.5471 18.1397V19.8096V21.4844H9.37522H8.20335V19.8096V18.1397L8.52073 17.6611L8.83811 17.1875H9.37522H9.91233L10.2297 17.6611ZM18.6428 19.7656C18.8479 19.8193 19.1018 19.8779 19.2043 19.8975C19.3606 19.9219 19.385 19.9414 19.3606 20.0244C19.302 20.2002 18.5549 22.9541 18.5549 22.9834C18.5549 23.0029 18.384 22.8467 18.1692 22.6416C17.8078 22.2852 17.7737 22.2656 17.5735 22.2656C17.4563 22.2705 17.1145 22.3193 16.8117 22.3828L16.2698 22.4951L16.4797 21.9043C16.5969 21.5772 16.8459 20.874 17.0364 20.3369C17.2268 19.7998 17.3928 19.3359 17.4026 19.3066C17.4172 19.2773 17.593 19.3359 17.8469 19.4629C18.0813 19.5752 18.4377 19.7119 18.6428 19.7656ZM22.8274 20.3857C23.0324 20.9766 23.2912 21.6943 23.3889 21.9775L23.5744 22.4951L23.0324 22.3828C22.7297 22.3193 22.3879 22.2705 22.2707 22.2656C22.0705 22.2656 22.0364 22.29 21.6799 22.6367L21.2991 23.0029L21.1965 22.6221C21.1428 22.4121 20.9524 21.7236 20.7815 21.0938C20.6106 20.4639 20.4739 19.9414 20.4787 19.9365C20.4836 19.9316 20.6594 19.8926 20.8742 19.8486C21.3039 19.7607 21.8899 19.5459 22.1926 19.3652C22.3 19.3066 22.4026 19.2676 22.4172 19.2822C22.4319 19.2969 22.6174 19.7949 22.8274 20.3857Z" fill="#30A9E0"/>
<path d="M19.0679 12.2021C17.9742 12.5195 17.1246 13.3984 16.8707 14.4629C16.773 14.873 16.7779 15.6543 16.8755 16.0352C17.1539 17.1094 18.0865 18.0371 19.146 18.2861C19.5464 18.3789 20.2984 18.3789 20.6988 18.2861C21.7583 18.0371 22.691 17.1094 22.9693 16.0352C23.0669 15.6543 23.0718 14.873 22.9742 14.458C22.7203 13.3887 21.7681 12.4365 20.6988 12.1826C20.2691 12.085 19.4439 12.0947 19.0679 12.2021ZM20.6011 13.0322C21.0113 13.1592 21.2701 13.3203 21.5874 13.6572C22.0269 14.1162 22.2173 14.5898 22.2173 15.2344C22.2173 15.8887 21.9927 16.4258 21.524 16.875C21.0552 17.3291 20.5669 17.5293 19.9224 17.5293C19.2828 17.5293 18.8042 17.3389 18.3501 16.9043C17.857 16.4355 17.6275 15.9033 17.6275 15.2344C17.6275 14.4287 18.023 13.7207 18.7066 13.2764C19.229 12.9443 19.9957 12.8418 20.6011 13.0322Z" fill="#30A9E0"/>
<path d="M19.0332 13.9551C18.7793 14.2139 18.75 14.2627 18.75 14.4434C18.75 14.7119 18.877 14.8437 19.1309 14.8437C19.2334 14.8437 19.3652 14.8096 19.4238 14.7656L19.5312 14.6924V15.3516C19.5312 15.9814 19.5264 16.0156 19.4336 16.0156C19.2725 16.0156 19.1406 16.1865 19.1406 16.4062C19.1406 16.748 19.2383 16.7969 19.9219 16.7969C20.4443 16.7969 20.5176 16.7871 20.6055 16.6992C20.8154 16.4893 20.6787 16.0156 20.4102 16.0156C20.3174 16.0156 20.3125 15.9814 20.3125 14.9414C20.3125 13.6279 20.332 13.6719 19.7168 13.6719H19.3213L19.0332 13.9551Z" fill="#30A9E0"/>
</g>
<defs>
<clipPath id="clip0_1591_917">
<rect width="25" height="25" fill="white"/>
</clipPath>
</defs>
</svg>
