<svg width="50" height="44" viewBox="0 0 50 44" fill="none" xmlns="http://www.w3.org/2000/svg">
                                        <path d="M1.31819 0.310596C1.10334 0.408253 0.790842 0.642628 0.61506 0.818409C-0.0490021 1.52153 -0.000173996 0.183647 -0.000173996 18.1133C-0.000173996 33.7286 0.00959162 34.3731 0.185373 34.7442C0.283029 34.959 0.517404 35.2715 0.693185 35.4473C1.39631 36.1114 0.234201 36.0626 16.3084 36.0626C30.7322 36.0626 30.8592 36.0626 31.0545 35.8672C31.1815 35.7403 31.2498 35.545 31.2498 35.2813C31.2498 35.0176 31.1815 34.8223 31.0545 34.6954C30.8592 34.5001 30.7322 34.5001 16.66 34.5001C6.32795 34.5001 2.38264 34.4708 2.14826 34.3926C1.52326 34.168 1.56233 35.1739 1.56233 18.0938C1.56233 1.01373 1.52326 2.01958 2.14826 1.79497C2.60725 1.63872 39.5799 1.63872 40.0389 1.79497C40.6541 2.00982 40.6248 1.44341 40.6248 13.6504C40.6248 24.6075 40.6248 24.7344 40.8201 24.9297C41.0838 25.1934 41.7283 25.1934 41.992 24.9297C42.1873 24.7344 42.1873 24.6075 42.1873 13.2793C42.1873 2.34185 42.1776 1.8145 42.0018 1.44341C41.9041 1.22857 41.6697 0.916065 41.494 0.740284C40.7908 0.0762215 42.4608 0.12505 21.074 0.12505C2.4217 0.12505 1.69904 0.134815 1.31819 0.310596Z" fill="#30A9E0"/>
                                        <path d="M4.88281 3.44531C4.75586 3.57227 4.6875 3.76758 4.6875 4.03125C4.6875 4.54883 4.95117 4.8125 5.46875 4.8125C5.98633 4.8125 6.25 4.54883 6.25 4.03125C6.25 3.51367 5.98633 3.25 5.46875 3.25C5.20508 3.25 5.00977 3.31836 4.88281 3.44531Z" fill="#30A9E0"/>
                                        <path d="M8.00781 3.44531C7.88086 3.57227 7.8125 3.76758 7.8125 4.03125C7.8125 4.54883 8.07617 4.8125 8.59375 4.8125C9.11133 4.8125 9.375 4.54883 9.375 4.03125C9.375 3.51367 9.11133 3.25 8.59375 3.25C8.33008 3.25 8.13477 3.31836 8.00781 3.44531Z" fill="#30A9E0"/>
                                        <path d="M11.1328 3.44531C11.0059 3.57227 10.9375 3.76758 10.9375 4.03125C10.9375 4.54883 11.2012 4.8125 11.7188 4.8125C12.2363 4.8125 12.5 4.54883 12.5 4.03125C12.5 3.51367 12.2363 3.25 11.7188 3.25C11.4551 3.25 11.2598 3.31836 11.1328 3.44531Z" fill="#30A9E0"/>
                                        <path d="M14.2578 3.44531C14.1309 3.57227 14.0625 3.76758 14.0625 4.03125C14.0625 4.29492 14.1309 4.49023 14.2578 4.61719C14.4531 4.8125 14.5801 4.8125 25.7812 4.8125C36.9824 4.8125 37.1094 4.8125 37.3047 4.61719C37.5684 4.35352 37.5684 3.70898 37.3047 3.44531C37.1094 3.25 36.9824 3.25 25.7812 3.25C14.5801 3.25 14.4531 3.25 14.2578 3.44531Z" fill="#30A9E0"/>
                                        <path d="M18.7593 11.2187C18.3101 11.2969 17.4898 11.5117 16.9332 11.6875C12.8414 13.0644 9.80425 16.0918 8.44683 20.1738C7.95855 21.6484 7.81207 22.664 7.81207 24.6074C7.81207 26.8633 7.61675 26.6875 10.1558 26.6875C11.982 26.6875 12.1187 26.6777 12.3043 26.4922C12.5679 26.2285 12.5679 25.584 12.3043 25.3203C12.1285 25.1445 11.982 25.125 10.7418 25.125H9.3648L9.43316 24.0703C9.61871 20.8086 10.7125 18.2988 12.8804 16.1308C15.1363 13.8652 17.9097 12.7129 21.1031 12.7129C24.316 12.7129 27.2457 13.9629 29.4722 16.2773C31.5328 18.4258 32.5679 20.8965 32.7632 24.1289L32.8218 25.125L28.9058 25.1054L24.98 25.0762L24.8043 24.5488C24.6968 24.2656 24.5015 23.875 24.355 23.6894L24.1011 23.3476L25.3316 22.1074C26.5132 20.916 26.5621 20.8476 26.5621 20.457C26.5621 19.9101 26.3082 19.6562 25.7613 19.6562C25.3707 19.6562 25.3121 19.7051 24.023 20.9746L22.6949 22.2929L22.2261 22.1367C21.5035 21.8926 20.1168 21.9804 19.4234 22.3222C18.4175 22.8105 17.6168 23.709 17.3336 24.666L17.2164 25.0762L15.7808 25.125C14.5015 25.164 14.3257 25.1933 14.1988 25.3594C13.9937 25.6426 14.023 26.2578 14.2574 26.4922C14.4527 26.6875 14.5796 26.6875 24.2183 26.6875C33.857 26.6875 33.9839 26.6875 34.1793 26.4922C34.355 26.3164 34.3746 26.1699 34.3746 24.6562C34.3746 22.7812 34.2183 21.6582 33.7789 20.2617C32.275 15.5644 28.1441 11.9902 23.3199 11.209C22.1968 11.0234 19.8726 11.0332 18.7593 11.2187ZM21.9527 23.8164C22.3726 23.9824 22.9 24.4707 23.105 24.8515L23.2515 25.125H21.0933H18.9351L19.0816 24.8515C19.2769 24.4804 19.814 23.9922 20.2144 23.8164C20.6636 23.6211 21.4937 23.6211 21.9527 23.8164Z" fill="#30A9E0"/>
                                        <path d="M19.0523 14.334C15.2144 15.1739 12.3531 17.8301 11.2789 21.5508C10.9664 22.6446 10.9664 23.0743 11.2593 23.3477C11.5425 23.6114 12.0992 23.6309 12.3921 23.3868C12.5289 23.2794 12.6754 22.918 12.8316 22.2833C13.6324 19.0801 16.1324 16.6778 19.3843 15.9844C20.273 15.7989 21.9234 15.7989 22.8414 15.9942C26.025 16.668 28.5543 19.0997 29.355 22.2833C29.482 22.7911 29.6675 23.2891 29.7554 23.3868C29.9898 23.6504 30.6734 23.6211 30.9371 23.3379C31.2203 23.0352 31.2105 22.6251 30.9078 21.5508C29.8336 17.8301 26.9234 15.1251 23.1246 14.3438C22.1871 14.1485 19.9312 14.1485 19.0523 14.334Z" fill="#30A9E0"/>
                                        <path d="M39.3359 26.7949C39.2383 26.8438 39.0918 27.1172 39.0137 27.4004C38.8379 28.0059 38.7891 28.084 38.4961 28.2402C38.2422 28.377 37.9688 28.3086 37.5781 28.0449C37.4414 27.9375 37.1582 27.8594 36.9531 27.8594C36.6016 27.8594 36.4941 27.9473 35.2832 29.1582C34.0723 30.3691 33.9844 30.4766 33.9844 30.8281C33.9844 31.0332 34.0625 31.3164 34.1699 31.4531C34.4336 31.8438 34.502 32.1172 34.3652 32.3711C34.209 32.6641 34.1309 32.7129 33.5156 32.8887C32.7734 33.1035 32.7148 33.2988 32.7148 35.2813C32.7148 37.2637 32.7734 37.459 33.5156 37.6738C34.1309 37.8496 34.209 37.8984 34.3652 38.1914C34.502 38.4453 34.4336 38.7188 34.1699 39.1094C34.0625 39.2461 33.9844 39.5293 33.9844 39.7344C33.9844 40.0859 34.0723 40.1934 35.2832 41.4043C36.4941 42.6152 36.6016 42.7031 36.9531 42.7031C37.1582 42.7031 37.4414 42.625 37.5781 42.5176C37.9688 42.2539 38.2422 42.1855 38.4961 42.3223C38.7891 42.4785 38.8379 42.5566 39.0137 43.1621C39.1016 43.4551 39.248 43.7188 39.3555 43.7773C39.5996 43.9043 43.2129 43.9043 43.457 43.7773C43.5645 43.7188 43.7109 43.4551 43.7988 43.1621C43.9746 42.5566 44.0234 42.4785 44.3164 42.3223C44.5703 42.1855 44.8438 42.2539 45.2344 42.5176C45.3711 42.625 45.6543 42.7031 45.8594 42.7031C46.2109 42.7031 46.3184 42.6152 47.5293 41.4043C48.7402 40.1934 48.8281 40.0859 48.8281 39.7344C48.8281 39.5293 48.75 39.2461 48.6426 39.1094C48.3789 38.7188 48.3105 38.4453 48.4473 38.1914C48.6035 37.8984 48.6816 37.8496 49.2871 37.6738C49.5801 37.5859 49.8438 37.4395 49.9023 37.332C50.0293 37.0879 50.0293 33.4746 49.9023 33.2305C49.8438 33.123 49.5801 32.9766 49.2871 32.8887C48.6816 32.7129 48.6035 32.6641 48.4473 32.3711C48.3105 32.1172 48.3789 31.8438 48.6426 31.4531C48.75 31.3164 48.8281 31.0332 48.8281 30.8281C48.8281 30.4766 48.7402 30.3691 47.5293 29.1582C46.3184 27.9473 46.2109 27.8594 45.8594 27.8594C45.6543 27.8594 45.3711 27.9375 45.2344 28.0449C44.8438 28.3086 44.5703 28.377 44.3164 28.2402C44.0234 28.084 43.9746 28.0059 43.7988 27.4004C43.7109 27.1074 43.5645 26.8438 43.457 26.7852C43.2129 26.6582 39.5605 26.6582 39.3359 26.7949ZM42.3926 28.5625C42.832 29.627 44.209 30.2617 45.2637 29.8906L45.6543 29.7441L46.2988 30.3691L46.9434 31.0039L46.8066 31.4043C46.4258 32.4883 47.0508 33.8555 48.125 34.2949L48.4375 34.4219V35.2813V36.1406L48.125 36.2676C47.0605 36.707 46.4258 38.084 46.7969 39.1387L46.9434 39.5293L46.3184 40.1738L45.6836 40.8184L45.2832 40.6816C44.1992 40.3008 42.832 40.9258 42.3926 42L42.2656 42.3125H41.4062H40.5469L40.4199 42C39.9805 40.9258 38.6133 40.3008 37.5293 40.6816L37.1289 40.8184L36.4941 40.1738L35.8691 39.5293L36.0156 39.1387C36.377 38.1133 35.8203 36.834 34.7949 36.3164L34.4727 36.1504V35.2813V34.4121L34.7949 34.2461C35.8301 33.7285 36.377 32.4492 36.0059 31.4043L35.8691 31.0039L36.5137 30.3691L37.1582 29.7441L37.5488 29.8906C38.6035 30.2617 39.9805 29.627 40.4199 28.5625L40.5469 28.25H41.4062H42.2656L42.3926 28.5625Z" fill="#30A9E0"/>
                                        <path d="M40.0684 31.5605C39.043 31.9414 38.3105 32.6055 37.8125 33.6211C37.5684 34.1094 37.5488 34.2559 37.5488 35.2812C37.5488 36.3262 37.5684 36.4434 37.832 36.9902C38.2031 37.7422 38.9453 38.4844 39.6973 38.8555C40.2441 39.1191 40.3613 39.1387 41.4062 39.1387C42.4512 39.1387 42.5684 39.1191 43.1152 38.8555C43.8672 38.4844 44.6094 37.7422 44.9805 36.9902C45.2441 36.4434 45.2637 36.3262 45.2637 35.2812C45.2637 34.2363 45.2441 34.1191 44.9805 33.5723C44.6094 32.8203 43.8672 32.0781 43.1152 31.7168C42.6074 31.4629 42.4023 31.4238 41.5527 31.3945C40.7812 31.375 40.4688 31.4141 40.0684 31.5605ZM42.2656 33.1914C43.7598 33.8066 44.1309 35.7988 42.959 36.9121C41.5234 38.2695 39.1602 37.2637 39.1602 35.2812C39.1602 34.4023 39.6582 33.6309 40.4785 33.2012C40.8594 32.9961 41.7969 32.9961 42.2656 33.1914Z" fill="#30A9E0"/>
                                    </svg>