<svg width="78" height="80" viewBox="0 0 78 80" fill="none" xmlns="http://www.w3.org/2000/svg">
                                <path d="M35.3281 0.250008C32.5938 0.734383 29.5312 2.00001 27.1406 3.64063C25.625 4.67188 23.1875 7.09376 22.1406 8.59376C20.4375 11 19.0625 14.2813 18.6562 16.8594L18.4688 18.125H12.4375H6.42188L3.875 28.3125L1.32812 38.5156L1.34375 40.5469C1.34375 43.4063 1.82812 45.0313 3.15625 46.6719L3.6875 47.3125V62.4063V77.5H1.89062H0.09375V78.75V80H39H77.9062V78.75V77.5H76.1094H74.3125V70.8594V64.2188H72.9844H71.6562V66.0156V67.8125H60.7969H49.9375V61.1719V54.5313H60.7969H71.6562V58.2031V61.875H72.9844H74.3125V54.6094V47.3438L74.8906 46.6094C75.5781 45.6875 76.25 44.2656 76.4844 43.1563C76.5781 42.7031 76.6562 41.4688 76.6562 40.4219L76.6406 38.5156L74.1094 28.3594L71.5625 18.2031L65.5469 18.1563L59.5312 18.125L59.3438 16.8594C58.9375 14.2969 57.7969 11.5 56.1406 9.01563C55.25 7.67188 52.3594 4.51563 52.0312 4.54688C51.9062 4.54688 50.4062 6.29688 50.4062 6.43751C50.4062 6.45313 51.0625 7.15626 51.8594 7.96876C54.4688 10.6406 55.9844 13.4531 56.75 17.0313C57.2031 19.1406 57.1406 22.5781 56.6094 24.7031C55.4375 29.4688 52.6406 33.3594 48.5 36L47.5938 36.5781V31.9063V27.2344L48.5 26.8906C50.1875 26.2813 51.25 25.1406 51.9375 23.25C52.2969 22.2344 52.3438 21.875 52.3438 20C52.3438 17.5938 52.0938 16.375 51.25 14.5938C49.3594 10.5938 45.1562 9.67188 42.5312 12.6875C41.6562 13.6875 40.9688 15.0625 40.5469 16.6719C40.1406 18.1719 40.0625 21.1875 40.3906 22.5C41 24.9375 42.4219 26.4531 44.75 27.125C44.8906 27.1719 44.9375 28.375 44.9375 32.4688V37.7656L43.9688 38.0313C41.8594 38.5781 41.1875 38.6719 39 38.6719C36.8125 38.6719 36.1406 38.5781 34.0469 38.0313L33.0625 37.7656V31.7188V25.6719L33.8438 25.5781C35.4375 25.3906 36.75 24.4375 37.4688 22.9844C37.8125 22.2969 37.8281 22.0938 37.875 17.2188L37.9219 12.1875H36.5938H35.25V13.9844V15.7813H34.1562H33.0625V13.9844V12.1875H31.7344H30.4062V13.9844V15.7813H29.3125H28.2188V13.9844V12.1875H26.875H25.5469L25.5938 17.2188C25.6406 22 25.6562 22.2969 25.9844 23C26.6406 24.4219 28.4062 25.625 29.8594 25.625H30.4062V31.0938V36.5781L29.5156 36C21.8594 31.125 18.8594 21.6875 22.3594 13.5469C24.0156 9.70313 27.2812 6.25001 31.1562 4.31251C33.25 3.25001 36.5156 2.50001 39 2.50001C41.75 2.50001 44.9375 3.29688 47.3906 4.60938L48.6719 5.28126L49.3125 4.21876C49.6719 3.62501 49.9219 3.07813 49.875 3.00001C49.7188 2.73438 46.8594 1.42188 45.4844 0.968758C44.7031 0.703133 43.4219 0.390633 42.6094 0.250008C40.7812 -0.0624924 37.0781 -0.0624924 35.3281 0.250008ZM47.0156 13.6563C48.5625 14.2969 49.7812 17.0938 49.7812 20C49.7812 23.0156 48.7344 24.4844 46.4688 24.6563C45.3281 24.75 44.1094 24.2031 43.5469 23.3594C42.1562 21.2969 42.6562 16.5313 44.4844 14.4688C45.3125 13.5156 46.0938 13.2656 47.0156 13.6563ZM35.25 19.9375C35.25 22.6875 34.8281 23.0469 31.6562 23.0469C28.6094 23.0469 28.2188 22.7031 28.2188 19.9219V18.2813H31.7344H35.25V19.9375ZM18.0469 21.2031C18.0469 21.4531 17.6406 25.2188 17.1562 29.6094L16.2656 37.5781L10.2812 37.625C7 37.6406 4.3125 37.6094 4.3125 37.5469C4.3125 37.4688 5.23438 33.6719 6.375 29.0938L8.45312 20.7813H13.25H18.0625L18.0469 21.2031ZM71.6094 29.1406C72.75 33.6875 73.6875 37.4688 73.6875 37.5313C73.6875 37.6094 70.9844 37.6563 67.6719 37.6563C62.7812 37.6563 61.6562 37.625 61.6562 37.4531C61.6562 37.3281 61.2656 33.7188 60.7969 29.4063C60.3281 25.0938 59.9375 21.3906 59.9375 21.1719V20.7813L64.7344 20.8125L69.5312 20.8594L71.6094 29.1406ZM22.2188 32.7813C23.8594 35.0938 27 37.7813 29.5156 39L30.4062 39.4375V40.7969C30.4062 44.2031 28.6094 46.5469 25.5 47.1875C24.25 47.4375 23.125 47.2656 21.8281 46.625C19.75 45.5938 18.6562 43.875 18.5625 41.5156L18.5 40.1563H21.4844H24.4688V38.9063V37.6563H21.6406H18.8125L18.8906 37.2188C18.9219 36.9844 19.1562 34.9531 19.4062 32.7031L19.8438 28.6094L20.6562 30.1719C21.1094 31.0313 21.8125 32.2031 22.2188 32.7813ZM58.6094 33.2813L59.0938 37.6563H54.9688H50.8594L52.0312 36.7031C54.2344 34.9375 56.2344 32.4375 57.4531 29.9531C57.7344 29.375 58.0156 28.9063 58.0625 28.9063C58.1094 28.9063 58.3594 30.875 58.6094 33.2813ZM15.8281 41.3594C15.7031 43.2031 15.2344 44.25 14.0156 45.4844C12.6875 46.8125 11.6719 47.2344 9.85938 47.2344C8.04688 47.2344 7.03125 46.8125 5.70312 45.4844C4.48438 44.25 4.01562 43.2031 3.89062 41.3594L3.79688 40.1563H9.85938H15.9219L15.8281 41.3594ZM59.3906 41.5625C59.3906 42.75 59.3281 43.0156 58.875 43.9375C57.7188 46.2969 55.1094 47.6563 52.6406 47.2031C49.6094 46.6406 47.5938 44.2188 47.5938 41.1406V40.1563L53.5 40.1875L59.3906 40.2344V41.5625ZM74.1562 40.8594C74.1562 44.0156 72.0938 46.6094 69.1094 47.2031C67.375 47.5625 65.2656 46.875 63.9219 45.5156C62.7656 44.375 62.3125 43.2656 62.0469 40.9688L61.9531 40.1563H68.0625H74.1562V40.8594ZM34.7031 40.8906C35.5625 41.1094 36.4688 41.1719 39 41.1719C42.0938 41.1719 42.9062 41.0781 44.6875 40.5313C44.9531 40.4375 44.9688 40.5156 44.9062 41.6563C44.7344 44.4375 42.8281 46.6094 40.0312 47.1875C38.7812 47.4375 37.6562 47.2656 36.3594 46.625C34.3594 45.625 33.2188 43.9063 33.0938 41.6719C33.0312 40.5156 33.0469 40.4375 33.3125 40.5313C33.4844 40.5781 34.1094 40.7344 34.7031 40.8906ZM19.1875 48.1094C20.2188 48.875 21.4688 49.4688 22.5781 49.7031C23.8281 49.9531 26.2344 49.8125 27.3594 49.4063C28.6562 48.9375 30.2969 47.7813 31.0625 46.7969L31.7031 45.9688L32.2969 46.7344C33.4219 48.1406 35.3438 49.3281 37.1094 49.7031C38.3594 49.9531 40.7656 49.8125 41.8906 49.4063C43.1875 48.9375 44.8281 47.7656 45.6094 46.7813L46.2656 45.9375L46.6406 46.4531C47.625 47.7344 49.1406 48.8594 50.6719 49.4063C51.7812 49.8125 54.1875 49.9531 55.4219 49.7031C57.1875 49.3281 59.2344 48.0625 60.2812 46.6719L60.7812 46.0156L62.0312 47.2656C63.375 48.6094 64.3438 49.1875 65.9688 49.6094C67.5156 50.0156 69.8906 49.875 71.3906 49.2969C71.625 49.2031 71.6562 49.3125 71.6562 50.5313V51.875H39H6.34375V50.5313C6.34375 49.3125 6.375 49.2031 6.625 49.2969C8.125 49.875 10.4844 50.0156 12.0312 49.6094C13.625 49.1875 15.0156 48.3438 16.1562 47.1094L17.1875 45.9844L17.7812 46.7344C18.1094 47.1563 18.75 47.7656 19.1875 48.1094ZM28.0625 61.1719V67.8125H17.2031H6.34375V61.1719V54.5313H17.2031H28.0625V61.1719ZM47.4375 66.0156V77.5H39H30.5625V66.0156V54.5313H39H47.4375V66.0156ZM28.0625 73.9063V77.5H17.2031H6.34375V73.9063V70.3125H17.2031H28.0625V73.9063ZM71.6562 73.9063V77.5H60.7969H49.9375V73.9063V70.3125H60.7969H71.6562V73.9063Z" fill="#30A9E0"/>
                                <path d="M10.0938 58.4375V59.6875H11.4219H12.75V58.4375V57.1875H11.4219H10.0938V58.4375Z" fill="#30A9E0"/>
                                <path d="M14.9375 58.4375V59.6875H16.2656H17.5938V58.4375V57.1875H16.2656H14.9375V58.4375Z" fill="#30A9E0"/>
                                <path d="M19.7812 58.4375V59.6875H21.1094H22.4375V58.4375V57.1875H21.1094H19.7812V58.4375Z" fill="#30A9E0"/>
                                <path d="M35.25 65.4688V67.9688H36.5781H37.9062V65.4688V62.9688H36.5781H35.25V65.4688Z" fill="#30A9E0"/>
                                <path d="M40.0938 65.4688V67.9688H41.4219H42.75V65.4688V62.9688H41.4219H40.0938V65.4688Z" fill="#30A9E0"/>
                            </svg>