<svg width="48" height="44" viewBox="0 0 48 44" fill="none" xmlns="http://www.w3.org/2000/svg">
<path d="M22.876 0.808594C21.6944 1.0625 20.5225 1.72656 19.7608 2.57617C18.3252 4.17773 18.0127 5.75977 18.5792 8.71875C18.9991 10.9551 19.3409 11.6777 20.4834 12.752L21.167 13.3965V14.3633C21.167 15.1641 21.1377 15.3496 21.0108 15.3984C20.9229 15.4277 20.337 15.457 19.7022 15.457C18.0127 15.457 16.9971 15.8184 16.0596 16.7656C15.8545 16.9609 15.6983 17.1074 15.6983 17.0879C15.6983 16.707 15.4053 15.7109 15.0928 15.0664C13.5694 11.8828 9.39946 10.8574 6.56743 12.9668C5.52251 13.748 4.74126 14.8906 4.42876 16.1113C4.19438 17.0195 4.23345 18.1621 4.57524 19.9688C4.96587 22.0977 5.2686 22.7227 6.38188 23.8359L7.2022 24.6367V25.4961C7.2022 26.0332 7.16313 26.3945 7.08501 26.4727C7.00688 26.5508 6.56743 26.5898 5.79595 26.5996C5.14165 26.5996 4.45806 26.6484 4.27251 26.7168C3.66704 26.9219 3.53032 27.6055 3.98931 28.0645C4.17485 28.25 4.27251 28.2695 4.86821 28.2109L5.53228 28.1426L5.72759 28.5137C6.19634 29.4414 7.25103 30.3203 8.33501 30.6914C10.4932 31.4434 12.8077 30.6426 14.0967 28.6895L14.4678 28.1328L14.9561 28.2012C16.0108 28.3379 16.9483 29.0312 17.3877 29.998C17.5635 30.3789 17.6026 30.6816 17.6319 31.9805L17.6709 33.5137L17.1729 33.7676C16.8897 33.9043 16.5088 34.168 16.3038 34.3438C15.9815 34.6367 15.8545 34.6855 15.0635 34.7832C11.4209 35.2129 7.44634 35.1543 3.22759 34.5879L2.32915 34.4707L2.29985 32.8594C2.27056 31.3164 2.26079 31.2578 2.03618 31.0723C1.74321 30.8281 1.2061 30.8281 0.961962 31.0723C0.678759 31.3555 0.639697 31.7168 0.678759 33.6895C0.717822 35.9258 0.639697 35.8086 2.31938 36.0625C5.20024 36.5117 6.53813 36.5996 9.9854 36.5898C11.8116 36.5801 13.667 36.541 14.1163 36.4824L14.9366 36.3945L14.8682 36.6387C14.8292 36.7754 14.7706 38.0352 14.751 39.4414L14.712 41.9902L14.9366 42.2441C15.1319 42.4688 15.3174 42.5273 16.3819 42.6934C19.0772 43.123 20.6006 43.2305 23.9991 43.2305C27.4073 43.2305 28.96 43.123 31.6163 42.7031C32.6807 42.5273 32.8663 42.4785 33.0616 42.2539L33.2862 41.9902L33.2471 39.4414C33.2276 38.0352 33.169 36.7754 33.1299 36.6387L33.0616 36.3945L33.8819 36.4824C34.3311 36.541 36.1866 36.5801 38.0127 36.5898C41.46 36.5996 42.7979 36.5117 45.6788 36.0625C47.378 35.8086 47.2803 35.9551 47.3194 33.4453C47.3682 30.3691 47.1729 29.3926 46.294 28.2988C45.7471 27.6348 45.1319 27.1855 44.3311 26.873C43.8819 26.6973 43.5206 26.6484 42.4073 26.6094C41.6553 26.5898 40.9815 26.5215 40.9229 26.4727C40.835 26.4043 40.796 26.082 40.796 25.5059V24.6367L41.6163 23.8359C42.7393 22.7129 43.0323 22.0977 43.4424 19.9004C43.9112 17.3418 43.794 16.043 42.9346 14.627C41.9678 13.0156 40.337 12.0195 38.4424 11.8828C35.4737 11.668 32.8565 13.7578 32.3487 16.7559L32.2901 17.127L31.7823 16.668C31.4991 16.4141 30.9424 16.0527 30.542 15.8574C29.8194 15.5156 29.7803 15.5059 28.3936 15.4766C27.6124 15.457 26.919 15.3887 26.8604 15.3398C26.7725 15.2715 26.7334 14.9492 26.7334 14.3633V13.4941L27.4268 12.8398C28.667 11.6777 28.9893 11.0137 29.419 8.71875C29.9952 5.68164 29.6436 4.02148 28.1006 2.45898C26.9776 1.32617 25.8155 0.808594 24.2432 0.75C23.7061 0.730469 23.0909 0.759766 22.876 0.808594ZM24.6827 2.37109C25.8057 2.58594 26.9971 3.40625 27.5538 4.36328C28.1495 5.38867 28.2276 6.32617 27.8565 8.32812C27.5538 9.92969 27.4756 10.1934 27.0752 10.8184C26.6749 11.4434 26.2549 11.7949 25.4639 12.1758C24.9073 12.4395 24.7217 12.4785 23.9991 12.4785C23.2764 12.4785 23.0909 12.4395 22.5245 12.1758C21.0987 11.502 20.5518 10.6133 20.1417 8.36719C19.8584 6.76562 19.8389 6.0332 20.0538 5.29102C20.5518 3.62109 22.1729 2.36133 23.9112 2.2832C24.0577 2.27344 24.3995 2.32227 24.6827 2.37109ZM11.167 13.6602C12.7881 14.0996 14.0479 15.7793 14.0674 17.5078C14.0772 18.5332 13.6182 20.8184 13.2569 21.5703C12.9053 22.293 12.1827 22.9863 11.4209 23.3477C10.9424 23.5723 10.7374 23.6113 9.9854 23.6113C9.20415 23.6113 9.03813 23.582 8.4522 23.2988C7.66118 22.9277 7.03618 22.3223 6.67485 21.5996C6.40142 21.0332 5.83501 18.3184 5.83501 17.5566C5.83501 16.082 6.77251 14.6074 8.12993 13.9336C9.16509 13.4258 10.0245 13.3477 11.167 13.6602ZM39.1358 13.6211C41.0206 14.1777 42.3096 16.0234 42.1241 17.8984C41.9971 19.168 41.5967 21.043 41.3233 21.5898C40.962 22.3223 40.337 22.9277 39.546 23.2988C38.96 23.582 38.794 23.6113 38.0127 23.6113C37.2608 23.6113 37.0557 23.5723 36.5772 23.3477C35.4639 22.8301 34.6924 21.8535 34.4092 20.623C34.0186 18.9238 33.8526 17.6348 33.9502 17.0195C34.3506 14.5586 36.8213 12.9375 39.1358 13.6211ZM25.1709 14.8027C25.1709 15.9258 25.4542 16.4922 26.1768 16.8242L26.5479 16.9902L26.1377 17.3418C25.4151 17.9668 24.9463 18.1426 23.9502 18.1426C23.1885 18.1426 23.003 18.1035 22.5733 17.8789C22.0362 17.5957 21.46 17.1465 21.46 17.0195C21.46 16.9707 21.5577 16.9023 21.6846 16.873C21.9971 16.7754 22.4366 16.3359 22.5928 15.9746C22.6709 15.7891 22.7295 15.3203 22.7295 14.8516V14.041H23.9502H25.1709V14.8027ZM19.712 17.332C19.7803 17.5078 20.1807 17.9863 20.5909 18.3965L21.3331 19.1387L20.9815 19.3242C20.7862 19.4219 20.3174 19.8125 19.9463 20.1934C19.1651 20.9746 18.6182 21.9512 18.4229 22.9473C18.3545 23.2891 18.2569 23.5625 18.2081 23.5625C18.0909 23.5625 16.7627 23.3672 16.5088 23.3086C16.2842 23.2695 16.2842 23.25 16.2842 21.4824C16.2842 19.4902 16.3721 18.9824 16.8604 18.3184C17.4073 17.5664 18.3838 17.0293 19.2237 17.0195C19.5362 17.0195 19.5948 17.0586 19.712 17.332ZM29.9463 17.3613C30.5616 17.6641 31.2647 18.4648 31.4698 19.0605C31.587 19.4316 31.6163 19.8906 31.5967 21.4238L31.5674 23.3184L31.128 23.377C30.8838 23.4062 30.4639 23.4648 30.2002 23.5039L29.7022 23.5625L29.5752 22.957C29.2627 21.4141 28.1983 20.0078 26.6456 19.0996C26.6358 19.0898 26.8995 18.8164 27.251 18.4844C27.6026 18.1523 28.0127 17.6836 28.1592 17.4395L28.4131 17L28.9502 17.0586C29.2432 17.0879 29.6924 17.2246 29.9463 17.3613ZM24.6143 20.1445C25.4249 20.2715 26.167 20.6426 26.7823 21.2285C27.6612 22.0586 28.1006 23.0352 28.1006 24.1777C28.1006 24.8125 27.6807 27.2539 27.4659 27.8691C27.1436 28.7773 26.4795 29.4707 25.4639 29.9492C24.9073 30.2129 24.7217 30.252 23.9991 30.252C23.2764 30.252 23.0909 30.2129 22.5342 29.9492C21.7725 29.5879 21.3624 29.2559 20.962 28.6797C20.5616 28.0938 20.4444 27.7031 20.1514 26.1211C19.8487 24.4707 19.8292 23.748 20.0928 22.9668C20.3565 22.2051 20.6397 21.7656 21.2354 21.1992C21.8311 20.6426 22.378 20.3594 23.1592 20.1934C23.9112 20.0273 23.9307 20.0273 24.6143 20.1445ZM14.8877 24.5488C15.044 24.6953 15.9522 24.8906 17.251 25.0469C18.4327 25.1836 18.335 25.0664 18.628 26.707C18.9795 28.709 19.3799 29.5098 20.5225 30.5645L21.1768 31.1602L21.1475 32.1758L21.1182 33.1816L20.1709 33.2109L19.2334 33.2402L19.1944 31.6484C19.1651 30.2812 19.126 29.9785 18.9307 29.4902C18.4815 28.3477 17.4463 27.3125 16.3038 26.873C15.8545 26.6973 15.4737 26.6484 14.2823 26.5996L12.8174 26.541L12.7881 25.5547L12.7588 24.5684L13.3741 24.0312C13.7159 23.7285 14.1456 23.25 14.3311 22.957L14.6729 22.4297L14.7217 23.4355C14.751 24.0215 14.8194 24.4805 14.8877 24.5488ZM34.6534 24.0605L35.2393 24.5684L35.21 25.5547L35.1807 26.541L33.7159 26.5996C32.5245 26.6484 32.1436 26.6973 31.6944 26.873C30.5518 27.3125 29.5167 28.3477 29.0674 29.4902C28.8721 29.9785 28.8331 30.2812 28.8038 31.6484L28.7647 33.2402L27.8272 33.2109L26.8799 33.1816L26.8506 32.1758L26.8213 31.1602L27.4659 30.5742C28.628 29.5098 29.0186 28.709 29.3799 26.6777C29.4971 26.0137 29.6241 25.3984 29.6631 25.3301C29.7217 25.2324 30.2002 25.1152 31.2061 24.9785C32.0557 24.8516 32.7784 24.6953 32.9151 24.6074C33.1983 24.4219 33.2764 24.0898 33.2764 23.1035V22.3711L33.667 22.957C33.8917 23.2793 34.3311 23.7773 34.6534 24.0605ZM11.2061 25.9844C11.2061 26.4434 11.2647 26.9316 11.3428 27.1074C11.4893 27.459 12.1143 28.0547 12.3292 28.0547C12.5635 28.0547 12.4952 28.2109 12.1338 28.5332C11.1182 29.4219 9.7022 29.6074 8.51079 29.002C7.97368 28.7285 7.37798 28.1523 7.56353 28.084C7.92485 27.957 8.35454 27.5566 8.54985 27.1758C8.71587 26.834 8.7647 26.5801 8.7647 25.9551V25.1738H9.9854H11.2061V25.9844ZM39.2335 25.9551C39.2335 26.5801 39.2823 26.834 39.4581 27.1758C39.6436 27.5566 40.0733 27.957 40.4346 28.084C40.6202 28.1523 40.0245 28.7285 39.4874 29.002C38.296 29.6074 36.8799 29.4219 35.8643 28.5332C35.503 28.2109 35.4346 28.0547 35.669 28.0547C35.8838 28.0547 36.5088 27.459 36.6553 27.1074C36.7335 26.9316 36.792 26.4434 36.792 25.9844V25.1738H38.0127H39.2335V25.9551ZM33.9991 28.8262C35.376 30.8477 37.9249 31.5215 40.1612 30.457C41.001 30.0664 41.9092 29.2363 42.2608 28.5527L42.4756 28.1328L42.9737 28.1914C43.7549 28.2988 44.3604 28.6113 44.878 29.1777C45.5909 29.9492 45.6788 30.3398 45.6788 32.5859V34.4707L44.3897 34.6367C40.3272 35.1543 36.4502 35.2031 32.9346 34.7832C32.1436 34.6855 32.0167 34.6367 31.6944 34.3438C31.4893 34.168 31.1084 33.9043 30.8252 33.7676L30.3272 33.5137L30.3663 31.9805C30.3956 30.6719 30.4249 30.3789 30.6006 29.998C31.001 29.1289 31.8116 28.4648 32.7295 28.2402C33.4327 28.0742 33.501 28.1133 33.9991 28.8262ZM25.1905 32.6445C25.2393 33.6992 25.503 34.2363 26.1377 34.5684L26.5577 34.793L26.2354 35.0957C25.2881 35.9844 23.8233 36.2285 22.6807 35.6816C22.3584 35.5352 21.9483 35.2715 21.7627 35.0957L21.4405 34.793L21.8604 34.5684C22.4952 34.2363 22.7588 33.6992 22.8077 32.6445L22.8467 31.8145H23.9991H25.1514L25.1905 32.6445ZM19.7901 35.2031C20.3174 36.1309 21.2452 36.8926 22.3877 37.332C23.2178 37.6543 24.7608 37.6543 25.6104 37.332C26.753 36.8926 27.6905 36.1211 28.2081 35.1934L28.4424 34.7734L28.96 34.832C30.0245 34.959 30.8643 35.5449 31.3428 36.5215L31.6651 37.1758L31.6944 39.0996C31.7334 40.9062 31.7237 41.0234 31.5577 41.082C31.0987 41.2188 27.9834 41.541 26.0889 41.6387C24.5264 41.7266 23.4717 41.7266 21.9092 41.6387C20.0147 41.541 16.8995 41.2188 16.4405 41.082C16.2745 41.0234 16.2647 40.9062 16.3038 39.0996L16.3331 37.1758L16.6553 36.5215C17.1729 35.4863 18.1495 34.8418 19.2627 34.8027C19.5069 34.793 19.5948 34.8613 19.7901 35.2031Z" fill="#30A9E0"/>
<path d="M1.68372 28.6897C1.02942 29.344 1.87903 30.3596 2.70911 29.9104C3.11927 29.6858 3.1388 28.885 2.72864 28.5823C2.4552 28.3674 1.94739 28.4163 1.68372 28.6897Z" fill="#30A9E0"/>
</svg>
