<svg width="80" height="64" viewBox="0 0 80 64" fill="none" xmlns="http://www.w3.org/2000/svg">
                                <path d="M26.75 1.14062C20.75 2.23437 15.5 6.21874 12.8125 11.7656C11.3906 14.7031 10.8594 17.3594 10.9688 21.0469C11.0625 23.7812 11.4844 25.9687 12.4375 28.7812C13.1562 30.8281 15 34.6094 16.2969 36.6406L17.3281 38.25H15.4531H13.5938V35.5937C13.5938 33.2812 13.5469 32.8437 13.2969 32.3437C12.6719 31.1094 11.8594 30.7656 9.60938 30.75C8.75 30.75 7.76562 30.8281 7.42188 30.9219C6.57812 31.1562 5.65625 32.1406 5.53125 32.9375L5.42188 33.5625H3.92188C2.01562 33.5625 1.32812 33.7656 0.59375 34.5L0 35.0937V43.0625V51.0312L0.421875 51.5469C1.125 52.375 1.875 52.625 3.76562 52.625H5.42188L5.53125 53.25C5.65625 54.0469 6.57812 55.0312 7.42188 55.2656C7.76562 55.3594 8.75 55.4375 9.60938 55.4375C11.8594 55.4219 12.6719 55.0781 13.2969 53.8437C13.5469 53.3437 13.5938 52.9062 13.5938 50.5937V47.9375H19.5H25.3906L26.7969 49.3594C30.3594 52.9687 36.2812 57.9062 41.2969 61.4687C43.6406 63.1406 44.1875 63.4062 45.3906 63.4062C46.875 63.4062 47.3594 63.125 52.2656 59.4219C60.6406 53.125 67.8906 46.0156 72.5469 39.5469C76.4688 34.1094 78.9844 28.4375 79.6719 23.5156C79.9219 21.75 79.8906 18.3594 79.6094 16.75C79.1875 14.3594 77.7344 10.6562 77.0625 10.2969C76.5625 10.0312 75.8125 10.0937 75.4688 10.4375C75.0156 10.8906 75.0781 11.5469 75.6875 12.8281C76.875 15.3125 77.3594 17.4687 77.3594 20.2656C77.3438 28.5312 72.3594 37.5 62.1562 47.5625C58.1875 51.4844 54.4219 54.7031 49.6875 58.2031C46.5781 60.5 45.9219 60.9062 45.375 60.9062C44.875 60.9062 43.6406 60.0937 40.0781 57.4219C36.6875 54.875 30.9844 50.0312 29.4688 48.4219L29 47.9375H34.2656H39.5312V50.5469C39.5312 53.5781 39.7188 54.2031 40.8281 54.9375C41.4062 55.3125 41.625 55.3594 43.1875 55.4062C44.2344 55.4531 45.2031 55.3906 45.625 55.2812C46.5781 55.0312 47.4531 54.125 47.5938 53.2812L47.7031 52.625H49.2812C50.1406 52.625 51.125 52.5469 51.4375 52.4531C52.2344 52.2344 53.0469 51.375 53.2656 50.5156C53.5 49.5781 53.5 36.6094 53.2656 35.6719C53.0625 34.875 52.3125 34.0625 51.5312 33.7812C51.25 33.6719 50.2656 33.5781 49.3594 33.5781L47.7031 33.5625L47.5938 32.9062C47.4531 32.0625 46.5781 31.1562 45.625 30.9062C45.1875 30.7812 44.2656 30.7344 43.1719 30.7812C41.6094 30.8437 41.375 30.8906 40.8125 31.25C39.7188 31.9844 39.5312 32.6094 39.5312 35.6406V38.25H37.4219C35.5156 38.25 35.2812 38.2812 35 38.5625C34.5938 38.9687 34.5938 39.8125 35 40.25C35.2969 40.5781 35.4688 40.5937 37.4219 40.5937H39.5312V43.0156V45.4375H26.5625H13.5938V43.0156V40.5937H22.3906H31.2031L31.5312 40.2344C31.9688 39.7812 31.9688 39.0469 31.5625 38.5937C31.2344 38.25 31.1875 38.25 25.8125 38.25H20.3906L19.1875 36.4062C13.8438 28.2344 12.2031 20.9844 14.2969 14.8281C16.4531 8.49999 22.2188 3.95312 28.8281 3.42187C34 2.99999 38.6719 4.79687 42.4375 8.65624C44.0625 10.3125 44.4844 10.5937 45.3906 10.5937C46.2969 10.5937 46.75 10.2969 48.2812 8.73437C49.9531 7.03124 51.2188 6.07812 53.0469 5.15624C55.5 3.92187 57.75 3.39062 60.4688 3.39062C64.625 3.37499 67.8125 4.51562 71.2812 7.24999C72.2344 7.99999 72.6719 8.24999 73.0469 8.24999C73.7031 8.24999 74.2188 7.70312 74.2188 6.99999C74.2188 6.56249 74.0781 6.32812 73.4062 5.71874C72.9688 5.29687 72.0312 4.57812 71.3438 4.12499C67.9375 1.87499 64.7031 0.906242 60.5469 0.906242C55.1406 0.906242 50.6094 2.78124 46.8594 6.54687L45.3594 8.04687L44.3125 6.90624C41.6562 3.99999 37.6719 1.84374 33.6875 1.14062C32 0.859367 28.3594 0.843742 26.75 1.14062ZM11.0156 43.0937V52.8594H9.53125H8.04688L7.96875 47.8281C7.89062 43.0469 7.875 42.7812 7.57812 42.4844C7.07812 42 6.25 42 5.78125 42.4687C5.48438 42.7656 5.46875 42.9844 5.46875 46.2656C5.46875 48.7656 5.42188 49.7969 5.28125 49.9375C5.17188 50.0469 4.59375 50.125 3.79688 50.125C2.6875 50.125 2.48438 50.0781 2.34375 49.8281C2.125 49.4062 2.125 36.7812 2.34375 36.3594C2.48438 36.1094 2.6875 36.0625 3.79688 36.0625C4.59375 36.0625 5.17188 36.1406 5.28125 36.25C5.39062 36.3594 5.46875 36.8594 5.46875 37.4219C5.46875 38.6406 5.76562 39.0312 6.70312 39.0312C7.1875 39.0312 7.39062 38.9375 7.64062 38.625C7.9375 38.25 7.96875 38 7.96875 35.8281C7.96875 34.5312 8.01562 33.4062 8.07812 33.3437C8.14062 33.2812 8.82812 33.2656 9.60938 33.2812L11.0156 33.3281V43.0937ZM45.0781 43.0937V52.8594H43.5938H42.1094L42.0625 43.1875C42.0312 35.5469 42.0625 33.4844 42.2188 33.375C42.3281 33.3125 43.0156 33.2656 43.75 33.2812L45.0781 33.3281V43.0937ZM50.75 36.25C51.0156 36.5156 51.0156 49.6719 50.75 49.9375C50.5 50.1875 48.0938 50.1875 47.8438 49.9375C47.5781 49.6719 47.5781 36.5156 47.8438 36.25C47.9531 36.1406 48.5156 36.0625 49.2969 36.0625C50.0781 36.0625 50.6406 36.1406 50.75 36.25Z" fill="#30A9E0"/>
                                <path d="M38.2967 14.2969C38.0467 14.5156 37.4842 16.125 36.0936 20.75C35.0623 24.1406 34.1717 27.0312 34.1248 27.1562C34.0154 27.4062 33.9842 27.3438 32.3904 22.0781C31.8123 20.2031 31.2186 18.5312 31.0623 18.375C30.7967 18.1094 30.3123 18.0938 24.4842 18.0938H18.1717L17.8436 18.4531C17.3436 18.9844 17.3748 19.8438 17.9061 20.2656C18.3123 20.5781 18.4998 20.5938 23.8123 20.5938H29.2967L31.0936 26.4844C32.9998 32.75 33.1404 33.0938 34.0311 33.0938C34.9686 33.0938 35.0467 32.9219 37.0467 26.2969C38.0936 22.8594 38.9842 19.9844 39.0467 19.9219C39.1248 19.8594 39.3279 20.3594 39.5311 21.0625C40.1092 23.0781 39.5936 22.9375 46.6717 22.9375H52.6717L53.0467 22.5469C53.5154 22.0938 53.5467 21.3906 53.1404 20.8906L52.8436 20.5156L47.4061 20.4375L41.9529 20.3594L41.0936 17.5156C40.6092 15.9531 40.0936 14.5312 39.9373 14.3594C39.5623 13.9531 38.7498 13.9219 38.2967 14.2969Z" fill="#30A9E0"/>
                            </svg>