<svg width="44" height="44" viewBox="0 0 44 44" fill="none" xmlns="http://www.w3.org/2000/svg">
                                        <path d="M9.88086 0.359375C8.5918 0.886719 7.69336 1.95117 7.44922 3.25977C7.39062 3.58203 7.35156 10.1445 7.35156 21.3262V38.8945L3.91406 38.9141L0.466797 38.9434L0.476562 39.627C0.486328 40.9453 1.35547 42.2246 2.66406 42.8398L3.29883 43.1426H18.5332H33.7676L34.3242 42.8691C35.457 42.3125 36.2969 41.2676 36.541 40.0859C36.6191 39.7148 36.6484 34.5 36.6484 22.0488V4.51953H39.9492C42.5664 4.51953 43.2891 4.49023 43.4355 4.39258C43.582 4.27539 43.6016 4.1582 43.5625 3.62109C43.4355 2.08789 42.2441 0.662109 40.7305 0.261719C40.3008 0.154297 37.7812 0.125 25.3203 0.125H10.4277L9.88086 0.359375ZM36.8047 1.39453C36.5508 1.66797 36.2285 2.13672 36.082 2.44922L35.8184 3.00586L35.7695 21.4629C35.7207 41.5605 35.7598 40.1445 35.1641 41.0137C34.4121 42.127 32.918 42.5957 31.668 42.127C30.6035 41.7168 29.9102 40.8379 29.6758 39.5977L29.5586 38.9434L18.8945 38.9141L8.23047 38.8945L8.25 21.0918L8.2793 3.29883L8.49414 2.83984C8.93359 1.89258 9.85156 1.16992 10.8477 1.00391C11.1016 0.964844 17.1465 0.925781 24.2852 0.916016L37.2637 0.90625L36.8047 1.39453ZM40.9941 1.32617C41.7852 1.72656 42.4395 2.54688 42.6445 3.36719L42.7031 3.64062H39.6758H36.6484L36.707 3.36719C36.9512 2.35156 37.8301 1.44336 38.8945 1.0918C39.373 0.935547 40.4766 1.05273 40.9941 1.32617ZM28.8359 39.9199C28.8359 40.3496 29.2363 41.248 29.6758 41.7852L30.1055 42.3125L16.8047 42.293L3.49414 42.2637L3.00586 42C2.19531 41.5801 1.57031 40.7988 1.35547 39.9395L1.29688 39.6758H15.0664H28.8359V39.9199Z" fill="#30A9E0"/>
                                        <path d="M21.1407 2.55664C20.4961 2.78125 19.8223 3.41601 19.5879 4.03125C19.3731 4.57812 19.3829 5.50586 19.5977 6.0039C19.8028 6.48242 20.2911 7.02929 20.6915 7.23437L21.0137 7.40039L20.711 7.88867C19.6758 9.54883 17.6934 10.5742 15.75 10.4375C14.5879 10.3594 14.4512 10.3105 14.5098 9.99805C14.5391 9.86133 14.5196 9.5293 14.461 9.27539C14.1973 8.03516 12.7618 7.37109 11.5704 7.94726C10.7989 8.32812 10.3301 9.38281 10.5645 10.2324C10.7793 11.0332 11.3946 11.5996 12.1465 11.707L12.5762 11.7656L13.6407 15.9258C14.3243 18.6309 14.6563 20.1055 14.5879 20.125C14.2071 20.252 14.0411 21.5605 14.3438 21.9902C14.6954 22.4883 14.6465 22.4883 22 22.4883C29.3536 22.4883 29.3047 22.4883 29.6563 21.9902C29.959 21.5605 29.793 20.252 29.4122 20.125C29.3438 20.1055 29.6856 18.6211 30.3692 15.916C31.4141 11.7852 31.4239 11.7461 31.6778 11.7461C31.8145 11.7461 32.1368 11.6387 32.4102 11.502C34.2754 10.5645 33.5918 7.74219 31.4825 7.74219C30.877 7.74219 30.3497 7.98633 29.9395 8.46484C29.6172 8.82617 29.4024 9.55859 29.4903 9.99805C29.5489 10.3105 29.4122 10.3594 28.25 10.4375C26.3067 10.5742 24.3243 9.54883 23.2891 7.88867L22.9864 7.40039L23.3086 7.23437C23.709 7.02929 24.1973 6.48242 24.4024 6.0039C24.627 5.50586 24.627 4.57812 24.4122 4.01172C24.168 3.38672 23.4454 2.72265 22.7715 2.52734C22.1172 2.33203 21.7852 2.33203 21.1407 2.55664ZM22.6348 3.43554C23.4258 3.78711 23.8653 4.63672 23.6602 5.39844C23.3086 6.71679 21.5704 7.12695 20.7012 6.09179C20.1543 5.4375 20.1543 4.57812 20.7012 3.92383C20.9942 3.58203 21.6192 3.25 22 3.25C22.1368 3.25 22.42 3.33789 22.6348 3.43554ZM22.4102 8.15234C22.7911 8.88476 23.8848 10.0078 24.6563 10.457C25.9844 11.2383 27.7422 11.5312 29.2071 11.2187L29.9297 11.0723L30.252 11.3262C30.5352 11.5605 30.5645 11.6094 30.4864 11.8828C30.4375 12.0488 29.9493 13.9336 29.4024 16.0625L28.4161 19.9492H22H15.584L14.5977 16.0625C14.0508 13.9336 13.5625 12.0488 13.5137 11.8828C13.4356 11.6094 13.4649 11.5605 13.7481 11.3262L14.0704 11.0723L14.793 11.2187C16.2579 11.5312 18.0157 11.2383 19.3438 10.457C20.1153 10.0078 21.209 8.88476 21.5899 8.15234C21.7657 7.82031 21.9512 7.54687 22 7.54687C22.0489 7.54687 22.2344 7.82031 22.4102 8.15234ZM13.211 8.88476C13.377 9.04101 13.543 9.29492 13.5918 9.45117C13.8555 10.3984 12.6543 11.2578 11.9024 10.6621C11.2579 10.1543 11.2188 9.44141 11.8047 8.92383C12.2637 8.52344 12.7911 8.50391 13.211 8.88476ZM32.1954 8.92383C32.7618 9.41211 32.752 10.0859 32.1758 10.6035C31.4239 11.2871 30.1348 10.4375 30.4082 9.45117C30.6329 8.64062 31.5704 8.36719 32.1954 8.92383ZM28.7481 20.8281C28.9825 20.9551 29.002 21.4629 28.7774 21.5508C28.5821 21.6289 15.418 21.6289 15.2227 21.5508C15.0079 21.4727 15.0176 20.9648 15.2422 20.8379C15.4766 20.7012 28.4844 20.6914 28.7481 20.8281Z" fill="#30A9E0"/>
                                        <path d="M10.4961 24.4609C10.4277 24.5293 10.3789 24.666 10.3789 24.7832C10.3789 24.9004 10.4277 25.0371 10.4961 25.1055C10.6621 25.2715 33.3379 25.2715 33.5039 25.1055C33.5723 25.0371 33.6211 24.9004 33.6211 24.7832C33.6211 24.666 33.5723 24.5293 33.5039 24.4609C33.3379 24.2949 10.6621 24.2949 10.4961 24.4609Z" fill="#30A9E0"/>
                                        <path d="M10.4961 27.1953C10.4277 27.2637 10.3789 27.4004 10.3789 27.5176C10.3789 27.6348 10.4277 27.7715 10.4961 27.8398C10.6621 28.0059 33.3379 28.0059 33.5039 27.8398C33.5723 27.7715 33.6211 27.6348 33.6211 27.5176C33.6211 27.4004 33.5723 27.2637 33.5039 27.1953C33.3379 27.0293 10.6621 27.0293 10.4961 27.1953Z" fill="#30A9E0"/>
                                        <path d="M10.4961 29.9297C10.4277 29.998 10.3789 30.1348 10.3789 30.252C10.3789 30.3691 10.4277 30.5059 10.4961 30.5742C10.6621 30.7402 33.3379 30.7402 33.5039 30.5742C33.5723 30.5059 33.6211 30.3691 33.6211 30.252C33.6211 30.1348 33.5723 29.998 33.5039 29.9297C33.3379 29.7637 10.6621 29.7637 10.4961 29.9297Z" fill="#30A9E0"/>
                                        <path d="M10.4961 32.6641C10.4277 32.7324 10.3789 32.8691 10.3789 32.9863C10.3789 33.1035 10.4277 33.2402 10.4961 33.3086C10.6621 33.4746 33.3379 33.4746 33.5039 33.3086C33.5723 33.2402 33.6211 33.1035 33.6211 32.9863C33.6211 32.8691 33.5723 32.7324 33.5039 32.6641C33.3379 32.498 10.6621 32.498 10.4961 32.6641Z" fill="#30A9E0"/>
                                        <path d="M10.4962 35.3984C10.3205 35.5742 10.3595 35.9453 10.5646 36.0625C10.6915 36.1309 14.4318 36.1602 22.0001 36.1602C29.5685 36.1602 33.3087 36.1309 33.4357 36.0625C33.6408 35.9453 33.6798 35.5742 33.504 35.3984C33.338 35.2324 10.6622 35.2324 10.4962 35.3984Z" fill="#30A9E0"/>
                                        <path d="M38.6602 5.75C38.543 5.86718 38.504 6.11132 38.504 6.77539C38.504 7.625 38.4942 7.67382 38.211 7.94726C37.7032 8.46484 37.7325 9.45117 38.2598 9.87109L38.504 10.0664V25.1348V40.2129L39.461 42.0195C40.3594 43.7383 40.418 43.8262 40.7208 43.8555L41.0235 43.8848L41.961 42.0488L42.8985 40.2129V25.1152C42.8985 11.8047 42.918 9.99804 43.045 9.94921C43.2989 9.86132 43.5821 9.27539 43.5821 8.86523C43.5821 8.45507 43.2989 7.86914 43.045 7.78125C42.9278 7.73242 42.8985 7.52734 42.8985 6.75586C42.8985 5.90625 42.879 5.78906 42.713 5.6914C42.5958 5.63281 41.7559 5.59375 40.6622 5.59375C39.1094 5.59375 38.7872 5.62304 38.6602 5.75ZM42.0196 7.00976V7.54687H40.7012H39.3829V7.00976V6.47265H40.7012H42.0196V7.00976ZM42.5469 8.58203C42.7618 8.78711 42.7423 9.08007 42.5176 9.20703C42.4102 9.26562 41.6192 9.30468 40.6622 9.30468C39.2852 9.30468 38.9825 9.27539 38.8555 9.14843C38.6602 8.95312 38.6602 8.82617 38.8653 8.60156C39.002 8.44531 39.1973 8.42578 40.711 8.42578C42.1173 8.42578 42.42 8.45507 42.5469 8.58203ZM40.2618 24.8809V39.5781H39.8223H39.3829V24.8809V10.1836H39.8223H40.2618V24.8809ZM42.0196 24.8809V39.5781H41.5801H41.1407V24.8809V10.1836H41.5801H42.0196V24.8809ZM41.7266 40.5059C41.7266 40.5254 41.4923 40.9844 41.209 41.5215L40.6915 42.498L40.1837 41.4727L39.6758 40.457H40.7012C41.2676 40.457 41.7266 40.4766 41.7266 40.5059Z" fill="#30A9E0"/>
                                    </svg>