<svg width="25" height="25" viewBox="0 0 25 25" fill="none" xmlns="http://www.w3.org/2000/svg">
                    <path d="M9.2678 0.761602C8.80393 0.834845 8.32542 1.02527 7.96409 1.28406C7.76389 1.43055 7.71995 1.44031 7.56858 1.40125C7.47581 1.37684 7.18772 1.36707 6.93382 1.37684C6.53831 1.39149 6.42112 1.4159 6.1428 1.54774C5.35667 1.91395 4.98069 2.68055 5.04905 3.75965C5.07346 4.20399 5.2346 4.9657 5.39085 5.41492C5.45432 5.58582 5.46897 5.87879 5.46897 6.9823C5.46897 8.53504 5.50804 8.79383 5.86448 9.47254C6.07444 9.87781 6.54807 10.4393 6.85569 10.6493L7.03147 10.7665V11.4989V12.2313L4.14573 13.7694C0.952371 15.4686 0.854715 15.5321 0.576394 16.1034L0.415262 16.4305L0.400613 19.2479C0.390848 22.0214 0.390848 22.0702 0.488504 22.1679C0.58616 22.2655 0.62034 22.2655 8.00804 22.2655C12.8713 22.2655 15.4299 22.2802 15.4299 22.3143C15.4299 22.3387 15.386 22.4755 15.3323 22.6171C15.1321 23.1444 15.2444 23.4374 15.6399 23.4374C15.7522 23.4325 16.1965 23.3593 16.6262 23.2714L17.4074 23.1102L17.9739 23.6669C18.5012 24.1845 18.55 24.2186 18.7356 24.2186C19.092 24.2186 19.0725 24.2723 19.6584 22.0848C19.7903 21.5917 19.9074 21.1913 19.9221 21.1913C19.9367 21.1913 20.0539 21.5917 20.1858 22.0848C20.635 23.745 20.7375 24.0868 20.8303 24.1552C20.8791 24.1893 21.0061 24.2186 21.1086 24.2186C21.2942 24.2186 21.343 24.1845 21.8703 23.6669L22.4367 23.1102L23.218 23.2714C23.6477 23.3593 24.092 23.4325 24.2092 23.4374C24.4729 23.4374 24.6096 23.3104 24.6096 23.0663C24.6096 22.9637 24.3069 22.0409 23.8772 20.8397C23.4719 19.7118 23.1448 18.7694 23.1448 18.7401C23.1448 18.7108 23.2571 18.5692 23.3938 18.4179C23.9016 17.8612 24.2629 17.2069 24.468 16.4794C24.6291 15.8983 24.6535 14.829 24.5168 14.2235C24.1408 12.5096 22.8811 11.1815 21.1623 10.6835C20.8254 10.5858 20.6692 10.5712 19.9221 10.5712C19.175 10.5712 19.0188 10.5858 18.6819 10.6835C17.1145 11.1376 15.9377 12.2655 15.4397 13.7889L15.3078 14.1893L13.5158 13.2128L11.719 12.2362V11.4989V10.7665L11.8948 10.6493C12.2024 10.4393 12.676 9.87781 12.886 9.47254C13.2424 8.78894 13.2815 8.53992 13.2815 6.93348V5.53699L13.5012 5.32215C13.9407 4.89246 14.4387 4.0575 14.717 3.28113C14.8733 2.8368 14.883 2.57801 14.7414 2.43641C14.6438 2.33875 14.5998 2.33387 14.258 2.36316C13.5696 2.42176 13.0666 2.23621 12.4758 1.70887C11.4846 0.820196 10.5813 0.556524 9.2678 0.761602ZM10.552 1.58191C11.0061 1.67957 11.3869 1.88953 11.8362 2.28504C12.051 2.47059 12.344 2.70008 12.4953 2.78797C12.803 2.9784 13.3352 3.16883 13.55 3.17371C13.8235 3.17859 13.843 3.22742 13.7014 3.53992C13.3059 4.40906 12.6418 5.09754 11.9778 5.33191C11.6116 5.45887 10.9475 5.45887 10.4348 5.32703C9.70237 5.1366 8.90647 4.61902 8.42796 4.01844C8.0178 3.50574 8.02757 3.51551 7.82249 3.51551C7.64671 3.51551 7.55393 3.5741 6.86057 4.13074C6.30393 4.57996 6.07932 4.73133 6.05491 4.6825C5.96702 4.54578 5.88401 3.95496 5.88401 3.51551C5.88889 3.13465 5.90843 3.01258 6.0012 2.81727C6.12327 2.56824 6.33323 2.36805 6.57737 2.26063C6.78733 2.17762 7.3635 2.1825 7.51975 2.27039C7.75901 2.40711 7.97386 2.36316 8.26194 2.12391C8.60374 1.83094 8.94553 1.66492 9.38499 1.5868C9.85862 1.50379 10.1614 1.49891 10.552 1.58191ZM8.08128 4.88758C8.45725 5.26844 9.05784 5.69324 9.50218 5.88855C10.4055 6.28894 11.6604 6.37195 12.4221 6.0741C12.51 6.03992 12.5149 6.0741 12.4856 7.13367C12.4563 8.25183 12.4221 8.48621 12.2219 8.93543C11.9826 9.47254 11.4114 10.0341 10.8645 10.2782C10.425 10.4735 10.1272 10.5223 9.32639 10.5175C8.64768 10.5126 8.5305 10.4979 8.17893 10.3856C7.56858 10.1854 7.07542 9.80945 6.71409 9.26258C6.343 8.70105 6.25022 8.18836 6.25022 6.66492V5.68836L6.97288 5.11707C7.36839 4.79969 7.70042 4.5409 7.71507 4.5409C7.72971 4.5409 7.89573 4.69715 8.08128 4.88758ZM8.17893 11.2548C8.58421 11.3524 10.1662 11.3524 10.5715 11.2548C10.7326 11.2157 10.8791 11.1864 10.9035 11.1815C10.9231 11.1815 10.9377 11.4305 10.9377 11.7333V12.2802L10.1565 13.0614L9.37522 13.8427L8.59397 13.0614L7.81272 12.2802V11.7333C7.81272 11.4305 7.82737 11.1815 7.85179 11.1815C7.87132 11.1864 8.0178 11.2157 8.17893 11.2548ZM21.0207 11.5233C22.1047 11.8602 22.9543 12.6024 23.428 13.6229C23.6819 14.1649 23.7795 14.619 23.7795 15.2489C23.7795 16.7186 22.9641 18.0321 21.6555 18.6815C21.0598 18.9745 20.5715 19.0917 19.9367 19.0917C19.3069 19.0917 18.8528 18.994 18.3108 18.7401C17.4856 18.3593 16.8752 17.7684 16.4748 16.9677C16.1819 16.372 16.0647 15.8837 16.0647 15.2489C16.0647 14.5848 16.1672 14.1503 16.4553 13.5497C16.8655 12.7098 17.3977 12.1776 18.2375 11.7675C19.1408 11.328 20.1076 11.245 21.0207 11.5233ZM8.0471 13.7352L8.74046 14.4286L7.94456 15.0927L7.14866 15.7567L6.58714 14.7753C6.27952 14.2382 6.0305 13.7792 6.0305 13.7548C6.0305 13.7206 7.25608 13.0419 7.32444 13.037C7.33909 13.037 7.66136 13.3495 8.0471 13.7352ZM12.0803 13.3886C12.4319 13.579 12.7248 13.7401 12.7346 13.745C12.7395 13.7499 12.4905 14.204 12.1731 14.7557L11.6018 15.7567L10.8059 15.0927L10.01 14.4286L10.7033 13.7352C11.0891 13.3495 11.4065 13.037 11.4211 13.037C11.4309 13.037 11.7239 13.1932 12.0803 13.3886ZM5.96214 15.3905C6.34788 16.0692 6.70432 16.6649 6.75315 16.7089C6.80198 16.7626 6.9094 16.7968 7.02659 16.7968C7.18772 16.7968 7.27073 16.7528 7.51487 16.5526C7.676 16.4159 7.82737 16.3085 7.85179 16.3085C7.87132 16.3085 7.93968 16.411 8.00315 16.5331L8.11057 16.7626L7.76878 17.2802L7.4221 17.8026V19.6434V21.4843H5.8596H4.2971V20.41C4.2971 19.3993 4.29221 19.3309 4.19944 19.2382C4.06761 19.1063 3.74534 19.1063 3.6135 19.2382C3.52073 19.3309 3.51585 19.3993 3.51585 20.41V21.4843H2.33909H1.16721L1.18186 19.1014L1.19651 16.7235L1.33811 16.4647C1.42112 16.3182 1.55296 16.1571 1.63108 16.0985C1.79221 15.9862 5.18089 14.16 5.22971 14.16C5.24925 14.16 5.57639 14.7167 5.96214 15.3905ZM14.6535 14.7948L15.2199 15.1024L15.2492 15.62C15.2785 16.2011 15.4006 16.6796 15.6496 17.2216C15.8449 17.6464 16.2307 18.2128 16.5041 18.4813C16.6115 18.5839 16.6994 18.7059 16.6946 18.7499C16.6946 18.7889 16.4797 19.4139 16.2209 20.1415L15.7473 21.4598L15.4885 21.4745L15.2346 21.4891V20.4149C15.2346 19.3993 15.2297 19.3309 15.1369 19.2382C15.0735 19.1747 14.9758 19.1405 14.844 19.1405C14.7121 19.1405 14.6145 19.1747 14.551 19.2382C14.4582 19.3309 14.4533 19.3993 14.4533 20.41V21.4843H12.8908H11.3283V19.6434V17.8026L10.9817 17.2802L10.6399 16.7626L10.7473 16.5331C10.8108 16.411 10.8791 16.3085 10.8987 16.3085C10.9231 16.3085 11.0744 16.4159 11.2356 16.5526C11.4797 16.7528 11.5627 16.7968 11.7239 16.7968C11.841 16.7968 11.9485 16.7626 12.0022 16.7089C12.0461 16.6649 12.4026 16.0692 12.7883 15.3905L13.4914 14.16L13.7893 14.3212C13.9504 14.4091 14.341 14.6239 14.6535 14.7948ZM9.77561 15.3368C9.97093 15.4979 10.1516 15.6542 10.176 15.6786C10.2053 15.703 10.1614 15.8544 10.0588 16.0643L9.8928 16.4061H9.37522H8.85764L8.69163 16.0643C8.58909 15.8544 8.54514 15.703 8.57444 15.6786C8.74046 15.5175 9.34104 15.0389 9.37522 15.0389C9.39964 15.0389 9.57542 15.1708 9.77561 15.3368ZM10.2297 17.661L10.5471 18.1395V19.8095V21.4843H9.37522H8.20335V19.8095V18.1395L8.52073 17.661L8.83811 17.1874H9.37522H9.91233L10.2297 17.661ZM18.6428 19.7655C18.8479 19.8192 19.1018 19.8778 19.2043 19.8973C19.3606 19.9218 19.385 19.9413 19.3606 20.0243C19.302 20.2001 18.5549 22.954 18.5549 22.9833C18.5549 23.0028 18.384 22.8466 18.1692 22.6415C17.8078 22.285 17.7737 22.2655 17.5735 22.2655C17.4563 22.2704 17.1145 22.3192 16.8117 22.3827L16.2698 22.495L16.4797 21.9042C16.5969 21.577 16.8459 20.8739 17.0364 20.3368C17.2268 19.7997 17.3928 19.3358 17.4026 19.3065C17.4172 19.2772 17.593 19.3358 17.8469 19.4628C18.0813 19.5751 18.4377 19.7118 18.6428 19.7655ZM22.8274 20.3856C23.0324 20.9764 23.2912 21.6942 23.3889 21.9774L23.5744 22.495L23.0324 22.3827C22.7297 22.3192 22.3879 22.2704 22.2707 22.2655C22.0705 22.2655 22.0364 22.2899 21.6799 22.6366L21.2991 23.0028L21.1965 22.622C21.1428 22.412 20.9524 21.7235 20.7815 21.0936C20.6106 20.4637 20.4739 19.9413 20.4787 19.9364C20.4836 19.9315 20.6594 19.8925 20.8742 19.8485C21.3039 19.7606 21.8899 19.5458 22.1926 19.3651C22.3 19.3065 22.4026 19.2675 22.4172 19.2821C22.4319 19.2968 22.6174 19.7948 22.8274 20.3856Z" fill="#30A9E0"/>
                    <path d="M19.0679 12.2019C17.9742 12.5193 17.1246 13.3982 16.8707 14.4626C16.773 14.8728 16.7779 15.6541 16.8755 16.0349C17.1539 17.1091 18.0865 18.0369 19.146 18.2859C19.5464 18.3787 20.2984 18.3787 20.6988 18.2859C21.7583 18.0369 22.691 17.1091 22.9693 16.0349C23.0669 15.6541 23.0718 14.8728 22.9742 14.4578C22.7203 13.3884 21.7681 12.4363 20.6988 12.1824C20.2691 12.0847 19.4439 12.0945 19.0679 12.2019ZM20.6011 13.032C21.0113 13.1589 21.2701 13.3201 21.5874 13.657C22.0269 14.116 22.2173 14.5896 22.2173 15.2341C22.2173 15.8884 21.9927 16.4255 21.524 16.8748C21.0552 17.3289 20.5669 17.5291 19.9224 17.5291C19.2828 17.5291 18.8042 17.3386 18.3501 16.9041C17.857 16.4353 17.6275 15.9031 17.6275 15.2341C17.6275 14.4285 18.023 13.7205 18.7066 13.2761C19.229 12.9441 19.9957 12.8416 20.6011 13.032Z" fill="#30A9E0"/>
                    <path d="M19.0332 13.9551C18.7793 14.2139 18.75 14.2627 18.75 14.4434C18.75 14.7119 18.877 14.8437 19.1309 14.8437C19.2334 14.8437 19.3652 14.8096 19.4238 14.7656L19.5312 14.6924V15.3516C19.5312 15.9814 19.5264 16.0156 19.4336 16.0156C19.2725 16.0156 19.1406 16.1865 19.1406 16.4062C19.1406 16.748 19.2383 16.7969 19.9219 16.7969C20.4443 16.7969 20.5176 16.7871 20.6055 16.6992C20.8154 16.4893 20.6787 16.0156 20.4102 16.0156C20.3174 16.0156 20.3125 15.9814 20.3125 14.9414C20.3125 13.6279 20.332 13.6719 19.7168 13.6719H19.3213L19.0332 13.9551Z" fill="#30A9E0"/>
                    </svg>