<svg width="110" height="110" viewBox="0 0 110 110" fill="none" xmlns="http://www.w3.org/2000/svg">
                                <circle cx="55" cy="55" r="55" fill="#30A9E0"/>
                                <path d="M48.1908 27.6809C44.9875 28.9289 42.2834 30.066 42.1863 30.1908C41.8951 30.593 42.0338 40.2029 42.3666 41.6035C42.7271 43.1982 43.3512 45.0287 43.9336 46.2074L44.4467 47.2613L44.0445 47.3445C43.8226 47.3861 43.3928 47.4277 43.0738 47.4277C42.4637 47.4277 39.3297 47.7744 38.5947 47.927C38.151 48.0102 38.1371 48.0102 38.1371 47.5248C38.1371 47.2475 38.0678 46.8592 37.9846 46.6373C37.832 46.2352 37.2496 45.5418 36.8752 45.3477C36.7642 45.2783 34.8228 44.7236 32.5763 44.0996C29.2066 43.1566 28.3746 42.9764 27.7644 43.018C27.0017 43.0873 26.5025 43.3647 26.031 43.9887C25.8785 44.1967 24.464 48.8699 22.7168 54.916C19.4025 66.4119 19.4719 66.1207 20.1513 67.133C20.3178 67.3826 20.6506 67.7016 20.8724 67.8402C21.4687 68.1869 29.1512 70.3086 29.8168 70.3086C30.1357 70.3086 30.5795 70.2254 30.8291 70.1145C31.3976 69.8787 32.1187 69.0605 32.2435 68.5197C32.3545 67.9928 32.4099 67.9928 32.8814 68.4504C33.1865 68.7416 33.242 68.8803 33.1865 69.3795C33.0478 70.6137 33.8383 72.0281 34.8783 72.4025C35.3359 72.5689 35.3359 72.5828 35.2666 73.29C35.1418 74.4965 35.8213 75.7168 36.8752 76.2021C37.3883 76.424 37.4021 76.4518 37.3051 76.9787C37.0555 78.31 37.6933 79.5857 38.9275 80.2098C39.4129 80.4594 40.7025 80.501 41.2433 80.293C41.5623 80.182 41.6178 80.2236 41.909 80.7506C42.1031 81.0973 42.4914 81.4855 42.9074 81.749C43.476 82.0957 43.7394 82.165 44.4328 82.165C44.9459 82.1512 45.4451 82.068 45.7086 81.9293L46.1385 81.6936L46.7486 82.3176C47.7471 83.3438 48.2463 83.5518 49.7855 83.5518C50.9642 83.5518 51.1722 83.5102 51.7269 83.1773C52.6144 82.6504 53.2246 81.9709 53.5851 81.0834L53.9041 80.3068L54.3756 80.7922C54.6252 81.0557 55.1937 81.4439 55.6097 81.652C56.6221 82.1512 58.1336 82.1789 59.0904 81.7074C60.2137 81.1666 61.115 80.0572 61.3646 78.934C61.434 78.5734 61.5033 78.4902 61.6836 78.5734C61.8222 78.6289 62.4047 78.6982 63.001 78.7398C63.8191 78.7814 64.249 78.7398 64.7344 78.5457C65.608 78.2129 66.6064 77.2561 66.9808 76.3686C67.2582 75.7445 67.2859 75.4811 67.2304 74.3717C67.1611 73.1375 67.175 73.082 67.4523 73.082C67.9377 73.082 69.1303 72.4441 69.6017 71.9588C69.8513 71.6953 70.1842 71.2377 70.3506 70.9465C70.6418 70.4057 70.6834 70.3918 71.765 70.2115C73.2349 69.9619 74.5939 69.5459 75.8281 68.9912C76.4383 68.7 76.8265 68.5891 76.8265 68.6861C76.8265 68.9912 77.7002 69.9203 78.1578 70.1145C78.4213 70.2254 78.865 70.3086 79.1701 70.3086C79.7664 70.3086 87.3379 68.2563 88.0035 67.9096C88.7385 67.5213 89.307 66.5922 89.307 65.7602C89.307 65.3025 83.4273 44.8068 83.1361 44.2521C82.7201 43.434 81.9435 42.9902 80.959 42.9902C80.3211 42.9902 72.4861 45.1258 72.0146 45.4309C71.4045 45.8191 70.9746 46.568 70.8775 47.3723L70.7943 48.135L68.7142 49.0363C66.6342 49.9377 66.6342 49.9377 66.2181 49.702C65.9963 49.5771 65.3584 49.2166 64.8037 48.9115L63.8053 48.3568L64.1381 47.8576C65.289 46.0133 66.2043 43.6143 66.648 41.2568C66.8699 40.0643 66.9115 39.1768 66.9115 35.0582C66.9115 31.8688 66.856 30.1908 66.759 30.0938C66.4955 29.8303 54.8609 25.3789 54.431 25.3928C54.2092 25.3928 51.3941 26.4189 48.1908 27.6809ZM59.9086 29.2201L65.1781 31.2586V35.5158C65.1781 40.0781 65.081 40.9795 64.4015 43.1566C64.0133 44.3908 63.5279 45.4447 62.7652 46.7621L62.2244 47.6773L61.1705 47.2752C60.5881 47.0672 60.1304 46.8453 60.1443 46.776C60.1582 46.7205 60.4771 46.152 60.8515 45.5141C61.5865 44.3215 62.2799 42.5604 62.6404 41.0488C62.7791 40.4248 62.8623 39.0797 62.9178 36.6807C62.9871 33.4357 62.9732 33.1861 62.7375 32.9088C62.4463 32.576 55.0551 29.6777 54.5004 29.6777C53.9595 29.6777 46.5545 32.5898 46.2633 32.9227C46.0275 33.1861 46.0137 33.4357 46.083 36.6807C46.1385 39.0797 46.2217 40.4248 46.3603 41.0488C46.7209 42.5465 47.4142 44.3076 48.1215 45.4863L48.7871 46.5818L48.1908 46.9424C47.8164 47.1504 47.3726 47.2891 47.0398 47.2891H46.499L45.7224 45.7914C45.3064 44.9732 44.8072 43.8084 44.6131 43.1844C43.9058 40.9518 43.8226 40.092 43.8226 35.5158V31.2725L49.0644 29.234C51.9349 28.1107 54.3756 27.1955 54.4726 27.1816C54.5697 27.1816 57.0242 28.0969 59.9086 29.2201ZM57.9672 32.7701L61.226 34.0459L61.2676 35.6406C61.3508 38.6775 60.9902 41.0766 60.1721 42.9902C59.8115 43.85 58.9379 45.3615 58.4664 45.9439L58.1474 46.3322L56.7053 46.0271C55.1521 45.6943 52.6838 45.5973 51.2832 45.8191L50.4928 45.9301L49.841 44.9316C48.2601 42.491 47.6222 39.6898 47.7332 35.6406L47.7748 34.0459L51.0336 32.7701C52.8224 32.0768 54.3894 31.4943 54.5004 31.4943C54.6113 31.4943 56.1783 32.0629 57.9672 32.7701ZM31.3699 45.5557C33.1449 46.0549 34.9338 46.5541 35.3221 46.6789C36.7088 47.0672 36.8474 46.1797 33.5609 57.634C31.9523 63.1947 30.6072 67.8541 30.5656 67.9928C30.524 68.1314 30.3437 68.3256 30.1635 68.4504C29.8584 68.6445 29.581 68.5891 25.8646 67.549C23.6736 66.9389 21.8015 66.3703 21.6906 66.2732C21.5797 66.19 21.4965 65.9543 21.4965 65.774C21.4965 65.5799 22.8138 60.865 24.4086 55.2904C27.3068 45.2506 27.501 44.6543 28.0279 44.6543C28.0972 44.6543 29.5949 45.0564 31.3699 45.5557ZM81.375 44.89C81.5969 45.0842 82.3596 47.5664 84.5922 55.2904C86.1869 60.865 87.5043 65.5799 87.5043 65.774C87.5043 65.9543 87.4211 66.19 87.3101 66.2732C87.1992 66.3703 85.3133 66.9389 83.1222 67.549C79.4336 68.5752 79.1285 68.6445 78.8373 68.4504C78.657 68.3256 78.4767 68.1314 78.4351 67.9928C78.3935 67.8541 77.0762 63.2779 75.5092 57.8281C73.9422 52.3783 72.6248 47.816 72.5832 47.6912C72.4168 47.1088 72.916 46.873 76.8265 45.7637C78.9205 45.1674 80.7371 44.682 80.8619 44.6682C80.9867 44.6543 81.2224 44.7652 81.375 44.89ZM54.9719 47.4971C58.6189 48.0518 62.2244 49.3414 65.2752 51.1996L66.4123 51.893L67.2859 51.5463C67.7713 51.3521 68.8806 50.8807 69.7543 50.4924C70.6279 50.118 71.349 49.8129 71.3629 49.8268C71.3767 49.8406 72.4584 53.5709 73.7758 58.1055C75.0793 62.64 76.1748 66.4535 76.2164 66.5783C76.3273 66.9805 73.7896 68.0482 71.5847 68.492C71.1826 68.5752 70.8221 68.6445 70.7943 68.6445C70.7527 68.6445 70.725 68.5059 70.725 68.3256C70.725 68.1592 70.5586 67.6738 70.3644 67.2578C70.0732 66.6199 69.0332 65.5105 63.7498 60.2271C57.8978 54.3752 57.4125 53.9314 56.5111 53.5154C55.6652 53.1133 55.4156 53.0578 54.431 53.0717C53.2246 53.0855 52.3926 53.3213 51.5744 53.8898C51.2971 54.0701 50.1183 55.2627 48.9535 56.5385C46.5406 59.1316 46.0969 59.4506 44.8904 59.298C43.9336 59.1871 43.2402 58.7018 42.7965 57.8143C42.1586 56.5385 42.3388 55.8451 43.9336 53.4322C46.1939 50.0209 49.2586 47.816 52.2816 47.4277C53.4465 47.2752 53.5019 47.2752 54.9719 47.4971ZM44.4328 49.9654C43.268 51.1857 41.909 53.1549 41.2295 54.5693C40.758 55.5678 40.7441 55.6648 40.7996 56.8297C40.8689 58.258 41.1601 58.9375 42.1031 59.8527C43.365 61.073 45.459 61.392 47.0953 60.6154C47.8303 60.2688 48.2601 59.8805 50.1461 57.8281C52.6144 55.1656 53.1414 54.7773 54.3894 54.7773C55.79 54.7912 55.9148 54.9021 62.3215 61.2672C65.5803 64.526 68.4369 67.4658 68.6588 67.7986C69.8652 69.6568 67.9654 72.042 65.9131 71.2654C65.7051 71.1961 63.9578 69.5736 62.0441 67.66C58.3416 63.9852 58.1752 63.8604 57.5512 64.4844C57.2599 64.7756 57.2045 65.1223 57.3847 65.4273C57.4541 65.5244 59.2291 67.341 61.3369 69.4627C65.192 73.3316 65.5941 73.8309 65.5941 74.7461C65.5941 75.7307 64.6789 76.8678 63.722 77.048C62.5295 77.2699 62.5156 77.2561 58.092 72.8602C53.8625 68.6445 53.6683 68.5059 53.0721 68.9496C52.9472 69.0467 52.8086 69.3102 52.7531 69.5182C52.6699 69.8787 52.8918 70.1422 56.0674 73.3316C58.9933 76.2854 59.4926 76.84 59.6312 77.3531C60.1027 79.1143 58.5357 80.7506 56.8301 80.2791C56.3586 80.1543 55.8594 79.7521 54.3478 78.2684C52.2678 76.2438 51.9904 76.1051 51.4635 76.7707C51.089 77.2561 51.089 77.3254 51.5883 78.0742C52.3371 79.1975 52.3094 80.2375 51.5051 81.125C50.5344 82.2066 49.2863 82.2205 48.1215 81.1666L47.4142 80.5426L48.7178 79.1975C49.6191 78.2684 50.0906 77.6582 50.2709 77.2006C50.9226 75.4949 49.8549 73.4842 48.1492 73.2623C47.6084 73.193 47.5668 73.1514 47.4836 72.6799C47.2756 71.4734 46.2633 70.4611 45.0568 70.2393C44.5853 70.1561 44.5437 70.1006 44.4744 69.5875C44.3219 68.4781 43.2957 67.452 42.1724 67.2994C41.6732 67.2301 41.6178 67.1746 41.5346 66.717C41.2156 64.9975 39.5654 63.9297 37.832 64.3457C37.1941 64.5121 36.9306 64.6924 35.6687 65.9127L34.2404 67.3133L33.6025 66.6754L32.9646 66.0236L35.2666 58.0223C36.5424 53.6125 37.624 49.9654 37.6795 49.91C37.8459 49.7436 41.59 49.2305 43.5314 49.1057C44.4883 49.0502 45.3064 48.9809 45.3342 48.967C45.3619 48.967 44.9597 49.4107 44.4328 49.9654ZM39.4545 66.3703C39.6902 66.6199 39.8012 66.9111 39.8012 67.2301C39.8012 67.6738 39.6486 67.8818 38.2342 69.2963C36.8197 70.7107 36.6117 70.8633 36.1679 70.8633C35.5855 70.8633 35.0031 70.4611 34.9199 69.9758C34.809 69.3934 35.1418 68.8941 36.6394 67.4242C37.9568 66.1484 38.151 66.0098 38.6086 66.0098C38.983 66.0098 39.2049 66.1068 39.4545 66.3703ZM42.1447 69.1299C42.6717 69.3934 42.9351 70.0451 42.7271 70.5582C42.5191 71.0574 39.0107 74.552 38.5531 74.7184C38.1094 74.8848 37.3883 74.6213 37.1803 74.2053C37.0971 74.0527 37.0277 73.7338 37.0277 73.4842C37.0277 73.082 37.2773 72.777 39.0801 70.9742C41.2295 68.8248 41.382 68.7277 42.1447 69.1299ZM45.4174 72.3332C45.6531 72.5828 45.764 72.874 45.764 73.193C45.764 73.6506 45.5699 73.8863 43.4482 76.0357C41.1185 78.3654 40.6332 78.7676 40.0785 78.7676C39.607 78.7676 38.9691 78.0326 38.9691 77.5057C38.9691 77.0896 39.2465 76.7707 41.5068 74.5104C43.892 72.1113 44.0722 71.9727 44.5576 71.9727C44.9459 71.9727 45.1678 72.0697 45.4174 72.3332ZM48.0383 75.0234C48.2463 75.0928 48.5097 75.3701 48.6346 75.6336C48.9674 76.3547 48.7594 76.6875 46.7486 78.6844C45.1262 80.293 44.932 80.4316 44.4605 80.4316C43.7533 80.4316 43.268 79.9324 43.268 79.2252C43.268 78.7398 43.4066 78.5734 45.1816 76.7984C47.1369 74.8432 47.3033 74.7322 48.0383 75.0234Z" fill="white"/>
                                <path d="M55.4435 38.6498L52.9751 41.1182L52.0321 40.1752C51.0337 39.1767 50.59 39.0242 50.1601 39.4957C49.6609 40.0504 49.8411 40.4664 51.214 41.8392C53.086 43.7113 52.7948 43.7945 56.2616 40.3139C58.9103 37.6791 59.0767 37.4711 59.0767 36.9996C59.0767 36.6252 58.9935 36.4449 58.8132 36.334C58.1614 36.0012 57.9534 36.1398 55.4435 38.6498Z" fill="white"/>
                                <path d="M30.0385 47.6357C27.4731 48.2875 27.4869 52.101 30.0662 52.7666C31.7025 53.1965 33.1863 52.2674 33.4914 50.6033C33.6717 49.6326 33.0061 48.3014 32.1186 47.816C31.6193 47.5387 30.7041 47.4693 30.0385 47.6357ZM31.4807 49.5078C32.0354 50.0625 31.5916 51.1719 30.8012 51.1719C30.3436 51.1719 29.8166 50.6588 29.8166 50.215C29.8166 49.3969 30.8982 48.9254 31.4807 49.5078Z" fill="white"/>
                                <path d="M77.4649 47.5803C75.1352 48.1211 74.7192 51.4908 76.8408 52.5725C77.451 52.8775 78.5742 52.9469 79.1983 52.725C80.266 52.309 80.9317 51.158 80.8207 49.9238C80.6543 48.2875 79.1012 47.2059 77.4649 47.5803ZM78.7961 49.4662C79.2815 50.0486 79.1844 50.7697 78.5742 51.0471C77.5065 51.5324 76.619 49.9654 77.6174 49.383C78.0057 49.1611 78.5604 49.2027 78.7961 49.4662Z" fill="white"/>
                            </svg>