<svg width="50" height="50" viewBox="0 0 50 50" fill="none" xmlns="http://www.w3.org/2000/svg">
<path d="M19.2871 0.401009C15.9472 0.66468 12.9882 3.03773 11.9335 6.30921C11.289 8.29163 11.4257 10.6354 12.2949 12.5494C13.7402 15.733 17.0703 17.7448 20.5566 17.5494C23.4277 17.3834 25.83 15.9869 27.4218 13.5455C28.3789 12.0807 28.7695 10.528 28.6816 8.53577C28.6132 7.03187 28.4668 6.41663 27.832 5.12757C26.9824 3.40882 25.7226 2.12953 24.0136 1.27015C22.5488 0.547493 21.0449 0.26429 19.2871 0.401009ZM21.582 1.77796C24.3261 2.29554 26.6308 4.54163 27.2949 7.34437C27.5 8.24281 27.4804 9.76624 27.246 10.6842C27.0507 11.4459 26.5918 12.5983 26.4746 12.5983C26.4453 12.5983 26.3378 12.4225 26.2402 12.2174C25.8398 11.3483 24.6777 10.3815 23.6035 10.0104L23.0761 9.8346L23.4082 9.34632C23.8769 8.65296 24.0527 7.9596 24.0039 6.95374C23.9648 5.90882 23.6718 5.21546 22.9589 4.46351C22.0507 3.50648 20.8007 3.08656 19.5214 3.3014C17.9882 3.56507 16.9043 4.49281 16.416 5.93812C16.0351 7.06116 16.1816 8.21351 16.8359 9.29749C17.0507 9.65882 17.1289 9.8639 17.041 9.8639C16.9726 9.8639 16.5625 10.0397 16.1328 10.2545C15.2148 10.7135 14.4043 11.4655 14.0429 12.1881L13.789 12.6862L13.496 12.0319C12.9687 10.8698 12.8515 10.3229 12.8515 8.98499C12.8515 7.11976 13.3007 5.8014 14.4433 4.36585C16.1425 2.22718 18.8183 1.25062 21.582 1.77796ZM21.2109 4.76624C21.7187 4.99085 22.2753 5.52796 22.5195 6.03577C22.8027 6.61195 22.8125 7.57874 22.5585 8.18421C22.3144 8.75062 21.6601 9.40491 21.1132 9.63929C20.5078 9.90296 19.6679 9.85413 19.0234 9.54163C17.3046 8.70179 16.9628 6.66077 18.3105 5.30335C19.121 4.49281 20.166 4.29749 21.2109 4.76624ZM19.5117 11.0358C19.9902 11.1334 20.2441 11.1334 20.7324 11.0358C21.8359 10.8112 21.9921 10.8209 22.7343 11.0651C23.5937 11.358 24.3066 11.8073 24.7558 12.3248C25.0878 12.7252 25.3906 13.4284 25.3906 13.8287C25.3906 14.1412 24.4726 14.9323 23.5644 15.401C20.7617 16.8561 17.6953 16.5045 15.3222 14.4635C14.8535 14.0631 14.8339 14.0143 14.8925 13.6823C15.1171 12.4323 16.0253 11.5631 17.6757 11.0162C18.2421 10.8307 18.496 10.8405 19.5117 11.0358Z" fill="#30A9E0"/>
<path d="M40.1366 0.40082C37.3339 0.625429 34.6483 2.49066 33.3105 5.14691C32.539 6.68012 32.2558 8.69184 32.5585 10.4301C33.1444 13.7895 35.5663 16.4067 38.9159 17.3149C40.0292 17.6176 42.0898 17.6079 43.2128 17.3051C47.3437 16.1723 49.9999 12.3539 49.5995 8.12543C49.4823 6.93402 49.287 6.25043 48.7401 5.12738C47.9101 3.44769 46.6503 2.15863 45.0292 1.32855C43.4179 0.508242 42.0605 0.254335 40.1366 0.40082ZM42.4706 1.77777C45.2636 2.30512 47.539 4.53168 48.203 7.39301C48.3983 8.24262 48.3886 9.79535 48.1835 10.6254C48.0956 10.9868 47.8808 11.5825 47.7148 11.9633L47.4023 12.6371L47.1288 12.1684C46.5722 11.2211 45.6933 10.4789 44.5995 10.0395C44.3261 9.9223 44.0722 9.81488 44.0526 9.80512C44.0331 9.78559 44.1112 9.64887 44.2284 9.48285C45.3417 7.93012 45.1464 5.70355 43.789 4.36566C41.9042 2.50043 38.7206 3.03754 37.5487 5.40082C36.8749 6.76801 37.0214 8.42816 37.9003 9.56098L38.0858 9.79535L37.5585 10.0102C36.3573 10.4985 35.3417 11.3579 34.9218 12.2368L34.6972 12.7055L34.3944 12.0317C33.9062 10.9282 33.7499 10.2348 33.7499 8.9848C33.7401 8.32074 33.7987 7.64691 33.8769 7.33441C34.6679 4.24848 37.1679 2.02191 40.2343 1.66059C40.9276 1.58246 41.6503 1.62152 42.4706 1.77777ZM42.246 4.83441C43.1444 5.27387 43.6718 6.15277 43.6718 7.18793C43.662 8.45746 42.7733 9.52191 41.4941 9.77582C40.4491 9.9809 39.3066 9.43402 38.7499 8.43793C38.1542 7.36371 38.3202 6.2016 39.1894 5.33246C40.0585 4.46332 41.1327 4.28754 42.246 4.83441ZM40.4589 11.0356C41.0155 11.1332 41.2401 11.1235 41.9433 10.9868C42.9003 10.7914 43.2812 10.85 44.287 11.3286C45.4296 11.8754 46.1425 12.7153 46.2499 13.6332C46.3085 14.102 46.2987 14.1215 45.869 14.4731C44.0819 15.9575 41.8066 16.5825 39.746 16.1723C38.6718 15.9477 37.6757 15.5278 36.8456 14.9516C35.8202 14.2289 35.7421 14.102 35.8398 13.5551C35.8886 13.3012 35.996 12.9594 36.0839 12.7934C36.4355 12.1098 37.3437 11.4555 38.4765 11.0551C39.1308 10.8305 39.287 10.8305 40.4589 11.0356Z" fill="#30A9E0"/>
<path d="M26.2012 18.584C25.0879 19.6973 24.9023 19.9219 24.9023 20.1855C24.9023 20.5762 25.127 20.8008 25.5273 20.8008C25.8008 20.8008 26.0059 20.625 27.1875 19.4336C28.4277 18.1836 28.5352 18.0566 28.4766 17.8027C28.3887 17.4512 28.1641 17.2852 27.793 17.2852C27.5488 17.2852 27.2949 17.4902 26.2012 18.584Z" fill="#30A9E0"/>
<path d="M12.5488 18.3594C12.4414 18.3984 10.3027 20.498 7.80273 23.0176C4.15039 26.6895 3.14453 27.7539 2.71484 28.418C1.10352 30.8789 0.371094 33.2812 0.371094 36.1328C0.380859 37.5879 0.478516 38.3789 0.830078 39.6973C2.03125 44.2676 5.73242 47.9688 10.3027 49.1699C11.6211 49.5215 12.3926 49.6191 13.8867 49.6191C16.748 49.6191 19.1113 48.9062 21.582 47.2852C22.2559 46.8457 23.3105 45.8496 27.041 42.1387C31.2207 37.9688 31.6699 37.4902 31.6699 37.207C31.6699 36.9336 31.3965 36.6211 29.0918 34.3164C26.709 31.9336 26.4844 31.7383 26.1816 31.7383C25.8594 31.7383 25.5371 32.041 21.3867 36.1621C18.1152 39.4238 16.8066 40.6543 16.4355 40.8496C15.8008 41.1914 14.5703 41.5039 13.9258 41.5039C11.0059 41.4941 8.50586 38.9941 8.49609 36.0742C8.49609 35.4297 8.80859 34.1992 9.15039 33.5645C9.3457 33.1934 10.5762 31.8848 13.8379 28.6133C17.959 24.4629 18.2617 24.1406 18.2617 23.8184C18.2617 23.5156 18.0664 23.291 15.7031 20.9277C14.2871 19.5312 13.0469 18.3594 12.9395 18.3301C12.832 18.3008 12.6562 18.3105 12.5488 18.3594ZM14.7949 21.875L16.748 23.8281L15.5762 25L14.4043 26.1719L12.4316 24.1992L10.4492 22.2168L11.5918 21.0742C12.2266 20.4395 12.7637 19.9219 12.793 19.9219C12.8223 19.9219 13.7207 20.8008 14.7949 21.875ZM11.0059 29.5898C9.63867 30.957 8.38867 32.3047 8.22266 32.5684C7.23633 34.1602 6.98242 36.3086 7.56836 38.1543C8.71094 41.7578 12.6953 43.6719 16.2793 42.3242C17.373 41.9141 17.9492 41.4551 20.459 38.9551L22.9004 36.5234L24.8828 38.5059L26.8555 40.4883L24.1992 43.125C21.3965 45.8984 20.752 46.416 19.1992 47.168C16.3574 48.5352 12.9883 48.7402 10.0098 47.7441C6.37695 46.5234 3.47656 43.623 2.25586 39.9902C1.45508 37.5879 1.43555 34.8145 2.20703 32.373C2.95898 30.0098 3.61328 29.0918 6.875 25.8008L9.51172 23.1445L11.4941 25.1172L13.4766 27.0996L11.0059 29.5898ZM28.1738 35.2539L30.127 37.207L28.9551 38.3789L27.7832 39.5508L25.8105 37.5781L23.8281 35.5957L24.9707 34.4531C25.6055 33.8184 26.1426 33.3008 26.1719 33.3008C26.2012 33.3008 27.0996 34.1797 28.1738 35.2539Z" fill="#30A9E0"/>
<path d="M20.1847 20.3904C19.003 21.572 18.837 21.7868 18.8663 22.0212C18.8858 22.1775 19.003 22.3825 19.1593 22.49C19.5597 22.7829 19.8331 22.6169 21.2296 21.1911C22.5382 19.8533 22.6651 19.6384 22.2647 19.238C21.8448 18.8181 21.63 18.945 20.1847 20.3904Z" fill="#30A9E0"/>
<path d="M39.1798 21.4355C33.2716 22.7831 30.5372 29.6386 33.8966 34.6679C35.0685 36.4159 36.7091 37.5976 38.838 38.203C39.8634 38.496 42.0899 38.5155 43.0958 38.2421C45.6739 37.5487 47.6563 35.9472 48.7794 33.6425C49.9513 31.2499 49.9317 28.457 48.7306 26.0253C48.1544 24.8534 47.5099 24.0331 46.5528 23.2421C45.7813 22.5976 44.2384 21.7773 43.3106 21.5331C42.4903 21.3085 40.0099 21.2499 39.1798 21.4355ZM42.8028 22.7441C45.4103 23.4179 47.4806 25.4784 48.1446 28.0859C48.3888 29.0331 48.4181 30.5566 48.2032 31.4745C48.0567 32.1191 47.4903 33.496 47.3731 33.496C47.3438 33.496 47.2267 33.3007 47.129 33.0761C46.8165 32.4023 45.9278 31.6015 45.0099 31.1523C44.5606 30.9374 44.131 30.7616 44.0528 30.7616C43.9454 30.7616 43.9649 30.703 44.1212 30.537C44.4337 30.205 44.8341 29.2577 44.922 28.6327C45.1466 27.0019 44.2872 25.3222 42.8614 24.5995C40.0587 23.1933 36.8751 25.3222 37.1388 28.4374C37.1974 29.121 37.5099 29.9609 37.8907 30.4394L38.086 30.6933L37.4708 30.957C36.3282 31.4355 35.3712 32.2558 34.9317 33.1347L34.6974 33.6034L34.3946 32.9394C33.8868 31.8261 33.7501 31.1425 33.7501 29.7851C33.7501 28.6718 33.7794 28.4862 34.0626 27.6757C34.5021 26.3769 35.0587 25.5077 36.045 24.5702C37.0021 23.662 38.047 23.0663 39.2579 22.7538C40.2638 22.4999 41.8067 22.4902 42.8028 22.7441ZM42.1388 25.6737C43.047 26.0839 43.6622 27.0409 43.672 28.0663C43.6817 30.5273 40.6251 31.6405 39.0235 29.7655C37.754 28.2909 38.545 25.9765 40.4786 25.4784C40.8888 25.371 41.67 25.4687 42.1388 25.6737ZM40.1563 31.8945C40.8009 32.0605 41.4942 32.0409 42.3146 31.8163C42.7052 31.7187 42.8419 31.7284 43.3302 31.8749C45.0978 32.4316 46.1134 33.3495 46.2599 34.5409L46.3087 35.0292L45.6056 35.5859C44.297 36.6112 43.0177 37.0898 41.3575 37.1777C39.4923 37.2753 37.7149 36.6503 36.2403 35.3808L35.7716 34.9706L35.8497 34.4726C36.0255 33.3593 37.0313 32.4218 38.5743 31.9237C39.2481 31.7089 39.3946 31.6991 40.1563 31.8945Z" fill="#30A9E0"/>
<path d="M30.5664 22.8125C29.375 23.9941 29.1992 24.1992 29.1992 24.4727C29.1992 24.873 29.4238 25.0977 29.8145 25.0977C30.0781 25.0977 30.3027 24.9121 31.416 23.7988C32.5977 22.6172 32.7148 22.4707 32.7148 22.1484C32.7148 21.7676 32.6074 21.6309 32.1973 21.5332C31.9434 21.4648 31.8164 21.5625 30.5664 22.8125Z" fill="#30A9E0"/>
<path d="M24.4336 24.6387C23.3398 25.7324 23.1445 25.9766 23.1445 26.2305C23.1445 26.6016 23.4082 26.8555 23.7891 26.8555C24.0234 26.8555 24.2969 26.6309 25.3809 25.5469C26.4844 24.4434 26.6895 24.1895 26.6895 23.9355C26.6895 23.5254 26.5039 23.3398 26.084 23.3398C25.7617 23.3398 25.625 23.4473 24.4336 24.6387Z" fill="#30A9E0"/>
<path d="M28.7993 28.7704C27.3833 30.1767 27.2172 30.4403 27.5102 30.8407C27.6176 30.997 27.8227 31.1142 27.979 31.1337C28.2133 31.163 28.4282 30.997 29.6098 29.8153C31.0551 28.37 31.1821 28.1552 30.7622 27.7353C30.3618 27.3349 30.1372 27.4521 28.7993 28.7704Z" fill="#30A9E0"/>
</svg>
