<svg width="50" height="50" viewBox="0 0 50 50" fill="none" xmlns="http://www.w3.org/2000/svg">
<path d="M3.56462 0.966309C2.88102 1.27881 2.44157 1.9624 2.44157 2.70459C2.44157 3.06592 2.42204 3.08545 1.97282 3.2417C1.31852 3.47607 0.752116 4.00342 0.400554 4.70654L0.0978194 5.30225V21.1421C0.0978194 39.1792 0.00992876 37.5288 0.96696 38.4858C1.89469 39.4136 1.28923 39.355 10.4591 39.355H18.4377L17.2072 41.894L15.9767 44.4331H14.1213C13.008 44.4331 12.1291 44.4819 11.9045 44.5503C11.4064 44.6968 10.7912 45.2241 10.5177 45.7417C10.2248 46.2983 10.2248 47.3433 10.5177 47.9097C10.8009 48.437 11.4162 48.9839 11.8849 49.1108C12.4025 49.2573 37.5978 49.2573 38.1154 49.1108C38.5842 48.9839 39.1994 48.437 39.4826 47.9097C39.7756 47.3433 39.7756 46.2983 39.4826 45.7417C39.2092 45.2241 38.5939 44.6968 38.0959 44.5503C37.8713 44.4819 36.9924 44.4331 35.8791 44.4331H34.0334L32.7931 41.894L31.5627 39.355H39.5412C48.7111 39.355 48.1056 39.4136 49.0334 38.4858C49.9904 37.5288 49.9025 39.1792 49.9025 21.1421V5.30225L49.5998 4.70654C49.2775 4.06201 48.7404 3.54443 48.0861 3.25146C47.7345 3.08545 46.9728 3.07568 36.3674 3.04639L25.0295 3.02686L24.9806 2.52881C24.9123 1.89404 24.5021 1.28857 23.9259 0.995605L23.4963 0.780762H13.7209C4.43376 0.780762 3.93571 0.790527 3.56462 0.966309ZM23.3205 2.46045C23.467 2.60693 23.4865 14.9995 23.34 15.2339C23.2717 15.3413 22.9884 15.3901 22.1779 15.4292C21.3185 15.4683 21.0646 15.5171 20.9279 15.6538C20.7717 15.8003 20.7424 16.0835 20.7033 17.8315L20.6545 19.8335L18.9455 17.7437C18.008 16.5815 17.1388 15.5952 17.0119 15.5366C16.8556 15.4585 14.8244 15.4292 10.547 15.4292C5.00993 15.4292 4.29704 15.4097 4.16032 15.2729C4.0236 15.1362 4.00407 14.4233 4.00407 8.84717C4.00407 4.10107 4.03337 2.54834 4.12126 2.46045C4.28727 2.29443 23.1545 2.29443 23.3205 2.46045ZM47.5197 4.7749C47.7638 4.89209 48.008 5.09717 48.1545 5.33154L48.3888 5.7124V21.1909C48.3888 36.6304 48.3888 36.6694 48.1838 37.0112C48.0763 37.1968 47.842 37.4507 47.6564 37.5679L47.3342 37.7925H25.0002H2.66618L2.34391 37.5679C2.15837 37.4507 1.92399 37.1968 1.81657 37.0112C1.61149 36.6694 1.61149 36.6304 1.61149 21.1909C1.61149 6.6499 1.62126 5.69287 1.77751 5.3999C1.87516 5.23389 2.05094 5.01904 2.16813 4.93115L2.39274 4.78467L2.44157 10.2339L2.4904 15.6831L2.76384 16.0933L3.02751 16.5034V26.2202V35.9468L3.27165 36.1812L3.50602 36.4253H24.9806H46.4552L46.7189 36.2202L46.9728 36.0249V21.2788C46.9728 11.8452 46.9338 6.46436 46.8752 6.34717C46.8263 6.24951 46.6408 6.12256 46.4748 6.06396C46.2502 5.98584 43.0568 5.95654 35.5861 5.95654H25.0002V5.27295V4.58936H36.0646C46.631 4.58936 47.1388 4.59912 47.5197 4.7749ZM45.4103 21.1909V34.8628H41.758H38.1056L38.0568 33.3198C38.0275 32.3433 37.9494 31.5718 37.8517 31.2007C37.6271 30.3706 37.0217 29.1597 36.4845 28.4468C35.7521 27.48 34.3947 26.4448 33.3009 26.0151C33.0568 25.9272 32.842 25.8394 32.8322 25.8198C32.8127 25.8101 32.9689 25.5562 33.1935 25.2729C34.9025 22.9976 34.7072 19.8628 32.7052 17.8706C31.592 16.7573 30.2638 16.2104 28.6232 16.2104C27.0119 16.2104 25.7424 16.728 24.6095 17.8706C23.467 19.0132 22.9494 20.2437 22.9494 21.8257C22.9494 23.144 23.4084 24.4819 24.1799 25.3706C24.3752 25.605 24.5217 25.8003 24.5021 25.8198C24.4826 25.8296 24.2677 25.9175 24.0236 26.0054C22.8517 26.4448 21.4455 27.5483 20.6545 28.6616C19.6779 30.0288 19.2677 31.3374 19.1701 33.4663L19.1115 34.8628H11.8459H4.59001V25.9272V16.9917H10.4299H16.2697L18.2033 19.355C19.2677 20.6636 20.2541 21.8062 20.4006 21.894C20.7228 22.1089 21.3283 22.1187 21.6799 21.9136C22.2267 21.5815 22.2658 21.4058 22.2658 19.1108V17.0112L22.9884 16.9722C23.6037 16.9429 23.7795 16.894 24.131 16.6499C24.3556 16.4839 24.6486 16.1616 24.7756 15.9272C25.0002 15.4976 25.0002 15.4976 25.0002 11.5034V7.51904H35.2052H45.4103V21.1909ZM30.4006 18.1538C32.9982 19.4038 33.5939 22.6655 31.592 24.6675C30.7521 25.5073 29.7853 25.8979 28.5646 25.8979C26.9826 25.8882 25.5861 24.9604 24.8634 23.4468C24.59 22.8608 24.5607 22.7144 24.5607 21.8257C24.5607 20.9272 24.59 20.7905 24.8732 20.1948C25.3908 19.0913 26.2111 18.3687 27.3927 17.939C27.7638 17.812 28.1056 17.7729 28.8088 17.8022C29.6193 17.8315 29.8244 17.8706 30.4006 18.1538ZM27.1486 27.2847C27.9592 27.5288 29.424 27.5093 30.3224 27.2358C30.9963 27.0405 31.1037 27.0308 31.6506 27.1479C32.9494 27.4312 34.4142 28.3589 35.2248 29.4331C36.1916 30.7222 36.5236 31.8062 36.5236 33.6616V34.8628H28.6134H20.7033V34.1499C20.7033 32.939 20.8888 31.7671 21.1916 30.9761C21.8752 29.2085 23.5353 27.7144 25.4006 27.1968C25.9963 27.0405 26.3771 27.0503 27.1486 27.2847ZM31.006 41.855C31.6799 43.2319 32.2267 44.3745 32.2267 44.394C32.2267 44.4136 28.9748 44.4331 25.0002 44.4331C21.0256 44.4331 17.7736 44.4136 17.7736 44.4038C17.7736 44.3843 18.3205 43.2417 18.9943 41.8647L20.215 39.355H25.0002H29.7951L31.006 41.855ZM37.9006 46.2788C38.2717 46.6499 38.2717 47.0015 37.9006 47.3726L37.6174 47.6558H25.0002H12.383L12.0998 47.3726C11.9338 47.1968 11.8166 46.9819 11.8166 46.8257C11.8166 46.6694 11.9338 46.4546 12.0998 46.2788L12.383 45.9956H25.0002H37.6174L37.9006 46.2788Z" fill="#30A9E0"/>
<path d="M5.87025 4.74609C5.53822 5.16602 5.66517 5.74219 6.12415 5.94727C6.45619 6.10352 20.9874 6.10352 21.3195 5.94727C21.7785 5.74219 21.9054 5.16602 21.5734 4.74609L21.3781 4.49219H13.7218H6.06556L5.87025 4.74609Z" fill="#30A9E0"/>
<path d="M5.9082 8.34961C5.75195 8.49609 5.66406 8.70117 5.66406 8.88672C5.66406 9.07227 5.75195 9.27734 5.9082 9.42383L6.14258 9.66797H13.7207H21.2988L21.5332 9.42383C21.8555 9.11133 21.8555 8.66211 21.5332 8.34961L21.2988 8.10547H13.7207H6.14258L5.9082 8.34961Z" fill="#30A9E0"/>
<path d="M6.10336 11.8359C5.62484 12.0898 5.52719 12.5879 5.86898 13.0273L6.0643 13.2812H13.6815H21.2987L21.533 13.0371C21.787 12.793 21.8162 12.627 21.7186 12.2266C21.5721 11.709 21.6991 11.7188 13.701 11.7188C8.535 11.7285 6.24008 11.7578 6.10336 11.8359Z" fill="#30A9E0"/>
<path d="M33.7988 8.95448C33.4473 9.02284 33.1152 9.26698 32.9492 9.57948C32.8418 9.79432 32.8125 10.3803 32.8125 12.5287C32.8125 15.1556 32.8125 15.2142 33.0371 15.5365C33.1641 15.7221 33.4082 15.9174 33.5938 15.9857C34.0332 16.1322 40.4102 16.1615 40.9375 16.015C41.1426 15.9564 41.3965 15.7806 41.5332 15.6049L41.7773 15.3021L42.1973 15.4779C43.2031 15.8783 43.6523 15.8588 44.043 15.3607C44.2285 15.1264 44.2383 14.9701 44.2383 12.4799V9.84315L43.9551 9.55994C43.584 9.18885 43.0078 9.17909 42.2461 9.51112C41.7285 9.74549 41.709 9.74549 41.6504 9.56971C41.6211 9.46229 41.4453 9.27674 41.2793 9.15955C40.9668 8.93494 40.9375 8.93494 37.5 8.92518C35.5957 8.91541 33.9258 8.92518 33.7988 8.95448ZM40.2344 12.4994V14.5502H37.3047H34.375V12.4994V10.4486H37.3047H40.2344V12.4994ZM42.6758 12.4994V13.9545L42.2656 13.7787L41.8457 13.6029L41.8164 12.5092L41.7871 11.4154L42.207 11.2299C42.4414 11.1322 42.6367 11.0443 42.6562 11.0443C42.666 11.0346 42.6758 11.6889 42.6758 12.4994Z" fill="#30A9E0"/>
<path d="M36.0835 11.9629C35.7418 12.2949 35.7515 12.8027 36.0933 13.0762C36.3179 13.252 36.4937 13.2812 37.3043 13.2812C38.1148 13.2812 38.2906 13.252 38.5152 13.0762C38.7105 12.9199 38.7691 12.793 38.7691 12.5C38.7691 12.207 38.7105 12.0801 38.5152 11.9238C38.2906 11.748 38.1148 11.7188 37.2847 11.7188C36.3863 11.7188 36.2984 11.7383 36.0835 11.9629Z" fill="#30A9E0"/>
</svg>
