<svg width="19" height="22" viewBox="0 0 19 22" fill="none" xmlns="http://www.w3.org/2000/svg">
                                        <path d="M8.30528 0.083353C5.71362 0.48752 3.50528 1.92085 2.04279 4.14585C1.50945 4.95835 1.02195 6.16251 0.817788 7.16668C0.259455 9.93751 0.955287 12.5042 3.03862 15.3333C4.00112 16.6417 5.43445 18.125 7.60528 20.0583C8.99278 21.2958 9.02611 21.3125 9.66778 21.3125C10.3094 21.3125 10.3428 21.2958 11.7303 20.0583C13.9011 18.125 15.3344 16.6417 16.2969 15.3333C17.8386 13.2375 18.6136 11.3 18.6969 9.33334C18.7803 7.24168 18.1344 5.21251 16.8219 3.47918C16.4719 3.02085 15.6053 2.16252 15.1261 1.80835C13.9719 0.945852 12.6761 0.379187 11.2719 0.120853C10.5886 -0.00831223 9.00528 -0.0291462 8.30528 0.083353ZM10.7678 1.35835C12.4761 1.62502 13.9386 2.36252 15.1428 3.56668C16.3053 4.72918 17.0511 6.18751 17.3136 7.80001C17.6428 9.83751 17.1386 11.7375 15.7053 13.8958C14.6511 15.4792 13.4428 16.7792 10.9553 19C9.99278 19.8625 9.76778 20.0417 9.66778 20.0417C9.56778 20.0417 9.34278 19.8625 8.38028 19C5.89278 16.7792 4.68445 15.4792 3.63028 13.8958C2.19695 11.7375 1.69279 9.83751 2.02195 7.80001C2.47195 5.02501 4.41362 2.69168 7.06361 1.73752C7.57195 1.55419 7.88861 1.47085 8.45945 1.37502C9.03861 1.27502 10.1844 1.26669 10.7678 1.35835Z" fill="white"/>
                                        <path d="M9.2917 4.71706C8.55003 4.77123 7.80004 5.07123 7.18337 5.55873C5.33754 7.02123 5.16254 9.80456 6.8167 11.4712C7.32504 11.9837 7.9667 12.3629 8.65003 12.5504C9.13337 12.6837 10.2084 12.6837 10.6917 12.5504C12.0167 12.1837 13.0709 11.1796 13.475 9.89206C13.9709 8.32539 13.45 6.5879 12.1917 5.58373C11.3292 4.90456 10.4167 4.62957 9.2917 4.71706ZM10.3167 6.06706C11.5459 6.35873 12.45 7.57956 12.3625 8.83373C12.3167 9.55039 12.0792 10.0546 11.55 10.5837C11.2959 10.8337 11.1125 10.9754 10.9209 11.0712C10.3959 11.3254 10.2792 11.3504 9.67087 11.3504C9.06253 11.3504 8.94587 11.3254 8.42087 11.0712C8.04587 10.8879 7.4917 10.3337 7.28754 9.93789C6.88337 9.15039 6.86254 8.32539 7.23337 7.5504C7.79587 6.36706 9.04587 5.7629 10.3167 6.06706Z" fill="white"/>
                                    </svg>