<svg width="80" height="80" viewBox="0 0 80 80" fill="none" xmlns="http://www.w3.org/2000/svg">
                                <path d="M34.375 0.3125C33.7344 0.484375 32.5312 0.953125 31.7188 1.35938C30.4531 1.98438 30.0156 2.32812 28.6719 3.67188C27.3281 5.01562 26.9844 5.45312 26.3594 6.71875C25.5 8.4375 25 10.2656 25 11.6562V12.6406L23.3281 13.5156C22.3906 13.9844 21.0469 14.8125 20.3125 15.3281C19.1406 16.1875 18.9688 16.2656 18.6719 16.0781C17.2344 15.1875 16.8438 15.0781 15 15.0781C13.3281 15.0781 13.1406 15.1094 12.2656 15.5312C11.0781 16.125 9.875 17.3125 9.29688 18.5C8.70312 19.7188 8.5625 21.8438 8.98438 23.1406C9.21875 23.8906 9.98438 25.3906 10.5 26.125C10.6406 26.3281 10.5625 26.625 10.0781 27.6875C9.75 28.3906 9.23438 29.7812 8.92188 30.7344L8.35938 32.5H4.48438C0.828125 32.5 0.609375 32.5156 0.3125 32.8125C0 33.125 0 33.3281 0 53.7188C0 71.25 0.03125 74.3594 0.21875 74.625C0.421875 74.9062 0.703125 74.9219 4 75L7.54688 75.0781L7.73438 75.7344C8.1875 77.2656 9.46875 78.7031 11.0938 79.5C11.875 79.8906 12.1094 79.9219 13.75 79.9219C15.3906 79.9219 15.625 79.8906 16.4062 79.5C16.875 79.2656 17.5469 78.8438 17.875 78.5625C18.625 77.9531 19.6406 76.4062 19.7812 75.6875C19.9062 75.0156 20.0938 75.0156 20.2188 75.6875C20.3594 76.4062 21.375 77.9531 22.125 78.5625C22.4531 78.8438 23.125 79.2656 23.5938 79.5C24.375 79.8906 24.6094 79.9219 26.25 79.9219C27.8906 79.9219 28.125 79.8906 28.9062 79.5C30.5312 78.7031 31.8125 77.2656 32.2656 75.7344L32.4531 75.0781H46.25H60.0469L60.2344 75.7344C60.6875 77.2656 61.9688 78.7031 63.5938 79.5C64.375 79.8906 64.6094 79.9219 66.25 79.9219C67.8906 79.9219 68.125 79.8906 68.9062 79.5C70.5312 78.7031 71.8125 77.2656 72.2656 75.7344L72.4531 75.0781L76 75C79.2969 74.9219 79.5781 74.9062 79.7812 74.625C79.9688 74.3594 80 72.875 80 65.625V56.9219L78.4375 49.5938C77.5625 45.5781 76.7344 41.9844 76.5781 41.625C76.1406 40.6406 75.1875 39.6875 74.1406 39.1875C73.2188 38.75 73.1562 38.75 70.3594 38.75H67.5V38.0781C67.5 35.5625 66.2969 30.6875 64.9844 27.8281C64.6406 27.1094 64.375 26.4531 64.375 26.3906C64.375 26.3125 64.6562 25.8281 64.9844 25.3125C65.9688 23.8125 66.2969 22.5938 66.2188 20.875C66.1719 19.6875 66.0781 19.2812 65.7031 18.5C65.125 17.3125 63.9219 16.125 62.7344 15.5312C61.8594 15.1094 61.6719 15.0781 60 15.0781C58.1562 15.0781 57.7656 15.1875 56.3281 16.0781C56.0312 16.2656 55.8594 16.1875 54.6875 15.3281C53.9531 14.8125 52.6094 13.9844 51.6875 13.5156L50 12.6406V11.6562C50 10.2656 49.5 8.4375 48.6406 6.71875C48.0156 5.45312 47.6719 5.01562 46.3281 3.67188C44.9844 2.32812 44.5469 1.98438 43.2812 1.35938C41.2031 0.328125 39.7812 0 37.4375 0.015625C36.1094 0.015625 35.2031 0.109375 34.375 0.3125ZM39.9062 2.90625C42.8906 3.64062 45.5938 6.03125 46.75 8.98438C47.4219 10.7188 47.5312 12.875 47.0312 14.375C46.125 17.0938 43.2969 21.0156 39.2656 25.1406L37.5 26.9531L35.7344 25.1406C31.7031 21.0156 28.875 17.0938 27.9688 14.375C27.4688 12.8906 27.5781 10.7188 28.2344 9.03125C30.0938 4.29688 35 1.71875 39.9062 2.90625ZM26.1406 16.9531C26.9531 18.625 28.1562 20.5 29.6094 22.375C30.75 23.8281 34.0156 27.3281 35.7344 28.9375C36.75 29.8906 36.9219 30 37.5 30C38.0781 30 38.25 29.8906 39.2656 28.9375C43.6406 24.8438 47.1562 20.4531 48.8125 17.0469C49.2031 16.2344 49.5625 15.5469 49.5938 15.5C49.7188 15.375 52.625 17.125 53.7812 18L54.3438 18.4375L54.0469 19.2188C53.6406 20.3125 53.6406 22.1406 54.0781 23.4062C54.6719 25.1719 56.2812 27.3281 58.3125 29.0781C59.7188 30.2969 60.2188 30.3281 61.4688 29.2969C61.9531 28.9062 62.375 28.5938 62.4062 28.5938C62.5156 28.5938 63.3594 30.875 63.8125 32.3438C64.2969 33.9688 64.6406 35.8281 64.7812 37.5L64.8906 38.75H61.2656H57.6562V36.2656C57.6562 33.7031 57.5156 32.9219 57.0312 32.6562C56.8438 32.5625 48.5312 32.5 33.9688 32.5H11.2188L11.3125 32.0156C11.3906 31.5781 12.4531 28.7656 12.5938 28.6094C12.6094 28.5781 13.0312 28.8906 13.5156 29.2812C14.75 30.2812 15.2812 30.2812 16.5156 29.2344C18.4062 27.6719 20.0312 25.5938 20.7656 23.8281C21.3125 22.5156 21.4062 20.4219 20.9688 19.25L20.6562 18.4219L21.4531 17.8125C22.2656 17.2031 25.125 15.4688 25.3281 15.4688C25.375 15.4688 25.75 16.1406 26.1406 16.9531ZM16.375 17.9062C17.7188 18.4531 18.5781 19.7812 18.5938 21.2812C18.5938 22.0156 18.4844 22.375 18.0156 23.2812C17.4531 24.3281 15.875 26.2969 15.2656 26.7031C14.8906 26.9531 14.5469 26.6875 13.3906 25.3438C11.4062 23.0312 10.9219 21.0938 11.875 19.4219C12.75 17.8906 14.7344 17.2188 16.375 17.9062ZM61.5312 17.9531C63.4844 18.9531 64.125 20.9375 63.1719 23C62.6719 24.0625 60.9844 26.2656 60.3438 26.6875C59.9531 26.9375 59.9531 26.9375 58.7344 25.6562C57.1875 24.0312 56.4062 22.5469 56.4062 21.2656C56.4219 19.8281 57.1406 18.6406 58.4375 17.9531C59.1875 17.5625 60.75 17.5625 61.5312 17.9531ZM55 51.25V67.5H28.75H2.5V51.25V35H28.75H55V51.25ZM73.0781 41.5938C73.6719 41.9219 74.1875 42.6094 74.3125 43.2656L74.4219 43.75H67.5156C60.8281 43.75 60.6094 43.7656 60.3125 44.0625C60.0156 44.3594 60 44.5781 60 49.3438V54.3125L61.7969 56.9531C62.7969 58.4219 63.7188 59.7031 63.8594 59.7969C64.0625 59.9531 65.7031 60 70.8125 60H77.5V61.25V62.5H76.5625C75.3906 62.5 75 62.8125 75 63.75C75 64.6875 75.3906 65 76.5625 65H77.5V66.25V67.5H67.5781H57.6562V54.375V41.2344L65.125 41.2812C71.8438 41.3281 72.625 41.3594 73.0781 41.5938ZM75 46.3281C75 46.375 75.5312 48.8594 76.1719 51.875C76.8125 54.8906 77.3438 57.375 77.3438 57.4219C77.3438 57.4688 74.6562 57.5 71.375 57.5L65.3906 57.4844L63.9531 55.3281L62.5 53.1719V49.7188V46.25H68.75C72.1875 46.25 75 46.2812 75 46.3281ZM8.14062 70.9688C7.875 71.5156 7.64062 72.0781 7.59375 72.2188C7.51562 72.4688 7.25 72.5 5 72.5H2.5V71.25V70H5.54688H8.59375L8.14062 70.9688ZM60.6406 70.9688C60.375 71.5156 60.1406 72.0781 60.0938 72.2344C60.0156 72.4844 59.25 72.5 46.2344 72.4688L32.4375 72.4219L32.3281 71.9844C32.2656 71.7344 32.0312 71.1875 31.8125 70.7656L31.4062 70H46.25H61.0938L60.6406 70.9688ZM77.5 71.25V72.5L74.9688 72.4688L72.4375 72.4219L72.3281 71.9844C72.2656 71.7344 72.0312 71.1875 71.8125 70.7656L71.4062 70H74.4531H77.5V71.25ZM15.125 70.4062C17.5156 71.3906 18.1094 74.5781 16.2344 76.3594C13.9531 78.5156 10.1719 76.9219 10.1562 73.7812C10.1562 71.75 11.7031 70.1719 13.7188 70.1562C14.1719 70.1562 14.7969 70.2656 15.125 70.4062ZM27.625 70.4062C28.9531 70.9531 29.8438 72.2812 29.8438 73.75C29.8438 75.7656 28.2656 77.3438 26.25 77.3438C23.0938 77.3438 21.4688 73.5625 23.6406 71.2656C24.6406 70.2188 26.3125 69.8594 27.625 70.4062ZM67.625 70.4062C68.9531 70.9531 69.8438 72.2812 69.8438 73.75C69.8438 75.7656 68.2656 77.3438 66.25 77.3438C63.0938 77.3438 61.4688 73.5625 63.6406 71.2656C64.6406 70.2188 66.3125 69.8594 67.625 70.4062Z" fill="#30A9E0"/>
                                <path d="M35.5001 6.57821C32.3126 7.81258 31.4376 12.3595 33.9064 14.8438C36.4064 17.3282 40.9689 16.4376 42.172 13.2032C42.9064 11.2657 42.4689 9.04696 41.0939 7.65633C39.7032 6.28133 37.422 5.84383 35.5001 6.57821ZM38.7189 9.21883C40.7501 10.4532 39.8751 13.5938 37.5001 13.5938C36.172 13.5938 35.1564 12.5782 35.1564 11.2501C35.1564 10.4063 35.5782 9.65633 36.2814 9.21883C36.5939 9.03133 37.0782 8.90633 37.5001 8.90633C37.922 8.90633 38.4064 9.03133 38.7189 9.21883Z" fill="#30A9E0"/>
                                <path d="M14.0625 20.3125C13.8594 20.5156 13.75 20.8281 13.75 21.25C13.75 22.0781 14.1719 22.5 15 22.5C15.8281 22.5 16.25 22.0781 16.25 21.25C16.25 20.4219 15.8281 20 15 20C14.5781 20 14.2656 20.1094 14.0625 20.3125Z" fill="#30A9E0"/>
                                <path d="M59.0625 20.3125C58.8594 20.5156 58.75 20.8281 58.75 21.25C58.75 21.6719 58.8594 21.9844 59.0625 22.1875C59.2656 22.3906 59.5781 22.5 60 22.5C60.4219 22.5 60.7344 22.3906 60.9375 22.1875C61.1406 21.9844 61.25 21.6719 61.25 21.25C61.25 20.8281 61.1406 20.5156 60.9375 20.3125C60.7344 20.1094 60.4219 20 60 20C59.5781 20 59.2656 20.1094 59.0625 20.3125Z" fill="#30A9E0"/>
                                <path d="M26.3277 40.1095C23.8121 40.4064 19.9527 41.797 19.2652 42.6408C18.9214 43.047 19.0152 43.8752 19.4683 44.3127C19.9839 44.8439 20.5777 44.7658 22.2808 44.0002C24.6246 42.9533 25.6714 42.7502 28.7496 42.7502C31.8433 42.7658 32.9058 42.9689 35.2183 44.0002C36.8589 44.7345 37.4527 44.8127 38.0152 44.3752C38.5308 43.9689 38.5933 43.047 38.1714 42.5158C37.5621 41.7814 33.9527 40.5158 31.4839 40.1564C30.4527 40.0158 27.3433 39.9845 26.3277 40.1095Z" fill="#30A9E0"/>
                                <path d="M25.7033 45.2655C24.2502 45.578 22.3596 46.3593 21.8439 46.8905C21.2814 47.453 21.2658 48.1562 21.8127 48.6874C22.3127 49.203 22.8283 49.1405 24.8127 48.3749C27.4064 47.3593 30.0939 47.3593 32.6877 48.3749C34.6721 49.1405 35.1877 49.203 35.6877 48.6874C36.2346 48.1562 36.2189 47.453 35.6721 46.8905C35.1096 46.3437 33.2346 45.5624 31.6877 45.2499C30.1721 44.9374 27.1877 44.9374 25.7033 45.2655Z" fill="#30A9E0"/>
                                <path d="M26.4845 50.2344C25.2658 50.5625 24.2502 51.0469 24.0783 51.3907C23.797 51.9063 23.8752 52.7813 24.2345 53.1407C24.6252 53.5313 25.3908 53.4844 26.7189 52.9844C27.3127 52.7657 27.9377 52.6719 28.7502 52.6719C29.5627 52.6719 30.1877 52.7657 30.7814 52.9844C32.0939 53.4844 32.8752 53.5313 33.2658 53.1407C34.7814 51.625 32.3595 49.9844 28.672 50.0157C27.9064 50.0157 26.922 50.1094 26.4845 50.2344Z" fill="#30A9E0"/>
                                <path d="M27.1094 55.2969C25.75 55.9219 25 57.1719 25 58.7812C25.0156 61 26.5156 62.5 28.75 62.5C31 62.5 32.5 61 32.5 58.75C32.5 57.125 31.6719 55.8281 30.2812 55.25C29.4688 54.9062 27.8906 54.9375 27.1094 55.2969ZM29.5312 57.9687C29.7031 58.1406 29.8438 58.4844 29.8438 58.75C29.8438 59.0156 29.7031 59.3594 29.5312 59.5312C29.3594 59.7031 29.0156 59.8437 28.75 59.8437C28.4844 59.8437 28.1406 59.7031 27.9688 59.5312C27.7969 59.3594 27.6562 59.0156 27.6562 58.75C27.6562 58.4844 27.7969 58.1406 27.9688 57.9687C28.1406 57.7969 28.4844 57.6562 28.75 57.6562C29.0156 57.6562 29.3594 57.7969 29.5312 57.9687Z" fill="#30A9E0"/>
                                <path d="M12.8125 72.8125C12.6094 73.0156 12.5 73.3281 12.5 73.75C12.5 74.5781 12.9219 75 13.75 75C14.5781 75 15 74.5781 15 73.75C15 73.3281 14.8906 73.0156 14.6875 72.8125C14.4844 72.6094 14.1719 72.5 13.75 72.5C13.3281 72.5 13.0156 72.6094 12.8125 72.8125Z" fill="#30A9E0"/>
                                <path d="M25.3125 72.8125C25.1094 73.0156 25 73.3281 25 73.75C25 74.5781 25.4219 75 26.25 75C27.0781 75 27.5 74.5781 27.5 73.75C27.5 72.9219 27.0781 72.5 26.25 72.5C25.8281 72.5 25.5156 72.6094 25.3125 72.8125Z" fill="#30A9E0"/>
                                <path d="M65.3125 72.8125C65.1094 73.0156 65 73.3281 65 73.75C65 74.5781 65.4219 75 66.25 75C67.0781 75 67.5 74.5781 67.5 73.75C67.5 72.9219 67.0781 72.5 66.25 72.5C65.8281 72.5 65.5156 72.6094 65.3125 72.8125Z" fill="#30A9E0"/>
                            </svg>