<svg width="86" height="86" viewBox="0 0 86 86" fill="none" xmlns="http://www.w3.org/2000/svg">
                                <circle cx="43" cy="43" r="43" fill="#30A9E0"/>
                                <path d="M38.9337 19.56C38.8042 19.6795 38.5253 20.3668 38.1567 21.5422L37.589 23.3551L36.7821 23.6738C36.3339 23.8432 35.796 24.0623 35.5769 24.152L35.1685 24.3014L33.4651 23.4248C32.0606 22.7076 31.712 22.5682 31.4729 22.618C31.2936 22.6678 30.4071 23.4746 28.8731 24.9986C26.7614 27.1103 26.5622 27.3395 26.5622 27.6482C26.5622 27.8773 26.8311 28.5148 27.4089 29.6305L28.2655 31.2641L27.8671 32.2004C27.6479 32.7084 27.4388 33.2463 27.3989 33.3758C27.3491 33.6049 27.1499 33.6945 25.4267 34.2523C23.813 34.7902 23.5042 34.9197 23.4046 35.1289C23.2054 35.5174 23.2253 41.6135 23.4145 41.992C23.544 42.241 23.7731 42.3406 25.4565 42.8885C26.5323 43.2371 27.3591 43.5559 27.3591 43.6256C27.3591 43.6953 27.5583 44.2133 27.8073 44.7811L28.2456 45.817L27.4089 47.4904C26.9208 48.4467 26.5622 49.2834 26.5622 49.4428C26.5722 49.6719 26.9905 50.15 28.8831 52.0824C30.2976 53.5168 31.3036 54.4631 31.453 54.5029C31.6522 54.5527 31.981 54.4332 32.8376 54.0049L33.9532 53.4471L34.2222 53.6861C34.8696 54.2937 34.8895 54.3037 38.4456 54.3336L41.7028 54.3635V55.3098V56.2461H35.4075C29.4907 56.2461 29.0823 56.266 28.7038 56.4354C27.7774 56.8637 27.5583 57.3916 27.5583 59.1746V60.5094L27.0304 60.8082C26.1737 61.2863 25.7653 62.0234 25.7653 63.0494C25.7753 64.0654 26.2534 64.8822 27.1101 65.3404C27.6778 65.6492 28.9329 65.6492 29.5106 65.3404C30.427 64.8523 30.8952 63.9658 30.8255 62.8402C30.7757 61.9039 30.4171 61.3062 29.6202 60.8381L29.0524 60.4994V59.2742C29.0524 58.298 29.0823 58.0191 29.2118 57.8996C29.3513 57.7602 30.0585 57.7402 35.537 57.7402H41.7028V59.1746C41.7028 60.5791 41.7028 60.609 41.4737 60.6687C41.1251 60.7484 40.4278 61.3959 40.1788 61.8641C40.0194 62.1729 39.9597 62.4418 39.9597 63.0195C39.9597 63.667 39.9995 63.8363 40.2585 64.2945C40.7466 65.1811 41.653 65.6691 42.689 65.5895C43.6452 65.5197 44.3624 65.0416 44.8206 64.175C45.1294 63.5973 45.1294 62.4418 44.8206 61.8641C44.5716 61.3959 43.8743 60.7484 43.5257 60.6687C43.2966 60.609 43.2966 60.5791 43.2966 59.1746V57.7402H49.4624C54.9409 57.7402 55.6481 57.7602 55.7876 57.8996C55.9171 58.0191 55.947 58.298 55.947 59.2742V60.4994L55.3792 60.8381C54.6022 61.2963 54.2237 61.9039 54.1739 62.7805C54.1142 63.6072 54.2935 64.2049 54.7218 64.7129C55.17 65.2309 55.7378 65.5197 56.4351 65.5795C57.9989 65.7189 59.2341 64.6033 59.2341 63.0594C59.2341 62.0234 58.8257 61.2863 57.969 60.8082L57.4411 60.5094V59.1547C57.4411 57.6805 57.3216 57.2223 56.8335 56.774C56.2458 56.2361 56.3554 56.2461 49.572 56.2461H43.2966V55.2998V54.3635L47.2909 54.3336L51.2952 54.3037L51.4944 54.0348L51.6936 53.7658L52.4706 54.1643C52.8989 54.3734 53.3272 54.5527 53.4269 54.5527C53.5165 54.5527 54.6819 53.467 56.0167 52.1422C58.0188 50.14 58.4372 49.6818 58.4372 49.4527C58.4372 49.2934 58.0587 48.4068 57.5905 47.4805L56.7438 45.7971L57.0825 45.0201C57.2718 44.5918 57.481 44.0738 57.5507 43.8646L57.6802 43.4861L59.5628 42.8785C61.3856 42.2908 61.4554 42.251 61.5849 41.9322C61.7741 41.4939 61.7841 35.5074 61.5948 35.1289C61.4952 34.9197 61.1864 34.7803 59.5628 34.2523C58.5069 33.9037 57.6403 33.565 57.6403 33.5152C57.6403 33.4555 57.4311 32.9275 57.1821 32.3398L56.7339 31.2641L57.5806 29.6305C58.1683 28.5148 58.4372 27.8873 58.4372 27.6482C58.4372 27.3395 58.238 27.1103 56.1263 24.9986C54.5923 23.4746 53.7058 22.6678 53.5265 22.618C53.2974 22.5682 52.9388 22.7076 51.5144 23.4348C49.9106 24.2516 49.7612 24.3113 49.5022 24.2018C49.3528 24.142 48.8149 23.9129 48.3169 23.7137L47.4005 23.3451L46.8327 21.5521C46.5239 20.576 46.1852 19.6894 46.0757 19.5799C45.8964 19.4006 45.6972 19.3906 42.5097 19.3906C39.4417 19.3906 39.113 19.4105 38.9337 19.56ZM45.6374 22.7076L46.2351 24.5205L47.0817 24.8492C47.5499 25.0285 48.3169 25.3572 48.795 25.5764C49.4226 25.8652 49.7214 25.9648 49.8907 25.915C50.0202 25.8752 50.8171 25.4867 51.6737 25.0584L53.2276 24.2914L55.0007 26.0644L56.7737 27.8375L55.9669 29.4312C55.5187 30.3078 55.1501 31.1346 55.1501 31.274C55.1501 31.4035 55.3194 31.8916 55.5286 32.3498C55.7477 32.808 56.0366 33.5352 56.196 33.9535C56.3454 34.3818 56.5247 34.7703 56.5845 34.8201C56.6442 34.8699 57.461 35.1588 58.3874 35.4576L60.0808 35.9955L60.1106 38.5455L60.1306 41.0955L58.4173 41.6533C57.471 41.9721 56.6442 42.2609 56.5745 42.3207C56.5147 42.3705 56.3255 42.7789 56.1661 43.2271C55.9968 43.6754 55.7079 44.3926 55.5087 44.8309C55.3095 45.2592 55.1501 45.7273 55.1501 45.8668C55.1501 46.0062 55.5187 46.823 55.9769 47.6896L56.7936 49.2734L55.0106 51.0564L53.2276 52.8494L52.7196 52.5904C52.4407 52.451 52.2017 52.3215 52.1817 52.3115C52.1618 52.2916 52.8093 50.2895 53.6061 47.8391C54.5425 44.9902 55.0405 43.3268 55.0007 43.1973C54.8811 42.8187 54.662 42.6992 54.0644 42.6992H53.4866L53.7157 41.8924C54.0644 40.717 54.164 39.94 54.164 38.5057C54.164 35.2186 52.9388 32.3697 50.5382 30.0887C48.3866 28.0367 45.9362 27.0107 42.9479 26.8912C39.6509 26.7617 36.802 27.8375 34.4513 30.0887C33.495 31.0051 32.9571 31.6824 32.3595 32.6885C30.0485 36.623 30.3474 41.9422 33.0866 45.5281L33.4353 45.9863V49.0045V52.0227L32.6085 52.4311L31.7718 52.8395L29.9888 51.0564L28.2058 49.2635L29.0425 47.6697C29.7099 46.3748 29.8593 46.0162 29.8194 45.7572C29.7796 45.4783 28.8532 43.1574 28.5245 42.5C28.4149 42.2908 28.1061 42.1613 26.5821 41.6633L24.7692 41.0656V38.5555V36.0353L26.5423 35.4775C27.5085 35.1687 28.3552 34.8699 28.4149 34.8201C28.4747 34.7703 28.654 34.3818 28.8034 33.9535C28.9628 33.5352 29.2517 32.808 29.4708 32.3498C29.68 31.8916 29.8493 31.4035 29.8493 31.2641C29.8493 31.1246 29.4808 30.3078 29.0325 29.4312L28.2157 27.8475L29.9987 26.0644L31.7718 24.2914L33.3257 25.0584C34.1823 25.4867 34.9792 25.8752 35.1087 25.915C35.278 25.9648 35.5769 25.8652 36.2044 25.5764C36.6825 25.3572 37.4495 25.0285 37.9177 24.8492L38.7644 24.5205L39.362 22.7076L39.9597 20.8848H42.4997L45.0397 20.8947L45.6374 22.7076ZM44.8903 28.6443C47.9483 29.4412 50.2593 31.3139 51.6239 34.083C52.4507 35.7664 52.6001 36.4238 52.6001 38.5156C52.6101 40.3385 52.5403 40.7867 52.0522 42.1215C51.8431 42.6893 51.8331 42.6992 51.4645 42.6992C51.106 42.6992 51.0761 42.6693 50.7075 42.0318C49.7712 40.4182 47.8288 38.9539 46.2251 38.6551L45.8864 38.5953L46.2351 38.177C47.0319 37.2008 47.4104 35.7564 47.2013 34.5014C46.6733 31.3637 43.3065 29.6504 40.4478 31.0549C39.7903 31.3836 38.9436 32.1605 38.5452 32.798C37.8479 33.9535 37.7085 35.8859 38.2464 37.0613C38.3958 37.3801 38.6647 37.8482 38.854 38.1072L39.2026 38.5754L38.7245 38.7049C37.4794 39.0236 36.0251 39.96 35.1685 40.9859C34.7003 41.5537 34.0927 42.6395 33.764 43.4861C33.6843 43.6953 33.6345 43.6355 33.256 42.8088C30.447 36.7725 34.1126 29.7799 40.7565 28.4949C41.7327 28.3057 43.9142 28.3853 44.8903 28.6443ZM43.8145 32.3199C44.462 32.6088 45.1394 33.2562 45.4581 33.9236C45.8167 34.6508 45.8366 35.7266 45.5179 36.4437C44.6114 38.4459 42.0913 39.0436 40.4876 37.6291C39.5015 36.7525 39.1429 35.3381 39.611 34.1029C39.9597 33.1766 40.8561 32.3896 41.8522 32.1307C42.3304 32.0012 43.3165 32.1008 43.8145 32.3199ZM45.5378 40.0596C46.7032 40.2986 47.7392 40.8863 48.556 41.7529C48.9544 42.1613 49.2731 42.5498 49.2731 42.5996C49.2731 42.6594 48.3567 42.6992 46.753 42.6992C44.472 42.6992 44.213 42.7191 44.0735 42.8686C43.9839 42.9682 43.4659 44.4125 42.928 46.0859L41.9419 49.124L40.637 49.1539L39.3222 49.1838L39.2923 46.7633C39.2624 44.3826 39.2624 44.3328 38.9935 43.775C38.5851 42.8984 37.7882 42.241 36.6726 41.8525C36.4933 41.7928 36.5231 41.743 36.9515 41.3445C37.5491 40.8066 38.6548 40.2488 39.5114 40.0695C40.4378 39.8703 44.5915 39.8603 45.5378 40.0596ZM36.3438 43.3666C36.9813 43.6057 37.4196 43.9742 37.6288 44.4324C37.7981 44.801 37.8181 45.1197 37.8181 47.4904C37.8181 50.0205 37.828 50.16 38.0272 50.409L38.2265 50.668H39.8302C41.0653 50.668 41.414 50.6979 41.3841 50.7875C41.3542 50.8572 41.1849 51.3553 41.0155 51.8832L40.6868 52.8594H38.2165C35.5769 52.8594 35.3478 52.8195 35.1186 52.3812C34.9194 52.0127 34.9194 45.1795 35.1186 44.3926C35.4374 43.1375 35.547 43.0478 36.3438 43.3666ZM53.1579 44.2531C53.1579 44.293 52.5304 46.2453 51.7634 48.5861L50.3589 52.8594H46.3347C44.1134 52.8594 42.3005 52.8494 42.3005 52.8295C42.3005 52.8096 45.0597 44.532 45.1394 44.3129C45.1692 44.2232 46.0757 44.1934 49.1735 44.1934C51.3649 44.1934 53.1579 44.2232 53.1579 44.2531ZM28.6938 62.0633C29.1321 62.2426 29.3513 62.5812 29.3513 63.0494C29.3513 63.3582 29.2815 63.5076 29.0126 63.7766C28.5444 64.2447 28.0663 64.2447 27.5981 63.7766C27.0304 63.2088 27.1698 62.382 27.897 62.0633C28.2854 61.8939 28.2954 61.8939 28.6938 62.0633ZM42.7985 62.0234C43.0177 62.0234 43.4958 62.5613 43.5556 62.8602C43.6651 63.4678 43.1173 64.1152 42.4997 64.1152C41.8921 64.1152 41.3343 63.4678 41.4438 62.8801C41.5435 62.3721 42.181 61.874 42.5794 61.9836C42.6591 62.0035 42.7487 62.0234 42.7985 62.0234ZM57.0825 62.0633C57.5208 62.2426 57.7399 62.5812 57.7399 63.0494C57.7399 63.3582 57.6702 63.5076 57.4013 63.7766C56.9331 64.2447 56.455 64.2447 55.9868 63.7766C55.419 63.2088 55.5585 62.382 56.2856 62.0633C56.6741 61.8939 56.6841 61.8939 57.0825 62.0633Z" fill="white"/>
                            </svg>