<svg width="76" height="77" viewBox="0 0 76 77" fill="none" xmlns="http://www.w3.org/2000/svg">
                                <path d="M28.8125 0.562498C24.9844 1.57812 21.7969 4.78125 20.8125 8.625C20.5938 9.45312 20.5 10.3594 20.5 11.5C20.5 14.75 21.5156 17.2031 23.7812 19.4687C26.0469 21.7344 28.5 22.75 31.75 22.75C35 22.75 37.4531 21.7344 39.7188 19.4687C41.9844 17.2031 43 14.75 43 11.5C43 10.3594 42.9062 9.45312 42.6875 8.625C41.7031 4.75 38.5 1.54687 34.625 0.562498C33.0156 0.140623 30.4062 0.156248 28.8125 0.562498ZM34.6406 3.34375C37.3594 4.34375 39.5781 6.85937 40.1875 9.64062C40.4688 10.8906 40.3125 13.2187 39.9062 14.3906C38.9219 17.0937 36.3906 19.3281 33.6094 19.9375C32.3594 20.2187 30.0312 20.0625 28.8594 19.6562C26.1562 18.6719 23.9219 16.1406 23.3125 13.3594C23.0312 12.1094 23.1875 9.78125 23.5938 8.60937C24.5312 6.03125 26.8438 3.89062 29.5156 3.125C30.6719 2.79687 33.4688 2.92187 34.6406 3.34375Z" fill="#30A9E0"/>
                                <path d="M28.3123 6.8125C28.0154 7.10938 27.9998 7.32813 27.9998 11.5C27.9998 17.6406 27.7342 17.5 33.7654 14.4844C35.9842 13.3594 37.8435 12.3438 37.906 12.2031C38.031 11.875 38.031 11.125 37.906 10.7969C37.8435 10.6563 35.9842 9.64063 33.7654 8.51563C29.4685 6.375 28.9217 6.20313 28.3123 6.8125ZM32.1404 10.6719C32.9529 11.0781 33.6248 11.4531 33.6248 11.5C33.6248 11.5781 30.7342 13.0625 30.5779 13.0625C30.531 13.0625 30.4998 12.3594 30.4998 11.5C30.4998 10.6406 30.531 9.9375 30.5779 9.9375C30.6248 9.9375 31.3279 10.2656 32.1404 10.6719Z" fill="#30A9E0"/>
                                <path d="M55.1094 1.79677C54.7656 1.95302 54.2656 2.32802 53.9844 2.60927C53.1562 3.4999 53 4.0624 53 6.34365C53 8.17177 53.0312 8.40615 53.3125 8.6874C53.5156 8.89052 53.8281 8.9999 54.25 8.9999C55.2969 8.9999 55.5 8.65615 55.5 6.89052C55.5 5.0624 55.7187 4.42177 56.4375 4.17177C57.1562 3.92177 71.3437 3.92177 72.0625 4.17177C72.9844 4.4999 73 4.59365 73 12.7499C73 20.9061 72.9844 20.9999 72.0625 21.328C71.3437 21.578 57.1562 21.578 56.4375 21.328C55.5781 21.0155 55.5 20.6093 55.5 16.1093C55.5 12.328 55.4844 12.1093 55.1875 11.8124C54.9844 11.6093 54.6719 11.4999 54.25 11.4999C53.8281 11.4999 53.5156 11.6093 53.3125 11.8124C53.0156 12.1093 53 12.328 53 16.6874C53 21.7968 53.0469 21.9999 54.1094 23.0155C55.1719 24.0311 54.9375 23.9999 64.2812 23.9999C73.75 23.9999 73.4375 24.0311 74.5156 22.8905C75.5156 21.828 75.5 22.0624 75.5 12.7499C75.5 3.4374 75.5156 3.67177 74.5156 2.60927C73.4375 1.46865 73.75 1.4999 64.25 1.4999C56.2812 1.4999 55.6875 1.53115 55.1094 1.79677Z" fill="#30A9E0"/>
                                <path d="M63.8594 6.79688C63.0938 7.15625 62.3125 7.95312 62 8.71875C61.8438 9.0625 61.75 9.76562 61.75 10.4062V11.5H60.8125C59.6406 11.5 59.25 11.8125 59.25 12.75C59.25 13.6875 59.6406 14 60.8125 14H61.75V16.1875C61.75 18.1719 61.7812 18.4062 62.0625 18.6875C62.2656 18.8906 62.5781 19 63 19C63.4219 19 63.7344 18.8906 63.9375 18.6875C64.2188 18.4062 64.25 18.1719 64.25 16.1875V14H65.1875C66.3594 14 66.75 13.6875 66.75 12.75C66.75 11.8125 66.3594 11.5 65.1875 11.5H64.25V10.9531C64.25 10.0625 64.6094 9.375 65.1875 9.17188C65.4688 9.07812 66.3594 9 67.1562 9C68.9062 9 69.25 8.79688 69.25 7.75C69.25 7.32812 69.1406 7.01562 68.9375 6.8125C68.6562 6.53125 68.4219 6.5 66.5625 6.5C64.875 6.5 64.375 6.5625 63.8594 6.79688Z" fill="#30A9E0"/>
                                <path d="M0.8125 13.0625C0.5 13.375 0.5 13.5781 0.5 24C0.5 34.4219 0.5 34.625 0.8125 34.9375C1.10938 35.2344 1.32813 35.25 9.25 35.25C17.1719 35.25 17.3906 35.2344 17.6875 34.9375C18 34.625 18 34.4219 18 24C18 13.5781 18 13.375 17.6875 13.0625C17.3906 12.7656 17.1719 12.75 9.25 12.75C1.32813 12.75 1.10938 12.7656 0.8125 13.0625ZM15.5 24V32.75H9.25H3V24V15.25H9.25H15.5V24Z" fill="#30A9E0"/>
                                <path d="M8.3125 18.0625C8.10938 18.2656 8 18.5781 8 19C8 20.0938 8.3125 20.25 10.5 20.25C12.6875 20.25 13 20.0938 13 19C13 17.9062 12.6875 17.75 10.5 17.75C8.82812 17.75 8.59375 17.7812 8.3125 18.0625Z" fill="#30A9E0"/>
                                <path d="M5.8125 23.0625C5.60938 23.2656 5.5 23.5781 5.5 24C5.5 24.4219 5.60938 24.7344 5.8125 24.9375C6.10938 25.2344 6.32812 25.25 9.25 25.25C12.1719 25.25 12.3906 25.2344 12.6875 24.9375C12.8906 24.7344 13 24.4219 13 24C13 23.5781 12.8906 23.2656 12.6875 23.0625C12.3906 22.7656 12.1719 22.75 9.25 22.75C6.32812 22.75 6.10938 22.7656 5.8125 23.0625Z" fill="#30A9E0"/>
                                <path d="M5.8125 28.0625C5.60938 28.2656 5.5 28.5781 5.5 29C5.5 29.4219 5.60938 29.7344 5.8125 29.9375C6.10938 30.2344 6.32812 30.25 9.25 30.25C12.1719 30.25 12.3906 30.2344 12.6875 29.9375C12.8906 29.7344 13 29.4219 13 29C13 28.5781 12.8906 28.2656 12.6875 28.0625C12.3906 27.7656 12.1719 27.75 9.25 27.75C6.32812 27.75 6.10938 27.7656 5.8125 28.0625Z" fill="#30A9E0"/>
                                <path d="M47.2656 20.375C47.1562 20.4375 46.1562 21.7188 45.0312 23.2188C43.25 25.5938 43 26 43 26.5312C43 27.3125 43.4375 27.75 44.2188 27.75C44.5312 27.75 44.875 27.6875 44.9844 27.625C45.0938 27.5625 46.0938 26.2812 47.2188 24.7812C49 22.4062 49.25 22 49.25 21.4688C49.25 20.6875 48.8125 20.25 48.0469 20.25C47.7188 20.25 47.375 20.3125 47.2656 20.375Z" fill="#30A9E0"/>
                                <path d="M49.7188 28.5312C48.2188 29.6562 46.9375 30.6562 46.875 30.7656C46.8125 30.875 46.75 31.2188 46.75 31.5312C46.75 32.3125 47.1875 32.75 47.9688 32.75C48.5 32.75 48.9062 32.5 51.2812 30.7188C52.7812 29.5938 54.0625 28.5938 54.125 28.4844C54.1875 28.375 54.25 28.0312 54.25 27.7031C54.25 26.9375 53.8125 26.5 53.0312 26.5C52.5 26.5 52.0938 26.75 49.7188 28.5312Z" fill="#30A9E0"/>
                                <path d="M28.8437 35.0781C20.0312 42.3437 19.9375 42.4218 17.1406 44.0312C13.9844 45.8437 13.4062 46.2812 12.75 47.4687C12.3437 48.2187 12.2969 48.4374 12.2969 49.7343V51.1718L11.5625 51.5781C10.0625 52.3906 9.26562 53.5937 9.25 55.0156C9.25 56.3281 9.51562 56.9687 10.4062 57.8437C11.7656 59.1718 13.3594 59.3281 15.1875 58.3593L16.1094 57.8749L16.5469 58.1874C18.3437 59.4374 20.2656 59.5624 22.2812 58.5312C23 58.1718 23.25 58.1093 23.3437 58.2499C23.4219 58.3593 23.9844 59.3281 24.5937 60.4062C25.2187 61.4843 26 62.6562 26.3281 63.0156C28.4531 65.3281 32.4062 63.9374 32.7969 60.7499C32.9219 59.6874 32.6875 59.0624 31.3437 56.7031C30.6875 55.5468 30.1875 54.5781 30.2187 54.5468C30.2344 54.5156 34.4687 52.9218 39.6094 50.9843C44.75 49.0468 49.0937 47.3437 49.2656 47.2031C49.9375 46.5781 49.75 46.1406 46.4219 40.3281C44.7031 37.3124 43.1094 34.7031 42.9062 34.4999C42.4062 34.0624 41.7187 34.0624 41.2031 34.5156C40.3906 35.2031 40.5156 35.5156 43.5469 40.7812C45.0781 43.4218 46.2969 45.5937 46.2656 45.6249C46.1719 45.7031 26.5 53.0624 26.3906 53.0624C26.3281 53.0624 24.9219 53.8281 23.2812 54.7812C20.8125 56.2031 20.1875 56.4999 19.6562 56.4999C18.8906 56.4999 18.1875 56.0937 17.6562 55.3749C17.0156 54.5156 15.0312 50.9687 14.875 50.4062C14.6875 49.7812 14.8906 48.9374 15.3437 48.4062C15.6719 47.9999 20.0469 45.3906 20.2031 45.4999C20.2656 45.5312 21 46.7656 21.8437 48.2343C22.6719 49.6874 23.5156 50.9999 23.6875 51.1249C24.0781 51.3906 24.8594 51.4062 25.2031 51.1406C25.5156 50.8906 25.8125 50.3437 25.8125 49.9843C25.8125 49.8281 25.0625 48.4062 24.1562 46.8437C23.25 45.2656 22.5312 43.9218 22.5625 43.8437C22.5937 43.7812 26.0781 40.8749 30.2969 37.3749C37.6406 31.3281 38 31.0624 38.1719 31.3906C38.7187 32.4374 39.7344 32.7656 40.5156 32.1406C41.125 31.6562 41 30.8593 40.125 29.3437C39.3125 27.9531 39.0781 27.7499 38.2656 27.7499C37.7969 27.7499 36.7344 28.5781 28.8437 35.0781ZM14.1562 54.8124L14.5781 55.5624L14.0625 55.8749C13.25 56.3749 12.875 56.4218 12.4062 56.0781C11.9219 55.7187 11.7656 54.9062 12.0937 54.5156C12.2031 54.3749 12.5312 54.1093 12.8437 53.9218C13.4687 53.5312 13.375 53.4687 14.1562 54.8124ZM29.0625 58.1874C29.6719 59.2656 30.1875 60.2812 30.1875 60.4374C30.1875 60.8593 29.4844 61.4999 29.0469 61.4999C28.4219 61.4999 28.0625 61.0781 26.7812 58.8281L25.5469 56.6874L26.5 56.1406C27.625 55.4843 27.3594 55.2656 29.0625 58.1874Z" fill="#30A9E0"/>
                                <path d="M55.1875 34.4063C53.7656 34.6875 52.2344 35.0156 51.7813 35.1094C50.7188 35.3281 50.3438 35.6875 50.3438 36.5C50.3438 37.375 50.75 37.75 51.7188 37.75C52.1406 37.75 53.875 37.4688 55.5938 37.125C59.0781 36.4219 59.3281 36.2969 59.3281 35.25C59.3281 34.5156 58.9375 34.0469 58.2344 33.9375C57.9688 33.8906 56.6094 34.1094 55.1875 34.4063Z" fill="#30A9E0"/>
                                <path d="M4.56283 39.3125C4.25033 39.625 4.25033 39.8281 4.25033 53.0625V66.5H2.68783C0.4222 66.5 0.453451 66.4531 0.531576 69.5938C0.578451 71.9375 0.594076 72.0938 1.03158 72.9844C1.62533 74.1875 2.81283 75.375 4.01595 75.9688L4.95345 76.4219H23.0003H41.0472L41.9847 75.9688C43.1878 75.375 44.3753 74.1875 44.9691 72.9844C45.4066 72.0938 45.4222 71.9375 45.4691 69.5938C45.5472 66.4531 45.5784 66.5 43.3128 66.5H41.7503V60.0312V53.5469L41.3441 53.2344C40.8128 52.8125 40.1878 52.8125 39.6566 53.2344L39.2503 53.5469V60.0312V66.5H23.0003H6.75033V54V41.5H12.2816H17.8285L18.141 41.0938C18.5628 40.5625 18.5628 39.9375 18.141 39.4062L17.8285 39H11.3441C5.07845 39 4.8597 39.0156 4.56283 39.3125ZM42.9378 70.0469C42.8128 71.3281 42.4378 72.1875 41.7347 72.8594C40.9378 73.6094 40.1566 73.875 38.3597 73.9688L36.7503 74.0469V73.0781C36.7503 71.8906 36.4378 71.5 35.5003 71.5C34.5628 71.5 34.2503 71.8906 34.2503 73.0625V74H23.0003H11.7503V73.0625C11.7503 71.8906 11.4378 71.5 10.5003 71.5C9.56283 71.5 9.25033 71.8906 9.25033 73.0781V74.0469L7.64095 73.9688C4.6097 73.8125 3.34408 72.7188 3.06283 70.0469L2.95345 69H23.0003H43.0472L42.9378 70.0469Z" fill="#30A9E0"/>
                                <path d="M55.1095 40.5468C54.7657 40.703 54.2657 41.078 53.9845 41.3593C52.9689 42.4218 53.0001 42.1874 53.0001 51.5311C53.0001 60.9999 52.9689 60.6874 54.1095 61.7655C55.172 62.7811 54.9376 62.7499 64.2814 62.7499C73.7501 62.7499 73.4376 62.7811 74.5157 61.6405C75.3439 60.7499 75.5001 60.1874 75.5001 57.9061C75.5001 56.078 75.4689 55.8436 75.1876 55.5624C74.7657 55.1405 73.7345 55.1405 73.3126 55.5624C73.047 55.828 73.0001 56.078 73.0001 57.3593C73.0001 59.1874 72.7814 59.828 72.0626 60.078C71.3439 60.328 57.1564 60.328 56.4376 60.078C55.5157 59.7499 55.5001 59.6561 55.5001 51.4999C55.5001 43.3436 55.5157 43.2499 56.4376 42.9218C57.1564 42.6718 71.3439 42.6718 72.0626 42.9218C72.922 43.2343 73.0001 43.6405 73.0001 48.1405C73.0001 51.9218 73.0157 52.1405 73.3126 52.4374C73.5157 52.6405 73.8282 52.7499 74.2501 52.7499C74.672 52.7499 74.9845 52.6405 75.1876 52.4374C75.4845 52.1405 75.5001 51.9218 75.5001 47.5936C75.5001 42.578 75.4689 42.3593 74.5157 41.3593C73.4376 40.2186 73.7501 40.2499 64.2501 40.2499C56.2814 40.2499 55.6876 40.2811 55.1095 40.5468Z" fill="#30A9E0"/>
                                <path d="M62.2501 46.8282C59.0626 48.0626 58.1876 52.6095 60.6564 55.0938C63.1564 57.5782 67.7189 56.6876 68.922 53.4532C69.922 50.7813 68.672 47.7501 66.2032 46.8282C65.047 46.3907 63.3907 46.3907 62.2501 46.8282ZM65.4689 49.4688C67.5001 50.7032 66.6251 53.8438 64.2501 53.8438C61.8751 53.8438 61.0001 50.7032 63.0314 49.4688C63.7032 49.0626 64.797 49.0626 65.4689 49.4688Z" fill="#30A9E0"/>
                            </svg>