<svg width="86" height="86" viewBox="0 0 86 86" fill="none" xmlns="http://www.w3.org/2000/svg">
                                <circle cx="43" cy="43" r="43" fill="#30A9E0"/>
                                <path d="M25.4871 18.8029C24.7899 19.1516 24.4512 19.5101 24.0826 20.2871L23.8237 20.8349L23.7938 37.7685C23.7838 47.082 23.7938 54.8516 23.8237 55.0308C23.8535 55.2101 23.9731 55.4492 24.0826 55.5588C24.3416 55.8178 24.9094 55.8078 25.1684 55.5488C25.3676 55.3496 25.3676 55.2201 25.3676 40.5078V25.666H37.6694H49.9711V27.7379C49.9711 29.7799 49.9711 29.8197 50.2002 30.0289C50.5389 30.3476 51.0867 30.3277 51.3656 29.9791C51.5748 29.7201 51.5748 29.6603 51.5449 25.2277L51.5151 20.7353L51.2362 20.1676C51.0768 19.8488 50.758 19.4205 50.509 19.2014C49.6524 18.4443 50.4891 18.4941 37.6196 18.4941H26.0948L25.4871 18.8029ZM49.2739 20.307C49.8715 20.7254 49.9711 21.0541 49.9711 22.6478V24.0723H37.6594H25.3477L25.3776 22.598C25.4174 20.9844 25.517 20.6756 26.1246 20.2771C26.4035 20.0978 26.7621 20.0879 37.6793 20.0879H48.9451L49.2739 20.307Z" fill="white"/>
                                <path d="M37.1218 21.4824C36.813 21.7912 36.8528 22.4088 37.1915 22.6777C37.4505 22.8769 37.5401 22.8869 39.6917 22.857C41.8931 22.8271 41.923 22.8271 42.1122 22.5881C42.3712 22.2693 42.3513 21.8211 42.0524 21.5322L41.8134 21.2832H39.5622C37.4505 21.2832 37.311 21.2932 37.1218 21.4824Z" fill="white"/>
                                <path d="M39.0834 27.5785C38.7746 27.8674 34.4316 38.8045 34.4316 39.2826C34.4316 39.4719 34.5113 39.691 34.6309 39.8106C34.8799 40.0596 35.4377 40.0695 35.7066 39.8305C35.9955 39.5815 40.3385 28.6145 40.3484 28.1164C40.3584 27.4291 39.5914 27.1104 39.0834 27.5785Z" fill="white"/>
                                <path d="M30.3982 31.543C28.7846 33.1567 28.6152 33.3559 28.6152 33.6647C28.6152 33.9735 28.7945 34.1926 30.2887 35.7565C31.215 36.7227 32.0318 37.5295 32.1115 37.5594C32.4801 37.7088 32.9283 37.6192 33.1275 37.3602C33.5658 36.8123 33.4064 36.5235 31.8027 34.9297L30.5477 33.6945L31.9422 32.2901C33.1574 31.0649 33.3367 30.8358 33.3367 30.5568C33.3367 30.1285 32.9582 29.75 32.5199 29.75C32.2211 29.75 32.002 29.9393 30.3982 31.543Z" fill="white"/>
                                <path d="M42.4208 29.8197C42.2017 29.9094 41.9825 30.4473 42.0522 30.7361C42.0921 30.8855 42.6997 31.5828 43.4767 32.3697L44.8313 33.7344L43.4468 35.1289C42.2017 36.384 42.0622 36.5533 42.0622 36.8621C42.0622 37.3502 42.3312 37.6191 42.8292 37.6191C43.2177 37.6191 43.2974 37.5594 44.9011 35.9557C46.5845 34.2922 46.8534 33.9236 46.7438 33.5152C46.714 33.3857 45.9071 32.4893 44.9509 31.5131C43.3671 29.8994 43.1978 29.75 42.889 29.76C42.6997 29.76 42.4905 29.7898 42.4208 29.8197Z" fill="white"/>
                                <path d="M48.7057 35.4477C48.4268 35.5771 48.3072 35.9656 48.2176 36.9318C48.1777 37.3602 48.1279 37.7387 48.0881 37.7885C47.9785 37.9578 46.8928 38.3363 46.7633 38.2566C46.6936 38.2168 46.325 37.9578 45.9465 37.6789C44.8807 36.9119 44.8508 36.9119 43.2969 38.4658C41.6434 40.1193 41.6434 40.0297 42.998 41.6832L43.277 42.0219L43.0279 42.6395L42.7789 43.267L41.7629 43.4363C40.2787 43.6754 40.3086 43.6355 40.3086 45.8967C40.3086 48.2176 40.2189 48.108 42.2211 48.3371L42.7988 48.3969L43.0479 48.9447C43.1873 49.2535 43.2969 49.5424 43.2969 49.5922C43.2969 49.642 43.0479 50.0305 42.749 50.4588C41.9123 51.6541 41.9322 51.7139 43.3268 53.1283C44.532 54.3635 44.8707 54.6025 45.2592 54.5029C45.3887 54.473 45.8369 54.1742 46.2453 53.8555C46.6637 53.5268 47.0123 53.2578 47.0223 53.2578C47.0322 53.2578 47.3111 53.3674 47.6398 53.4969L48.2275 53.7359L48.3471 54.3635C48.4068 54.7121 48.4865 55.1703 48.5264 55.3695C48.616 55.9273 48.8451 56.1465 49.4527 56.2162L49.9707 56.276V57.0031V57.7402H37.1809H24.3811L24.1021 57.9793L23.8232 58.2184V61.1967V64.165L24.0822 64.7129C24.4508 65.4898 24.7895 65.8484 25.4867 66.1971L26.0943 66.5059H37.6191C50.4887 66.5059 49.652 66.5557 50.5086 65.7986C50.7576 65.5795 51.0764 65.1512 51.2357 64.8324L51.5146 64.2646L51.5445 60.2504L51.5744 56.2461H51.9529C52.451 56.2461 52.9391 56.0668 53.0586 55.8477C53.1184 55.748 53.208 55.2201 53.2678 54.6723L53.3873 53.6762L53.9949 53.4371L54.6125 53.1881L55.4492 53.7758C56.4951 54.5029 56.7441 54.5228 57.3717 53.9252C58.557 52.7996 59.5332 51.674 59.5332 51.435C59.5332 51.2059 59.3041 50.8373 58.5172 49.8611L58.2283 49.5025L58.4475 48.9148C58.577 48.5961 58.6766 48.3172 58.6865 48.2973C58.6965 48.2873 59.1646 48.1977 59.7225 48.098C61.2266 47.8291 61.1768 47.9088 61.1768 45.6377C61.1768 43.3467 61.2266 43.4264 59.7225 43.257L58.7064 43.1475L58.4275 42.5299L58.1586 41.9223L58.7463 41.0756C59.6129 39.8305 59.6129 39.8504 58.059 38.2965C56.4752 36.7127 56.4553 36.7027 55.2799 37.659L54.493 38.2965L53.8953 38.0475C53.5766 37.908 53.2977 37.7885 53.2777 37.7785C53.2678 37.7586 53.1781 37.2904 53.0686 36.7227C52.8195 35.2783 52.8893 35.3281 50.6779 35.3381C49.652 35.3381 48.8352 35.3879 48.7057 35.4477ZM51.5146 37.141C51.5346 37.2705 51.6043 37.659 51.6641 38.0176C51.8135 38.934 51.9131 39.0834 52.5008 39.2727C52.7797 39.3623 53.3574 39.5914 53.7957 39.7807C54.7121 40.1891 54.7221 40.1891 55.7281 39.3922L56.3557 38.8842L56.9035 39.4221C57.2023 39.7109 57.4414 39.9799 57.4414 40.0197C57.4414 40.0596 57.2223 40.4182 56.9434 40.8166C56.3855 41.6234 56.3158 42.0119 56.6346 42.5398C56.7342 42.7092 56.9434 43.1973 57.0928 43.6156C57.2422 44.0439 57.4314 44.4424 57.5012 44.5021C57.5809 44.5719 58.0789 44.6715 58.6168 44.7312L59.583 44.8408L59.6129 45.6576L59.6428 46.4645L59.3639 46.5242C59.2145 46.5541 58.7961 46.6238 58.4375 46.6836C57.5609 46.833 57.3916 46.9725 57.1924 47.6498C57.1027 47.9586 56.8936 48.4766 56.7342 48.7953C56.5748 49.1041 56.4453 49.4727 56.4453 49.6121C56.4453 49.7516 56.6744 50.15 56.9932 50.5584C57.292 50.9469 57.541 51.3055 57.541 51.3453C57.541 51.3852 57.302 51.6641 57.0031 51.9529L56.4652 52.4908L55.8178 52.0227C54.7918 51.2955 54.7719 51.2955 53.7658 51.7637C53.2877 51.9828 52.7598 52.192 52.5904 52.2219C52.0625 52.3314 51.8932 52.6103 51.7736 53.6064C51.7139 54.0945 51.6641 54.5428 51.6641 54.5826C51.6641 54.6225 51.2955 54.6523 50.8473 54.6324L50.0305 54.6025L49.8711 53.7061C49.7715 53.208 49.6719 52.7299 49.632 52.6402C49.5922 52.5506 49.3432 52.3912 49.0941 52.3016C48.8352 52.2119 48.2973 51.9828 47.8889 51.8035C47.4904 51.6143 47.0422 51.4648 46.8928 51.4648C46.7234 51.4648 46.3748 51.674 45.8867 52.0625L45.1396 52.6602L44.5719 52.0924C44.1336 51.6541 44.024 51.4947 44.1037 51.3752C44.1535 51.2855 44.3926 50.927 44.6416 50.5783C45.1695 49.8312 45.1895 49.6021 44.801 48.865C44.6416 48.5662 44.4324 48.0682 44.3328 47.7395C44.2332 47.4107 44.0639 47.102 43.9443 47.0223C43.7949 46.9227 42.4104 46.6836 41.982 46.6836C41.9322 46.6836 41.9023 46.3051 41.9023 45.8469V45.0201L42.8088 44.8906C43.8248 44.7412 44.1436 44.5619 44.2432 44.0639C44.283 43.8945 44.4922 43.3566 44.7113 42.8785C44.9803 42.3008 45.0898 41.9322 45.05 41.7828C45.0201 41.6533 44.7412 41.2449 44.4424 40.8664L43.8846 40.1691L44.4523 39.6014L45.0201 39.0236L45.7971 39.5715C46.2553 39.8902 46.6736 40.1094 46.823 40.1094C46.9725 40.1094 47.3211 39.9898 47.61 39.8504C47.8988 39.701 48.4168 39.4818 48.7654 39.3523C49.1141 39.2228 49.4129 39.1133 49.4229 39.0934C49.5723 38.9141 49.6619 38.5355 49.7217 37.8682C49.7615 37.4299 49.8113 37.0414 49.8412 36.9916C49.8611 36.9518 50.2396 36.9219 50.668 36.9219C51.4051 36.9219 51.4648 36.9318 51.5146 37.141ZM49.9707 61.5553C49.9707 64.0256 49.9209 64.2447 49.2734 64.693L48.9447 64.9121H37.6988C25.1281 64.9121 26.1043 64.9719 25.6361 64.2148C25.427 63.8861 25.417 63.7268 25.3871 61.5951L25.3473 59.334H37.659H49.9707V61.5553Z" fill="white"/>
                                <path d="M49.8712 41.8326C47.8192 42.3008 46.4645 44.3029 46.7932 46.3848C47.0024 47.7295 47.8093 48.8152 49.0544 49.4029C49.672 49.7018 49.8014 49.7217 50.7677 49.7217C51.7538 49.7217 51.8634 49.7018 52.471 49.4029C53.2778 49.0045 54.0647 48.1977 54.4333 47.4107C54.9712 46.2154 54.8118 44.542 54.0448 43.4264C53.1682 42.1613 51.3952 41.484 49.8712 41.8326ZM51.8335 43.6057C52.5805 43.9643 53.1483 44.8607 53.1583 45.6775C53.1583 46.4146 52.9591 46.8928 52.3913 47.4506C51.5845 48.2674 51.5645 48.2375 51.5645 46.4844C51.5645 45.0201 51.5546 44.9703 51.3155 44.7412C50.9968 44.4125 50.4887 44.4025 50.1899 44.7213C49.9907 44.9305 49.9708 45.0699 49.9509 46.5242L49.921 48.098L49.4329 47.7594C48.0882 46.8529 47.9786 44.9902 49.2038 43.9443C49.9608 43.2869 50.9171 43.1674 51.8335 43.6057Z" fill="white"/>
                                <path d="M33.7946 61.8441C33.436 62.1729 33.4061 62.6908 33.7348 63.0195C33.9241 63.2088 34.0635 63.2188 37.6694 63.2188H41.4147L41.6538 62.9697C41.7932 62.8402 41.9028 62.6311 41.9028 62.5215C41.9028 62.1928 41.6338 61.7545 41.3848 61.6848C41.2553 61.6549 39.552 61.625 37.5997 61.625C34.0536 61.625 34.0436 61.625 33.7946 61.8441Z" fill="white"/>
                            </svg>