<svg width="56" height="56" viewBox="0 0 56 56" fill="none" xmlns="http://www.w3.org/2000/svg">
                                    <circle cx="28" cy="28" r="28" fill="white"/>
                                    <g clip-path="url(#clip0_45_477)">
                                    <path d="M16.909 14.1635C16.5451 14.3427 16.3605 14.5379 16.1812 14.9228L16.0547 15.1865V23.8191V32.457H15.6645C15.3164 32.457 15.2637 32.4728 15.1371 32.5941L15 32.7365V33.8545V34.9724L15.1635 35.2941C15.3428 35.658 15.5379 35.8426 15.9229 36.0218L16.1865 36.1484H22.7625H29.3385L29.3543 37.9836L29.3701 39.8134L29.5178 40.114C29.6021 40.2828 29.7709 40.5095 29.9027 40.6256C30.3404 41.0105 30.2086 41 34.1373 41H37.6494L37.9131 40.8734C38.298 40.6941 38.4932 40.5095 38.6725 40.1457L38.8359 39.824V37.9836V36.1484H39.8273C40.7502 36.1484 40.8293 36.1379 41.0771 36.0218C41.4621 35.8426 41.6572 35.658 41.8365 35.2941L42 34.9724V33.8545V32.7365L41.8629 32.5941C41.7363 32.4728 41.6836 32.457 41.3355 32.457H40.9453V23.8191V15.1865L40.8188 14.9228C40.6395 14.5379 40.4549 14.3427 40.091 14.1635L39.7693 14H28.5H17.2307L16.909 14.1635ZM39.4846 15.1127C39.743 15.1812 39.8432 15.35 39.8801 15.7666L39.9064 16.1093H28.5H17.0936L17.1199 15.7666C17.1568 15.3605 17.257 15.1812 17.4943 15.1127C17.7422 15.0441 39.2262 15.0388 39.4846 15.1127ZM39.8906 23.7558V30.3476H39.3633H38.8359V28.3543V26.3556L38.6725 26.034C38.4932 25.6701 38.298 25.4855 37.9131 25.3062L37.6494 25.1797H34.1373C31.6482 25.1797 30.5725 25.1955 30.4512 25.2377L30.2824 25.3009L29.1645 24.183L28.0518 23.0703H28.5686C29.0748 23.0703 29.0906 23.065 29.2436 22.9174C29.4598 22.7011 29.4598 22.3847 29.2436 22.1685L29.0906 22.0156H27.8145C27.0445 22.0156 26.5014 22.0367 26.4381 22.0683C26.2061 22.1949 26.1797 22.3636 26.1797 23.5976C26.1797 25.0531 26.2271 25.1797 26.7598 25.1797C26.9338 25.1797 27.0129 25.148 27.1342 25.0267C27.2818 24.8791 27.2871 24.8527 27.2871 24.3781V23.8877L28.3893 24.9898L29.4861 26.0867L29.4176 26.3293C29.3596 26.5138 29.3438 27.0095 29.3438 28.4597V30.3476H25.7367H22.135L21.9926 30.4847C21.7975 30.6851 21.7975 31.0648 21.9926 31.2652L22.135 31.4023H25.7367H29.3438V32.1933V32.9843H27.6035H25.8633V32.8578C25.8633 32.7892 25.8 32.6732 25.7262 32.5941L25.5838 32.457H21.3492H17.1094V31.9297V31.4023H17.4996C17.8477 31.4023 17.9004 31.3865 18.027 31.2652C18.2221 31.0648 18.2221 30.6851 18.027 30.4847C17.9004 30.3634 17.8477 30.3476 17.4996 30.3476H17.1094V23.7558V17.164H28.5H39.8906V23.7558ZM37.3699 26.2871C37.7549 26.3978 37.7285 25.8494 37.7285 33.0951V39.6131L37.5967 39.7449C37.5229 39.8187 37.391 39.8925 37.3014 39.9136C37.0061 39.9717 31.0734 39.9506 30.8572 39.8873C30.7201 39.8504 30.6252 39.7765 30.5566 39.6658C30.4564 39.5023 30.4512 39.3441 30.4512 33.2744V27.0517L31.6113 28.2119L32.7715 29.372L32.2389 29.3984C31.759 29.4248 31.6957 29.4353 31.6061 29.5513C31.4004 29.8045 31.4109 30.0998 31.6377 30.3265L31.7643 30.4531H33.0615H34.3641L34.517 30.3002L34.6699 30.1472V28.8711V27.5949L34.517 27.442C34.3957 27.3207 34.3166 27.289 34.1426 27.289C33.7102 27.289 33.5994 27.442 33.5625 28.0959L33.5361 28.5547L32.376 27.3945L31.2158 26.2343H34.1953C36.0832 26.2343 37.2486 26.2554 37.3699 26.2871ZM39.8906 31.9297V32.457H39.3633H38.8359V31.9297V31.4023H39.3633H39.8906V31.9297ZM25.0143 33.6646C25.0775 33.749 25.2305 33.8703 25.3518 33.9283C25.568 34.0338 25.6629 34.039 27.4611 34.039H29.3438V34.5664V35.0937H23.0051C18.76 35.0937 16.5979 35.0726 16.4607 35.0357C16.1496 34.9513 16.0863 34.7984 16.06 34.1076L16.0441 33.5117H20.4738H24.9088L25.0143 33.6646ZM40.9348 34.1023C40.9031 35.0357 40.8715 35.0621 39.6955 35.0832L38.8359 35.1043V34.308V33.5117H39.8959H40.9559L40.9348 34.1023Z" fill="#30A9E0"/>
                                    <path d="M32.6449 18.3559C32.5342 18.4666 32.5078 18.5457 32.5078 18.7461C32.5078 18.9465 32.5342 19.0256 32.6449 19.1363C32.7557 19.2471 32.8348 19.2734 33.0352 19.2734C33.2355 19.2734 33.3146 19.2471 33.4254 19.1363C33.5361 19.0256 33.5625 18.9465 33.5625 18.7461C33.5625 18.5457 33.5361 18.4666 33.4254 18.3559C33.3146 18.2451 33.2355 18.2188 33.0352 18.2188C32.8348 18.2188 32.7557 18.2451 32.6449 18.3559Z" fill="#30A9E0"/>
                                    <path d="M35.018 18.3559C34.9072 18.4666 34.8809 18.5457 34.8809 18.7461C34.8809 18.9465 34.9072 19.0256 35.018 19.1363L35.1604 19.2734H36.8584H38.5564L38.6988 19.1363C38.8096 19.0256 38.8359 18.9465 38.8359 18.7461C38.8359 18.5457 38.8096 18.4666 38.6988 18.3559L38.5564 18.2188H36.8584H35.1604L35.018 18.3559Z" fill="#30A9E0"/>
                                    <path d="M19.6195 30.4848C19.5088 30.5955 19.4824 30.6746 19.4824 30.875C19.4824 31.223 19.6617 31.4023 20.0098 31.4023C20.2102 31.4023 20.2893 31.376 20.4 31.2652C20.5951 31.0648 20.5951 30.6852 20.4 30.4848C20.2893 30.374 20.2102 30.3477 20.0098 30.3477C19.8094 30.3477 19.7303 30.374 19.6195 30.4848Z" fill="#30A9E0"/>
                                    <path d="M33.7154 38.5161C33.5941 38.6374 33.5625 38.7165 33.5625 38.8905C33.5625 39.5128 34.4959 39.6341 34.6488 39.0277C34.6646 38.9538 34.6646 38.8273 34.6488 38.7534C34.5486 38.3527 34.016 38.2155 33.7154 38.5161Z" fill="#30A9E0"/>
                                    </g>
                                    <defs>
                                    <clipPath id="clip0_45_477">
                                    <rect width="27" height="27" fill="white" transform="translate(15 14)"/>
                                    </clipPath>
                                    </defs>
                                </svg>