<svg width="1361" height="779" viewBox="0 0 1361 779" fill="none" xmlns="http://www.w3.org/2000/svg">
<path d="M1 61.5V284.5C1 339.728 45.7715 384.5 101 384.5H407C462.228 384.5 507 429.272 507 484.5V678C507 733.228 551.772 778 607 778H861.5C916.728 778 961.5 733.228 961.5 678V484.5C961.5 429.272 916.728 384.5 861.5 384.5H678.5C623.272 384.5 578.5 339.728 578.5 284.5V101C578.5 45.7715 623.272 1 678.5 1H1260C1315.23 1 1360 45.7715 1360 101V328.5C1360 383.728 1315.23 428.5 1260 428.5H1164.5" stroke="#072E75" stroke-width="2"/>
</svg>
