<svg width="19" height="19" viewBox="0 0 19 19" fill="none" xmlns="http://www.w3.org/2000/svg">
                                        <g clip-path="url(#clip0_1347_1077)">
                                        <path d="M10.2026 0.0854912C10.1246 0.137444 10.0504 0.237639 10.0059 0.341546C9.94279 0.497405 9.93908 0.534514 9.9799 0.67553C10.0653 0.953851 10.2026 1.05033 10.6701 1.14682C13.0488 1.64037 15.0379 2.96147 16.4444 4.99135C17.1235 5.96733 17.5799 7.06948 17.8694 8.43139C17.9362 8.74682 18.0252 8.89155 18.2071 8.96576C18.4817 9.0808 18.7785 8.99174 18.927 8.75053C19.0197 8.59838 19.0197 8.48705 18.927 8.03061C18.3815 5.36616 16.7932 3.0394 14.4738 1.5142C13.4756 0.853656 12.3141 0.363811 11.108 0.0929136C10.5811 -0.0258369 10.3696 -0.0258369 10.2026 0.0854912Z" fill="white"/>
                                        <path d="M3.19181 1.1464C2.65373 1.29484 2.42365 1.47296 1.36603 2.5714C0.505094 3.46574 0.341813 3.6921 0.17111 4.2005C0.119157 4.35265 0.0597819 4.60128 0.0338054 4.75343C-0.0181478 5.08742 0.0115397 5.94093 0.0894694 6.36398C0.378923 7.93742 1.31408 9.95617 2.56095 11.704C4.17521 13.9677 6.15314 15.812 8.40197 17.1591C11.0998 18.7734 13.4637 19.3671 14.911 18.7882C15.3637 18.6064 15.6383 18.3837 16.5549 17.456C17.6979 16.2944 17.8315 16.0755 17.8315 15.3444C17.8278 14.9177 17.7572 14.6691 17.5309 14.3239C17.4567 14.2126 16.8035 13.5261 16.0725 12.7987C14.9035 11.6335 14.7217 11.4665 14.4916 11.3478C14.0686 11.1325 13.6567 11.0806 13.2299 11.1882C12.792 11.3032 12.6102 11.4368 11.7901 12.2458L11.0145 13.0066L10.6768 12.8247C9.00685 11.9304 6.83966 9.74093 6.06408 8.15265L5.96759 7.95597L6.66896 7.2546C7.0549 6.86496 7.44084 6.44562 7.52248 6.31945C7.73771 5.9966 7.83791 5.67375 7.83791 5.31378C7.83791 4.95753 7.78967 4.77199 7.61525 4.43429C7.50021 4.20421 7.3258 4.01867 6.12716 2.81632C4.65392 1.34308 4.54259 1.25031 4.04533 1.13527C3.73361 1.06105 3.4924 1.06476 3.19181 1.1464ZM3.97111 2.30421C4.04162 2.33761 4.67248 2.94249 5.37013 3.64386C6.53537 4.81281 6.63927 4.93156 6.69123 5.10226C6.80627 5.49933 6.68752 5.67375 5.65216 6.67199C4.82834 7.46613 4.76896 7.55519 4.79865 7.92257C4.81349 8.11554 4.85802 8.24542 5.04357 8.62394C5.53713 9.62218 6.26447 10.5759 7.40002 11.7077C8.36857 12.6763 9.33342 13.3999 10.3242 13.912C10.7918 14.1532 10.8512 14.1755 11.059 14.1755C11.2149 14.1755 11.3336 14.1495 11.4412 14.0976C11.5303 14.0493 11.9533 13.6671 12.4506 13.1773C13.1483 12.487 13.3338 12.3275 13.4563 12.2903C13.8533 12.1753 13.9127 12.2198 15.3526 13.6671C16.6328 14.9511 16.7367 15.0773 16.7367 15.363C16.7367 15.6228 16.6143 15.7898 15.8201 16.5987C14.974 17.4597 14.8738 17.5562 14.6141 17.686C13.935 18.0312 12.8069 17.931 11.4115 17.4003C9.09591 16.5171 6.60588 14.7544 4.84318 12.7542C3.67052 11.4183 2.82443 10.1788 2.15275 8.8132C1.11369 6.69796 0.857634 5.12082 1.40314 4.21164C1.51447 4.02609 3.13244 2.38956 3.28459 2.31164C3.52209 2.18175 3.7299 2.18175 3.97111 2.30421Z" fill="white"/>
                                        <path d="M10.205 3.45073C10.0417 3.49155 9.84503 3.70308 9.81163 3.87749C9.74854 4.22261 9.96378 4.4898 10.3757 4.56401C12.1532 4.89058 13.7192 6.2896 14.2796 8.0523C14.339 8.24526 14.4021 8.47905 14.4169 8.56812C14.4837 8.96519 14.6767 9.173 14.981 9.17671C15.3335 9.18042 15.5487 8.9689 15.5487 8.62007C15.5487 8.37515 15.3706 7.68862 15.1962 7.25444C14.4577 5.42866 12.836 4.00737 10.9583 3.54722C10.4833 3.43218 10.3608 3.41362 10.205 3.45073Z" fill="white"/>
                                        </g>
                                        <defs>
                                            <clipPath id="clip0_1347_1077">
                                                <rect width="19" height="19" fill="white"/>
                                            </clipPath>
                                        </defs>
                                    </svg>