<svg width="110" height="110" viewBox="0 0 110 110" fill="none" xmlns="http://www.w3.org/2000/svg">
                                <circle cx="55" cy="55" r="55" fill="#30A9E0"/>
                                <g clip-path="url(#clip0_45_477)">
                                <path d="M52.6474 57.5417C52.3245 57.5417 52.0147 57.6702 51.7863 57.8989C51.558 58.1276 51.4297 58.4378 51.4297 58.7613C51.4297 59.0847 51.558 59.3949 51.7863 59.6236C52.0147 59.8523 52.3245 59.9808 52.6474 59.9808H61.0661C61.3891 59.9808 61.6988 59.8523 61.9272 59.6236C62.1556 59.3949 62.2838 59.0847 62.2838 58.7613C62.2838 58.4378 62.1556 58.1276 61.9272 57.8989C61.6988 57.6702 61.3891 57.5417 61.0661 57.5417H52.6474Z" fill="white"/>
                                <path d="M64.668 54.5193C64.668 54.1958 64.5397 53.8856 64.3113 53.6569C64.0829 53.4282 63.7732 53.2997 63.4502 53.2997H50.3818C50.0588 53.2997 49.7491 53.4282 49.5207 53.6569C49.2924 53.8856 49.1641 54.1958 49.1641 54.5193C49.1641 54.8427 49.2924 55.1529 49.5207 55.3816C49.7491 55.6103 50.0588 55.7388 50.3818 55.7388H63.4584C63.7799 55.7367 64.0876 55.6072 64.3142 55.3788C64.5408 55.1503 64.668 54.8413 64.668 54.5193Z" fill="white"/>
                                <path d="M49.5802 50.1452C49.5882 50.4633 49.7199 50.7657 49.9475 50.9879C50.175 51.21 50.4802 51.3343 50.798 51.3342H62.8699C63.1633 51.3342 63.4468 51.2281 63.6683 51.0354C63.8898 50.8427 64.0343 50.5764 64.0754 50.2854C64.8384 46.2597 66.5409 42.4717 69.0438 39.2302C71.3454 36.2952 71.6092 31.8276 69.7116 27.8478C67.408 23.0123 62.608 20.0752 56.8786 19.9959C51.827 19.9187 47.7982 22.248 45.5129 26.5408C43.1688 30.9536 43.254 36.7322 45.7159 40.2831C49.4016 45.5983 49.5701 50.0923 49.5802 50.1452ZM47.6663 27.6893C48.7258 25.6933 51.3196 22.3639 56.842 22.4371C61.6257 22.5041 65.6159 24.9209 67.5115 28.9007C69.0134 32.0471 68.8612 35.5106 67.1259 37.7221C64.5766 41.0186 62.7796 44.8344 61.8612 48.9012H51.8959C51.6199 47.0394 50.7127 43.21 47.7191 38.8989C45.7809 36.1021 45.7585 31.2849 47.6663 27.6933V27.6893Z" fill="white"/>
                                <path d="M54.4494 39.9945C54.6803 40.2174 54.9897 40.3402 55.3105 40.336C55.6312 40.3318 55.9373 40.201 56.1624 39.9721L64.3152 31.7016C64.4284 31.5878 64.5181 31.4527 64.5791 31.3041C64.6401 31.1555 64.6711 30.9963 64.6705 30.8356C64.6698 30.675 64.6375 30.5161 64.5753 30.3679C64.5132 30.2198 64.4224 30.0855 64.3082 29.9726C64.1941 29.8598 64.0587 29.7706 63.9101 29.7103C63.7614 29.6499 63.6023 29.6196 63.4418 29.6211C63.2814 29.6225 63.1229 29.6557 62.9753 29.7186C62.8277 29.7816 62.694 29.8732 62.5819 29.9881L55.2754 37.4009L51.5349 33.785C51.3027 33.5602 50.9907 33.437 50.6678 33.4425C50.3448 33.448 50.0373 33.5818 49.8128 33.8144C49.5884 34.047 49.4654 34.3594 49.4709 34.6829C49.4764 35.0063 49.61 35.3143 49.8423 35.5391L54.4494 39.9945Z" fill="white"/>
                                <path d="M84.6809 59.682C83.8435 58.8059 82.7041 58.2825 81.4948 58.2183C80.2855 58.1541 79.0973 58.554 78.1721 59.3365L63.7621 71.5604V71.3287C63.7621 69.7115 63.1206 68.1605 61.9788 67.017C60.8369 65.8734 59.2882 65.231 57.6734 65.231H40.828C40.5941 65.2306 40.3651 65.2976 40.1683 65.4241L23.5441 76.1358C23.2803 76.3141 23.0968 76.5888 23.0327 76.901C22.9687 77.2132 23.0292 77.5381 23.2014 77.8062C23.3735 78.0743 23.6437 78.2642 23.9539 78.3353C24.2641 78.4064 24.5898 78.353 24.8613 78.1866L41.1851 67.6701H57.6876C58.6565 67.6701 59.5857 68.0555 60.2708 68.7417C60.9559 69.4278 61.3408 70.3584 61.3408 71.3287V72.971H46.9654C46.6424 72.971 46.3327 73.0995 46.1043 73.3282C45.8759 73.5569 45.7476 73.8671 45.7476 74.1906C45.7476 74.514 45.8759 74.8242 46.1043 75.0529C46.3327 75.2816 46.6424 75.4101 46.9654 75.4101H62.5586C62.8462 75.4098 63.1245 75.3076 63.344 75.1215L79.7592 61.1983C80.2221 60.829 80.8086 60.6512 81.3982 60.7014C81.9879 60.7516 82.536 61.0259 82.93 61.4681C83.3241 61.9103 83.5341 62.4868 83.517 63.0792C83.4999 63.6717 83.2569 64.235 82.8381 64.6537L63.6647 82.6136H43.6572C43.4528 82.6138 43.2518 82.6655 43.0726 82.764L32.2185 88.7012C31.9348 88.8561 31.7242 89.1176 31.6331 89.4281C31.5419 89.7386 31.5776 90.0726 31.7324 90.3567C31.8872 90.6408 32.1483 90.8517 32.4583 90.943C32.7683 91.0343 33.1018 90.9985 33.3855 90.8435L43.9677 85.0527H64.1457C64.4548 85.0526 64.7522 84.9349 64.9778 84.7234L84.5024 66.4302C84.9612 66.0007 85.3303 65.4843 85.5886 64.9109C85.8468 64.3376 85.9889 63.7186 86.0066 63.0899C86.0243 62.4612 85.9174 61.8352 85.692 61.2481C85.4665 60.661 85.127 60.1246 84.6931 59.6698L84.6809 59.682Z" fill="white"/>
                                </g>
                                <defs>
                                <clipPath id="clip0_45_477">
                                <rect width="63" height="71" fill="white" transform="translate(23 20)"/>
                                </clipPath>
                                </defs>
                            </svg>