<svg width="37" height="34" viewBox="0 0 37 34" fill="none" xmlns="http://www.w3.org/2000/svg">
                                        <path d="M17.3636 0.668556C15.3296 1.52539 14.8251 4.0959 16.3866 5.6334L16.763 6.00977L15.706 8.84453C15.0573 10.5742 14.5448 11.8314 14.3767 12.0717C13.5118 13.3529 11.9663 14.0016 10.4769 13.6893C9.61202 13.5131 9.15557 13.2008 7.4419 11.6473C6.54503 10.8305 5.81632 10.1258 5.82433 10.0697C5.83233 10.0137 5.8964 9.81348 5.97647 9.61328C6.17667 9.10078 6.17667 8.0918 5.97647 7.57129C5.64815 6.69844 5.03155 6.08184 4.18272 5.76953C3.52608 5.52129 2.46905 5.56133 1.82843 5.86563C-0.0373937 6.73848 -0.477823 9.26895 0.979598 10.7264C1.35597 11.1107 2.07667 11.4951 2.57315 11.5752C2.80538 11.6152 2.89347 11.6713 2.9255 11.7994C2.94952 11.8955 3.57413 15.0105 4.31886 18.7262C5.56808 24.9963 5.68819 25.5168 5.96046 26.0773C6.521 27.2064 7.55401 28.0953 8.74718 28.4717L9.37979 28.6719H18.5007H27.6216L28.2542 28.4717C29.4474 28.0953 30.4804 27.2064 31.0409 26.0773C31.3132 25.5168 31.4333 24.9963 32.6825 18.7262C33.4273 15.0105 34.0519 11.8955 34.0759 11.7994C34.1079 11.6713 34.196 11.6152 34.4282 11.5752C34.9247 11.4951 35.6454 11.1107 36.0218 10.7264C37.4792 9.25293 37.0388 6.73848 35.173 5.86563C34.5323 5.56133 33.4753 5.52129 32.8187 5.76953C31.9698 6.08184 31.3532 6.69844 31.0249 7.57129C30.8247 8.0918 30.8247 9.10078 31.0249 9.61328C31.105 9.81348 31.1691 10.0137 31.1771 10.0697C31.1851 10.1258 30.4564 10.8305 29.5595 11.6473C27.8458 13.2008 27.3894 13.5131 26.5245 13.6893C25.0431 13.9936 23.4816 13.3529 22.6247 12.0717C22.4566 11.8314 21.9441 10.5742 21.2954 8.84453L20.2304 6.00977L20.6148 5.62539C21.8159 4.43223 21.8319 2.52637 20.6468 1.34121C20.0622 0.756641 19.5097 0.532423 18.5808 0.500391C17.9321 0.484375 17.756 0.5084 17.3636 0.668556ZM19.0933 10.5582C19.3976 11.383 19.7659 12.3199 19.9101 12.6402C21.2794 15.6512 24.7228 17.1326 27.8778 16.0596C28.8388 15.7313 29.5915 15.2588 30.4483 14.426C30.6566 14.2338 30.8407 14.0816 30.8648 14.1057C30.9048 14.1457 28.8708 24.3477 28.7427 24.724C28.6146 25.1244 28.078 25.6689 27.6136 25.8771L27.1892 26.0693H18.4607H9.73214L9.34776 25.8771C8.91534 25.6609 8.37882 25.0924 8.2587 24.724C8.13058 24.3477 6.09659 14.1457 6.13663 14.1057C6.16065 14.0816 6.34483 14.2338 6.55304 14.426C7.40987 15.2588 8.16261 15.7313 9.12354 16.0596C12.2786 17.1326 15.722 15.6512 17.0913 12.6402C17.2355 12.3199 17.6038 11.383 17.9081 10.5582C18.2124 9.7334 18.4767 9.05273 18.5007 9.05273C18.5247 9.05273 18.789 9.7334 19.0933 10.5582Z" fill="#30A9E0"/>
                                        <path d="M7.54531 31.3945C7.16094 31.6348 6.96875 31.9951 6.96875 32.5156C6.96875 33.0361 7.16094 33.3965 7.54531 33.6367C7.80156 33.7969 7.96973 33.7969 18.5 33.7969C29.0303 33.7969 29.1984 33.7969 29.4547 33.6367C29.8391 33.3965 30.0312 33.0361 30.0312 32.5156C30.0312 31.9951 29.8391 31.6348 29.4547 31.3945C29.1984 31.2344 29.0303 31.2344 18.5 31.2344C7.96973 31.2344 7.80156 31.2344 7.54531 31.3945Z" fill="#30A9E0"/>
                                    </svg>