<svg width="80" height="80" viewBox="0 0 80 80" fill="none" xmlns="http://www.w3.org/2000/svg">
                                <path d="M27.1562 0.218697C26.7812 0.499947 26.5625 1.14057 26.5625 1.9687V2.6562H21.6406H16.7031L16.3281 3.06245C15.9531 3.4687 15.9375 3.56245 15.9375 5.7187V7.9687H11.0156H6.07812L5.70312 8.35932L5.3125 8.73432V38.0156V67.2968L5.65625 67.6093C6.17188 68.0624 6.54688 68.1562 7.14062 67.9531C8.1875 67.6093 8.125 69.6249 8.125 38.7656V10.7968L13.0469 10.7499C19.1719 10.6874 18.6562 10.9687 18.7188 7.73432L18.7656 5.48432L23.7031 5.43745L28.625 5.39057L29 4.95307C29.2969 4.60932 29.375 4.3437 29.375 3.6562V2.81245H31.9375H34.5L34.5625 3.68745C34.625 4.35932 34.7344 4.64057 35.0625 4.9687L35.4688 5.39057L40.3906 5.43745L45.3125 5.48432V6.7187V7.9687H33.7188C24.8438 7.98432 22.0469 8.0312 21.8594 8.17182C21.1719 8.70307 21.1094 9.82807 21.7344 10.4062C22.0469 10.6874 22.6562 10.7031 39 10.7499L55.9375 10.7812V13.6562C55.9375 16.4687 55.9375 16.5156 56.3281 16.9374C56.5938 17.2187 56.8594 17.3437 57.25 17.3437C58.6719 17.3437 58.75 17.0937 58.75 12.6562C58.75 8.99995 58.7031 8.5937 58.1406 8.17182C57.9531 8.0312 56.6094 7.98432 53.0156 7.9687H48.1406L48.0938 5.7187C48.0469 3.57807 48.0312 3.43745 47.6719 3.06245L47.2969 2.6562H42.3125H37.3438V1.67182C37.3438 0.843697 37.2812 0.624947 36.9844 0.343697C36.625 -5.34058e-05 36.5312 -5.34058e-05 32.0156 -5.34058e-05C28.5 0.0155716 27.3594 0.0624466 27.1562 0.218697Z" fill="#30A9E0"/>
                                <path d="M39.0156 39.0312L0 78.0469V78.6875C0 79.5312 0.484375 80 1.34375 80C1.95312 80 2.26562 79.6875 40.9844 40.9688L80 1.95312V1.3125C80 0.46875 79.5156 0 78.6562 0C78.0469 0 77.7344 0.3125 39.0156 39.0312Z" fill="#30A9E0"/>
                                <path d="M11.0312 13.6875L10.625 14.1094V37.9844V61.8594L10.9844 62.2657C11.2031 62.5313 11.5 62.6875 11.7969 62.6875C13.0625 62.7188 13.4375 62.1407 13.4375 60.0782V58.75H14.2812C15.4531 58.75 16.0156 58.2969 16.0156 57.3438C16.0156 56.3907 15.4531 55.9375 14.2812 55.9375H13.4375V52.0313V48.125H16.0156H18.5938V50.875C18.5938 53.6407 18.6719 54.0782 19.2031 54.4844C19.3438 54.5938 19.7031 54.6719 20 54.6719C20.2969 54.6719 20.6562 54.5938 20.7969 54.4844C21.3281 54.0782 21.4062 53.6407 21.4062 50.875V48.125H24.0625C27.1094 48.125 27.6719 48 27.9375 47.2032C28.0312 46.9375 28.2031 46.7188 28.3281 46.7188C28.4531 46.7188 28.7344 46.5313 28.9688 46.3125L29.375 45.8907V41.625V37.3438H31.9375H34.5L34.7969 37.9219C35.1719 38.6875 35.8594 38.9219 36.6562 38.5469C37.0312 38.3594 37.2188 38.1407 37.2812 37.8282C37.3594 37.4844 37.4844 37.3594 37.8281 37.2813C38.2656 37.2032 38.75 36.5313 38.75 36.0157C38.75 35.5313 38.2812 34.875 37.8125 34.7188L37.3438 34.5469V30.6407V26.7188H40H42.6562V28.3125C42.6719 30.0625 42.7656 30.3438 43.5156 30.625C43.8281 30.75 44.1094 30.7344 44.4844 30.6094C45.2188 30.375 45.4688 29.7344 45.4688 28.0469V26.7188H47.0156C48.4688 26.7188 48.5781 26.7032 48.9688 26.3125C49.5312 25.75 49.5312 24.8907 48.9688 24.3594C48.6094 24.0313 48.4062 23.9844 47.0156 23.9375L45.4688 23.875V19.9844V16.0938H48.0469H50.625V18.9688C50.625 21.75 50.6406 21.875 50.9844 22.2657C51.25 22.5782 51.4844 22.6875 51.9062 22.6875C53.3438 22.6875 53.4688 22.25 53.4062 17.6094L53.3594 14.0313L52.9219 13.6563L52.4844 13.2813H31.9688H11.4531L11.0312 13.6875ZM18.5938 20V23.9063H16.0156H13.4375V20V16.0938H16.0156H18.5938V20ZM26.5625 20V23.9063H23.9844H21.4062V20V16.0938H23.9844H26.5625V20ZM34.5312 20V23.9063H31.9531H29.375V20V16.0938H31.9531H34.5312V20ZM42.6562 20V23.9063H40H37.3438V20V16.0938H40H42.6562V20ZM18.5938 30.625V34.5313H16.0156H13.4375V30.625V26.7188H16.0156H18.5938V30.625ZM26.5625 30.625V34.5313H23.9844H21.4062V30.625V26.7188H23.9844H26.5625V30.625ZM34.5312 30.625V34.5313H31.9531H29.375V30.625V26.7188H31.9531H34.5312V30.625ZM18.5938 41.3282V45.3125H16.0156H13.4375V41.3282V37.3438H16.0156H18.5938V41.3282ZM26.5625 41.3282V45.3125H23.9844H21.4062V41.3282V37.3438H23.9844H26.5625V41.3282Z" fill="#30A9E0"/>
                                <path d="M62.0312 26.7656C61.4062 27.0781 61.25 27.5938 61.25 29.3438C61.25 31.4688 61.5469 32.0156 62.6719 32.0312C63.0781 32.0312 63.3594 31.9219 63.6562 31.625C64 31.2656 64.0625 31.0781 64.0625 30.2969V29.375H65.2969H66.5312L66.5937 30.3125C66.6406 31.0156 66.75 31.3438 67.0312 31.6406L67.3906 32.0312H72.2969H77.1875V40.8906V49.7656L67.0781 39.6562C61.2656 33.8438 56.7656 29.4688 56.5 29.375C55.4844 29 54.3906 29.9219 54.6406 30.9531C54.6875 31.1719 59.4687 36.0781 66.3906 43C77.5312 54.1719 78.0781 54.6875 78.6094 54.6875C78.9531 54.6875 79.3437 54.5625 79.5937 54.3594L80 54.0469V42.0625C79.9844 32.4844 79.9531 30.0312 79.7812 29.8125C79.3906 29.2812 78.7812 29.2188 74.0469 29.2188H69.375V28.3125C69.375 27.5312 69.3125 27.3438 68.9687 27.0156C68.5781 26.6406 68.5 26.6406 65.5 26.5938C63.2187 26.5625 62.3281 26.6094 62.0312 26.7656Z" fill="#30A9E0"/>
                                <path d="M32.3906 53.6562L31.9531 54.0312V60V65.9688L32.3906 66.3438L32.8281 66.7188H37.2812C40.1719 66.7188 41.8438 66.6562 42.0625 66.5469C42.75 66.1719 42.8125 65.6562 42.8125 60C42.8125 54.3438 42.75 53.8281 42.0625 53.4531C41.8438 53.3438 40.1719 53.2812 37.2812 53.2812H32.8281L32.3906 53.6562ZM40 60V63.9062H37.3438H34.6875V60V56.0938H37.3438H40V60Z" fill="#30A9E0"/>
                                <path d="M45.7031 53.6718L45.3125 54.0468V62.6562V71.2655L45.7031 71.6405C46.2344 72.1874 47.1563 72.1718 47.6719 71.6249L48.0469 71.2187L48.0938 63.6562L48.1406 56.0937H50.7031H53.2813V58.6718V61.2499H52.4844C51.2188 61.2499 50.6406 61.703 50.625 62.6718C50.625 63.078 50.7344 63.3593 51.0313 63.6562C51.3906 63.9999 51.5781 64.0624 52.3594 64.0624H53.2813V67.6405V71.203L53.6719 71.6249C54.375 72.3905 55.7656 72.0468 56.0156 71.0468C56.0625 70.8593 56.0781 66.953 56.0625 62.3749L56.0156 54.0312L55.5781 53.6562L55.1406 53.2812H50.6094H46.0781L45.7031 53.6718Z" fill="#30A9E0"/>
                                <path d="M59.2031 53.4844C58.625 53.9219 58.5938 54.2344 58.5938 60C58.5938 65.7656 58.625 66.0781 59.2031 66.5156C59.3906 66.6562 60.6719 66.7031 64 66.7188H68.5469L68.9688 66.3125L69.375 65.8906V60V54.1094L68.9688 53.6875L68.5469 53.2812H64C60.6719 53.2969 59.3906 53.3438 59.2031 53.4844ZM66.5625 60V63.9062H63.9844H61.4062V60V56.0938H63.9844H66.5625V60Z" fill="#30A9E0"/>
                                <path d="M72.3907 53.6562L71.9532 54.0312L71.9064 65.6094L71.8751 77.1875H67.2501C62.1408 77.1875 61.7658 77.25 61.422 78.1094C61.172 78.6719 61.297 79.2656 61.7189 79.6875C62.0158 79.9844 62.2658 80 68.0314 80H74.047L74.3595 79.5938C74.6876 79.1719 74.6876 79.0938 74.6876 66.6094V54.0469L74.297 53.6719C73.797 53.1562 72.9845 53.1562 72.3907 53.6562Z" fill="#30A9E0"/>
                                <path d="M27.5313 57.375C26.5469 57.6406 26.5625 57.4531 26.5625 68.6562C26.5625 75.25 26.625 78.875 26.7188 79.1562C27.0469 80.0156 26.75 79.9844 36.0313 80H44.6406L44.9844 79.625C45.25 79.3437 45.3594 78.9844 45.4219 78.2969L45.5156 77.3437H50.7188H55.9375V78.2812C55.9375 79.4531 56.3594 80 57.25 80C58.4844 80 58.75 79.5312 58.75 77.3437C58.75 75.4375 58.5469 74.9375 57.6875 74.6875C57.2969 74.5625 54.9219 74.5312 50.2813 74.5625L43.4688 74.6094L43.0625 74.9844C42.7188 75.3125 42.6563 75.5 42.6563 76.2812V77.1875H36.0156H29.375V67.6719C29.375 58.4375 29.3594 58.1562 29.0625 57.7812C28.7031 57.3125 28.25 57.1875 27.5313 57.375Z" fill="#30A9E0"/>
                            </svg>