<svg width="48" height="32" viewBox="0 0 48 32" fill="none" xmlns="http://www.w3.org/2000/svg">
                                        <path d="M1.8813 0.560181C1.66646 0.657837 1.35396 0.892212 1.17818 1.06799C0.523882 1.76135 0.562944 0.931274 0.562944 13.6559C0.562944 26.3805 0.523882 25.5504 1.17818 26.2438C1.86177 26.9567 1.5981 26.9371 8.05318 26.9371H13.8344L13.6879 27.4547C13.4633 28.1871 13.102 28.8121 12.5063 29.4762L11.9692 30.0621H11.1196C10.2016 30.0621 10.0258 30.1403 9.90865 30.6285C9.84029 30.9313 10.0063 31.4098 10.2309 31.527C10.3481 31.5856 12.3501 31.6246 15.4458 31.6246C20.3579 31.6246 20.4946 31.6149 20.6801 31.4293C20.9438 31.1656 20.9438 30.5211 20.6801 30.2574C20.4946 30.0719 20.3579 30.0621 17.3598 30.0621H14.2251L14.5376 29.6129C14.9379 29.0367 15.2895 28.1383 15.3872 27.4938L15.4555 26.986L18.0044 26.9567C20.436 26.9371 20.5629 26.9274 20.7387 26.7321C20.9829 26.4684 20.9829 25.8434 20.7387 25.5797C20.5532 25.3746 20.5434 25.3746 11.7544 25.3746C3.57076 25.3746 2.93599 25.3649 2.61373 25.1989C2.41841 25.1012 2.2524 24.9352 2.21334 24.7887C2.17427 24.652 2.14498 23.6754 2.13521 22.611L2.12544 20.6871H11.3344C20.5434 20.6871 20.5532 20.6871 20.7387 20.4821C20.9829 20.2184 20.9829 19.5934 20.7387 19.3297C20.5532 19.1246 20.5434 19.1246 11.3344 19.1246H2.12544L2.14498 10.775L2.17427 2.43518L2.39888 2.21057L2.62349 1.98596H17.7407C32.3696 1.98596 32.8774 1.99573 33.0727 2.17151C33.1801 2.26917 33.2973 2.53284 33.3364 2.77698C33.4145 3.31409 33.6489 3.52893 34.1567 3.52893C34.7426 3.52893 34.9379 3.30432 34.9379 2.63049C34.9379 1.9762 34.7036 1.41956 34.2446 0.989868C33.5415 0.325806 34.8012 0.374634 17.7309 0.374634C2.8774 0.374634 2.2524 0.384399 1.8813 0.560181Z" fill="#30A9E0"/>
                                        <path d="M24.3227 5.06245C23.7563 5.17964 23.4047 5.38472 23.0044 5.82417C22.3501 6.54683 22.3891 5.82417 22.3891 18.3437C22.3891 30.873 22.3501 30.1406 23.0141 30.873C23.7075 31.6445 23.4926 31.625 29.352 31.625C34.4204 31.625 34.5473 31.625 34.7426 31.4296C34.8696 31.3027 34.9379 31.1074 34.9379 30.8437C34.9379 30.58 34.8696 30.3847 34.7426 30.2578C34.5571 30.0722 34.4204 30.0625 29.6938 30.0625C25.2602 30.0625 24.8012 30.0429 24.4887 29.8867C24.2934 29.789 24.1274 29.623 24.0883 29.4765C24.0493 29.3398 24.02 28.3632 24.0102 27.2988L24.0004 25.375H29.2739C34.4204 25.375 34.5473 25.375 34.7426 25.1796C34.8696 25.0527 34.9379 24.8574 34.9379 24.5937C34.9379 24.33 34.8696 24.1347 34.7426 24.0078C34.5473 23.8125 34.4204 23.8125 29.2739 23.8125H24.0004V16.7812V9.74995H31.8129H39.6254V11.1171C39.6254 12.3574 39.645 12.5039 39.8208 12.6796C40.0747 12.9335 40.6899 12.9433 41.0024 12.6894L41.2368 12.5039V9.73042C41.2368 7.64058 41.2075 6.87886 41.1001 6.58589C40.9243 6.06831 40.3481 5.46284 39.8208 5.2187C39.3911 5.01363 39.2641 5.01363 32.0571 4.99409C28.0336 4.99409 24.5473 5.02339 24.3227 5.06245ZM39.3325 6.87886C39.4692 7.01558 39.5571 7.25972 39.5961 7.63081L39.6547 8.18745H31.8129H23.9711L24.0297 7.64058C24.0883 7.06441 24.2739 6.76167 24.6254 6.69331C24.7329 6.66402 28.0532 6.65425 31.979 6.66402C39.0883 6.67378 39.1372 6.67378 39.3325 6.87886Z" fill="#30A9E0"/>
                                        <path d="M4.07861 6.65431C3.75635 6.81056 3.6001 7.29884 3.6001 8.13868C3.59033 8.96876 3.72705 9.51563 3.98096 9.65235C4.29346 9.81837 4.84033 9.76954 5.05518 9.5547C5.23096 9.37892 5.25049 9.23243 5.25049 8.2461C5.25049 7.63087 5.22119 7.0547 5.1919 6.96681C5.12354 6.80079 4.66455 6.52735 4.44971 6.52735C4.38135 6.52735 4.21533 6.58595 4.07861 6.65431Z" fill="#30A9E0"/>
                                        <path d="M4.05859 11.3613C3.6582 11.5859 3.58984 12.0156 3.58984 14.4375C3.58984 16.7227 3.66797 17.2988 3.98047 17.4649C4.29297 17.6309 4.83984 17.582 5.05469 17.3672C5.24023 17.1817 5.25 17.0449 5.25 14.4961C5.25 13.0215 5.2207 11.7422 5.19141 11.6543C5.12305 11.4883 4.6543 11.2149 4.44922 11.2149C4.38086 11.2246 4.20508 11.2832 4.05859 11.3613Z" fill="#30A9E0"/>
                                        <path d="M25.9339 11.3711C25.5629 11.5664 25.4261 12.123 25.4945 13.207C25.5531 14.2227 25.6996 14.4375 26.3539 14.4375C27.0179 14.4375 27.1254 14.2324 27.1254 12.9336C27.1254 12.3184 27.0961 11.7422 27.0668 11.6543C26.9984 11.4883 26.5297 11.2148 26.3246 11.2148C26.2562 11.2246 26.0804 11.2832 25.9339 11.3711Z" fill="#30A9E0"/>
                                        <path d="M37.8186 14.623C37.6037 14.7207 37.2912 14.9551 37.1154 15.1309C36.4709 15.8047 36.5002 15.4824 36.5002 23.0508C36.5002 30.7168 36.4709 30.3164 37.1936 31.0098C37.8381 31.625 37.8674 31.625 41.9885 31.625C46.1584 31.625 46.1682 31.6152 46.8225 30.9316C47.467 30.2578 47.4377 30.5703 47.4377 23.0312C47.4377 15.4922 47.467 15.8047 46.8225 15.1309C46.1682 14.4473 46.1584 14.4375 41.969 14.4375C38.5119 14.4375 38.1799 14.457 37.8186 14.623ZM45.592 16.2832C45.719 16.4395 45.7775 16.6641 45.7775 17.0352V17.5625H41.969H38.1604V16.9961C38.1604 16.3906 38.2873 16.1758 38.6975 16.0684C38.8049 16.0391 40.3576 16.0293 42.1447 16.0293L45.4065 16.0488L45.592 16.2832ZM45.7775 22.9824V26.8398H41.969H38.1604V22.9824V19.125H41.969H45.7775V22.9824ZM45.7775 28.998C45.7775 29.2715 45.7385 29.5742 45.6799 29.6719C45.4943 30.0137 45.0647 30.0625 41.9299 30.0625C38.2092 30.0625 38.2287 30.0625 38.1799 29.1055L38.1506 28.5H41.969H45.7775V28.998Z" fill="#30A9E0"/>
                                        <path d="M25.9922 16.0391C25.5137 16.2442 25.4648 16.5469 25.4648 19.0664C25.4648 21.4102 25.543 21.9863 25.8555 22.1524C26.168 22.3184 26.7148 22.2695 26.9297 22.0547C27.1152 21.8692 27.125 21.7324 27.125 19.125C27.125 16.5176 27.1152 16.3809 26.9297 16.1953C26.8223 16.0879 26.6953 16 26.6465 16C26.5977 16 26.5 15.9805 26.4219 15.9512C26.3535 15.9317 26.1582 15.9707 25.9922 16.0391Z" fill="#30A9E0"/>
                                        <path d="M16.2949 22.5039C16.1777 22.6504 16.0898 22.8848 16.0898 23.0312C16.0898 23.1777 16.1777 23.4121 16.2949 23.5586C16.4902 23.8125 16.5098 23.8125 17.7109 23.8125C19.127 23.8125 19.3125 23.7246 19.3125 23.0312C19.3125 22.3379 19.127 22.25 17.7109 22.25C16.5098 22.25 16.4902 22.25 16.2949 22.5039Z" fill="#30A9E0"/>
                                        <path d="M30.7871 26.9375C30.3965 27.0645 30.25 27.2891 30.25 27.7383C30.25 28.3926 30.4551 28.5 31.7734 28.5C32.3887 28.5 32.9844 28.4609 33.082 28.4023C33.3066 28.2852 33.4629 27.8262 33.4043 27.4941C33.3066 27.0156 33.0625 26.8984 32.0273 26.8691C31.5098 26.8594 30.9531 26.8887 30.7871 26.9375Z" fill="#30A9E0"/>
                                    </svg>