<svg width="46" height="46" viewBox="0 0 46 46" fill="none" xmlns="http://www.w3.org/2000/svg">
<path d="M19.7283 0.539436C17.3357 0.900764 15.2752 1.52576 13.1854 2.53162C11.408 3.38123 10.0311 4.27967 8.20488 5.76405L7.90215 5.99842L7.88262 5.74451C7.85332 5.34412 7.50176 5.03162 7.08184 5.03162C6.4666 5.03162 6.33965 5.27576 5.98809 7.06287C5.64629 8.79139 5.65606 9.06483 6.12481 9.31873C6.36895 9.45545 6.5252 9.44569 8.0584 9.14295C9.51348 8.85975 9.74785 8.78162 9.91387 8.56678C10.3045 8.0785 10.0994 7.49256 9.44512 7.22889L9.19121 7.12147L9.76738 6.65272C12.1893 4.72889 15.0506 3.31287 17.9217 2.59998C19.7674 2.15076 21.0467 1.99451 22.9998 1.99451C24.9529 1.99451 26.2322 2.15076 28.0779 2.59998C32.2869 3.63514 36.2518 6.10584 39.035 9.42616C41.0564 11.8383 42.5408 14.6703 43.3123 17.5707C43.8689 19.6996 43.9471 20.2953 43.9471 23.0004C43.9471 25.7055 43.8689 26.3012 43.3123 28.4301C42.8436 30.2074 42.16 31.8578 41.2127 33.4887C40.617 34.5238 40.5291 34.9633 40.8709 35.3051C41.0857 35.5199 41.6326 35.5687 41.9451 35.4027C42.3846 35.1683 43.8982 32.1117 44.5428 30.1586C45.3436 27.7269 45.6561 25.7055 45.6561 22.9027C45.6561 16.9359 43.4686 11.5258 39.3084 7.24842C35.7146 3.53748 31.3396 1.29139 26.2518 0.539436C24.4646 0.28553 21.4471 0.275764 19.7283 0.539436Z" fill="#30A9E0"/>
<path d="M22.4137 4.44568C22.2672 4.59217 22.2184 4.76795 22.2184 5.21717V5.78357L21.3688 5.85193C18.9176 6.03748 16.1344 6.96521 13.9371 8.3324C9.37658 11.1644 6.28087 16.1351 5.85119 21.3109L5.78283 22.1215H5.4215C4.94298 22.1215 4.46447 22.2972 4.34728 22.5121C4.18126 22.8246 4.23009 23.3715 4.44494 23.5863C4.59142 23.7328 4.7672 23.7816 5.21642 23.7816H5.78283L5.85119 24.6312C6.25158 29.807 9.35705 34.8168 13.9371 37.6683C16.0953 39.0062 18.8883 39.9535 21.3199 40.1488L22.1207 40.2172V40.5785C22.1207 41.057 22.2965 41.5355 22.5113 41.6527C22.8238 41.8187 23.3707 41.7699 23.5856 41.5551C23.732 41.4086 23.7809 41.2328 23.7809 40.7836V40.2172L24.6305 40.1488C27.0817 39.9633 29.8649 39.0355 32.0621 37.6683C36.6422 34.8265 39.7574 29.807 40.1481 24.6312L40.2164 23.7816H40.7828C41.5055 23.7816 41.7496 23.5765 41.7496 23.0004C41.7496 22.4242 41.5055 22.2191 40.7828 22.2191H40.2164L40.1481 21.3695C39.9625 18.9183 39.0348 16.1351 37.6676 13.9379C34.816 9.35779 29.8063 6.25232 24.6305 5.85193L23.7809 5.78357V5.21717C23.7809 4.49451 23.5758 4.25037 22.9996 4.25037C22.736 4.25037 22.5406 4.31873 22.4137 4.44568ZM22.2184 8.01014C22.2184 8.42029 22.2672 8.59607 22.4137 8.74256C22.6285 8.9574 23.1754 9.00623 23.4879 8.84021C23.6832 8.73279 23.8785 8.19568 23.8785 7.7367C23.8785 7.50232 23.9176 7.47303 24.2008 7.47303C25.109 7.47303 27.4625 8.0199 28.6637 8.50818C32.7945 10.1879 35.9098 13.3226 37.5406 17.4535C38.0387 18.723 38.527 20.9496 38.527 21.9359C38.527 22.2191 38.5172 22.2191 37.9899 22.2191C37.316 22.2191 37.0621 22.434 37.0621 23.0004C37.0621 23.5765 37.316 23.7816 37.9996 23.7816H38.5563L38.4879 24.5336C38.4 25.4515 38.1266 26.7699 37.7946 27.8344C37.4332 28.9574 36.3883 30.9984 35.6266 32.0824C34.0055 34.348 31.5641 36.2719 28.8688 37.4047C27.5211 37.9711 25.1481 38.5277 24.0641 38.5277C23.7809 38.5277 23.7809 38.518 23.7809 37.9906C23.7809 37.5805 23.732 37.4047 23.5856 37.2582C23.3707 37.0433 22.8238 36.9945 22.5113 37.1605C22.2965 37.2777 22.1207 37.7465 22.1207 38.1957C22.1207 38.5863 22.0914 38.5863 20.8805 38.4203C14.7086 37.5902 9.50353 32.9418 7.93126 26.8578C7.67736 25.891 7.47228 24.6215 7.47228 24.0648C7.47228 23.7816 7.48205 23.7816 8.00939 23.7816C8.41955 23.7816 8.59533 23.7328 8.74181 23.5863C8.95666 23.3715 9.00548 22.8246 8.83947 22.5121C8.72228 22.2972 8.25353 22.1215 7.80431 22.1215C7.41369 22.1215 7.41369 22.0922 7.5797 20.8812C8.40001 14.7972 12.941 9.63123 18.8981 7.9906C19.9039 7.71717 21.1442 7.50232 21.8082 7.48279L22.2184 7.47303V8.01014Z" fill="#30A9E0"/>
<path d="M20.8997 13.0098C18.9075 13.4297 17.345 14.2988 15.8215 15.8223C14.259 17.3848 13.4094 18.9473 12.9895 21.0371C12.7356 22.2871 12.8235 24.6016 13.175 25.7734C13.7122 27.5605 14.425 28.7813 15.7141 30.1094C16.9739 31.418 18.3899 32.2676 20.2356 32.834C21.0461 33.0781 21.2122 33.0977 22.9993 33.0977C24.7864 33.0977 24.9524 33.0781 25.7629 32.834C27.677 32.248 29.0539 31.3984 30.3821 30.002C32.2668 28.0195 33.1555 25.7832 33.1555 23C33.1555 20.9883 32.7258 19.377 31.7297 17.707C31.0754 16.5938 29.4055 14.9238 28.2922 14.2695C27.345 13.7031 26.0754 13.2148 25.0305 13C24.0637 12.8047 21.8469 12.8047 20.8997 13.0098ZM24.9329 14.709C26.6711 15.0898 28.4192 16.1738 29.5911 17.5996C31.5832 20.0117 32.0813 23.5957 30.8118 26.3887C30.6457 26.75 30.4993 27.0625 30.47 27.082C30.4504 27.1016 30.1575 26.9258 29.8157 26.6914C27.7356 25.2266 25.6164 24.5625 22.9993 24.5625C20.3821 24.5625 18.2629 25.2266 16.1829 26.6914C15.8411 26.9258 15.5481 27.1016 15.5286 27.082C15.4993 27.0625 15.3528 26.75 15.1868 26.3887C14.4641 24.7871 14.2883 22.6973 14.7375 20.9199C15.7434 16.9844 19.4446 14.2598 23.4875 14.4844C23.7805 14.4941 24.4348 14.6016 24.9329 14.709ZM24.9036 26.3789C25.9094 26.5742 26.8567 26.9063 27.7258 27.375C28.4973 27.7949 29.4446 28.4492 29.4446 28.5566C29.4446 28.6738 28.4973 29.543 27.9114 29.9629C27.6379 30.168 27.0422 30.5 26.5832 30.7148C23.3899 32.209 19.7082 31.5938 17.0715 29.1133C16.7883 28.8496 16.5539 28.6055 16.5539 28.5566C16.5539 28.4492 17.5012 27.7949 18.2629 27.3848C20.3137 26.2813 22.5891 25.9395 24.9036 26.3789Z" fill="#30A9E0"/>
<path d="M21.6328 16.1836C21.2617 16.3301 20.9102 16.5742 20.5 16.9844C19.7383 17.7461 19.4844 18.3809 19.4844 19.4844C19.4844 20.5879 19.7383 21.2227 20.5 21.9844C21.2617 22.7461 21.8965 23 23 23C24.1035 23 24.7383 22.7461 25.5 21.9844C26.2617 21.2227 26.5156 20.5879 26.5156 19.4844C26.5156 18.3809 26.2617 17.7461 25.5 16.9844C24.7285 16.2129 24.1035 15.9687 22.9707 15.9785C22.4043 15.9785 22.0137 16.0371 21.6328 16.1836ZM23.8594 17.8145C24.5137 18.1465 24.8555 18.7227 24.8555 19.4844C24.8555 20.5684 24.084 21.3398 23 21.3398C21.916 21.3398 21.1445 20.5684 21.1445 19.4844C21.1445 18.4004 21.8965 17.6387 22.9805 17.6289C23.3027 17.6289 23.6348 17.6973 23.8594 17.8145Z" fill="#30A9E0"/>
<path d="M4.03516 10.5977C3.60547 10.8516 2.08203 13.9473 1.4668 15.8223C0.646484 18.3027 0.34375 20.2266 0.34375 22.9609C0.34375 26.7012 1.04687 29.7773 2.63867 33.0098C3.85937 35.4902 5.2168 37.3457 7.24805 39.3086C11.5254 43.4687 16.9355 45.6562 22.9219 45.6562C26.584 45.6562 29.6016 44.9922 32.7168 43.5176C34.5137 42.6582 35.9785 41.7207 37.7949 40.2363L38.0977 40.002L38.1172 40.2559C38.1465 40.6562 38.498 40.9687 38.918 40.9687C39.5332 40.9687 39.6602 40.7246 40.0117 38.9375C40.3535 37.209 40.3437 36.9355 39.875 36.6816C39.6309 36.5449 39.4746 36.5547 37.9414 36.8574C36.4863 37.1406 36.2519 37.2187 36.0859 37.4336C35.6855 37.9414 35.9883 38.7227 36.6035 38.7617C36.7402 38.7617 36.8281 38.8008 36.8086 38.8398C36.7793 38.8789 36.3984 39.1914 35.959 39.543C32.9805 41.8574 29.5723 43.3027 25.793 43.8496C24.5723 44.0254 21.7891 44.0547 20.6074 43.8984C17.7266 43.5273 15.4121 42.7949 13.0098 41.4863C7.35547 38.4102 3.48828 33.0781 2.28711 26.6719C2.02344 25.2949 1.92578 22.1406 2.0918 20.6465C2.41406 17.8437 3.36133 14.9824 4.77734 12.5215C5.38281 11.4766 5.4707 11.0371 5.12891 10.6953C4.91406 10.4805 4.32812 10.4316 4.03516 10.5977Z" fill="#30A9E0"/>
</svg>
