<svg width="50" height="50" viewBox="0 0 50 50" fill="none" xmlns="http://www.w3.org/2000/svg">
<path d="M22.168 0.888672C17.4609 1.45508 12.9785 3.4082 9.32617 6.47461C4.27734 10.7227 1.05469 17.1875 0.810547 23.5547L0.751953 25H1.58203H2.41211L2.4707 23.6523C2.62695 19.9219 3.96484 15.8789 6.11328 12.6465C9.53125 7.48047 14.9023 3.89648 20.8691 2.7832C23.6914 2.25586 27.1387 2.31445 29.873 2.92969C33.7988 3.80859 37.2363 5.61523 40.3223 8.41797C41.1328 9.16016 41.4258 9.31641 41.7871 9.22852C41.9238 9.18945 42.4219 8.78906 42.8906 8.32031L43.75 7.48047V10.3809V13.2812H40.8496H37.9395L38.7402 12.4707C39.9414 11.2695 39.9316 11.0449 38.6719 9.91211C35.5664 7.11914 31.9922 5.44922 27.8223 4.84375C27.2461 4.75586 26.377 4.6875 25.8887 4.6875H24.9902L25.0195 5.48828L25.0488 6.29883L25.6836 6.31836C29.7949 6.47461 33.6719 7.95898 36.9434 10.6348L37.5977 11.1719L36.377 12.4023C35.2051 13.584 35.1562 13.6523 35.1562 14.043C35.1562 14.3262 35.2148 14.5117 35.3516 14.6484C35.5371 14.834 35.6738 14.8438 40.2344 14.8438C44.7949 14.8438 44.9316 14.834 45.1172 14.6484C45.3027 14.4629 45.3125 14.3262 45.3125 9.76562C45.3125 5.20508 45.3027 5.06836 45.1172 4.88281C44.9805 4.74609 44.7949 4.6875 44.5117 4.6875C44.1211 4.6875 44.0527 4.73633 42.832 5.94727L41.5527 7.2168L40.918 6.66992C37.4707 3.69141 33.3008 1.74805 28.8086 1.02539C27.6172 0.830078 23.3496 0.742188 22.168 0.888672Z" fill="#30A9E0"/>
<path d="M22.4219 4.79341C22.0508 4.84224 21.7285 4.90084 21.709 4.9106C21.6699 4.94966 21.9336 6.43404 21.9922 6.49263C22.041 6.55123 23.4473 6.36568 23.5156 6.29732C23.5352 6.27779 23.5254 5.9067 23.4864 5.47701C23.4278 4.83248 23.3887 4.68599 23.252 4.69576C23.1641 4.70552 22.793 4.75435 22.4219 4.79341Z" fill="#30A9E0"/>
<path d="M19.1412 5.48775C18.7896 5.59517 18.4869 5.70259 18.4673 5.71236C18.4283 5.76119 18.858 7.06001 18.9556 7.16744C19.0338 7.25533 20.2935 6.96236 20.4498 6.82564C20.5084 6.76705 20.4791 6.45455 20.3716 6.00533C20.1763 5.15572 20.1763 5.15572 19.1412 5.48775Z" fill="#30A9E0"/>
<path d="M15.7716 6.8457C14.7071 7.39258 13.4669 8.16406 12.5489 8.87695C11.8653 9.4043 10.42 10.7129 10.3614 10.8594C10.3224 10.9668 10.8497 11.5332 11.2599 11.8359L11.5235 12.0312L12.2657 11.3379C13.5938 10.0977 15.6544 8.69141 17.0118 8.10547C17.3243 7.96875 17.5685 7.83203 17.5489 7.80273C17.0997 6.70898 16.9239 6.34766 16.8458 6.34766C16.797 6.35742 16.3087 6.58203 15.7716 6.8457Z" fill="#30A9E0"/>
<path d="M22.6655 11.8745C19.8823 12.3433 16.8354 14.0425 15.0288 16.1421C13.4077 18.0171 12.2749 20.3706 11.8745 22.7046C11.6694 23.8569 11.6694 26.1421 11.8745 27.2944C12.8218 32.7925 17.2944 37.2456 22.7534 38.1343C23.9351 38.3198 26.0542 38.3198 27.2261 38.1343C32.7437 37.2358 37.2358 32.7437 38.1343 27.2261C38.3198 26.064 38.3198 23.9351 38.1343 22.7729C37.2358 17.2651 32.7339 12.7632 27.2261 11.8647C26.103 11.6792 23.7788 11.689 22.6655 11.8745ZM27.0503 13.5347C31.3276 14.2964 34.9702 17.5483 36.1714 21.689C36.5522 23.0269 36.6499 23.8667 36.5913 25.4585C36.5425 27.1284 36.2886 28.2612 35.6538 29.687C34.4136 32.4995 31.8647 34.9116 29.0327 35.9272C26.0542 37.0112 22.8022 36.855 19.9702 35.4976C16.9136 34.0327 14.6089 31.23 13.7007 27.8608C13.4565 26.9819 13.437 26.7573 13.437 24.9995C13.437 23.2417 13.4565 23.0171 13.7007 22.1382C14.2671 20.0483 15.2729 18.3003 16.7866 16.7866C19.521 14.0522 23.2612 12.8706 27.0503 13.5347Z" fill="#30A9E0"/>
<path d="M22.9004 15.0098C20.9082 15.4297 19.3457 16.2988 17.8223 17.8223C17.0703 18.5742 16.6016 19.1406 16.2695 19.707C15.4199 21.1426 14.8438 23.0176 14.8438 24.3652V25H15.6738H16.5039V24.4336C16.5039 23.0566 17.3633 20.8789 18.3789 19.6289C19.834 17.8711 22.0312 16.6992 24.2188 16.5137L24.9512 16.4551L24.9805 15.6445L25.0098 14.8438L24.2969 14.8535C23.9062 14.8535 23.2812 14.9219 22.9004 15.0098Z" fill="#30A9E0"/>
<path d="M24.2188 18.7891V19.6094L23.9355 19.6777C23.5352 19.7656 22.8027 20.3125 22.4609 20.7715C22.0508 21.3281 21.875 21.8945 21.875 22.666C21.875 24.4238 22.998 25.6152 24.8535 25.8203C25.8789 25.9375 26.4648 26.4844 26.4648 27.334C26.4648 28.8281 24.5117 29.375 23.7305 28.1055C23.623 27.9297 23.5352 27.6855 23.5352 27.5586C23.5352 27.3535 23.4961 27.3438 22.7051 27.3438H21.875V27.6758C21.875 28.125 22.1094 28.75 22.4609 29.2285C22.8027 29.6875 23.5352 30.2344 23.9355 30.3223L24.2188 30.3906V31.2109V32.0312H25H25.7812V31.2109V30.3906L26.0645 30.3223C26.4648 30.2344 27.1973 29.6875 27.5391 29.2285C27.9492 28.6719 28.125 28.1055 28.125 27.334C28.125 25.5762 27.002 24.3848 25.1465 24.1797C24.1211 24.0625 23.5352 23.5156 23.5352 22.666C23.5352 21.1719 25.4883 20.625 26.2695 21.8945C26.377 22.0703 26.4648 22.3145 26.4648 22.4316C26.4648 22.6465 26.5039 22.6562 27.2949 22.6562H28.125V22.3242C28.125 21.875 27.8906 21.25 27.5391 20.7715C27.1973 20.3125 26.4648 19.7656 26.0645 19.6777L25.7812 19.6094V18.7891V17.9688H25H24.2188V18.7891Z" fill="#30A9E0"/>
<path d="M33.4961 25.5566C33.4961 27.3047 32.3633 29.7656 30.9375 31.1133C29.5215 32.4707 27.6465 33.3301 25.7812 33.4863L25.0488 33.5449L25.0195 34.3652L24.9902 35.1855L25.9473 35.127C27.5781 35.0293 29.209 34.4531 30.7129 33.4473C31.7383 32.7734 33.1055 31.3379 33.7305 30.293C34.5801 28.8672 35.1562 26.9922 35.1562 25.6348V25H34.3262H33.4961V25.5566Z" fill="#30A9E0"/>
<path d="M47.5586 25.8975C47.5488 28.6025 46.6699 32.0889 45.2637 34.9111C41.8066 41.8936 35.2441 46.5322 27.4902 47.46C26.2207 47.6162 23.4863 47.5869 22.1289 47.4111C19.6289 47.0791 17.2949 46.3662 15.0488 45.2529C12.9199 44.1982 11.4844 43.2119 9.67773 41.5811C8.86719 40.8389 8.57422 40.6826 8.21289 40.7705C8.07617 40.8096 7.57812 41.21 7.10938 41.6787L6.25 42.5186V39.6182V36.7178H9.15039H12.0605L11.2598 37.5186C10.0586 38.7197 10.0684 38.9346 11.3281 40.0869C14.3457 42.8311 18.0273 44.5596 22.1777 45.165C22.7539 45.2432 23.623 45.3115 24.1113 45.3115H25.0098L24.9805 44.501L24.9512 43.7002L23.8281 43.6318C19.8828 43.4072 16.1328 41.9229 13.0664 39.3643L12.4121 38.8174L13.6328 37.5869C14.7949 36.415 14.8438 36.3467 14.8438 35.9561C14.8438 35.6729 14.7852 35.4873 14.6484 35.3506C14.4629 35.165 14.3262 35.1553 9.76562 35.1553C5.20508 35.1553 5.06836 35.165 4.88281 35.3506C4.69727 35.5361 4.6875 35.6729 4.6875 40.2334C4.6875 44.7939 4.69727 44.9307 4.88281 45.1162C5.01953 45.2529 5.20508 45.3115 5.48828 45.3115C5.87891 45.3115 5.94727 45.2627 7.16797 44.0518L8.44727 42.7822L9.07227 43.3193C12.5781 46.3369 16.748 48.2705 21.2891 48.9932C22.9004 49.2471 27.2266 49.2471 28.7598 48.9932C38.1738 47.4209 45.7422 40.7314 48.3301 31.6885C48.877 29.7646 49.2188 27.5869 49.2188 25.8975V24.999H48.3887H47.5586V25.8975Z" fill="#30A9E0"/>
<path d="M38.125 38.291C37.0996 39.3652 35.0488 40.8496 33.4082 41.6895L32.4414 42.1875L32.7441 42.9199C32.9199 43.3203 33.0957 43.6523 33.1445 43.6523C33.1934 43.6523 33.6816 43.4277 34.2188 43.1543C35.2734 42.627 36.709 41.709 37.6074 41.0059C38.3496 40.4199 39.6484 39.1992 39.6484 39.082C39.6484 38.9746 38.623 37.9883 38.4961 37.9883C38.457 37.9883 38.291 38.125 38.125 38.291Z" fill="#30A9E0"/>
<path d="M30.1366 42.959C29.8143 43.0566 29.5311 43.1836 29.5116 43.252C29.492 43.3105 29.5506 43.6719 29.6385 44.043C29.7655 44.541 29.8534 44.7266 29.9706 44.7266C30.2049 44.7266 31.5428 44.3164 31.5428 44.2383C31.5428 44.209 31.4354 43.877 31.3182 43.4961C31.0545 42.7246 31.0155 42.7051 30.1366 42.959Z" fill="#30A9E0"/>
<path d="M27.5391 43.5146C27.4609 43.5244 27.1777 43.5732 26.9141 43.6025L26.4453 43.6708L26.5137 44.4619C26.5527 44.9013 26.5918 45.2724 26.6016 45.2822C26.6309 45.3115 28.252 45.1162 28.291 45.0771C28.3203 45.0576 28.1738 44.1494 28.0762 43.6708C28.0273 43.4658 27.9102 43.4267 27.5391 43.5146Z" fill="#30A9E0"/>
</svg>
