 <svg width="40" height="46" viewBox="0 0 40 46" fill="none" xmlns="http://www.w3.org/2000/svg">
                                        <path d="M18.8472 0.353539C18.3199 0.509789 3.09525 6.88674 2.66556 7.13088C2.13822 7.43362 1.33744 8.30276 1.07377 8.84963C0.175329 10.7149 -0.0590459 17.7364 0.624548 22.4629C1.17142 26.291 2.23588 29.7188 3.85697 32.8828C6.77689 38.6055 11.3765 42.7559 17.5581 45.2754C18.5445 45.6758 18.6324 45.6953 19.814 45.7344C20.9468 45.7735 21.0933 45.7539 21.816 45.5098C22.7632 45.1778 24.2183 44.5137 25.5171 43.8106C31.7281 40.461 36.1519 34.7969 38.3101 27.4434C39.4624 23.5469 39.9898 18.5762 39.7359 14.211C39.5406 10.9492 39.2867 9.43557 38.7886 8.58596C38.5152 8.11721 37.6558 7.27737 37.2261 7.05276C36.689 6.77932 21.5132 0.46096 21.1226 0.353539C20.6538 0.226585 19.2964 0.226585 18.8472 0.353539ZM28.2417 5.08987C32.4312 6.84768 36.0738 8.38088 36.3179 8.50784C37.2456 8.96682 37.5874 9.64065 37.812 11.3789C38.4566 16.3203 38.105 21.877 36.855 26.4278C34.7847 33.9571 30.273 39.6211 23.7593 42.8242C21.562 43.9082 20.9663 44.1133 20.0484 44.1231C19.1109 44.1328 18.5249 43.9375 16.3374 42.8731C8.08549 38.8399 3.2515 31.291 2.06009 20.5293C1.69877 17.2774 1.96244 11.0078 2.49955 9.78713C2.73392 9.25979 3.14408 8.78127 3.5347 8.57619C3.70072 8.4883 7.33353 6.9551 11.6011 5.15823C19.0132 2.06252 19.3941 1.91604 19.9898 1.90627C20.5855 1.90627 20.898 2.02346 28.2417 5.08987Z" fill="#30A9E0"/>
                                        <path d="M19.7455 3.6543C19.6381 3.68359 16.1322 5.13867 11.9525 6.88672C6.43494 9.19141 4.30603 10.1191 4.20838 10.2754C4.0033 10.5879 3.80799 12.082 3.67127 14.416C3.38807 19.4551 4.14978 24.7285 5.79041 28.9082C7.59705 33.5469 10.6439 37.3555 14.5795 39.9141C16.2885 41.0273 19.3158 42.4336 19.9994 42.4336C20.4193 42.4336 21.8158 41.877 23.2904 41.125C28.3685 38.5371 32.0697 34.3965 34.2084 28.9082C35.849 24.7285 36.6107 19.4551 36.3275 14.416C36.1908 12.082 35.9955 10.5879 35.7904 10.2754C35.6928 10.1191 33.5541 9.19141 27.9974 6.86719C23.7885 5.11914 20.2533 3.66406 20.1459 3.63477C20.0385 3.60547 19.8627 3.61523 19.7455 3.6543ZM27.226 8.36133C31.1224 9.98242 34.3256 11.3301 34.3451 11.3398C34.3646 11.3594 34.4428 11.8867 34.5306 12.5215C34.7357 14.2207 34.7357 18.6348 34.5111 20.4609C33.847 25.9688 32.3431 30.1094 29.726 33.6348C27.558 36.5449 24.3744 38.9766 20.849 40.4316L19.9896 40.7832L19.0424 40.3828C16.3373 39.2305 14.1693 37.7852 12.1771 35.8027C8.43689 32.0723 6.25916 27.0918 5.48767 20.5098C5.21424 18.1758 5.2826 12.4922 5.60486 11.4766C5.65369 11.3301 19.8627 5.32422 20.0482 5.37305C20.1068 5.39258 23.3295 6.73047 27.226 8.36133Z" fill="#30A9E0"/>
                                        <path d="M19.3644 11.9746C17.0304 12.2188 15.0675 13.918 14.4816 16.2129C14.384 16.5938 14.3351 17.2578 14.3351 18.2051V19.6113L13.7687 20.1191C13.0949 20.7344 12.7043 21.457 12.5675 22.3555C12.509 22.7461 12.4797 24.3477 12.4992 26.3984C12.5285 29.5918 12.548 29.8164 12.7433 30.3047C13.1535 31.3203 14.0031 32.1602 14.9504 32.4922C15.4093 32.6484 15.8976 32.6582 19.9992 32.6582C24.1008 32.6582 24.589 32.6484 25.048 32.4922C25.9953 32.1602 26.8449 31.3203 27.255 30.3047C27.4504 29.8164 27.4699 29.5918 27.4992 26.3789C27.5187 24.1426 27.4992 22.7559 27.4211 22.3262C27.2746 21.418 26.8937 20.7246 26.2297 20.1191L25.6633 19.6113V18.2051C25.6633 15.9492 25.2824 14.8848 24.0129 13.6152C22.7043 12.3164 21.1906 11.7793 19.3644 11.9746ZM21.3371 13.8203C22.3625 14.1719 23.173 14.9336 23.6808 16.0273C23.925 16.5449 23.9543 16.7305 23.9836 17.8926L24.0226 19.1914H19.9992H15.9758L16.0148 17.8926C16.0441 16.6816 16.0636 16.5645 16.3566 15.9395C17.2648 14.0352 19.3547 13.1465 21.3371 13.8203ZM24.8625 21.1641C25.0773 21.3105 25.3898 21.6426 25.5363 21.8965L25.8097 22.3652V25.9297C25.8097 29.2207 25.8 29.5234 25.6242 29.8359C25.3703 30.3145 25.0871 30.6074 24.6379 30.8418C24.257 31.0566 24.1593 31.0566 19.9992 31.0566C16.0343 31.0566 15.7316 31.0469 15.4093 30.8711C14.9308 30.6172 14.6379 30.334 14.4035 29.8848C14.1984 29.5137 14.1886 29.3477 14.1593 26.3691C14.1398 24.6504 14.1496 23.0098 14.1886 22.7363C14.2765 22.0527 14.7258 21.3789 15.3117 21.0762L15.7414 20.8418L20.0968 20.8711L24.4523 20.9004L24.8625 21.1641Z" fill="#30A9E0"/>
                                        <path d="M19.1203 22.668C17.4699 23.3809 17.3625 25.8418 18.9543 26.6719C19.218 26.8086 19.218 26.8184 19.218 27.834C19.218 28.8105 19.2277 28.8496 19.4719 29.0449C19.6184 29.1621 19.8527 29.25 19.9992 29.25C20.1457 29.25 20.3801 29.1621 20.5266 29.0449C20.7707 28.8496 20.7805 28.8105 20.7805 27.834C20.7805 26.8184 20.7805 26.8086 21.0539 26.6719C22.343 25.998 22.5774 24.1035 21.4934 23.0781C20.9172 22.5312 19.8625 22.3457 19.1203 22.668Z" fill="#30A9E0"/>
                                    </svg>