<svg width="50" height="50" viewBox="0 0 50 50" fill="none" xmlns="http://www.w3.org/2000/svg">
                                        <path d="M13.2319 0.888676C12.7925 1.01563 12.1577 1.60157 11.9233 2.08008C11.728 2.49024 11.7183 2.63672 11.7183 7.10938V11.709L9.2085 11.7383L6.68896 11.7676L6.10303 12.0508C5.35107 12.4219 4.60889 13.1641 4.23779 13.916L3.95459 14.502L3.90576 17.3926L3.85693 20.293L3.2417 20.752C2.12842 21.5918 1.23975 22.9395 0.927246 24.2383C0.741699 25.0293 0.741699 26.5332 0.927246 27.3242C1.23975 28.623 2.12842 29.9707 3.2417 30.8105L3.85693 31.2695L3.90576 34.9512L3.95459 38.623L4.23779 39.209C4.60889 39.9609 5.35107 40.7031 6.10303 41.0742L6.68896 41.3574L11.9429 41.3867L17.187 41.416V42.959V44.5117L16.2397 44.5508C15.439 44.5801 15.1851 44.6387 14.6968 44.873C13.9546 45.2246 13.2026 45.9766 12.8413 46.7285C12.5972 47.2168 12.5483 47.4512 12.519 48.2617L12.48 49.2188H24.9995H37.519L37.48 48.2617C37.4507 47.4512 37.4019 47.2168 37.1577 46.7285C36.7964 45.9863 36.0444 45.2344 35.3022 44.873C34.814 44.6289 34.5796 44.5801 33.769 44.5508L32.812 44.5117V42.959V41.416L38.0659 41.3867L43.3101 41.3574L43.896 41.0742C44.6479 40.7031 45.3901 39.9609 45.7612 39.209L46.0444 38.623L46.0737 35.3223L46.103 32.0313H47.6558H49.2183V25V17.9688H47.6655H46.1128L46.0737 16.2305C46.0444 14.541 46.0347 14.4824 45.7612 13.916C45.3901 13.1641 44.6479 12.4219 43.896 12.0508L43.3101 11.7676L40.8003 11.7383L38.2905 11.709L38.2612 6.98243L38.2319 2.26563L37.939 1.84571C37.7729 1.61133 37.4507 1.28907 37.2163 1.12305L36.7964 0.830082L25.1655 0.810551C18.5737 0.800785 13.3979 0.839848 13.2319 0.888676ZM36.4155 2.62696C36.5229 2.73438 36.6401 2.96875 36.6694 3.14454C36.6987 3.32032 36.7183 5.56641 36.6987 8.125L36.6694 12.7832L36.4448 13.0078L36.2202 13.2324L31.9526 13.2813L27.6851 13.3301L25.4683 14.8145C24.2476 15.6348 23.1538 16.3086 23.0464 16.3086C22.7339 16.3086 22.6558 15.9375 22.6558 14.5508V13.291L18.2124 13.2617L13.7788 13.2324L13.5542 13.0078L13.3296 12.7832L13.3003 8.125C13.2808 5.56641 13.3003 3.32032 13.3296 3.14454C13.3589 2.96875 13.4761 2.73438 13.5835 2.62696C13.769 2.44141 14.0034 2.44141 24.9995 2.44141C35.9956 2.44141 36.23 2.44141 36.4155 2.62696ZM11.8647 13.4863C11.9722 13.8086 12.5874 14.4434 13.0269 14.6777C13.4175 14.8828 13.5347 14.8926 17.2554 14.9219L21.0737 14.9512L21.1128 15.8594C21.1323 16.6211 21.1812 16.8164 21.3765 17.1094C21.7671 17.6758 22.2065 17.9102 22.9487 17.9492C23.7495 17.9981 23.6323 18.0566 26.23 16.3379L28.271 14.9902L32.4214 14.9414C36.4546 14.8926 36.5815 14.8828 36.9722 14.6777C37.4116 14.4434 38.0269 13.8086 38.1343 13.4766C38.2026 13.2617 38.2026 13.2617 40.4097 13.3008C42.8901 13.3398 43.1831 13.4082 43.8179 14.0723C44.3452 14.6387 44.4624 15.0293 44.5112 16.5723L44.5601 17.9688H41.4155H38.2808V21.4844V25H35.937H33.5933V23.0469V21.0938H31.2495H28.9058V25.7813V30.4688H28.1245H27.3433V25V19.5313H24.9995H22.6558V25V30.4688H21.8745H21.0933V26.5625V22.6563H18.7495H16.4058V23.8281V25H14.853H13.2905L13.1831 24.4336C13.1245 24.1309 12.8706 23.4668 12.6362 22.9688C12.0698 21.7871 11.1519 20.8398 9.98975 20.2344C8.8667 19.6484 8.13428 19.502 6.65967 19.5508L5.44873 19.5996L5.48779 17.3926C5.52685 14.9512 5.58545 14.707 6.18115 14.082C6.85498 13.3789 7.16748 13.3106 9.8335 13.291C11.7573 13.2813 11.8062 13.2813 11.8647 13.4863ZM47.6558 25V30.4688H43.7495H39.8433V25V19.5313H43.7495H47.6558V25ZM25.7808 25.7813V30.4688H24.9995H24.2183V25.7813V21.0938H24.9995H25.7808V25.7813ZM8.44678 21.3867C9.51123 21.7578 10.4976 22.5586 11.0542 23.5352C11.8159 24.8438 11.8159 26.7188 11.0542 28.0273C9.48193 30.7422 5.81006 31.1914 3.69092 28.9258C2.83154 28.0078 2.44092 27.0313 2.44092 25.7813C2.44092 24.1699 3.23193 22.7539 4.59912 21.8652C5.66357 21.1914 7.28467 20.9863 8.44678 21.3867ZM32.0308 26.5625V30.4688H31.2495H30.4683V26.5625V22.6563H31.2495H32.0308V26.5625ZM19.5308 27.3438V30.4688H18.7495H17.9683V27.3438V24.2188H18.7495H19.5308V27.3438ZM16.4058 28.5156V30.4688H15.6245H14.8433V31.25V32.0313H24.9995H35.1558V31.25V30.4688H34.3745H33.5933V28.5156V26.5625H35.937H38.2808V29.2969V32.0313H41.4058H44.5308V32.8125V33.5938H24.9995H5.46826V32.7832V31.9629L6.66943 32.0117C8.13428 32.0605 8.8667 31.9141 9.98975 31.3281C11.1519 30.7227 12.0698 29.7754 12.6362 28.5938C12.8706 28.0957 13.1245 27.4316 13.1831 27.1191L13.2905 26.5625H14.853H16.4058V28.5156ZM44.5112 36.543C44.4624 38.1543 44.3257 38.5938 43.6811 39.1699C42.939 39.8438 44.2964 39.7949 24.9995 39.7949C5.70264 39.7949 7.06006 39.8438 6.31787 39.1699C5.67334 38.5938 5.53662 38.1543 5.48779 36.543L5.43896 35.1563H24.9995H44.5601L44.5112 36.543ZM31.2495 42.9688V44.5313H24.9995H18.7495V42.9688V41.4063H24.9995H31.2495V42.9688ZM34.4233 46.3184C34.8726 46.5234 35.3999 47.002 35.605 47.3828L35.7515 47.6563H24.9995H14.2476L14.394 47.3828C14.5601 47.0801 15.0874 46.5625 15.4097 46.3965C15.5366 46.3281 15.8198 46.2402 16.0444 46.1914C16.269 46.1523 20.4097 46.123 25.2437 46.123C33.4761 46.1426 34.062 46.1523 34.4233 46.3184Z" fill="#30A9E0"/>
                                        <path d="M16.357 4.00391C15.9176 4.14062 15.2828 4.72656 15.0484 5.20508C14.6383 6.05469 14.8336 7.29492 15.4879 7.94922C16.0445 8.49609 16.4352 8.62305 17.8512 8.68164C19.2965 8.75 19.4332 8.80859 19.4332 9.42383C19.4332 9.99023 19.1695 10.1074 17.9684 10.1074C17.0699 10.1074 16.8844 10.0781 16.7086 9.92187C16.5914 9.81445 16.5035 9.6582 16.5035 9.55078C16.5035 9.39453 16.4156 9.375 15.6734 9.375H14.8434V9.6875C14.8531 10.3809 15.3902 11.1426 16.1617 11.5625C16.5133 11.748 16.7086 11.7676 17.9684 11.7676C19.2379 11.7676 19.4234 11.748 19.7848 11.5527C20.732 11.0449 21.1422 10.3027 21.0738 9.18945C21.0445 8.62305 20.9859 8.42773 20.7418 8.08594C20.5856 7.86133 20.2633 7.53906 20.0387 7.38281C19.6383 7.09961 19.5699 7.08984 18.2711 7.03125C16.7281 6.97266 16.5035 6.875 16.5035 6.2793C16.5035 5.68359 16.7379 5.56641 17.9293 5.56641C18.4957 5.56641 19.0426 5.60547 19.1402 5.66406C19.2379 5.71289 19.3649 5.88867 19.4137 6.05469L19.5211 6.34766H20.3219H21.1227L21.0738 5.84961C21.0152 5.25391 20.6441 4.67773 20.0289 4.24805C19.609 3.95508 19.609 3.95508 18.1344 3.93555C17.3141 3.92578 16.5133 3.95508 16.357 4.00391Z" fill="#30A9E0"/>
                                        <path d="M24.1699 4.01367C23.7305 4.13086 23.0957 4.7168 22.8613 5.20508C22.6758 5.5957 22.6562 5.79102 22.6562 7.82227C22.6562 10.2344 22.7148 10.4883 23.3008 11.0742C23.8965 11.6602 24.2285 11.7578 25.8594 11.7969L27.3438 11.8359V11.0059V10.1758L26.0254 10.1367C24.4727 10.0977 24.3555 10.0391 24.248 9.19922L24.1895 8.69141H25.7715H27.3438V7.86133V7.03125H25.7812H24.2188V6.69922C24.2188 6.25 24.3945 5.78125 24.6094 5.66406C24.707 5.60547 25.3613 5.56641 26.0645 5.56641H27.3438V4.73633V3.90625L25.9082 3.91602C25.1074 3.91602 24.3262 3.96484 24.1699 4.01367Z" fill="#30A9E0"/>
                                        <path d="M30.4199 4.00391C29.9805 4.14062 29.3457 4.72656 29.1113 5.20508C28.9258 5.5957 28.9062 5.79102 28.9062 7.82227C28.9062 10.2344 28.9648 10.4883 29.5508 11.0742C30.166 11.6797 30.4785 11.7676 32.0312 11.7676C33.6035 11.7676 33.916 11.6797 34.5508 11.0254C35.1172 10.4395 35.166 10.166 35.1367 7.64648L35.1074 5.39062L34.8145 4.9707C34.6484 4.73633 34.3262 4.41406 34.0918 4.24805C33.6719 3.95508 33.6719 3.95508 32.1973 3.93555C31.377 3.92578 30.5762 3.95508 30.4199 4.00391ZM33.291 5.75195C33.5645 6.02539 33.6133 6.42578 33.5742 8.14453C33.5352 10.127 33.5547 10.1074 32.0312 10.1074C30.5078 10.1074 30.5273 10.127 30.4883 8.14453C30.4297 5.61523 30.459 5.56641 32.0312 5.56641C32.9688 5.56641 33.1348 5.5957 33.291 5.75195Z" fill="#30A9E0"/>
                                        <path d="M41.4062 21.875V22.6562H43.75H46.0938V21.875V21.0938H43.75H41.4062V21.875Z" fill="#30A9E0"/>
                                        <path d="M41.4062 25V25.7812H43.75H46.0938V25V24.2188H43.75H41.4062V25Z" fill="#30A9E0"/>
                                        <path d="M41.4062 28.125V28.9062H43.75H46.0938V28.125V27.3438H43.75H41.4062V28.125Z" fill="#30A9E0"/>
                                        <path d="M5.78125 22.8613C4.64844 23.3008 3.90625 24.4531 3.90625 25.7812C3.90625 27.0508 4.53125 28.0859 5.61523 28.6133C6.31836 28.9648 7.46094 29.0039 8.23242 28.7109C10.791 27.7539 10.8008 23.8183 8.25195 22.8613C7.5293 22.5879 6.49414 22.5879 5.78125 22.8613ZM7.79297 24.5117C9.0625 25.2832 8.51562 27.2461 7.03125 27.2461C6.20117 27.2461 5.56641 26.6113 5.56641 25.7812C5.56641 24.9511 6.20117 24.3164 7.03125 24.3164C7.29492 24.3164 7.59766 24.3945 7.79297 24.5117Z" fill="#30A9E0"/>
                                        <path d="M21.2891 36.9141C21.1621 37.041 21.0938 37.2363 21.0938 37.5C21.0938 38.0176 21.3574 38.2812 21.875 38.2812C22.1387 38.2812 22.334 38.2129 22.4609 38.0859C22.5879 37.959 22.6562 37.7637 22.6562 37.5C22.6562 37.2363 22.5879 37.041 22.4609 36.9141C22.334 36.7871 22.1387 36.7188 21.875 36.7188C21.6113 36.7188 21.416 36.7871 21.2891 36.9141Z" fill="#30A9E0"/>
                                        <path d="M24.4141 36.9141C24.2871 37.041 24.2188 37.2363 24.2188 37.5C24.2188 38.0176 24.4824 38.2812 25 38.2812C25.5176 38.2812 25.7812 38.0176 25.7812 37.5C25.7812 37.2363 25.7129 37.041 25.5859 36.9141C25.459 36.7871 25.2637 36.7188 25 36.7188C24.7363 36.7188 24.541 36.7871 24.4141 36.9141Z" fill="#30A9E0"/>
                                        <path d="M27.5391 36.9141C27.4121 37.041 27.3438 37.2363 27.3438 37.5C27.3438 38.0176 27.6074 38.2812 28.125 38.2812C28.6426 38.2812 28.9062 38.0176 28.9062 37.5C28.9062 37.2363 28.8379 37.041 28.7109 36.9141C28.584 36.7871 28.3887 36.7188 28.125 36.7188C27.8613 36.7188 27.666 36.7871 27.5391 36.9141Z" fill="#30A9E0"/>
                                    </svg>