<svg width="50" height="50" viewBox="0 0 50 50" fill="none" xmlns="http://www.w3.org/2000/svg">
<path d="M22.6562 0.332031C18.418 1.23047 15.2344 4.69727 14.8535 8.83789L14.7949 9.52148L11.8555 9.55078C9.32617 9.57031 8.88672 9.58984 8.7793 9.72656C8.63281 9.90234 0.00976562 48.623 0 49.1309C0 49.3652 0.0683594 49.541 0.205078 49.668C0.410156 49.8535 0.957031 49.8535 25 49.8535C49.043 49.8535 49.5898 49.8535 49.7949 49.668C49.9219 49.5508 50 49.3652 50 49.1602C50 48.9746 47.9492 40.4688 45.4492 30.2539C42.9492 20.0293 40.8105 11.2793 40.7031 10.8008C40.5859 10.3223 40.4102 9.84375 40.3125 9.74609C40.1465 9.58008 39.9121 9.57031 37.168 9.57031H34.209L34.1504 8.85742C33.9844 6.76758 32.959 4.61914 31.3574 3.01758C30.1367 1.79688 28.584 0.898438 27.002 0.478516C25.9863 0.214844 23.5938 0.136719 22.6562 0.332031ZM26.1816 1.80664C26.9531 1.96289 28.1348 2.42188 28.7305 2.79297C30.9082 4.15039 32.4609 6.55273 32.6758 8.89648L32.7441 9.57031H24.4922H16.25L16.3184 8.94531C16.5527 7.02148 17.3535 5.37109 18.7305 4.02344C20.7129 2.06055 23.4277 1.25977 26.1816 1.80664ZM40.166 14.8145C44.5215 32.5781 48.3496 48.3594 48.3203 48.3984C48.291 48.418 39.0723 48.4277 27.8223 48.418L7.37305 48.3887L8.66211 29.7363C9.36523 19.4727 9.95117 11.0742 9.95117 11.0547C9.96094 11.0449 16.5527 11.0352 24.5996 11.0352H39.2383L40.166 14.8145ZM6.85547 34.668L5.9082 48.3887L3.7207 48.418C1.99219 48.4375 1.55273 48.418 1.58203 48.3203C1.61133 48.252 3.00781 41.9434 4.69727 34.2969C6.38672 26.6504 7.77344 20.5176 7.7832 20.6738C7.79297 20.8203 7.38281 27.1191 6.85547 34.668Z" fill="#30A9E0"/>
<path d="M24.3652 20.3713C24.1504 20.3908 23.7012 20.4397 23.3691 20.469L22.7539 20.5276V25.0491V29.5705L23.0566 29.6291C23.6816 29.7561 25.9766 29.6877 26.6895 29.5315C28.5352 29.1116 29.6582 28.0569 30.127 26.26C30.3027 25.5959 30.3125 24.1311 30.1367 23.4866C29.7363 21.9631 28.6426 20.9084 27.1387 20.5666C26.4648 20.4201 25.0098 20.3127 24.3652 20.3713ZM26.5527 21.5334C27.666 21.8264 28.4766 22.5783 28.7695 23.6037C28.9453 24.2092 28.916 25.7424 28.7207 26.3869C28.457 27.2366 27.5391 28.1545 26.6797 28.428C26.4844 28.4866 25.8008 28.5647 25.1758 28.5842L24.0234 28.633V25.0686V21.4944L24.248 21.4553C24.7559 21.3576 26.0645 21.3967 26.5527 21.5334Z" fill="#30A9E0"/>
<path d="M33.1543 20.4889C32.4707 20.7136 31.7187 21.4753 31.5625 22.0905C31.3867 22.7936 31.416 23.2526 31.6992 23.8093C32.0215 24.4636 32.4902 24.8249 33.7012 25.362C34.8633 25.8698 35.1953 26.0944 35.4004 26.5241C35.7324 27.237 35.498 27.9987 34.8047 28.4284C34.4824 28.6237 34.3066 28.6628 33.6426 28.653C32.9102 28.6432 32.7246 28.6042 31.7187 28.1745C31.582 28.1257 31.5234 28.2038 31.4062 28.6237C31.3184 28.9069 31.25 29.1511 31.25 29.1608C31.25 29.1706 31.4941 29.278 31.7871 29.3854C32.627 29.6979 33.4766 29.8054 34.2871 29.6882C35.1465 29.5612 35.6934 29.3366 36.123 28.8972C37.1094 27.9011 37.0996 26.0749 36.1035 25.235C35.9277 25.0886 35.332 24.7468 34.7656 24.4831C33.418 23.8386 33.0566 23.5847 32.8613 23.1843C32.5781 22.5886 32.8711 21.8561 33.5254 21.5241C33.916 21.319 34.8828 21.3288 35.4492 21.5339C35.6934 21.6218 35.957 21.7194 36.0352 21.7389C36.2402 21.8073 36.582 20.8014 36.3965 20.6843C35.8203 20.3034 34.0234 20.196 33.1543 20.4889Z" fill="#30A9E0"/>
<path d="M15.3323 24.8633C14.5022 27.3145 13.8088 29.3848 13.7893 29.4629C13.76 29.5703 13.8772 29.5898 14.4143 29.5703L15.0686 29.541L15.5276 28.1738L15.9866 26.8066H17.5784H19.1702L19.4924 27.7832C19.678 28.3203 19.8928 28.9453 19.9807 29.1699L20.137 29.5898H20.8108C21.1819 29.5898 21.4846 29.5801 21.4846 29.5605C21.4846 29.5508 20.7815 27.5 19.9319 25L18.3792 20.459L17.6174 20.4297L16.846 20.4004L15.3323 24.8633ZM18.4475 24.4531C18.6624 25.0879 18.8479 25.6445 18.8479 25.6934C18.8479 25.7422 18.2717 25.7812 17.5686 25.7812C16.6018 25.7812 16.2991 25.752 16.3284 25.6543C16.3674 25.5371 17.4612 22.1387 17.5491 21.875C17.5784 21.7969 17.7053 22.0801 17.8225 22.5098C17.9397 22.9395 18.2229 23.8086 18.4475 24.4531Z" fill="#30A9E0"/>
</svg>
