<svg width="110" height="110" viewBox="0 0 110 110" fill="none" xmlns="http://www.w3.org/2000/svg">
                                <circle cx="55" cy="55" r="55" fill="#30A9E0"/>
                                <g clip-path="url(#clip0_45_477)">
                                <path d="M45.4069 23.3199C45.087 23.5906 41.6047 28.2172 40.9034 29.3123C40.5588 29.8414 40.6942 31.0104 41.1371 31.4779C41.334 31.6748 41.6293 31.8963 41.8139 31.9701C41.9862 32.044 43.6596 32.4623 45.5176 32.9176C47.8555 33.4713 49.0491 33.7051 49.369 33.6682C50.3411 33.5328 50.9317 32.8191 50.9317 31.7856C50.9317 31.0104 50.5871 30.4443 49.8858 30.0875L49.4059 29.8414L49.8243 29.7553C52.2729 29.2508 55.9766 29.0908 58.253 29.3861C63.384 30.0629 68.269 32.167 72.0342 35.3293C73.4246 36.4983 75.2704 38.3932 76.2301 39.6729C80.2291 44.9516 82.1733 51.6699 81.5704 58.1299C81.2627 61.366 80.4137 64.3438 78.9371 67.3584C76.3778 72.5633 72.6371 76.4393 67.4815 79.1955C66.3741 79.7984 66.0787 80.0076 65.8573 80.4137C65.1559 81.6318 65.9188 83.0961 67.3215 83.2561C67.8014 83.3176 68.0229 83.2438 69.1672 82.6408C77.9774 78.0881 83.8836 69.5733 85.2741 59.4219C85.5448 57.5147 85.4709 53.2942 85.151 51.3008C84.2651 45.7637 82.1364 40.9033 78.7772 36.7197C73.8922 30.6289 66.6571 26.6176 58.8067 25.6332C57.1332 25.424 53.528 25.4117 51.7807 25.5963C51.0916 25.6701 49.9227 25.8547 49.1967 26.0024L47.8678 26.2731L48.1262 25.8547C48.6553 25.0057 48.3231 23.6152 47.4864 23.1846C47.2895 23.0861 46.8219 23 46.4528 23C45.9114 23 45.7145 23.0615 45.4069 23.3199Z" fill="white"/>
                                <path d="M28.2055 36.2275C25.9661 36.732 24.0957 38.5777 23.6036 40.7803C23.4067 41.6539 23.5912 42.2814 24.1573 42.7859C24.6495 43.2166 25.277 43.3643 25.9291 43.192C26.5321 43.0197 27.012 42.5152 27.295 41.7277C27.7256 40.5711 28.2793 40.0666 29.3498 39.8943C30.285 39.7467 31.4416 40.5465 31.7493 41.5678C32.1184 42.7982 31.3924 44.0656 26.569 50.5625C25.437 52.0883 24.4157 53.5033 24.3049 53.7248C23.8373 54.6477 24.2311 55.915 25.1539 56.3949C25.6338 56.641 25.8184 56.6533 30.3219 56.6533C34.7885 56.6533 35.0223 56.641 35.4284 56.4072C36.019 56.0627 36.4496 55.2137 36.3512 54.5615C36.2528 53.8971 35.8713 53.3311 35.3791 53.0973C35.0346 52.9373 34.4932 52.9004 32.2907 52.9004H29.6205L29.9651 52.4451C30.162 52.1867 31.1586 50.8209 32.1676 49.3936C34.6778 45.8867 35.4653 44.324 35.6252 42.5645C35.8221 40.4604 34.6901 38.2209 32.8321 37.0273C31.577 36.2152 29.6821 35.883 28.2055 36.2275Z" fill="white"/>
                                <path d="M45.4689 36.2399C44.5707 36.5229 43.9062 37.2858 42.4173 39.7959C41.0269 42.1338 38.0246 47.4617 37.4585 48.5815C36.9294 49.6397 37.1263 50.5379 38.0615 51.227C38.3814 51.4731 38.5906 51.4854 41.9005 51.5223L45.3951 51.5592V53.2449C45.3951 54.6108 45.432 55.0168 45.6165 55.349C46.2933 56.6902 48.3113 56.6533 48.9634 55.2998C49.1726 54.8692 49.2095 54.5369 49.2095 53.1834V51.5715L49.7017 51.4854C50.5999 51.3377 51.3013 50.5133 51.3013 49.6151C51.3013 48.643 50.4892 47.7324 49.6279 47.7324H49.2218L49.1849 42.9582C49.148 38.344 49.1357 38.184 48.8773 37.7041C48.5082 37.0151 47.8929 36.4613 47.2531 36.2276C46.6009 36.0061 46.2564 36.0061 45.4689 36.2399ZM45.3582 47.6955C45.3212 47.7201 44.6322 47.7201 43.8078 47.7078L42.3189 47.6709L43.8324 45.0254L45.3335 42.3799L45.3705 45.0131C45.3828 46.4651 45.3828 47.6709 45.3582 47.6955Z" fill="white"/>
                                <path d="M57.3308 45.0623C57.0971 45.21 56.814 45.5053 56.7033 45.7022C56.5803 45.9113 54.9806 49.8611 53.1472 54.4877C49.9726 62.4611 49.8004 62.9287 49.8865 63.4578C50.1449 65.1682 52.5197 65.6358 53.3564 64.1223C53.5041 63.8762 55.0914 59.9633 56.8879 55.4352C60.407 46.5758 60.4316 46.5143 59.9148 45.6652C59.3734 44.7916 58.1553 44.4963 57.3308 45.0623Z" fill="white"/>
                                <path d="M61.2553 55.2383C60.3816 55.4967 59.9141 56.1611 59.9141 57.1209C59.9141 57.7854 60.2955 58.4129 60.8984 58.7082C61.2799 58.9051 61.7352 58.9297 64.6391 58.9297C67.223 58.9297 67.9244 58.9666 67.8752 59.0774C67.8383 59.1635 66.4479 62.3381 64.7744 66.1279C61.7967 72.8955 61.7475 73.0309 61.7844 73.7199C61.8213 74.2613 61.9074 74.5074 62.1412 74.7535C63.1133 75.7871 64.6021 75.6025 65.2912 74.3721C65.4389 74.1014 67.1615 70.2131 69.1303 65.7342C72.1572 58.8559 72.7109 57.5024 72.7109 57.0102C72.7109 56.2596 72.3295 55.6443 71.6773 55.349C71.2098 55.1399 70.8037 55.1152 66.374 55.1275C63.7408 55.1275 61.4275 55.1768 61.2553 55.2383Z" fill="white"/>
                                <path d="M26.8758 61.1322C26.4575 61.3045 25.953 61.8951 25.8053 62.4119C25.6823 62.818 25.6946 63.0395 25.8792 63.7777C26.1745 64.9098 27.1096 67.4814 27.4295 68.0105C27.7002 68.4412 28.5001 68.8842 29.0415 68.8965C29.546 68.8965 30.395 68.3797 30.6411 67.9121C30.9733 67.2969 30.9241 66.657 30.4565 65.3896C30.2227 64.7867 29.8782 63.7777 29.6936 63.1748C29.2999 61.8828 29.0661 61.4891 28.4877 61.2184C28.0448 61.0092 27.2819 60.9723 26.8758 61.1322Z" fill="white"/>
                                <path d="M32.6235 72.551C32.1067 72.7971 31.7253 73.3385 31.6514 73.9291C31.5284 74.8397 31.7745 75.2334 33.694 77.1652C35.1952 78.6664 35.5643 78.974 35.9581 79.0479C37.2624 79.294 38.2468 78.6664 38.3575 77.5221C38.3821 77.1898 38.3821 76.7838 38.3452 76.6238C38.2468 76.2793 34.6415 72.6125 34.2354 72.4525C33.7802 72.2803 33.0788 72.3295 32.6235 72.551Z" fill="white"/>
                                <path d="M42.7241 80.2168C41.7521 80.8074 41.6044 82.3086 42.4288 83.1453C42.7979 83.5022 44.496 84.2158 46.4771 84.8188C47.7075 85.2002 47.9905 85.2125 48.655 84.8926C49.5655 84.4496 49.947 83.3053 49.504 82.3578C49.2333 81.7795 48.8396 81.5457 47.5476 81.152C46.9446 80.9551 45.9479 80.6229 45.345 80.3891C44.0899 79.8969 43.3147 79.8477 42.7241 80.2168Z" fill="white"/>
                                <path d="M59.2373 81.9395C58.9666 82.001 58.0561 82.1117 57.207 82.1855C56.198 82.2717 55.5459 82.3947 55.2998 82.5301C54.8938 82.7639 54.377 83.6744 54.377 84.1543C54.3893 84.6711 54.8322 85.4832 55.2629 85.7662C55.632 86 55.792 86.0123 57.2686 85.9508C59.1635 85.877 61.0338 85.5816 61.5383 85.2863C62.7195 84.5973 62.6703 82.5916 61.4645 82.0133C61.0215 81.8041 60.074 81.7795 59.2373 81.9395Z" fill="white"/>
                                </g>
                                <defs>
                                <clipPath id="clip0_45_477">
                                <rect width="63" height="63" fill="white" transform="translate(23 23)"/>
                                </clipPath>
                                </defs>
                            </svg>