<svg width="110" height="110" viewBox="0 0 110 110" fill="none" xmlns="http://www.w3.org/2000/svg">
                                <circle cx="55" cy="55" r="55" fill="#30A9E0"/>
                                <g clip-path="url(#clip0_45_477)">
                                    <path d="M50.6398 23.2025C50.616 23.3217 50.4373 24.1199 50.2586 24.9777L49.9369 26.5385L49.091 26.8125C48.6264 26.9555 47.8043 27.2891 47.2801 27.5512L46.3031 28.0158L44.8258 27.0627C44.0037 26.5266 43.2889 26.0976 43.2293 26.0976C43.1697 26.0976 41.9545 27.2652 40.5248 28.6949L37.9395 31.2922L38.416 32.4121C38.6781 33.0197 38.8926 33.5678 38.8926 33.6154C38.8926 33.6631 38.5828 33.7346 38.2135 33.7822C37.2246 33.8775 35.7711 34.366 35.0324 34.8426C33.6146 35.748 32.4709 37.3207 32.0539 38.9172C31.7918 39.9299 31.7918 43.385 32.042 44.3857C32.3518 45.5891 32.9236 46.5779 33.8648 47.531C34.3414 48.0195 34.7107 48.4961 34.6988 48.6033C34.675 48.7225 34.258 48.8773 33.4121 49.0918L32.1611 49.4016L29.7426 47.9957L27.3121 46.5898H25.6561H24V56.824V67.0582L28.8609 68.6785C33.4955 70.2273 33.7576 70.2988 34.675 70.2988H35.652L35.7234 69.8937L35.8068 69.4768L37.2842 70.3703C38.5471 71.1328 38.7734 71.3115 38.7734 71.5617C38.7734 72.6459 40.0006 73.9088 41.2992 74.1709C41.5613 74.2185 41.6447 74.3258 41.752 74.7428C42.0975 76.0295 43.2412 77.0898 44.3016 77.0898C44.5279 77.0898 44.5875 77.1852 44.7066 77.6855C44.7781 78.0072 44.9807 78.4957 45.1594 78.7459C45.624 79.4488 46.6129 80.0684 47.2682 80.0684C47.4826 80.0684 47.5541 80.1756 47.6732 80.6521C47.84 81.3432 48.2928 82.0699 48.7932 82.4393C49.6271 83.0588 50.8781 83.2137 51.8789 82.8205L52.415 82.618L53.0227 83.1303C53.3562 83.4043 53.8209 83.7141 54.0592 83.8213C54.6668 84.0715 56.0965 84.0476 56.7041 83.7736C57.6096 83.3685 58.4197 82.2725 58.4316 81.4742C58.4316 81.2121 58.5031 81.1287 58.7652 81.0691C59.8613 80.8309 60.4451 80.4615 60.9574 79.699C61.1361 79.4369 61.3148 78.9842 61.3506 78.6982C61.434 78.2217 61.4697 78.174 61.8629 78.1025C63.1139 77.8643 64.1504 76.8158 64.3529 75.5887C64.4006 75.2789 64.4721 75.1836 64.6746 75.1836C65.1273 75.1836 66.1043 74.6355 66.557 74.1351C66.9859 73.6586 67.3672 72.7174 67.3672 72.1217C67.3672 71.8834 68.3084 71.3711 76.1836 67.4394L85 63.0312V55.7637V48.4961H83.9158H82.8197L81.1994 49.342C79.6268 50.1641 79.5672 50.176 79.1621 50.033C78.9357 49.9496 77.7562 49.6398 76.541 49.3301C75.0398 48.9607 74.325 48.7225 74.3012 48.6033C74.2893 48.508 74.6586 48.0314 75.1352 47.543C76.0883 46.5541 76.6602 45.5533 76.9699 44.3381C77.1248 43.7305 77.1486 43.1348 77.1129 41.4191C77.0414 38.8814 76.8865 38.2976 75.8977 36.8322C74.7777 35.1881 73.1932 34.1873 71.2154 33.8656C70.6078 33.7703 70.1074 33.6512 70.1074 33.6035C70.1074 33.5678 70.3219 33.0197 70.584 32.4121L71.0605 31.2922L68.4752 28.6949C67.0455 27.2652 65.8303 26.0976 65.7707 26.0976C65.7111 26.0976 64.9963 26.5266 64.1742 27.0627L62.6969 28.0158L61.7199 27.5512C61.1957 27.2891 60.3736 26.9555 59.909 26.8125L59.0631 26.5385L58.7414 24.9777C58.5627 24.1199 58.384 23.3217 58.3602 23.2025C58.3006 23.0119 58.0146 23 54.5 23C50.9854 23 50.6994 23.0119 50.6398 23.2025ZM56.9424 26.6338L57.276 28.2422L57.7645 28.3732C59.3609 28.7783 60.8383 29.374 62.0178 30.1008L62.7326 30.5297L64.1146 29.6123L65.5086 28.7068L67.0336 30.2318L68.5586 31.7568L68.0344 33.0078C67.534 34.1992 67.4744 34.2826 66.9025 34.6281C66.557 34.8307 66.0686 35.1762 65.7945 35.3906C65.3656 35.7361 65.2941 35.76 65.1988 35.5812C64.901 35.0451 63.5785 33.5439 62.9232 32.9959C60.743 31.1611 58.3482 30.1484 55.5961 29.9101C53.4754 29.7195 51.2355 30.0889 49.3412 30.9348C47.3158 31.8402 45.207 33.5439 44.0871 35.1881L43.6225 35.8672L43.1102 35.3906C42.8242 35.1285 42.3477 34.7949 42.0617 34.6519C41.5494 34.4137 41.5018 34.3422 40.9775 33.0793L40.4295 31.7687L41.9545 30.2437L43.4795 28.7187L44.8734 29.6242L46.2793 30.5297L46.9822 30.0889C48.1617 29.374 49.6391 28.7783 51.2355 28.3732L51.724 28.2422L52.0576 26.6338L52.3912 25.0254H54.5H56.6088L56.9424 26.6338ZM56.585 32.1619C59.3609 32.7338 61.8391 34.3898 63.4117 36.7488C64.0074 37.6424 64.0193 37.6781 63.8525 38.0117C63.4832 38.7385 63.3164 39.8346 63.3164 41.6932C63.3164 44.624 63.8168 46.018 65.4252 47.6264C65.9018 48.1029 66.2949 48.5437 66.2949 48.6033C66.2949 48.7344 66.14 48.782 63.9121 49.3301L62.3037 49.7113L60.457 49.2467C59.0512 48.8893 58.5984 48.7344 58.5746 48.5795C58.5508 48.4603 58.7891 48.1387 59.1822 47.7812C59.9805 47.0545 60.5523 46.2086 60.9932 45.1006C61.3148 44.3143 61.3387 44.1355 61.3863 42.1816C61.434 39.8227 61.3148 39.0125 60.6834 37.7258C59.1822 34.6639 55.8463 33.1389 52.6057 34.0443C50.8066 34.5328 49.0553 35.9982 48.2689 37.6543C47.6613 38.941 47.5541 39.6678 47.6137 42.1459C47.6613 44.1355 47.6852 44.3143 48.0068 45.1006C48.4477 46.2086 49.0195 47.0545 49.8178 47.7812C50.2109 48.1387 50.4492 48.4603 50.4254 48.5795C50.4016 48.7344 49.9488 48.8893 48.543 49.2467L46.6963 49.7113L45.0879 49.3301C42.8719 48.7939 42.7051 48.7344 42.7051 48.6152C42.7051 48.5557 43.0982 48.1148 43.5748 47.6383C44.5756 46.6375 45.1951 45.5414 45.5049 44.2428C45.6717 43.5518 45.6955 43.0156 45.6598 41.3834C45.6121 39.5963 45.5645 39.2984 45.2904 38.5598C44.933 37.5828 44.9211 37.6066 46.0291 36.1412C48.4953 32.9244 52.6533 31.3518 56.585 32.1619ZM39.8934 36.0459C42.6693 36.7727 44.1229 39.6797 43.5391 43.373C43.3008 44.8146 42.4668 46.0775 41.2873 46.7685L40.6797 47.126V48.7582V50.3904L41.1324 50.5096C41.3707 50.5691 42.026 50.7359 42.5859 50.8789C43.1459 51.01 43.6701 51.1529 43.7535 51.1768C43.8488 51.2125 43.7654 51.4389 43.4676 51.8916C42.9791 52.666 42.7527 53.357 42.6455 54.4889C42.574 55.1799 42.5264 55.299 42.3 55.3467C40.4295 55.7756 39.941 55.8828 39.8219 55.8828C39.7385 55.8828 39.7146 55.585 39.7742 54.8939L39.8576 53.8932L37.2842 52.4039L34.7107 50.9027L35.7949 50.6406L36.8672 50.3785V48.782V47.1975L36.2477 46.7924C34.5797 45.732 33.8887 44.2785 33.8887 41.8838C33.8887 39.5725 34.2937 38.3334 35.366 37.3088C36.7123 36.0459 38.2373 35.617 39.8934 36.0459ZM56.2037 36.2246C57.7049 36.7965 58.9916 38.4644 59.2656 40.1562C59.7422 43.2539 58.9797 45.5414 57.0377 46.7924L56.4062 47.1975V48.782V50.3785L59.3371 51.1053C60.9455 51.5103 62.4348 51.9273 62.6492 52.0226C63.1734 52.2967 63.65 52.7732 63.9478 53.3213C64.1861 53.7621 64.21 53.9646 64.21 56.0615C64.21 58.3252 64.21 58.3252 63.9359 58.3609C63.793 58.3848 62.2561 57.9916 60.5166 57.5031C58.7771 57.0027 57.0258 56.55 56.6207 56.4904C56.2037 56.4309 55.0123 56.1092 53.9639 55.7637C50.89 54.7748 50.0441 54.5723 48.5311 54.4889C47.3039 54.4293 45.6598 54.5484 44.9211 54.7748C44.7186 54.8344 44.7066 54.7867 44.7662 54.2863C44.9092 53.2975 45.493 52.4635 46.3508 52.0226C46.5652 51.9273 48.0545 51.5103 49.6629 51.1053L52.5938 50.3785V48.782V47.1975L51.9623 46.7924C50.8186 46.0656 49.9846 44.8266 49.7344 43.5041C49.5795 42.6939 49.5795 40.9068 49.7344 40.0014C50.0322 38.1428 51.2475 36.7488 53.1299 36.0697C53.9162 35.7957 55.2506 35.8553 56.2037 36.2246ZM72.1566 36.3318C72.5855 36.5344 73.1932 36.9514 73.5148 37.273C74.6586 38.4049 75.1113 39.7035 75.1113 41.9553C75.1113 44.2666 74.3965 45.732 72.7643 46.7924L72.1328 47.1975V48.782V50.3785L74.4561 50.9504C75.7309 51.2721 76.7793 51.558 76.7793 51.5937C76.7793 51.6414 66.8906 56.9074 66.5332 57.0504C66.4855 57.0623 66.4141 56.3117 66.3783 55.3824C66.2949 53.4762 66.152 52.8685 65.5324 51.8916C65.2346 51.4389 65.1512 51.2125 65.2465 51.1768C65.3299 51.1529 65.8541 51.01 66.4141 50.8789C66.974 50.7359 67.6293 50.5691 67.8795 50.5096L68.3203 50.3904V48.7582V47.126L67.7127 46.7685C66.1043 45.8273 65.3418 44.1951 65.3418 41.7051C65.3418 39.6678 65.7826 38.393 66.8311 37.3445C67.8795 36.2842 68.9756 35.8553 70.4172 35.9148C71.1916 35.9506 71.5371 36.034 72.1566 36.3318ZM30.0881 50.6525C32.0182 51.7725 33.6146 52.7137 33.6385 52.7375C33.71 52.7971 30.1715 66.8437 30.0881 66.8437C30.0523 66.8437 29.123 66.5459 28.027 66.1766L26.0254 65.5094V57.0623V48.6152H26.3113C26.4662 48.6152 28.1699 49.5326 30.0881 50.6525ZM82.9746 56.2998V61.7207L74.742 65.843L66.4975 69.9533L66.1877 69.6674C65.3775 68.9287 58.658 62.9002 58.0742 62.3998C57.2402 61.685 56.4062 61.3633 55.3459 61.3633C54.2379 61.3633 53.809 61.542 51.4023 62.9717C48.96 64.4252 48.6859 64.4967 48.0783 63.8057C47.6375 63.2934 47.566 62.5309 47.9354 62.0662C48.0664 61.8994 49.5318 61.1012 51.4143 60.1719L54.6549 58.5635L55.7391 58.5754C56.7279 58.5873 57.1092 58.6707 59.9209 59.4928C62.4943 60.2553 63.1496 60.4102 63.8525 60.4102H64.6984L73.7412 55.6445C78.7213 53.0234 82.8316 50.8789 82.8912 50.8789C82.9389 50.8789 82.9746 53.3213 82.9746 56.2998ZM36.9029 54.6199C37.3438 54.8701 37.7012 55.1322 37.7012 55.2037C37.7012 55.4301 34.115 67.9637 34.0197 68.059C33.9721 68.1185 33.5312 68.0232 33.0309 67.8564L32.1373 67.5467L33.7338 61.1488C34.6154 57.6342 35.3898 54.5484 35.4494 54.2982C35.5686 53.8574 35.5805 53.8455 35.8307 54.0123C35.9736 54.0957 36.4502 54.3816 36.9029 54.6199ZM50.6875 56.967C51.4381 57.1695 52.0814 57.3482 52.1053 57.3721C52.1291 57.3959 51.0092 57.9797 49.6391 58.6707C48.257 59.3617 46.9346 60.1004 46.6963 60.3029C45.8266 61.0773 45.4215 62.3998 45.6717 63.6508C45.9457 64.9732 46.9584 65.974 48.2809 66.26C49.4127 66.4982 49.9607 66.3076 52.3674 64.8779C53.523 64.175 54.6549 63.5555 54.8813 63.484C55.465 63.3053 56.1441 63.5316 56.8352 64.1273C58.6223 65.6881 64.615 71.0971 64.901 71.4068C65.3061 71.8715 65.3299 72.4195 64.9605 72.765C64.6031 73.0748 64.198 73.1701 63.8287 73.0271C63.6619 72.9676 62.2918 71.8953 60.7906 70.6443C59.2895 69.3934 58.0504 68.3807 58.0385 68.4045C58.0146 68.4283 57.7287 68.7857 57.3832 69.1789C57.0377 69.584 56.7637 69.9414 56.7637 69.9771C56.7637 70.0129 57.8717 70.966 59.2418 72.0859C60.6 73.2178 61.8271 74.2662 61.982 74.433C62.5777 75.0764 62.1369 76.0176 61.2314 76.0176C60.7787 76.0176 60.5881 75.8865 57.9551 73.6943C56.4182 72.4195 55.1314 71.3711 55.0957 71.383C55.06 71.383 54.7502 71.7404 54.4047 72.1693C53.9043 72.8008 53.809 72.9914 53.9281 73.0986C54.0115 73.182 55.2268 74.1947 56.6207 75.3504C58.0146 76.518 59.2061 77.5902 59.2656 77.757C59.3967 78.0906 59.3252 78.3646 58.9916 78.734C58.6699 79.0914 58.098 79.0795 57.5381 78.6863C56.8709 78.2336 55.0957 76.7205 55.0957 76.6014C55.0957 76.5537 54.8813 76.2916 54.6072 76.0414C54.1307 75.5768 53.5588 75.267 52.9273 75.1359C52.6891 75.0764 52.5818 74.9691 52.5342 74.7309C52.2721 73.4441 51.0092 72.2051 49.9488 72.2051C49.7105 72.2051 49.651 72.1098 49.5318 71.6213C49.2459 70.4418 48.4119 69.5959 47.2563 69.3219C46.7201 69.1908 46.6367 69.1312 46.6367 68.8691C46.6248 68.0113 45.6121 66.7603 44.6471 66.4387C43.1697 65.9383 42.1213 66.3195 40.4652 67.9875C39.8338 68.607 39.2977 69.0955 39.25 69.0836C39.2023 69.0598 38.5471 68.6785 37.7965 68.2258L36.4264 67.4037L37.7488 62.8168L39.0713 58.218L42.4668 57.4674C44.3373 57.0504 46.2436 56.6572 46.6963 56.6096C47.9115 56.4547 49.1268 56.5619 50.6875 56.967ZM44.2301 68.6309C44.5875 68.9644 44.659 69.3695 44.4564 69.7746C44.3611 69.9652 43.825 70.5609 43.265 71.0971C42.4072 71.943 42.2047 72.0859 41.8592 72.0859C41.4064 72.074 41.1443 71.9191 40.9418 71.526C40.6559 71.0018 40.775 70.7635 41.9545 69.5721C42.991 68.5117 43.1459 68.3926 43.5391 68.3926C43.8131 68.3926 44.0633 68.4879 44.2301 68.6309ZM46.8512 71.383C47.3277 71.5498 47.6375 72.1693 47.4707 72.6221C47.4111 72.7889 46.875 73.4084 46.3031 73.9922C45.3738 74.9453 45.1951 75.0644 44.8258 75.0644C44.2658 75.0644 43.7773 74.5879 43.7773 74.0398C43.7773 73.6943 43.9203 73.4799 44.7066 72.6578C45.5168 71.8119 46.184 71.2519 46.4104 71.2519C46.4461 71.2519 46.6486 71.3115 46.8512 71.383ZM49.8893 74.3734C50.2824 74.576 50.4373 74.8381 50.4492 75.2908C50.4492 75.6363 50.3062 75.8389 49.4723 76.6967C48.9242 77.2566 48.3285 77.7928 48.1379 77.8881C47.4945 78.2217 46.7559 77.7451 46.7559 76.9826C46.7559 76.6133 46.8869 76.4346 47.9234 75.398C49.1268 74.1947 49.3531 74.0756 49.8893 74.3734ZM53.118 77.5187C53.3324 77.7332 53.4277 77.9596 53.4277 78.2455C53.4277 78.5791 53.2848 78.7935 52.4627 79.6394C51.1283 81.0453 50.5445 81.2598 49.9607 80.5926C49.4246 79.9611 49.6152 79.4846 50.9615 78.1859C51.8432 77.3519 52.0576 77.209 52.3912 77.209C52.6771 77.209 52.9035 77.3043 53.118 77.5187ZM56.2871 80.676C56.5611 81.3193 56.0488 81.9746 55.2863 81.9746C55.0242 81.9746 54.0234 81.3193 54.0234 81.1525C54.0234 81.1049 54.1902 80.9143 54.3928 80.7117C54.5953 80.5211 54.8574 80.1875 54.9885 79.985L55.2268 79.5918L55.6914 79.9611C55.9416 80.1637 56.2156 80.4853 56.2871 80.676Z" fill="white"/>
                                </g>
                                <defs>
                                    <clipPath id="clip0_45_477">
                                        <rect width="61" height="61" fill="white" transform="translate(24 23)"/>
                                    </clipPath>
                                </defs>
                            </svg>