<svg width="50" height="38" viewBox="0 0 50 38" fill="none" xmlns="http://www.w3.org/2000/svg">
<path d="M6.53397 0.533203L6.25076 0.816406V3.6582V6.5H3.40897H0.567169L0.283966 6.7832L0.000762939 7.06641V20.7285C0.000762939 35.875 -0.0480652 34.7812 0.635529 35.8457C1.17264 36.6758 1.93436 37.2715 2.87186 37.584C3.32108 37.7402 5.06912 37.75 25.0008 37.75C44.8933 37.75 46.6805 37.7402 47.1297 37.584C48.3894 37.1641 49.4051 36.1484 49.8347 34.8789C49.991 34.4395 50.0008 33.0039 50.0008 17.6035V0.816406L49.7176 0.533203L49.4344 0.25H28.1258H6.81717L6.53397 0.533203ZM47.8523 18.1699C47.8523 32.2129 47.8328 33.9902 47.6961 34.3125C47.5008 34.791 47.1101 35.1914 46.6316 35.416C46.2605 35.5918 45.5183 35.6016 27.0808 35.6016C16.534 35.6016 7.91092 35.5918 7.91092 35.5723C7.91092 35.5625 8.00858 35.3086 8.13553 35.0156L8.35037 34.4785L8.37967 18.4336L8.3992 2.39844H28.1258H47.8523V18.1699ZM6.25076 20.9922C6.25076 28.9121 6.2117 33.5117 6.15311 33.8535C5.84061 35.4746 4.06326 36.1387 2.86209 35.084C2.66678 34.9082 2.4324 34.5957 2.33475 34.3809C2.15897 34.0098 2.1492 33.3652 2.1492 21.3145V8.64844H4.19998H6.25076V20.9922Z" fill="#30A9E0"/>
<path d="M10.762 6.7434C10.3909 7.0559 10.2835 7.55394 10.4984 8.00316C10.8304 8.69652 9.46321 8.64769 28.1253 8.64769C46.7874 8.64769 45.4202 8.69652 45.7523 8.00316C45.9671 7.55394 45.8597 7.0559 45.4886 6.7434L45.1956 6.49926H28.1253H11.055L10.762 6.7434Z" fill="#30A9E0"/>
<path d="M10.7227 13.0332L10.4004 13.3164V22.125V30.9336L10.7227 31.2168L11.0352 31.5H21.875H32.7148L33.0273 31.2168L33.3496 30.9336V22.125V13.3164L33.0273 13.0332L32.7148 12.75H21.875H11.0352L10.7227 13.0332ZM31.25 22.125V29.3516H21.875H12.5V22.125V14.8984H21.875H31.25V22.125Z" fill="#30A9E0"/>
<path d="M17.0229 16.949C16.0952 17.1444 15.2846 17.7987 14.8549 18.7069L14.601 19.244L14.5717 22.8768C14.5424 26.9588 14.5424 26.9881 15.2163 27.2713C15.4995 27.3885 15.6362 27.3983 15.9389 27.3006C16.4858 27.1444 16.7006 26.744 16.7006 25.9041V25.2498H17.726H18.7514V25.9725C18.7514 26.6072 18.7807 26.7342 18.9956 26.9881C19.4838 27.5643 20.4213 27.4471 20.7534 26.7537C20.8901 26.4608 20.9096 26.0018 20.8706 22.8768C20.851 20.4256 20.8022 19.2342 20.7241 18.9803C20.4604 18.2088 19.5034 17.2518 18.771 17.0467C18.2241 16.9002 17.4819 16.8514 17.0229 16.949ZM18.2924 19.2928C18.6635 19.5858 18.7514 20.0447 18.7514 21.6561V23.1014H17.726H16.7006V21.5487C16.7006 20.6893 16.7397 19.8787 16.7885 19.7518C17.0327 19.117 17.7846 18.8924 18.2924 19.2928Z" fill="#30A9E0"/>
<path d="M23.4668 17.0079C22.8516 17.3204 22.8516 17.3496 22.8516 22.125C22.8516 26.9493 22.8516 26.9395 23.5059 27.252C23.7988 27.3985 24.0918 27.418 25.332 27.3789C26.6602 27.3399 26.8555 27.3106 27.3438 27.086C28.0273 26.7735 28.5645 26.2266 28.8965 25.543L29.1504 25.0059V22.125V19.2442L28.8965 18.7071C28.5742 18.0235 28.0273 17.4766 27.3438 17.1641C26.8555 16.9297 26.6797 16.9102 25.293 16.8809C24.043 16.8516 23.7305 16.8711 23.4668 17.0079ZM26.5527 19.2149C26.9922 19.4883 27.0508 19.8106 27.0508 22.125C27.0508 24.9766 26.9922 25.1133 25.6738 25.2207L25 25.2793V22.125V18.9707L25.6738 19.0293C26.0449 19.0586 26.4453 19.1465 26.5527 19.2149Z" fill="#30A9E0"/>
<path d="M35.8788 14.9863C35.6834 15.1035 35.5174 15.3184 35.4491 15.5234C35.2928 16.002 35.4686 16.5098 35.8788 16.7637C36.162 16.9395 36.4159 16.9492 40.6248 16.9492C44.8338 16.9492 45.0877 16.9395 45.3709 16.7637C45.5663 16.6465 45.7323 16.4316 45.8006 16.2266C45.9569 15.748 45.7811 15.2402 45.3709 14.9863C45.0877 14.8105 44.8338 14.8008 40.6248 14.8008C36.4159 14.8008 36.162 14.8105 35.8788 14.9863Z" fill="#30A9E0"/>
<path d="M35.8788 21.2363C35.6834 21.3535 35.5174 21.5684 35.4491 21.7734C35.2928 22.252 35.4686 22.7598 35.8788 23.0137C36.162 23.1895 36.4159 23.1992 40.6248 23.1992C44.8338 23.1992 45.0877 23.1895 45.3709 23.0137C45.5663 22.8965 45.7323 22.6816 45.8006 22.4766C45.9569 21.998 45.7811 21.4902 45.3709 21.2363C45.0877 21.0605 44.8338 21.0508 40.6248 21.0508C36.4159 21.0508 36.162 21.0605 35.8788 21.2363Z" fill="#30A9E0"/>
<path d="M35.8788 27.4863C35.6834 27.6035 35.5174 27.8184 35.4491 28.0234C35.2928 28.502 35.4686 29.0098 35.8788 29.2637C36.162 29.4395 36.4159 29.4492 40.6248 29.4492C44.8338 29.4492 45.0877 29.4395 45.3709 29.2637C45.5663 29.1465 45.7323 28.9316 45.8006 28.7266C45.9569 28.248 45.7811 27.7402 45.3709 27.4863C45.0877 27.3105 44.8338 27.3008 40.6248 27.3008C36.4159 27.3008 36.162 27.3105 35.8788 27.4863Z" fill="#30A9E0"/>
</svg>
