<svg width="76" height="76" viewBox="0 0 76 76" fill="none" xmlns="http://www.w3.org/2000/svg">
                                <path d="M53.75 0.828125C54.8594 1.26562 56 2.40625 56.4219 3.54688C56.75 4.39062 56.75 4.65625 56.75 14.9531V25.4844L60.1406 25.5312C63.5469 25.5781 63.5469 25.5781 64.4844 26.0312C65.6875 26.625 66.875 27.8125 67.4687 29.0156L67.9219 29.9531V48V66.0469L67.4687 66.9844C66.9219 68.0781 65.6875 69.375 64.7812 69.8125L64.125 70.1094L64.2187 71.2969C64.3125 72.7344 64.1094 73.4375 63.3281 74.2969C62.5625 75.1562 61.75 75.5 60.5 75.5C59.25 75.5 58.4375 75.1562 57.6562 74.2812C56.9375 73.5 56.7031 72.7188 56.7812 71.4688L56.8281 70.5H51.75H46.6719L46.7187 71.4688C46.7969 72.7188 46.5625 73.5 45.8437 74.2812C45.0625 75.1562 44.25 75.5 43 75.5C41.7969 75.5 40.9687 75.1562 40.2344 74.3906C39.4531 73.5625 39.2187 72.8125 39.2812 71.4219L39.3281 70.2188L38.3125 69.5469C37.1875 68.7812 36.2812 67.6875 35.875 66.6094C35.7344 66.2188 35.5937 65.875 35.5781 65.8438C35.5625 65.8281 31.5937 67.7031 26.75 70.0312C17.5781 74.4375 17.125 74.6094 16.5469 73.9688C16.4219 73.8281 12.75 66.3125 8.40624 57.2812C2.70312 45.4219 0.499992 40.7031 0.499992 40.3125C0.499992 40.0156 0.593742 39.6562 0.687492 39.5156C0.796867 39.375 6.09374 36.7344 12.4531 33.6719C23.4844 28.3594 24.0625 28.0938 25.0625 28.0312C26.3594 27.9531 27.0781 28.1875 27.9219 28.9531C28.4844 29.4688 29.0625 30.5625 32 36.6719L35.4219 43.7969L35.5 36.875L35.5781 29.9531L36.0312 29.0156C36.625 27.8125 37.8125 26.625 39.0156 26.0312L39.9531 25.5781L43.3437 25.5312L46.75 25.4844V14.9531C46.75 4.65625 46.75 4.39062 47.0781 3.54688C47.5156 2.39062 48.6406 1.26562 49.7969 0.828125C50.9531 0.390625 52.6094 0.390625 53.75 0.828125ZM50.5 3.51562C50.2031 3.70312 49.8281 4.10938 49.6562 4.40625C49.3281 4.9375 49.3281 5.1875 49.2812 15.2188L49.2344 25.5H51.75H54.2656L54.2187 15.2188C54.1719 5.1875 54.1719 4.9375 53.8437 4.40625C53.375 3.60938 52.625 3.15625 51.75 3.15625C51.25 3.15625 50.8437 3.26562 50.5 3.51562ZM56.75 31.125V34.25H55.5H54.25V31.125V28H51.75H49.25V31.125V34.25H48H46.75V31.1094V27.9688L43.8906 28.0312C40.7031 28.0938 40.0937 28.25 39.1406 29.2656C38.0469 30.4219 38.0781 30.0625 38.0312 40.0781L37.9844 49.125L40.2969 53.9062C42.3437 58.1875 42.6094 58.8125 42.6562 59.6719C42.7812 61.5938 42.0625 62.6094 39.6875 63.7969C38.625 64.3281 38.1562 64.6406 38.1562 64.8438C38.1719 65.375 38.7344 66.375 39.3594 66.9219C40.5 67.9531 40.1094 67.9219 51.75 67.9219C63.6875 67.9219 63.1875 67.9688 64.375 66.6875C65.4844 65.4844 65.4219 66.6094 65.4219 48C65.4219 29.5156 65.4687 30.5312 64.4375 29.375C63.3906 28.2188 62.7187 28.0469 59.2031 28.0156L56.75 28V31.125ZM14.3281 35.7656C8.48437 38.5781 3.67187 40.8906 3.64062 40.9219C3.59374 40.9531 3.78124 41.4375 4.06249 41.9844L4.56249 43L5.06249 42.7812C5.34374 42.6562 7.89062 41.4375 10.7344 40.0781C13.5625 38.7031 18.1406 36.5 20.8906 35.1875C23.6406 33.875 26.0312 32.6719 26.1875 32.5156C26.8594 31.8906 26.3594 30.6562 25.4375 30.6562C25.1406 30.6562 21.125 32.5 14.3281 35.7656ZM16.5469 40.2656C10.6406 43.0938 5.81249 45.4688 5.81249 45.5469C5.81249 45.6719 17.9531 70.9844 18.0781 71.1094C18.125 71.1406 19.5156 70.5156 21.1562 69.7188C22.8125 68.9219 27.6094 66.625 31.8281 64.6094C36.0312 62.5938 39.6094 60.7969 39.75 60.625C39.9062 60.4531 40.0312 60.1562 40.0312 59.9531C40.0312 59.75 37.6719 54.6875 34.7812 48.6875C31.8906 42.6719 29.1875 37.0469 28.7656 36.1562L28 34.5312L27.6406 34.8281C27.4375 34.9844 22.4375 37.4219 16.5469 40.2656ZM59.7187 70.9688C59.0469 71.6406 59.5469 72.8438 60.5 72.8438C61.0937 72.8438 61.5937 72.3438 61.5937 71.75C61.5937 71.1562 61.0937 70.6562 60.5 70.6562C60.2344 70.6562 59.8906 70.7969 59.7187 70.9688ZM42.2187 70.9688C41.5469 71.6406 42.0469 72.8438 43 72.8438C43.5937 72.8438 44.0937 72.3438 44.0937 71.75C44.0937 71.1562 43.5937 70.6562 43 70.6562C42.7344 70.6562 42.3906 70.7969 42.2187 70.9688Z" fill="#30A9E0"/>
                                <path d="M60.5 51.125V65.5H59.25H58V51.125V36.75H59.25H60.5V51.125Z" fill="#30A9E0"/>
                                <path d="M53 51.125V65.5H51.75H50.5V51.125V36.75H51.75H53V51.125Z" fill="#30A9E0"/>
                                <path d="M45.5 51.125V65.5H44.25H43V51.125V36.75H44.25H45.5V51.125Z" fill="#30A9E0"/>
                                <path d="M22.9222 41.3904C26.1097 41.8123 28.8753 44.0467 30.0316 47.1404C30.4691 48.3123 30.6253 50.7498 30.3441 52.031C29.3284 56.7342 24.6097 59.7498 19.8441 58.7654C17.8128 58.3435 15.4534 56.7185 14.3284 54.9529C12.0941 51.4529 12.5784 46.8904 15.4847 43.9373C17.4066 41.9998 20.2191 41.031 22.9222 41.3904ZM22.6878 45.1404C23.3441 45.8123 24.0316 46.5623 24.2034 46.8279L24.5316 47.2967L25.4847 46.8279C26.0159 46.5779 26.4378 46.3279 26.4378 46.2654C26.4378 46.0623 25.2034 45.0467 24.5316 44.7029C23.8128 44.3279 22.5628 43.9685 21.8909 43.9529C21.5316 43.9373 21.6253 44.0623 22.6878 45.1404ZM19.7816 47.0935C19.8441 47.6404 19.9691 48.3748 20.0628 48.7342L20.2191 49.3904L21.0628 48.9685C21.5316 48.7498 21.9066 48.4685 21.9066 48.3592C21.9066 48.1404 20.0003 46.1248 19.7972 46.1248C19.7347 46.1248 19.7347 46.5623 19.7816 47.0935ZM16.2503 47.406C15.7347 48.4373 15.4847 49.781 15.6097 50.7967L15.7034 51.5779L16.6566 51.0935C17.1722 50.8279 17.6409 50.5935 17.6566 50.5779C17.6878 50.5467 17.6097 50.0467 17.4847 49.4529C17.3441 48.8748 17.1878 47.9217 17.1409 47.3279C17.0159 46.1092 16.8753 46.1248 16.2503 47.406ZM25.7347 49.8279C25.7347 49.906 25.8597 50.4529 26.0159 51.0779C26.1566 51.7029 26.2816 52.6717 26.2816 53.2498V54.2967L26.5941 53.8904C27.2972 52.9998 27.7503 51.7185 27.8128 50.4529C27.9066 48.7185 27.8909 48.7029 26.7191 49.2498C26.1722 49.5154 25.7347 49.7654 25.7347 49.8279ZM22.3128 51.3592C21.2659 51.8279 21.2659 51.8904 22.6566 53.281L23.5472 54.1717L23.5941 53.4217C23.6409 52.7654 23.3753 50.9685 23.2503 50.9685C23.2191 50.9685 22.7972 51.1404 22.3128 51.3592ZM17.9066 53.4685L16.8597 53.9529L17.3909 54.4998C18.1409 55.281 19.9222 56.1248 21.0472 56.2342L21.9847 56.3279L21.0316 55.4529C20.5003 54.9685 19.8441 54.2185 19.5472 53.781C19.2503 53.3592 19.0003 52.9998 18.9847 52.9998C18.9847 52.9998 18.4847 53.2185 17.9066 53.4685Z" fill="#30A9E0"/>
                                <path d="M33.4531 59.797C33.7343 60.4532 33.9531 61.0001 33.9218 61.0157C33.7187 61.172 22.6406 66.4376 22.6093 66.4064C22.4843 66.2657 21.4218 64.047 21.4687 64.0157C21.5937 63.922 32.7187 58.6251 32.8125 58.6251C32.875 58.6251 33.1562 59.1564 33.4531 59.797Z" fill="#30A9E0"/>
                                <path d="M42.9061 0.734296C43.7499 0.859296 44.4686 0.984296 44.4999 1.01555C44.578 1.07805 44.1717 3.45305 44.0624 3.5468C44.0311 3.59367 43.578 3.5468 43.078 3.45305C41.7342 3.20305 38.3592 3.06242 36.203 3.1718C35.1717 3.21867 34.3124 3.24992 34.2967 3.24992C34.2811 3.2343 34.2342 2.6718 34.1717 1.96867C34.0624 0.734296 34.0624 0.703046 34.4217 0.609296C35.0936 0.421796 41.328 0.531171 42.9061 0.734296Z" fill="#30A9E0"/>
                                <path d="M18.2344 2.25L21.6719 3.96875L23.1562 3.09375C25.0625 1.95312 25.9531 1.6875 27.6094 1.78125C29.3125 1.875 30.5937 2.46875 31.9844 3.8125C32.9062 4.71875 33 4.875 33 5.4375C33 5.78125 32.9062 6.17188 32.7969 6.3125C32.5781 6.59375 11.7969 19.3281 11.0156 19.6562C10.7344 19.7812 10.0937 19.875 9.59375 19.875C8.10937 19.875 7.48437 19.4531 4.4375 16.3906C1.78125 13.7188 1.75 13.6719 1.75 13C1.75 12.3438 1.8125 12.25 3.28125 10.7812C5.25 8.8125 5.375 8.79688 7.57812 10.2812C8.42187 10.8438 9.20312 11.2812 9.3125 11.25C9.64062 11.1719 14.7187 7.78125 14.7187 7.64062C14.7187 7.57812 14.0469 6.64062 13.2344 5.54688C11.9375 3.82812 11.75 3.5 11.75 2.95312C11.75 2.39062 11.8594 2.21875 12.6562 1.40625C13.9687 0.109375 14 0.109375 18.2344 2.25ZM15.3437 3.82812C15.3437 3.85938 15.9375 4.6875 16.6719 5.65625C17.7656 7.125 18 7.53125 18 8C18 8.3125 17.9062 8.67188 17.7969 8.8125C17.7031 8.95312 15.8594 10.2344 13.7031 11.6562C10.5156 13.7812 9.70312 14.25 9.25 14.25C8.82812 14.25 8.32812 14 7.20312 13.25L5.6875 12.2344L5.32812 12.625L4.96875 13.0156L7.0625 15.1094C8.6875 16.7344 9.26562 17.2188 9.57812 17.2188C9.89062 17.2188 20.8437 10.6562 29.1406 5.5L29.5937 5.23438L29 4.875C28.2969 4.4375 27.0156 4.29688 26.2031 4.5625C25.875 4.67188 24.8594 5.20312 23.9531 5.75C22.7344 6.48438 22.1562 6.75 21.75 6.73438C21.375 6.73438 20.2656 6.26562 18.3125 5.26562C15.2344 3.70312 15.3437 3.75 15.3437 3.82812Z" fill="#30A9E0"/>
                                <path d="M61.4373 8.59375C69.0467 14.6875 73.9998 23.4844 75.2655 33.2031C75.5623 35.5312 75.578 40.625 75.2811 42.8438C74.9686 45.1094 74.3436 47.8438 73.6405 49.9219C72.9998 51.8281 71.7811 54.7188 71.6092 54.7188C71.5623 54.7031 71.0155 54.4375 70.3905 54.125L69.2655 53.5469L69.9061 52.1406C71.2655 49.1406 72.3123 45.2969 72.703 41.9219C72.9686 39.5156 72.8123 34.1562 72.3905 31.9844C70.7342 23.3281 66.3592 16 59.5936 10.5938C58.9842 10.0938 58.4686 9.65625 58.4686 9.60938C58.4686 9.46875 59.9061 7.53125 59.9998 7.53125C60.0623 7.53125 60.703 8.01562 61.4373 8.59375Z" fill="#30A9E0"/>
                                <path d="M36.5938 14.8906C38.4688 15.0937 39.7188 15.6562 41.4844 17.1093C42.5 17.9374 42.9688 18.1874 43.8125 18.3749C44.25 18.4687 44.25 18.4843 44.25 19.7968V21.1093L43.7344 21.0312C41.8438 20.7187 41.0312 20.3437 39.6875 19.1406C37.1406 16.8749 33.7812 16.9218 31.2031 19.2499C30.0156 20.3281 29.2812 20.6562 28 20.6562C26.8906 20.6562 26.0625 20.3593 25.25 19.6718C24.2969 18.8749 24 18.9999 21.6875 21.2499C20.5469 22.3437 19 23.7031 18.25 24.2812C14.6875 26.9531 10.3594 28.6562 5.8125 29.1562L4.17188 29.3437L3.90625 30.4999C3.76562 31.1406 3.51562 32.5468 3.39062 33.6249C3.25 34.7031 3.10938 35.5937 3.07812 35.6249C3.04688 35.6562 2.45312 35.6249 1.76562 35.5624C0.875 35.4999 0.5 35.3906 0.5 35.2499C0.5 35.1406 0.609375 34.2187 0.734375 33.2031C1.0625 30.7656 1.64062 28.2187 2.35938 26.0781C2.98438 24.2031 4.20312 21.3281 4.42188 21.2031C4.48438 21.1562 5.04688 21.3593 5.65625 21.6718C6.875 22.2812 6.875 22.2812 6.26562 23.4999C5.8125 24.3906 5.01562 26.4687 5.09375 26.5468C5.25 26.7031 8.39062 26.0468 10.0469 25.4999C13.7812 24.2656 16.2188 22.7187 19.5938 19.4374C22.1875 16.9218 22.7031 16.5937 24.25 16.5937C25.3594 16.5937 26.1875 16.8906 27 17.5781C27.7812 18.2343 28.2969 18.1406 29.4688 17.1562C30.7656 16.0624 31.5938 15.5937 32.9219 15.2031C34.2344 14.8281 35.2188 14.7499 36.5938 14.8906Z" fill="#30A9E0"/>
                                <path d="M28.9377 71.6875C30.8284 72.2188 33.4534 72.6719 35.2971 72.7969C37.1252 72.9062 37.0002 72.75 36.8127 74.5469L36.7034 75.5H35.8752C34.7659 75.5 31.7034 75.0938 29.9534 74.7188C28.1877 74.3281 26.2815 73.7656 26.2815 73.625C26.2815 73.5781 26.4534 73.0469 26.6409 72.4375C26.9221 71.625 27.094 71.3594 27.3127 71.3438C27.469 71.3281 28.2034 71.4844 28.9377 71.6875Z" fill="#30A9E0"/>
                            </svg>