<svg width="36" height="48" viewBox="0 0 36 48" fill="none" xmlns="http://www.w3.org/2000/svg">
                                        <path d="M2.47266 0.962852C1.88672 1.22652 1.42773 1.68551 1.14453 2.27145L0.910156 2.75973V21.998V41.2363L1.14453 41.7246C1.42773 42.3105 1.88672 42.7695 2.47266 43.0332C2.89258 43.2285 3.10742 43.2382 6.63281 43.2382C10.2559 43.2382 10.3535 43.2285 10.5293 43.0429C10.7637 42.7793 10.7637 42.2324 10.5391 41.9785C10.373 41.7929 10.2168 41.7832 6.82812 41.7539C2.95117 41.7246 3 41.7246 2.59961 41.1191C2.43359 40.8652 2.42383 39.8496 2.42383 21.998C2.42383 4.14644 2.43359 3.13082 2.59961 2.87691C2.6875 2.73043 2.88281 2.53512 3.0293 2.44723C3.2832 2.28121 4.11328 2.27145 18 2.27145C31.8867 2.27145 32.7168 2.28121 32.9707 2.44723C33.1172 2.53512 33.3125 2.73043 33.4004 2.87691C33.5664 3.13082 33.5762 4.14644 33.5762 21.998C33.5762 39.8496 33.5664 40.8652 33.4004 41.1191C33.0293 41.6855 32.873 41.7246 30.7637 41.7539C28.918 41.7929 28.8203 41.7832 28.8789 41.6074C29.0449 41.0507 29.1328 39.9472 29.1328 38.2773V36.4023H29.8555C30.666 36.4023 31.0566 36.2168 31.4473 35.6308L31.6719 35.2988V23.6972V12.0957L31.418 11.9003C31.0859 11.6367 30.793 11.6367 30.4609 11.9003L30.207 12.0957V23.3652C30.207 35.9336 30.2656 34.9375 29.5137 34.9375H29.1328V33.4921C29.1328 31.7636 29.0156 31.2558 28.4492 30.6113C27.8828 29.9765 27.209 29.664 26.3789 29.664C26.0078 29.664 25.5586 29.7324 25.373 29.8105L25.0312 29.9472L24.8848 29.6054C24.4648 28.58 23.4297 27.9062 22.3066 27.9062C21.8379 27.9062 21.5254 27.9746 21.1738 28.1406L20.6855 28.3652L20.1777 27.9062C19.3867 27.1836 18.3125 26.9394 17.3945 27.2617L17.0234 27.3984V24.9277V22.4668L18.2734 22.4082C20.4414 22.3203 21.8574 21.7148 23.3809 20.1914C24.1816 19.4003 24.3867 19.1269 24.7773 18.3359C25.4609 16.9394 25.6562 16.041 25.5879 14.5273C25.5098 12.5449 24.9043 11.041 23.625 9.67379C22.0234 7.95504 19.9629 7.1152 17.6094 7.22262C15.7051 7.32027 13.9668 8.09175 12.6191 9.44918C11.7305 10.3378 11.1836 11.2265 10.7539 12.4765C10.4512 13.3554 10.4414 13.4726 10.4414 14.8203C10.4414 16.1386 10.4609 16.2949 10.7441 17.1445C11.125 18.2675 11.6816 19.2246 12.4531 20.0449C12.7754 20.3964 13 20.6796 12.9512 20.6796C12.7363 20.6796 12.0137 21.4218 11.7695 21.8906L11.5059 22.3886L11.4766 27.4961C11.4473 32.291 11.4375 32.6035 11.2812 32.5449C10.6758 32.2812 10.3535 32.2128 9.79688 32.2031C9.01562 32.2031 8.60547 32.3105 8.01953 32.6816C7.47266 33.0332 6.99414 33.7949 6.90625 34.4785C6.83789 34.9375 6.83789 34.9375 6.4668 34.9375C5.73438 34.9375 5.79297 36.2656 5.79297 20.289C5.79297 7.37886 5.8125 5.93356 5.94922 5.79684C6.08594 5.66012 7.31641 5.64059 18 5.64059C28.6836 5.64059 29.9141 5.66012 30.0508 5.79684C30.1875 5.92379 30.207 6.25582 30.207 7.94527C30.207 9.8105 30.2168 9.94722 30.4023 10.1328C30.666 10.3964 31.2129 10.3964 31.4766 10.1328C31.6621 9.94722 31.6719 9.8105 31.6719 7.60347C31.6719 5.34761 31.6621 5.26949 31.4473 4.94723C31.3301 4.77145 31.0762 4.51754 30.9004 4.40035L30.5684 4.17574H18H5.43164L5.09961 4.40035C4.92383 4.51754 4.66992 4.77145 4.55273 4.94723L4.32812 5.27926V20.289V35.2988L4.55273 35.6308C4.97266 36.2558 5.31445 36.4023 6.36914 36.4023H7.31641L10.168 40.6113L13.0195 44.8203V45.8359C13.0195 47.4082 12.1699 47.2421 20.1875 47.2421H26.9746L27.1699 46.9882C27.3457 46.7636 27.375 46.5878 27.375 45.7578C27.375 44.83 27.3848 44.7714 27.7656 44.0195L28.1562 43.2382H30.627C33.0098 43.2382 33.1074 43.2285 33.5762 43.0039C34.1621 42.7207 34.6211 42.2617 34.8848 41.6757C35.0801 41.2363 35.0898 41.1386 35.0898 21.998C35.0898 2.85738 35.0801 2.75973 34.8848 2.32027C34.6211 1.73434 34.1621 1.27535 33.5762 0.992149L33.0879 0.757774H18C3.03906 0.757774 2.91211 0.76754 2.47266 0.962852ZM19.5332 8.99996C22.2871 9.73238 24.2109 12.3789 24.0254 15.1816C23.8105 18.375 21.1641 20.875 18 20.875C15.2363 20.875 12.8438 18.9707 12.1406 16.2265C11.3105 13.0039 13.4297 9.67379 16.7891 8.92183C17.5508 8.74605 18.7227 8.78511 19.5332 8.99996ZM15.0508 22.2812L15.4121 22.6132L15.4609 26.4902L15.5098 30.3671L15.7441 30.5527C16.2129 30.9336 17.0234 30.6308 17.0234 30.0839C17.0234 29.0976 18.0879 28.3945 18.8496 28.873C19.3379 29.1757 19.4746 29.4785 19.5332 30.3476C19.582 31.041 19.6211 31.1582 19.8359 31.3242C20.3633 31.7441 20.9688 31.4218 21.0859 30.6601C21.1836 30.0253 21.7207 29.4687 22.248 29.4687C22.4531 29.4687 22.7559 29.5566 22.9316 29.664C23.4199 29.9668 23.5664 30.455 23.5664 31.705C23.5664 32.8964 23.6641 33.1308 24.2109 33.2382C24.6602 33.3261 25.0215 32.9746 25.1387 32.3496C25.3633 31.08 26.8477 30.7968 27.4238 31.9101C27.5508 32.1445 27.5703 32.8476 27.5703 36.1386C27.5703 38.5019 27.5312 40.3086 27.4629 40.6601C27.3945 41.0312 27.0918 41.7734 26.6133 42.75C25.9004 44.1757 25.8613 44.2929 25.8223 45.0156L25.793 45.7773H20.1875H14.582V45.0449V44.3027L12.7852 41.6464C11.7988 40.1816 10.4219 38.1406 9.70898 37.0957C8.9375 35.9531 8.42969 35.1035 8.42969 34.957C8.42969 34.5957 8.69336 34.1171 9.00586 33.9316C9.65039 33.5507 10.5586 33.8046 11.418 34.5859C12.0332 35.1328 12.4824 35.2011 12.8145 34.7812C13.0195 34.5273 13.0195 34.4394 13.0195 28.7656C13.0195 22.5253 13.0098 22.5839 13.5566 22.164C13.7422 22.0175 13.9668 21.9492 14.25 21.9492C14.6016 21.9492 14.748 22.0078 15.0508 22.2812Z" fill="#30A9E0"/>
                                        <path d="M15.5098 12.2324C15.2949 12.4473 15.2656 12.5449 15.2656 13.2578C15.2656 13.9707 15.2949 14.0684 15.5098 14.2832C15.6562 14.4395 15.8613 14.5273 16.0469 14.5273C16.2324 14.5273 16.4375 14.4395 16.584 14.2832C16.7988 14.0684 16.8281 13.9707 16.8281 13.2578C16.8281 12.5449 16.7988 12.4473 16.584 12.2324C16.4375 12.0762 16.2324 11.9883 16.0469 11.9883C15.8613 11.9883 15.6562 12.0762 15.5098 12.2324Z" fill="#30A9E0"/>
                                        <path d="M19.416 12.2324C19.2012 12.4473 19.1719 12.5449 19.1719 13.2578C19.1719 13.9707 19.2012 14.0684 19.416 14.2832C19.5625 14.4395 19.7676 14.5273 19.9531 14.5273C20.1387 14.5273 20.3438 14.4395 20.4902 14.2832C20.7051 14.0684 20.7344 13.9707 20.7344 13.2578C20.7344 12.5449 20.7051 12.4473 20.4902 12.2324C20.3438 12.0762 20.1387 11.9883 19.9531 11.9883C19.7676 11.9883 19.5625 12.0762 19.416 12.2324Z" fill="#30A9E0"/>
                                        <path d="M13.5073 15.0449C13.3706 15.1133 13.2046 15.2891 13.1362 15.4355C13.0191 15.6699 13.0288 15.7871 13.2046 16.3047C13.8882 18.3262 15.8316 19.7031 17.9995 19.7031C19.7183 19.7031 21.3687 18.8047 22.2866 17.3691C22.7359 16.6758 23.0093 15.7969 22.8921 15.4746C22.7554 15.1133 22.3648 14.8789 22.0327 14.9668C21.73 15.0352 21.4175 15.2793 21.4175 15.4453C21.4175 15.7676 20.8023 16.7734 20.3628 17.1934C19.6011 17.8965 19.1128 18.082 17.9995 18.0918C17.1694 18.0918 17.0132 18.0625 16.5347 17.8184C15.8023 17.4375 15.1968 16.8418 14.8648 16.1387C14.7085 15.8164 14.5816 15.5039 14.5816 15.4453C14.5816 15.1133 13.8882 14.8496 13.5073 15.0449Z" fill="#30A9E0"/>
                                    </svg>