<svg width="86" height="86" viewBox="0 0 86 86" fill="none" xmlns="http://www.w3.org/2000/svg">
                                <circle cx="43" cy="43" r="43" fill="#30A9E0"/>
                                <path d="M26.5066 19.2053C25.8592 19.3945 25.2416 19.9125 24.9229 20.5301L24.624 21.1277L24.5941 23.3988L24.5543 25.6699H23.09C20.9684 25.6699 20.301 25.9588 19.7232 27.1441L19.4443 27.7119V44.5957V61.4795L19.6734 61.9477C19.8029 62.1967 20.1018 62.5852 20.3408 62.8143C21.1377 63.5514 20.7393 63.5215 30.5707 63.5215H39.3164V65.5137C39.3164 67.3764 39.3264 67.5158 39.5156 67.7051C39.7148 67.9043 39.8443 67.9043 46.0898 67.9043C52.3354 67.9043 52.4648 67.9043 52.6641 67.7051C52.8533 67.5158 52.8633 67.3764 52.8633 65.5137V63.5215H56.4293C60.5232 63.5215 60.7424 63.4916 61.4994 62.7943C62.2963 62.0672 62.366 61.8182 62.4059 59.2184L62.4457 56.9672L64.0594 56.9273C65.4838 56.8975 65.7129 56.8676 66.0715 56.6783C66.6293 56.3795 67.0975 55.9014 67.3465 55.3535L67.5557 54.9053V38.0115V21.1277L67.2568 20.5301C66.9281 19.8926 66.3105 19.3846 65.6332 19.1953C65.165 19.0658 26.9549 19.0758 26.5066 19.2053ZM65.4141 20.6396C65.5635 20.7193 65.7926 20.9086 65.9021 21.048C66.1014 21.307 66.1113 21.4266 66.1113 24.3352V27.3633H53.8693H41.6273L40.0535 25.7695C38.8781 24.5742 38.39 24.1459 38.1311 24.0762C37.6529 23.9467 31.6066 23.9467 31.1285 24.0762C30.9293 24.1359 30.6504 24.3152 30.5109 24.4846C30.2619 24.7734 30.252 24.8432 30.252 26.0783V27.3633H28.1004H25.9588L25.9887 24.3949C26.0186 21.1078 26.0285 21.0979 26.6959 20.6895C27.0047 20.4902 27.3533 20.4902 46.0699 20.4902C62.6947 20.4902 65.165 20.5102 65.4141 20.6396ZM39.1869 26.925C39.9937 27.7816 40.7807 28.5387 40.9301 28.6184C41.1592 28.7379 43.1613 28.7578 53.6602 28.7578H66.1113V41.7469V54.726L65.9021 54.9949C65.4439 55.5727 65.683 55.5527 58.7701 55.5428H52.415L52.943 55.3037C53.3912 55.0945 53.5008 54.9949 53.6801 54.5865C53.8494 54.208 53.8693 54.0486 53.7896 53.7598C53.7398 53.5605 52.1561 50.632 50.2734 47.2453C47.066 41.468 46.8369 41.0795 46.4982 40.94C46.1895 40.8105 46.0898 40.8006 45.7412 40.9201C45.3527 41.0596 45.3029 41.1293 43.6195 44.1475C38.649 53.0525 38.3701 53.5805 38.3801 54.0586C38.39 54.6562 38.649 55.0348 39.2666 55.3137L39.7646 55.5428H33.3896C27.2437 55.5527 27.0047 55.5428 26.6959 55.3535C26.5166 55.2539 26.2975 55.0447 26.1979 54.8854C26.0285 54.6264 26.0186 53.959 25.9887 41.6871L25.9688 28.7578H28.3992H30.8297L31.1385 28.4988C31.5369 28.1701 31.6465 27.7318 31.6465 26.4369V25.3711H34.6746H37.7027L39.1869 26.925ZM24.5941 40.9898L24.624 54.9152L24.9229 55.5129C25.2516 56.1504 25.8691 56.6584 26.5465 56.8477C26.7855 56.9074 29.5148 56.9473 34.1068 56.9473C41.2986 56.9473 41.2986 56.9473 41.4082 57.1564C41.4779 57.266 41.5477 57.6047 41.5775 57.9035L41.6373 58.4414H41.1492C40.452 58.4414 39.9937 58.6008 39.6551 58.9494C39.3662 59.2482 39.3662 59.2482 39.3363 60.6926L39.3064 62.127H30.6404C21.2373 62.127 21.5461 62.1469 21.1078 61.5791L20.8887 61.3002V44.6256C20.8887 29.1064 20.8986 27.9211 21.058 27.6521C21.3469 27.1641 21.6855 27.0645 23.1996 27.0645H24.5742L24.5941 40.9898ZM45.3926 45.4723V46.9365L45.024 47.1357C44.3068 47.5242 43.8586 48.61 44.0877 49.4467C44.3666 50.4826 45.1037 51.0006 46.1994 50.9508C46.7273 50.9209 46.9465 50.8611 47.2553 50.642C48.4605 49.8053 48.4307 47.9426 47.1955 47.1855L46.7971 46.9365L46.7871 45.4523C46.7871 44.6355 46.807 43.9881 46.827 44.008C46.8867 44.0678 52.3652 53.959 52.3652 53.9988C52.3652 54.0287 52.1959 54.0984 51.9967 54.1682C50.5225 54.6463 49.3072 56.2102 49.1977 57.7541L49.1479 58.4414H46.0898H43.0318L42.982 57.7441C42.8725 56.3098 41.8564 54.8953 40.4619 54.2379L39.8045 53.9391L39.9937 53.6203C40.0934 53.451 41.3385 51.2197 42.7529 48.6498C44.1674 46.0898 45.3428 43.998 45.3627 43.998C45.3826 43.998 45.3926 44.6555 45.3926 45.4723ZM61.0113 59.0789C60.9615 62.2963 61.2305 62.127 56.3795 62.127H52.8732L52.8434 60.6926C52.8135 59.318 52.8035 59.2383 52.5645 58.9793C52.2158 58.6107 51.7676 58.4414 51.1102 58.4414H50.5424L50.6021 57.9035C50.7117 56.8477 50.1539 56.9473 55.9611 56.9473H61.0512L61.0113 59.0789ZM51.4688 63.1729V66.5098H46.0898H40.7109V63.1729V59.8359H46.0898H51.4688V63.1729Z" fill="white"/>
                                <path d="M53.2124 22.2434C52.4653 22.6318 52.1266 23.2494 52.1864 24.0961C52.2561 25.1021 53.0032 25.7695 54.0391 25.7695C54.9755 25.7695 55.603 25.2914 55.852 24.3949C56.0612 23.5781 55.6528 22.6418 54.9257 22.2932C54.4077 22.0441 53.6407 22.0242 53.2124 22.2434Z" fill="white"/>
                                <path d="M57.4354 22.3629C56.25 23.12 56.3198 24.9428 57.545 25.5704C57.9733 25.7895 58.7602 25.8293 59.2084 25.66C60.1348 25.3114 60.583 24.0862 60.1448 23.12C59.8459 22.4725 59.3379 22.1438 58.551 22.104C57.9633 22.0741 57.8438 22.104 57.4354 22.3629Z" fill="white"/>
                                <path d="M62.0771 22.2234C61.4297 22.5123 61.0312 23.1598 61.0312 23.9268C61.0312 24.4746 61.1707 24.8432 61.5094 25.2018C61.9078 25.6301 62.2564 25.7695 62.884 25.7695C63.9896 25.7695 64.7168 25.0424 64.7168 23.9367C64.7168 23.6279 64.657 23.2494 64.5773 23.1C64.3881 22.7414 63.9299 22.323 63.5912 22.1936C63.2027 22.0441 62.4357 22.0641 62.0771 22.2234Z" fill="white"/>
                                <path d="M43.9187 33.6387C43.5003 33.8977 43.3011 34.3658 43.3011 35.1328V35.7305H38.8187H34.3462L34.2167 35.3021C34.0374 34.7045 33.2306 33.9176 32.613 33.7482C31.089 33.3199 29.5949 34.1168 29.2562 35.5412C28.7681 37.5832 30.5511 39.2666 32.5831 38.6789C33.2206 38.4896 33.8283 38.0016 34.0773 37.4736L34.2466 37.125H37.205H40.1535L39.4163 37.5732C36.7468 39.2268 34.655 41.8963 33.7785 44.765L33.5294 45.5918H32.9218C32.0951 45.5918 31.6667 45.8109 31.4277 46.3588C31.2583 46.7473 31.2384 46.9863 31.2683 48.5303C31.2982 50.0941 31.3181 50.2834 31.5074 50.5424C31.9158 51.0902 32.2245 51.1699 34.0872 51.1699C36.7568 51.1699 36.8265 51.0902 36.8265 48.3311C36.8265 46.7074 36.8066 46.5082 36.6273 46.2094C36.3982 45.8309 35.9101 45.5918 35.3822 45.5918C35.0435 45.5918 35.0335 45.5818 35.0933 45.3129C35.3025 44.4662 36.1292 42.7928 36.8165 41.8664C37.8126 40.5018 39.1872 39.2965 40.6415 38.5195C41.3786 38.1211 42.8827 37.5234 43.1417 37.5234C43.2214 37.5234 43.321 37.7127 43.3908 37.9617C43.4605 38.2406 43.6099 38.4896 43.8091 38.659L44.1179 38.918H46.0603C47.7138 38.918 48.0425 38.8881 48.2915 38.7486C48.6103 38.5594 48.8792 38.0713 48.8792 37.6928V37.4438L49.4072 37.5932C50.204 37.8123 52.2361 38.8482 52.9632 39.4061C54.7064 40.7209 56.1408 42.6434 56.8978 44.6555C57.2165 45.5121 57.2165 45.5918 56.848 45.5918C56.3699 45.5918 55.8718 45.8508 55.6527 46.2094C55.4734 46.5082 55.4534 46.7074 55.4534 48.3809C55.4534 51.1201 55.5033 51.1699 58.2126 51.1699C60.0554 51.1699 60.3742 51.0902 60.7726 50.5424C60.9618 50.2934 60.9818 50.0941 61.0117 48.6398C61.0515 46.807 60.9718 46.3588 60.5335 45.9404C60.2546 45.6715 60.1451 45.6416 59.4577 45.6117L58.6908 45.5719L58.4118 44.7152C57.4556 41.717 55.3439 39.0674 52.6843 37.5135L52.0169 37.125H55.0251C57.9935 37.125 58.0333 37.125 58.0931 37.3342C58.2027 37.6629 58.8402 38.3104 59.2685 38.5395C60.1451 38.9777 61.4001 38.8383 62.1671 38.2107C63.2329 37.3242 63.3226 35.4316 62.3464 34.4057C61.6591 33.6785 60.3243 33.4195 59.3581 33.8379C58.7306 34.1068 58.1329 34.7543 57.9536 35.3221L57.8341 35.7305H53.3617H48.8792V35.1328C48.8792 34.3658 48.68 33.8977 48.2617 33.6387C47.9628 33.4594 47.7636 33.4395 46.0902 33.4395C44.4167 33.4395 44.2175 33.4594 43.9187 33.6387ZM47.4847 36.2285V37.623H46.0902H44.6956V36.2285V34.834H46.0902H47.4847V36.2285ZM32.5533 35.3121C32.9417 35.6607 33.0513 36.3281 32.7923 36.8162C32.623 37.1549 32.1449 37.4238 31.7265 37.4238C31.1986 37.4238 30.5511 36.7664 30.5511 36.2285C30.5511 36.109 30.6208 35.8699 30.7005 35.6906C31.0292 35.0033 31.9855 34.8041 32.5533 35.3121ZM61.0216 35.1826C61.181 35.2623 61.3802 35.4914 61.4798 35.6906C62.0775 36.9557 60.4638 38.0215 59.5474 36.9656C59.2984 36.6867 59.2386 36.5273 59.2386 36.1687C59.2386 35.7803 59.2884 35.6607 59.5773 35.3719C59.8562 35.093 59.9956 35.0332 60.3243 35.0332C60.5534 35.0332 60.8722 35.1029 61.0216 35.1826ZM35.432 48.3809V49.7754H34.0374H32.6429V48.3809V46.9863H34.0374H35.432V48.3809ZM59.5673 47.9525C59.6072 48.4904 59.637 49.118 59.637 49.3471V49.7754H58.2425H56.848V49.4467C56.848 49.2574 56.8181 48.6299 56.7783 48.0521L56.7185 46.9863H58.113H59.5076L59.5673 47.9525Z" fill="white"/>
                            </svg>