<svg width="50" height="49" viewBox="0 0 50 49" fill="none" xmlns="http://www.w3.org/2000/svg">
<path d="M3.125 1.19141C2.37305 1.48438 1.47461 2.39258 1.19141 3.1543L0.976562 3.7207V20.4102V37.0996L1.19141 37.666C1.48438 38.4473 2.37305 39.3359 3.17383 39.6484C3.70117 39.8535 3.95508 39.8828 5.74219 39.9219L7.71484 39.9609V43.9062V47.8516L5.79102 47.8711L3.86719 47.9004L3.71094 48.1641C3.58398 48.4082 3.58398 48.4668 3.71094 48.7012L3.86719 48.9746H25H46.1328L46.2891 48.7012C46.416 48.4668 46.416 48.4082 46.2891 48.1641L46.1328 47.9004L44.209 47.8711L42.2852 47.8516V43.9062V39.9609L44.2676 39.9219C46.0352 39.8828 46.2988 39.8535 46.8262 39.6582C47.627 39.3457 48.5156 38.4473 48.8184 37.666L49.0234 37.0996V20.4102V3.7207L48.8086 3.1543C48.5254 2.37305 47.627 1.47461 46.8457 1.19141L46.2793 0.976562L24.9707 0.986328H3.66211L3.125 1.19141ZM46.3867 2.40234C46.9141 2.65625 47.3926 3.13477 47.627 3.66211C47.7734 3.99414 47.8027 4.42383 47.832 6.75781L47.8711 9.47266H25H2.12891L2.16797 6.75781C2.20703 3.76953 2.23633 3.59375 2.86133 2.94922C3.25195 2.53906 3.64258 2.32422 4.15039 2.23633C4.36523 2.19727 13.8574 2.17773 25.2441 2.1875L45.9473 2.19727L46.3867 2.40234ZM47.8516 23.3594C47.8516 30.3027 47.8223 36.2207 47.7832 36.5039C47.6953 37.2656 47.2461 37.9492 46.582 38.3203L46.0449 38.623L44.1699 38.6523L42.2852 38.6914V31.7871V24.8828L42.0703 24.4922C41.9531 24.2871 41.6992 24.0137 41.5039 23.8965C41.1719 23.6914 41.0645 23.6816 38.7207 23.6816C36.3477 23.6816 36.2695 23.6914 35.918 23.9062C35.7129 24.0332 35.4785 24.2969 35.3613 24.5508C35.1562 24.9609 35.1562 25.0879 35.1562 31.8164V38.6719H34.1309H33.1055V35.6348C33.1055 32.7344 33.0957 32.5781 32.9004 32.2656C32.793 32.0898 32.5586 31.8555 32.3828 31.748C32.0801 31.5527 31.9043 31.543 29.5703 31.543C27.1484 31.543 27.0703 31.5527 26.748 31.7676C26.5625 31.8848 26.3184 32.1777 26.2012 32.4219C25.9863 32.8418 25.9766 32.9395 25.9766 35.7617V38.6719H25H24.0234V33.8086C24.0234 28.9648 24.0234 28.9453 23.8086 28.5156C23.6816 28.2715 23.4375 27.9785 23.252 27.8613C22.9297 27.6465 22.8516 27.6367 20.4199 27.6367C18.0957 27.6367 17.9004 27.6465 17.5977 27.832C17.4219 27.9395 17.1973 28.1641 17.0898 28.3398C16.9043 28.6523 16.8945 28.8477 16.8945 33.6621V38.6719H15.8789H14.8535L14.8242 37.168C14.7949 35.498 14.7461 35.3516 14.0625 34.8828C13.75 34.6777 13.6719 34.668 11.2793 34.668C8.88672 34.668 8.80859 34.6777 8.49609 34.8828C7.8125 35.3516 7.76367 35.498 7.73438 37.1777L7.70508 38.6914L5.83008 38.6523L3.95508 38.623L3.41797 38.3203C2.75391 37.9492 2.30469 37.2656 2.2168 36.5039C2.17773 36.2207 2.14844 30.3027 2.14844 23.3594V10.7422H25H47.8516V23.3594ZM40.8301 25C41.0156 25.0977 41.0156 25.332 41.0156 36.4746V47.8516H38.7207H36.4258V36.4746C36.4258 25.752 36.4355 25.0977 36.6016 25.0098C36.8262 24.873 40.5762 24.873 40.8301 25ZM22.5391 28.9648L22.7539 29.1113V38.4863V47.8516H20.459H18.1641V38.4277C18.1641 29.5605 18.1738 29.0039 18.3398 28.916C18.4375 28.8574 19.2969 28.8086 20.4102 28.8086C21.9824 28.8086 22.3535 28.8379 22.5391 28.9648ZM31.8164 40.3516L31.8359 47.8516H29.541H27.2461V40.4492C27.2461 34.7559 27.2754 33.0176 27.3633 32.9297C27.4512 32.8418 28.0469 32.8125 29.6387 32.832L31.7871 32.8613L31.8164 40.3516ZM13.457 36.0547C13.5449 36.1426 13.5742 37.5977 13.5742 42.0117V47.8516H11.2793H8.98438V42.0117C8.98438 37.5977 9.01367 36.1426 9.10156 36.0547C9.26758 35.8887 13.291 35.8887 13.457 36.0547ZM16.8945 43.8965V47.8516H15.8691H14.8438V43.8965V39.9414H15.8691H16.8945V43.8965ZM25.9766 43.8965V47.8516H25H24.0234V43.8965V39.9414H25H25.9766V43.8965ZM35.1562 43.8965V47.8516H34.1309H33.1055V43.8965V39.9414H34.1309H35.1562V43.8965Z" fill="#30A9E0"/>
<path d="M5.41978 4.08203C4.08189 4.72656 3.92564 6.42578 5.10728 7.36328C5.44908 7.63672 5.5565 7.66602 6.19127 7.66602C6.79673 7.66602 6.95298 7.62695 7.29478 7.40234C8.38853 6.67969 8.369 4.96094 7.26548 4.20898C6.8065 3.89648 5.93736 3.83789 5.41978 4.08203Z" fill="#30A9E0"/>
<path d="M10.9575 4.11196C9.72701 4.71743 9.61959 6.64126 10.7524 7.39321C12.0122 8.23305 13.77 7.30532 13.77 5.81118C13.77 4.40493 12.2368 3.48696 10.9575 4.11196Z" fill="#30A9E0"/>
<path d="M16.6413 4.09157C15.5574 4.58962 15.2449 6.02516 15.987 7.02126C16.6023 7.82204 18.0183 7.93923 18.78 7.24587C19.3562 6.72829 19.532 5.63454 19.1511 4.89235C18.7117 4.04274 17.5398 3.67165 16.6413 4.09157Z" fill="#30A9E0"/>
<path d="M31.8449 4.01309C30.3019 4.62832 30.2042 6.87442 31.6984 7.52871C32.0988 7.71426 32.4015 7.71426 38.3195 7.69473L44.5109 7.66543L44.8917 7.3627C46.0734 6.4252 45.9171 4.70645 44.5792 4.09121C44.2081 3.9252 43.8175 3.90567 38.1339 3.91543C34.5792 3.91543 31.9816 3.95449 31.8449 4.01309ZM44.2081 5.39004C44.4913 5.65371 44.4913 5.92715 44.2179 6.22012L44.0128 6.44473H38.173C32.6945 6.44473 32.3331 6.43496 32.1281 6.26895C31.9913 6.16152 31.9132 5.98574 31.9132 5.80996C31.9132 5.63418 31.9913 5.4584 32.1281 5.35098C32.3331 5.18496 32.6945 5.1752 38.1632 5.1752H43.9835L44.2081 5.39004Z" fill="#30A9E0"/>
<path d="M24.0425 11.9238C22.3042 12.1875 20.5171 13.3105 19.6382 14.6973C19.2476 15.3125 19.2574 15.6152 19.6773 16.2598C20.3902 17.3242 21.6206 18.2422 22.9585 18.7012C23.6909 18.9453 23.9156 18.9844 24.9995 18.9844C26.0835 18.9844 26.3081 18.9453 27.0406 18.7012C28.3687 18.252 29.4429 17.4609 30.2339 16.3477C30.7222 15.6641 30.771 15.3613 30.4585 14.8438C29.189 12.7734 26.523 11.5527 24.0425 11.9238ZM22.7144 14.0039C22.1675 14.8242 22.1773 16.0254 22.7632 16.9434L23.0562 17.4023L22.5386 17.1191C22.021 16.8457 20.7027 15.6445 20.7027 15.4395C20.7027 15.1367 22.7534 13.4473 22.9292 13.6133C22.939 13.6328 22.8511 13.8086 22.7144 14.0039ZM28.6812 14.7168C29.023 15.0586 29.2964 15.3809 29.2964 15.4395C29.2964 15.6348 27.9878 16.8457 27.4605 17.1191L26.9429 17.4023L27.2359 16.9434C27.6265 16.3281 27.7632 15.625 27.6363 14.9609C27.5386 14.4336 27.3238 13.9258 27.148 13.8184C27.0992 13.7891 27.0503 13.7109 27.0503 13.6621C27.0503 13.457 28.0952 14.1309 28.6812 14.7168ZM25.7515 14.2578C26.1519 14.502 26.396 14.9707 26.396 15.5078C26.396 16.3086 25.5464 17.002 24.7359 16.8457C24.2671 16.7578 23.6812 16.1719 23.5933 15.6836C23.5054 15.1953 23.8081 14.5215 24.2378 14.2578C24.6577 14.0039 25.3413 14.0039 25.7515 14.2578Z" fill="#30A9E0"/>
<path d="M36.3568 17.5303C36.2103 17.6279 36.1321 17.7842 36.1321 17.9697C36.1321 18.4189 36.2298 18.5459 36.64 18.6631C37.0306 18.7607 37.0306 18.7705 36.8548 18.9365C36.7571 19.0342 35.4193 20.0596 33.8861 21.2119L31.1028 23.3115L30.6634 23.0869C29.7943 22.6377 28.5931 22.8232 27.8509 23.5166L27.5286 23.8193L25.4583 23.0381C24.3157 22.5986 23.2708 22.208 23.1243 22.1494C22.8802 22.0615 22.8509 22.0029 22.8509 21.6221C22.8509 21.0752 22.6751 20.6455 22.265 20.1767C21.1712 18.9365 19.14 19.1416 18.2903 20.5771C18.0462 20.9873 18.0169 21.1435 18.0169 21.8564V22.6767L15.4583 24.4248L12.9095 26.1728L12.431 25.8994C11.3958 25.3135 9.88215 25.6748 9.25715 26.6611C8.53449 27.7939 8.69074 29.0342 9.65754 29.9131C11.3275 31.417 13.9837 29.9814 13.72 27.706L13.6614 27.1982L14.3743 26.7197C14.765 26.456 15.9271 25.6748 16.9427 24.9814L18.7982 23.7217L19.2376 23.956C19.4818 24.0928 19.8431 24.2295 20.0482 24.2588C20.6048 24.3564 21.4056 24.1611 21.8841 23.7998C22.1087 23.624 22.3431 23.4482 22.4114 23.3994C22.4896 23.3408 23.3196 23.6045 24.8431 24.1807L27.1478 25.0498V25.4892C27.1575 26.2705 27.7044 27.1201 28.4466 27.501C28.8568 27.7158 29.7845 27.7842 30.3118 27.6377C31.2591 27.374 32.0306 26.3389 32.0306 25.3232C32.0306 25.0498 31.9915 24.7178 31.9427 24.5908C31.8646 24.3857 32.0599 24.2197 34.5013 22.3642C35.9564 21.2607 37.304 20.2451 37.4896 20.0986L37.8411 19.8447L37.8118 20.2158C37.763 20.6553 38.0364 20.9971 38.4271 20.9971C38.6712 20.9971 39.0618 20.6943 39.0618 20.5088C39.0618 20.46 39.1302 19.9521 39.2181 19.376C39.306 18.8096 39.345 18.2432 39.3157 18.1162C39.2474 17.8428 38.9446 17.7256 37.9388 17.5791C37.5091 17.5205 37.0306 17.4521 36.8646 17.4228C36.6888 17.3935 36.4837 17.4326 36.3568 17.5303ZM20.8978 20.7529C21.8939 21.2705 21.7864 22.6377 20.7122 22.96C20.0189 23.165 19.2376 22.5693 19.2376 21.8271C19.2376 21.417 19.5696 20.9189 19.9505 20.7529C20.3509 20.5771 20.556 20.5771 20.8978 20.7529ZM30.3509 24.4541C30.6829 24.7568 30.7122 24.835 30.7122 25.2939C30.7122 25.7529 30.6829 25.831 30.3509 26.1338C29.931 26.5049 29.4915 26.5732 29.0032 26.3193C28.2513 25.9287 28.2318 24.6787 28.9837 24.2783C29.4525 24.0146 29.9407 24.083 30.3509 24.4541ZM11.9427 27.1006C12.2845 27.3252 12.5286 27.8721 12.4505 28.2334C12.2943 28.9463 11.5228 29.4248 10.9173 29.1709C10.1849 28.8584 9.89191 28.165 10.2337 27.5498C10.5853 26.9053 11.347 26.7002 11.9427 27.1006Z" fill="#30A9E0"/>
</svg>
