<svg width="91" height="91" viewBox="0 0 91 91" fill="none" xmlns="http://www.w3.org/2000/svg">
                                <ellipse cx="45.4165" cy="45.8088" rx="45.104" ry="45.1567" fill="#30A9E0"/>
                                <g clip-path="url(#clip0_456_2262)">
                                    <path d="M40.0861 19.4043C39.9398 19.4252 39.2607 19.5194 38.5711 19.6135C35.3634 20.0424 31.6438 21.3186 28.6661 23.0236C27.3705 23.7663 27.1406 24.0592 27.3496 24.6659C27.4854 25.0634 27.6735 25.1576 29.178 25.6597C30.4005 26.0677 30.7766 26.3292 31.1528 27.0719C31.3617 27.4903 31.3304 28.1702 31.0587 29.164C30.7244 30.3879 30.8393 30.8167 32.208 33.5888C32.8663 34.9173 33.3992 36.0052 33.3783 36.0156C33.3574 36.0366 33.1379 36.0993 32.8767 36.1725C31.9468 36.4445 31.1528 37.1768 30.8393 38.0554C30.6512 38.6098 30.6408 39.7605 30.8289 40.294C31.0692 40.953 31.4767 41.3819 33.2424 42.7941L34.9455 44.1644L35.3321 45.2732C35.5411 45.8799 35.9485 46.8632 36.2307 47.4699C36.5128 48.0662 36.7426 48.5683 36.7426 48.5892C36.7426 48.6101 34.9246 48.6311 32.6991 48.652L28.6452 48.6834L28.0183 48.9867C27.2137 49.3842 26.4197 50.1792 26.0226 50.9847C25.7196 51.6123 25.7196 51.6123 25.6883 53.8822L25.6569 56.1522L25.3435 56.2568C23.9539 56.738 21.5612 58.8196 20.6104 60.3678C19.9626 61.4243 19.4193 62.7737 19.179 63.9453C19.0118 64.7403 18.9805 65.3679 18.9805 67.8471C18.9805 70.6714 18.9909 70.8179 19.1894 71.0166C19.3984 71.2258 19.5342 71.2258 44.8923 71.2258C70.2504 71.2258 70.3862 71.2258 70.5952 71.0166C70.7937 70.8179 70.8042 70.6714 70.8042 67.8471C70.8042 65.3679 70.7728 64.7403 70.6056 63.9453C70.1982 61.9473 69.2682 60.2109 67.795 58.6627C66.8756 57.6899 65.4337 56.6334 64.577 56.3091L64.1277 56.1417L64.0963 53.8718C64.065 51.6123 64.065 51.6123 63.762 50.9847C63.3649 50.1792 62.5709 49.3842 61.7664 48.9867L61.1395 48.6834L57.096 48.652C54.86 48.6311 53.042 48.6101 53.042 48.5892C53.042 48.5683 53.2719 48.0662 53.554 47.4699C53.8361 46.8632 54.2436 45.8799 54.4525 45.2628L54.8391 44.1539L56.49 42.8359C58.2662 41.4133 58.611 41.0785 58.9035 40.4195C59.1438 39.886 59.1647 38.704 58.9349 38.0345C58.611 37.0931 57.6497 36.2876 56.6153 36.0993L56.1974 36.0261L57.1377 33.4633C58.3706 30.0845 58.496 29.6138 58.5065 28.1284C58.5169 26.6534 58.308 25.5969 57.7333 24.3835C56.6467 22.0403 54.8914 20.4922 52.3629 19.6449C51.6315 19.3938 51.6106 19.3938 45.9894 19.3834C42.8862 19.3729 40.2324 19.3834 40.0861 19.4043ZM51.527 21.2663C54.6615 22.1554 56.7407 24.8542 56.7303 28.0238C56.7303 29.1221 56.6571 29.4569 56.1034 31.026L55.7168 32.0929L55.5392 31.3921C55.2153 30.1054 54.7869 29.2372 53.5331 27.3438C52.8539 26.3083 52.2166 25.3982 52.1226 25.325C52.0285 25.2622 51.7778 25.1994 51.5583 25.1994C51.224 25.1994 51.0046 25.325 49.9597 26.1723C47.7969 27.9192 46.9611 28.2958 44.8923 28.4631C43.2519 28.5886 42.0295 28.8606 41.0787 29.3104C40.6712 29.5092 38.989 30.5657 37.3382 31.6745C35.6873 32.7729 34.3186 33.6725 34.2873 33.6725C34.1828 33.6725 32.7827 30.7435 32.7096 30.3879C32.6782 30.1682 32.7305 29.7393 32.8767 29.2163C33.4618 27.1556 32.72 25.2936 30.9856 24.4044L30.4318 24.122L31.1528 23.7559C33.3051 22.6784 36.0321 21.8207 38.78 21.3709C40.4204 21.1094 42.322 21.0361 46.773 21.0675C50.2732 21.0884 50.9941 21.1198 51.527 21.2663ZM52.227 28.6305C53.7211 30.9318 53.9615 31.6536 54.0555 34.321L54.1182 36.0784H50.1374C45.4774 36.0784 45.7282 36.0156 45.7282 37.1245V37.7521H44.8923H44.0564V37.1245C44.0564 36.0156 44.3072 36.0784 39.6681 36.0784H35.6978V35.5031V34.9277L38.5502 33.0239C40.107 31.9883 41.6324 31.026 41.9354 30.89C42.7504 30.5238 43.5758 30.346 44.7878 30.2728C47.076 30.1263 48.5806 29.5615 50.3254 28.1807C50.8688 27.7518 51.3389 27.3961 51.3703 27.3961C51.4016 27.3961 51.7778 27.9506 52.227 28.6305ZM34.0678 39.0283C34.0992 39.7396 34.1828 40.5241 34.2246 40.7856C34.2768 41.0472 34.3082 41.2668 34.2977 41.2878C34.2141 41.361 32.6887 40.0325 32.5842 39.7919C32.3125 39.1956 32.511 38.3797 33.023 38.0659C33.2006 37.9508 33.5872 37.8253 33.932 37.7625C33.9634 37.7521 34.0261 38.3274 34.0678 39.0283ZM37.3695 39.3421C37.3695 41.1413 37.474 41.5074 38.1113 42.1141C38.7069 42.679 39.0726 42.7731 40.713 42.7731C42.3534 42.7731 42.7191 42.679 43.3146 42.1141C43.8475 41.612 44.0564 41.0681 44.0564 40.1789V39.4258H44.8923H45.7282V40.158C45.7282 41.0158 45.9058 41.5179 46.3864 42.0304C46.9924 42.6685 47.3686 42.7731 49.0716 42.7731C50.7747 42.7731 51.1509 42.6685 51.7569 42.0304C52.3315 41.4237 52.4151 41.0785 52.4151 39.3212V37.7521H53.1987H53.9824V38.3693C53.9824 40.0743 53.3241 43.2543 52.5718 45.1895C52.3524 45.7335 51.9031 46.7272 51.5479 47.3967L50.921 48.6311H44.8923H38.8636L38.2367 47.3967C37.8815 46.7272 37.4322 45.7335 37.2128 45.1895C36.4605 43.2543 35.8023 40.0743 35.8023 38.3693V37.7521H36.5859H37.3695V39.3421ZM42.3847 38.9446C42.3847 40.3777 42.2698 40.7543 41.7996 40.953C41.3817 41.1308 40.1488 41.1413 39.6681 40.9844C39.1666 40.8066 39.0413 40.3986 39.0413 38.955V37.7521H40.713H42.3847V38.9446ZM50.7434 38.9446C50.7434 40.3777 50.6284 40.7543 50.1583 40.953C49.7403 41.1308 48.5074 41.1413 48.0268 40.9844C47.5253 40.8066 47.3999 40.3986 47.3999 38.955V37.7521H49.0716H50.7434V38.9446ZM56.7094 38.045C57.2631 38.3588 57.5034 39.2479 57.19 39.8233C57.0646 40.0429 55.5496 41.3505 55.4869 41.2878C55.4765 41.2668 55.5078 41.0472 55.5496 40.7856C55.6018 40.5241 55.675 39.7396 55.7168 39.0387L55.7899 37.7625L56.1138 37.8253C56.2914 37.8567 56.5631 37.9613 56.7094 38.045ZM60.9305 50.5767C61.5051 50.8905 61.9126 51.309 62.1738 51.8738C62.3933 52.3341 62.3933 52.4492 62.4246 60.9431L62.4559 69.5521H44.8923H27.3287L27.36 60.9431C27.3914 52.4492 27.3914 52.3341 27.6108 51.8738C27.9869 51.0684 28.6556 50.5453 29.481 50.3989C29.7109 50.357 36.7844 50.3361 45.2058 50.3466L60.5126 50.357L60.9305 50.5767ZM25.6674 63.8511V69.5521H23.1389H20.6209L20.6835 67.2822C20.7358 65.5039 20.7985 64.8031 20.9657 64.1231C21.394 62.3762 22.4807 60.5247 23.7345 59.4473C24.33 58.9242 25.4375 58.1501 25.5838 58.1501C25.6361 58.1501 25.6674 60.713 25.6674 63.8511ZM64.5352 58.3071C65.1725 58.6313 66.4472 59.7611 67.0637 60.5352C67.8368 61.508 68.5264 62.9097 68.819 64.1127C68.9861 64.8031 69.0488 65.5039 69.1011 67.2822L69.1638 69.5521H66.6457H64.1172V63.8511C64.1172 60.713 64.1381 58.1501 64.1695 58.1501C64.2113 58.1501 64.368 58.2234 64.5352 58.3071Z" fill="white"/>
                                    <path d="M37.4428 53.1081C35.092 55.4827 35.092 55.1689 37.4742 57.5643L39.2504 59.3531L39.8982 58.7045L40.5565 58.0455L39.1982 56.6856L37.8399 55.3258L39.1982 53.9659L40.5565 52.606L39.9296 51.9784C39.5848 51.6332 39.2818 51.3508 39.2504 51.3508C39.2191 51.3508 38.4041 52.1458 37.4428 53.1081Z" fill="white"/>
                                    <path d="M49.8554 51.9784L49.2285 52.606L50.5868 53.9659L51.9451 55.3258L50.5868 56.6856L49.2285 58.0455L49.8868 58.7045L50.5346 59.3531L52.3108 57.5643C54.693 55.1689 54.693 55.4827 52.3421 53.1081C51.3809 52.1458 50.5659 51.3508 50.5346 51.3508C50.5032 51.3508 50.2002 51.6332 49.8554 51.9784Z" fill="white"/>
                                    <path d="M44.1609 54.8028C42.7817 56.6439 41.6533 58.1606 41.6533 58.1816C41.6533 58.2339 42.9803 59.1962 43.0534 59.1962C43.1056 59.1962 48.1313 52.5433 48.1313 52.4701C48.1313 52.4178 46.8043 51.4554 46.7312 51.4554C46.6999 51.4554 45.5401 52.9617 44.1609 54.8028Z" fill="white"/>
                                    <path d="M43.5647 60.5666C42.9273 60.8176 42.1855 61.4976 41.8512 62.1357C41.4959 62.8261 41.4541 64.165 41.7571 64.9809C42.5826 67.1672 45.6126 67.7739 47.2947 66.1002C48.5485 64.8345 48.5694 62.6064 47.3574 61.3511C46.647 60.6293 46.1559 60.4201 45.0484 60.3783C44.2856 60.3574 44.0035 60.3887 43.5647 60.5666ZM45.7066 62.3344C47.0649 63.1608 46.4798 65.2634 44.8916 65.2634C44.0035 65.2634 43.3244 64.5834 43.3244 63.6943C43.3244 62.8051 44.0035 62.1252 44.8916 62.1252C45.1737 62.1252 45.4976 62.2089 45.7066 62.3344Z" fill="white"/>
                                </g>
                                <defs>
                                    <clipPath id="clip0_456_2262">
                                        <rect width="53.4954" height="53.558" fill="white" transform="translate(18.1445 18.5047)"/>
                                    </clipPath>
                                </defs>
                            </svg>